G04 (created by PCBNEW (2013-mar-13)-testing) date Thu 12 Dec 2013 10:20:22 PM CET*
%MOIN*%
G04 Gerber Fmt 3.4, Leading zero omitted, Abs format*
%FSLAX34Y34*%
G01*
G70*
G90*
G04 APERTURE LIST*
%ADD10C,0.005906*%
%ADD11C,0.007874*%
%ADD12C,0.012000*%
G04 APERTURE END LIST*
G54D10*
G54D11*
X51000Y-39000D02*
X50750Y-38750D01*
X51000Y-38500D02*
X50750Y-38250D01*
X52250Y-36500D02*
X52250Y-36000D01*
X52250Y-36000D02*
X50750Y-36000D01*
X50750Y-36000D02*
X50750Y-36500D01*
X50750Y-38500D02*
X50750Y-39000D01*
X50750Y-39000D02*
X52250Y-39000D01*
X52250Y-39000D02*
X52250Y-38500D01*
X52250Y-38500D02*
X50750Y-38500D01*
X50750Y-38500D02*
X50750Y-36500D01*
X50750Y-36500D02*
X52250Y-36500D01*
X52250Y-36500D02*
X52250Y-38500D01*
X58500Y-39000D02*
X58250Y-38750D01*
X58500Y-38500D02*
X58250Y-38250D01*
X59750Y-36500D02*
X59750Y-36000D01*
X59750Y-36000D02*
X58250Y-36000D01*
X58250Y-36000D02*
X58250Y-36500D01*
X58250Y-38500D02*
X58250Y-39000D01*
X58250Y-39000D02*
X59750Y-39000D01*
X59750Y-39000D02*
X59750Y-38500D01*
X59750Y-38500D02*
X58250Y-38500D01*
X58250Y-38500D02*
X58250Y-36500D01*
X58250Y-36500D02*
X59750Y-36500D01*
X59750Y-36500D02*
X59750Y-38500D01*
X57000Y-39000D02*
X56750Y-38750D01*
X57000Y-38500D02*
X56750Y-38250D01*
X58250Y-36500D02*
X58250Y-36000D01*
X58250Y-36000D02*
X56750Y-36000D01*
X56750Y-36000D02*
X56750Y-36500D01*
X56750Y-38500D02*
X56750Y-39000D01*
X56750Y-39000D02*
X58250Y-39000D01*
X58250Y-39000D02*
X58250Y-38500D01*
X58250Y-38500D02*
X56750Y-38500D01*
X56750Y-38500D02*
X56750Y-36500D01*
X56750Y-36500D02*
X58250Y-36500D01*
X58250Y-36500D02*
X58250Y-38500D01*
X60000Y-39000D02*
X59750Y-38750D01*
X60000Y-38500D02*
X59750Y-38250D01*
X61250Y-36500D02*
X61250Y-36000D01*
X61250Y-36000D02*
X59750Y-36000D01*
X59750Y-36000D02*
X59750Y-36500D01*
X59750Y-38500D02*
X59750Y-39000D01*
X59750Y-39000D02*
X61250Y-39000D01*
X61250Y-39000D02*
X61250Y-38500D01*
X61250Y-38500D02*
X59750Y-38500D01*
X59750Y-38500D02*
X59750Y-36500D01*
X59750Y-36500D02*
X61250Y-36500D01*
X61250Y-36500D02*
X61250Y-38500D01*
X52500Y-39000D02*
X52250Y-38750D01*
X52500Y-38500D02*
X52250Y-38250D01*
X53750Y-36500D02*
X53750Y-36000D01*
X53750Y-36000D02*
X52250Y-36000D01*
X52250Y-36000D02*
X52250Y-36500D01*
X52250Y-38500D02*
X52250Y-39000D01*
X52250Y-39000D02*
X53750Y-39000D01*
X53750Y-39000D02*
X53750Y-38500D01*
X53750Y-38500D02*
X52250Y-38500D01*
X52250Y-38500D02*
X52250Y-36500D01*
X52250Y-36500D02*
X53750Y-36500D01*
X53750Y-36500D02*
X53750Y-38500D01*
X61500Y-39000D02*
X61250Y-38750D01*
X61500Y-38500D02*
X61250Y-38250D01*
X62750Y-36500D02*
X62750Y-36000D01*
X62750Y-36000D02*
X61250Y-36000D01*
X61250Y-36000D02*
X61250Y-36500D01*
X61250Y-38500D02*
X61250Y-39000D01*
X61250Y-39000D02*
X62750Y-39000D01*
X62750Y-39000D02*
X62750Y-38500D01*
X62750Y-38500D02*
X61250Y-38500D01*
X61250Y-38500D02*
X61250Y-36500D01*
X61250Y-36500D02*
X62750Y-36500D01*
X62750Y-36500D02*
X62750Y-38500D01*
X63000Y-39000D02*
X62750Y-38750D01*
X63000Y-38500D02*
X62750Y-38250D01*
X64250Y-36500D02*
X64250Y-36000D01*
X64250Y-36000D02*
X62750Y-36000D01*
X62750Y-36000D02*
X62750Y-36500D01*
X62750Y-38500D02*
X62750Y-39000D01*
X62750Y-39000D02*
X64250Y-39000D01*
X64250Y-39000D02*
X64250Y-38500D01*
X64250Y-38500D02*
X62750Y-38500D01*
X62750Y-38500D02*
X62750Y-36500D01*
X62750Y-36500D02*
X64250Y-36500D01*
X64250Y-36500D02*
X64250Y-38500D01*
X55500Y-39000D02*
X55250Y-38750D01*
X55500Y-38500D02*
X55250Y-38250D01*
X56750Y-36500D02*
X56750Y-36000D01*
X56750Y-36000D02*
X55250Y-36000D01*
X55250Y-36000D02*
X55250Y-36500D01*
X55250Y-38500D02*
X55250Y-39000D01*
X55250Y-39000D02*
X56750Y-39000D01*
X56750Y-39000D02*
X56750Y-38500D01*
X56750Y-38500D02*
X55250Y-38500D01*
X55250Y-38500D02*
X55250Y-36500D01*
X55250Y-36500D02*
X56750Y-36500D01*
X56750Y-36500D02*
X56750Y-38500D01*
X64500Y-39000D02*
X64250Y-38750D01*
X64500Y-38500D02*
X64250Y-38250D01*
X65750Y-36500D02*
X65750Y-36000D01*
X65750Y-36000D02*
X64250Y-36000D01*
X64250Y-36000D02*
X64250Y-36500D01*
X64250Y-38500D02*
X64250Y-39000D01*
X64250Y-39000D02*
X65750Y-39000D01*
X65750Y-39000D02*
X65750Y-38500D01*
X65750Y-38500D02*
X64250Y-38500D01*
X64250Y-38500D02*
X64250Y-36500D01*
X64250Y-36500D02*
X65750Y-36500D01*
X65750Y-36500D02*
X65750Y-38500D01*
X66000Y-39000D02*
X65750Y-38750D01*
X66000Y-38500D02*
X65750Y-38250D01*
X67250Y-36500D02*
X67250Y-36000D01*
X67250Y-36000D02*
X65750Y-36000D01*
X65750Y-36000D02*
X65750Y-36500D01*
X65750Y-38500D02*
X65750Y-39000D01*
X65750Y-39000D02*
X67250Y-39000D01*
X67250Y-39000D02*
X67250Y-38500D01*
X67250Y-38500D02*
X65750Y-38500D01*
X65750Y-38500D02*
X65750Y-36500D01*
X65750Y-36500D02*
X67250Y-36500D01*
X67250Y-36500D02*
X67250Y-38500D01*
X54000Y-39000D02*
X53750Y-38750D01*
X54000Y-38500D02*
X53750Y-38250D01*
X55250Y-36500D02*
X55250Y-36000D01*
X55250Y-36000D02*
X53750Y-36000D01*
X53750Y-36000D02*
X53750Y-36500D01*
X53750Y-38500D02*
X53750Y-39000D01*
X53750Y-39000D02*
X55250Y-39000D01*
X55250Y-39000D02*
X55250Y-38500D01*
X55250Y-38500D02*
X53750Y-38500D01*
X53750Y-38500D02*
X53750Y-36500D01*
X53750Y-36500D02*
X55250Y-36500D01*
X55250Y-36500D02*
X55250Y-38500D01*
X67500Y-39000D02*
X67250Y-38750D01*
X67500Y-38500D02*
X67250Y-38250D01*
X68750Y-36500D02*
X68750Y-36000D01*
X68750Y-36000D02*
X67250Y-36000D01*
X67250Y-36000D02*
X67250Y-36500D01*
X67250Y-38500D02*
X67250Y-39000D01*
X67250Y-39000D02*
X68750Y-39000D01*
X68750Y-39000D02*
X68750Y-38500D01*
X68750Y-38500D02*
X67250Y-38500D01*
X67250Y-38500D02*
X67250Y-36500D01*
X67250Y-36500D02*
X68750Y-36500D01*
X68750Y-36500D02*
X68750Y-38500D01*
G54D12*
X51042Y-35714D02*
X51042Y-36200D01*
X51071Y-36257D01*
X51100Y-36285D01*
X51157Y-36314D01*
X51271Y-36314D01*
X51328Y-36285D01*
X51357Y-36257D01*
X51385Y-36200D01*
X51385Y-35714D01*
X51642Y-35771D02*
X51671Y-35743D01*
X51728Y-35714D01*
X51871Y-35714D01*
X51928Y-35743D01*
X51957Y-35771D01*
X51985Y-35828D01*
X51985Y-35885D01*
X51957Y-35971D01*
X51614Y-36314D01*
X51985Y-36314D01*
X48557Y-39267D02*
X48557Y-38667D01*
X48785Y-38667D01*
X48842Y-38696D01*
X48871Y-38724D01*
X48900Y-38781D01*
X48900Y-38867D01*
X48871Y-38924D01*
X48842Y-38953D01*
X48785Y-38981D01*
X48557Y-38981D01*
X49500Y-39267D02*
X49300Y-38981D01*
X49157Y-39267D02*
X49157Y-38667D01*
X49385Y-38667D01*
X49442Y-38696D01*
X49471Y-38724D01*
X49500Y-38781D01*
X49500Y-38867D01*
X49471Y-38924D01*
X49442Y-38953D01*
X49385Y-38981D01*
X49157Y-38981D01*
X49871Y-38667D02*
X49985Y-38667D01*
X50042Y-38696D01*
X50100Y-38753D01*
X50128Y-38867D01*
X50128Y-39067D01*
X50100Y-39181D01*
X50042Y-39238D01*
X49985Y-39267D01*
X49871Y-39267D01*
X49814Y-39238D01*
X49757Y-39181D01*
X49728Y-39067D01*
X49728Y-38867D01*
X49757Y-38753D01*
X49814Y-38696D01*
X49871Y-38667D01*
X50300Y-38667D02*
X50642Y-38667D01*
X50471Y-39267D02*
X50471Y-38667D01*
X50957Y-38667D02*
X51071Y-38667D01*
X51128Y-38696D01*
X51185Y-38753D01*
X51214Y-38867D01*
X51214Y-39067D01*
X51185Y-39181D01*
X51128Y-39238D01*
X51071Y-39267D01*
X50957Y-39267D01*
X50900Y-39238D01*
X50842Y-39181D01*
X50814Y-39067D01*
X50814Y-38867D01*
X50842Y-38753D01*
X50900Y-38696D01*
X50957Y-38667D01*
X51328Y-39324D02*
X51785Y-39324D01*
X51900Y-39238D02*
X51985Y-39267D01*
X52128Y-39267D01*
X52185Y-39238D01*
X52214Y-39210D01*
X52242Y-39153D01*
X52242Y-39096D01*
X52214Y-39038D01*
X52185Y-39010D01*
X52128Y-38981D01*
X52014Y-38953D01*
X51957Y-38924D01*
X51928Y-38896D01*
X51900Y-38838D01*
X51900Y-38781D01*
X51928Y-38724D01*
X51957Y-38696D01*
X52014Y-38667D01*
X52157Y-38667D01*
X52242Y-38696D01*
X52614Y-38667D02*
X52728Y-38667D01*
X52785Y-38696D01*
X52842Y-38753D01*
X52871Y-38867D01*
X52871Y-39067D01*
X52842Y-39181D01*
X52785Y-39238D01*
X52728Y-39267D01*
X52614Y-39267D01*
X52557Y-39238D01*
X52500Y-39181D01*
X52471Y-39067D01*
X52471Y-38867D01*
X52500Y-38753D01*
X52557Y-38696D01*
X52614Y-38667D01*
X53042Y-38667D02*
X53385Y-38667D01*
X53214Y-39267D02*
X53214Y-38667D01*
X53557Y-38724D02*
X53585Y-38696D01*
X53642Y-38667D01*
X53785Y-38667D01*
X53842Y-38696D01*
X53871Y-38724D01*
X53900Y-38781D01*
X53900Y-38838D01*
X53871Y-38924D01*
X53528Y-39267D01*
X53900Y-39267D01*
X54100Y-38667D02*
X54471Y-38667D01*
X54271Y-38896D01*
X54357Y-38896D01*
X54414Y-38924D01*
X54442Y-38953D01*
X54471Y-39010D01*
X54471Y-39153D01*
X54442Y-39210D01*
X54414Y-39238D01*
X54357Y-39267D01*
X54185Y-39267D01*
X54128Y-39238D01*
X54100Y-39210D01*
X59757Y-35714D02*
X59757Y-36200D01*
X59785Y-36257D01*
X59814Y-36285D01*
X59871Y-36314D01*
X59985Y-36314D01*
X60042Y-36285D01*
X60071Y-36257D01*
X60100Y-36200D01*
X60100Y-35714D01*
X60700Y-36314D02*
X60357Y-36314D01*
X60528Y-36314D02*
X60528Y-35714D01*
X60471Y-35800D01*
X60414Y-35857D01*
X60357Y-35885D01*
X61214Y-35914D02*
X61214Y-36314D01*
X61071Y-35685D02*
X60928Y-36114D01*
X61300Y-36114D01*
X57557Y-39267D02*
X57557Y-38667D01*
X57785Y-38667D01*
X57842Y-38696D01*
X57871Y-38724D01*
X57900Y-38781D01*
X57900Y-38867D01*
X57871Y-38924D01*
X57842Y-38953D01*
X57785Y-38981D01*
X57557Y-38981D01*
X58500Y-39267D02*
X58300Y-38981D01*
X58157Y-39267D02*
X58157Y-38667D01*
X58385Y-38667D01*
X58442Y-38696D01*
X58471Y-38724D01*
X58500Y-38781D01*
X58500Y-38867D01*
X58471Y-38924D01*
X58442Y-38953D01*
X58385Y-38981D01*
X58157Y-38981D01*
X58871Y-38667D02*
X58985Y-38667D01*
X59042Y-38696D01*
X59100Y-38753D01*
X59128Y-38867D01*
X59128Y-39067D01*
X59100Y-39181D01*
X59042Y-39238D01*
X58985Y-39267D01*
X58871Y-39267D01*
X58814Y-39238D01*
X58757Y-39181D01*
X58728Y-39067D01*
X58728Y-38867D01*
X58757Y-38753D01*
X58814Y-38696D01*
X58871Y-38667D01*
X59300Y-38667D02*
X59642Y-38667D01*
X59471Y-39267D02*
X59471Y-38667D01*
X59957Y-38667D02*
X60071Y-38667D01*
X60128Y-38696D01*
X60185Y-38753D01*
X60214Y-38867D01*
X60214Y-39067D01*
X60185Y-39181D01*
X60128Y-39238D01*
X60071Y-39267D01*
X59957Y-39267D01*
X59900Y-39238D01*
X59842Y-39181D01*
X59814Y-39067D01*
X59814Y-38867D01*
X59842Y-38753D01*
X59900Y-38696D01*
X59957Y-38667D01*
X60328Y-39324D02*
X60785Y-39324D01*
X60900Y-39238D02*
X60985Y-39267D01*
X61128Y-39267D01*
X61185Y-39238D01*
X61214Y-39210D01*
X61242Y-39153D01*
X61242Y-39096D01*
X61214Y-39038D01*
X61185Y-39010D01*
X61128Y-38981D01*
X61014Y-38953D01*
X60957Y-38924D01*
X60928Y-38896D01*
X60900Y-38838D01*
X60900Y-38781D01*
X60928Y-38724D01*
X60957Y-38696D01*
X61014Y-38667D01*
X61157Y-38667D01*
X61242Y-38696D01*
X61614Y-38667D02*
X61728Y-38667D01*
X61785Y-38696D01*
X61842Y-38753D01*
X61871Y-38867D01*
X61871Y-39067D01*
X61842Y-39181D01*
X61785Y-39238D01*
X61728Y-39267D01*
X61614Y-39267D01*
X61557Y-39238D01*
X61500Y-39181D01*
X61471Y-39067D01*
X61471Y-38867D01*
X61500Y-38753D01*
X61557Y-38696D01*
X61614Y-38667D01*
X62042Y-38667D02*
X62385Y-38667D01*
X62214Y-39267D02*
X62214Y-38667D01*
X62557Y-38724D02*
X62585Y-38696D01*
X62642Y-38667D01*
X62785Y-38667D01*
X62842Y-38696D01*
X62871Y-38724D01*
X62900Y-38781D01*
X62900Y-38838D01*
X62871Y-38924D01*
X62528Y-39267D01*
X62900Y-39267D01*
X63100Y-38667D02*
X63471Y-38667D01*
X63271Y-38896D01*
X63357Y-38896D01*
X63414Y-38924D01*
X63442Y-38953D01*
X63471Y-39010D01*
X63471Y-39153D01*
X63442Y-39210D01*
X63414Y-39238D01*
X63357Y-39267D01*
X63185Y-39267D01*
X63128Y-39238D01*
X63100Y-39210D01*
X67257Y-35714D02*
X67257Y-36200D01*
X67285Y-36257D01*
X67314Y-36285D01*
X67371Y-36314D01*
X67485Y-36314D01*
X67542Y-36285D01*
X67571Y-36257D01*
X67600Y-36200D01*
X67600Y-35714D01*
X67857Y-35771D02*
X67885Y-35743D01*
X67942Y-35714D01*
X68085Y-35714D01*
X68142Y-35743D01*
X68171Y-35771D01*
X68200Y-35828D01*
X68200Y-35885D01*
X68171Y-35971D01*
X67828Y-36314D01*
X68200Y-36314D01*
X68714Y-35914D02*
X68714Y-36314D01*
X68571Y-35685D02*
X68428Y-36114D01*
X68800Y-36114D01*
X65057Y-39267D02*
X65057Y-38667D01*
X65285Y-38667D01*
X65342Y-38696D01*
X65371Y-38724D01*
X65400Y-38781D01*
X65400Y-38867D01*
X65371Y-38924D01*
X65342Y-38953D01*
X65285Y-38981D01*
X65057Y-38981D01*
X66000Y-39267D02*
X65800Y-38981D01*
X65657Y-39267D02*
X65657Y-38667D01*
X65885Y-38667D01*
X65942Y-38696D01*
X65971Y-38724D01*
X66000Y-38781D01*
X66000Y-38867D01*
X65971Y-38924D01*
X65942Y-38953D01*
X65885Y-38981D01*
X65657Y-38981D01*
X66371Y-38667D02*
X66485Y-38667D01*
X66542Y-38696D01*
X66600Y-38753D01*
X66628Y-38867D01*
X66628Y-39067D01*
X66600Y-39181D01*
X66542Y-39238D01*
X66485Y-39267D01*
X66371Y-39267D01*
X66314Y-39238D01*
X66257Y-39181D01*
X66228Y-39067D01*
X66228Y-38867D01*
X66257Y-38753D01*
X66314Y-38696D01*
X66371Y-38667D01*
X66800Y-38667D02*
X67142Y-38667D01*
X66971Y-39267D02*
X66971Y-38667D01*
X67457Y-38667D02*
X67571Y-38667D01*
X67628Y-38696D01*
X67685Y-38753D01*
X67714Y-38867D01*
X67714Y-39067D01*
X67685Y-39181D01*
X67628Y-39238D01*
X67571Y-39267D01*
X67457Y-39267D01*
X67400Y-39238D01*
X67342Y-39181D01*
X67314Y-39067D01*
X67314Y-38867D01*
X67342Y-38753D01*
X67400Y-38696D01*
X67457Y-38667D01*
X67828Y-39324D02*
X68285Y-39324D01*
X68400Y-39238D02*
X68485Y-39267D01*
X68628Y-39267D01*
X68685Y-39238D01*
X68714Y-39210D01*
X68742Y-39153D01*
X68742Y-39096D01*
X68714Y-39038D01*
X68685Y-39010D01*
X68628Y-38981D01*
X68514Y-38953D01*
X68457Y-38924D01*
X68428Y-38896D01*
X68400Y-38838D01*
X68400Y-38781D01*
X68428Y-38724D01*
X68457Y-38696D01*
X68514Y-38667D01*
X68657Y-38667D01*
X68742Y-38696D01*
X69114Y-38667D02*
X69228Y-38667D01*
X69285Y-38696D01*
X69342Y-38753D01*
X69371Y-38867D01*
X69371Y-39067D01*
X69342Y-39181D01*
X69285Y-39238D01*
X69228Y-39267D01*
X69114Y-39267D01*
X69057Y-39238D01*
X69000Y-39181D01*
X68971Y-39067D01*
X68971Y-38867D01*
X69000Y-38753D01*
X69057Y-38696D01*
X69114Y-38667D01*
X69542Y-38667D02*
X69885Y-38667D01*
X69714Y-39267D02*
X69714Y-38667D01*
X70057Y-38724D02*
X70085Y-38696D01*
X70142Y-38667D01*
X70285Y-38667D01*
X70342Y-38696D01*
X70371Y-38724D01*
X70400Y-38781D01*
X70400Y-38838D01*
X70371Y-38924D01*
X70028Y-39267D01*
X70400Y-39267D01*
X70600Y-38667D02*
X70971Y-38667D01*
X70771Y-38896D01*
X70857Y-38896D01*
X70914Y-38924D01*
X70942Y-38953D01*
X70971Y-39010D01*
X70971Y-39153D01*
X70942Y-39210D01*
X70914Y-39238D01*
X70857Y-39267D01*
X70685Y-39267D01*
X70628Y-39238D01*
X70600Y-39210D01*
X65757Y-35714D02*
X65757Y-36200D01*
X65785Y-36257D01*
X65814Y-36285D01*
X65871Y-36314D01*
X65985Y-36314D01*
X66042Y-36285D01*
X66071Y-36257D01*
X66100Y-36200D01*
X66100Y-35714D01*
X66357Y-35771D02*
X66385Y-35743D01*
X66442Y-35714D01*
X66585Y-35714D01*
X66642Y-35743D01*
X66671Y-35771D01*
X66700Y-35828D01*
X66700Y-35885D01*
X66671Y-35971D01*
X66328Y-36314D01*
X66700Y-36314D01*
X66928Y-35771D02*
X66957Y-35743D01*
X67014Y-35714D01*
X67157Y-35714D01*
X67214Y-35743D01*
X67242Y-35771D01*
X67271Y-35828D01*
X67271Y-35885D01*
X67242Y-35971D01*
X66900Y-36314D01*
X67271Y-36314D01*
X63557Y-39267D02*
X63557Y-38667D01*
X63785Y-38667D01*
X63842Y-38696D01*
X63871Y-38724D01*
X63900Y-38781D01*
X63900Y-38867D01*
X63871Y-38924D01*
X63842Y-38953D01*
X63785Y-38981D01*
X63557Y-38981D01*
X64500Y-39267D02*
X64300Y-38981D01*
X64157Y-39267D02*
X64157Y-38667D01*
X64385Y-38667D01*
X64442Y-38696D01*
X64471Y-38724D01*
X64500Y-38781D01*
X64500Y-38867D01*
X64471Y-38924D01*
X64442Y-38953D01*
X64385Y-38981D01*
X64157Y-38981D01*
X64871Y-38667D02*
X64985Y-38667D01*
X65042Y-38696D01*
X65100Y-38753D01*
X65128Y-38867D01*
X65128Y-39067D01*
X65100Y-39181D01*
X65042Y-39238D01*
X64985Y-39267D01*
X64871Y-39267D01*
X64814Y-39238D01*
X64757Y-39181D01*
X64728Y-39067D01*
X64728Y-38867D01*
X64757Y-38753D01*
X64814Y-38696D01*
X64871Y-38667D01*
X65300Y-38667D02*
X65642Y-38667D01*
X65471Y-39267D02*
X65471Y-38667D01*
X65957Y-38667D02*
X66071Y-38667D01*
X66128Y-38696D01*
X66185Y-38753D01*
X66214Y-38867D01*
X66214Y-39067D01*
X66185Y-39181D01*
X66128Y-39238D01*
X66071Y-39267D01*
X65957Y-39267D01*
X65900Y-39238D01*
X65842Y-39181D01*
X65814Y-39067D01*
X65814Y-38867D01*
X65842Y-38753D01*
X65900Y-38696D01*
X65957Y-38667D01*
X66328Y-39324D02*
X66785Y-39324D01*
X66900Y-39238D02*
X66985Y-39267D01*
X67128Y-39267D01*
X67185Y-39238D01*
X67214Y-39210D01*
X67242Y-39153D01*
X67242Y-39096D01*
X67214Y-39038D01*
X67185Y-39010D01*
X67128Y-38981D01*
X67014Y-38953D01*
X66957Y-38924D01*
X66928Y-38896D01*
X66900Y-38838D01*
X66900Y-38781D01*
X66928Y-38724D01*
X66957Y-38696D01*
X67014Y-38667D01*
X67157Y-38667D01*
X67242Y-38696D01*
X67614Y-38667D02*
X67728Y-38667D01*
X67785Y-38696D01*
X67842Y-38753D01*
X67871Y-38867D01*
X67871Y-39067D01*
X67842Y-39181D01*
X67785Y-39238D01*
X67728Y-39267D01*
X67614Y-39267D01*
X67557Y-39238D01*
X67500Y-39181D01*
X67471Y-39067D01*
X67471Y-38867D01*
X67500Y-38753D01*
X67557Y-38696D01*
X67614Y-38667D01*
X68042Y-38667D02*
X68385Y-38667D01*
X68214Y-39267D02*
X68214Y-38667D01*
X68557Y-38724D02*
X68585Y-38696D01*
X68642Y-38667D01*
X68785Y-38667D01*
X68842Y-38696D01*
X68871Y-38724D01*
X68900Y-38781D01*
X68900Y-38838D01*
X68871Y-38924D01*
X68528Y-39267D01*
X68900Y-39267D01*
X69100Y-38667D02*
X69471Y-38667D01*
X69271Y-38896D01*
X69357Y-38896D01*
X69414Y-38924D01*
X69442Y-38953D01*
X69471Y-39010D01*
X69471Y-39153D01*
X69442Y-39210D01*
X69414Y-39238D01*
X69357Y-39267D01*
X69185Y-39267D01*
X69128Y-39238D01*
X69100Y-39210D01*
X64257Y-35714D02*
X64257Y-36200D01*
X64285Y-36257D01*
X64314Y-36285D01*
X64371Y-36314D01*
X64485Y-36314D01*
X64542Y-36285D01*
X64571Y-36257D01*
X64600Y-36200D01*
X64600Y-35714D01*
X64857Y-35771D02*
X64885Y-35743D01*
X64942Y-35714D01*
X65085Y-35714D01*
X65142Y-35743D01*
X65171Y-35771D01*
X65200Y-35828D01*
X65200Y-35885D01*
X65171Y-35971D01*
X64828Y-36314D01*
X65200Y-36314D01*
X65571Y-35714D02*
X65628Y-35714D01*
X65685Y-35743D01*
X65714Y-35771D01*
X65742Y-35828D01*
X65771Y-35943D01*
X65771Y-36085D01*
X65742Y-36200D01*
X65714Y-36257D01*
X65685Y-36285D01*
X65628Y-36314D01*
X65571Y-36314D01*
X65514Y-36285D01*
X65485Y-36257D01*
X65457Y-36200D01*
X65428Y-36085D01*
X65428Y-35943D01*
X65457Y-35828D01*
X65485Y-35771D01*
X65514Y-35743D01*
X65571Y-35714D01*
X62057Y-39267D02*
X62057Y-38667D01*
X62285Y-38667D01*
X62342Y-38696D01*
X62371Y-38724D01*
X62400Y-38781D01*
X62400Y-38867D01*
X62371Y-38924D01*
X62342Y-38953D01*
X62285Y-38981D01*
X62057Y-38981D01*
X63000Y-39267D02*
X62800Y-38981D01*
X62657Y-39267D02*
X62657Y-38667D01*
X62885Y-38667D01*
X62942Y-38696D01*
X62971Y-38724D01*
X63000Y-38781D01*
X63000Y-38867D01*
X62971Y-38924D01*
X62942Y-38953D01*
X62885Y-38981D01*
X62657Y-38981D01*
X63371Y-38667D02*
X63485Y-38667D01*
X63542Y-38696D01*
X63600Y-38753D01*
X63628Y-38867D01*
X63628Y-39067D01*
X63600Y-39181D01*
X63542Y-39238D01*
X63485Y-39267D01*
X63371Y-39267D01*
X63314Y-39238D01*
X63257Y-39181D01*
X63228Y-39067D01*
X63228Y-38867D01*
X63257Y-38753D01*
X63314Y-38696D01*
X63371Y-38667D01*
X63800Y-38667D02*
X64142Y-38667D01*
X63971Y-39267D02*
X63971Y-38667D01*
X64457Y-38667D02*
X64571Y-38667D01*
X64628Y-38696D01*
X64685Y-38753D01*
X64714Y-38867D01*
X64714Y-39067D01*
X64685Y-39181D01*
X64628Y-39238D01*
X64571Y-39267D01*
X64457Y-39267D01*
X64400Y-39238D01*
X64342Y-39181D01*
X64314Y-39067D01*
X64314Y-38867D01*
X64342Y-38753D01*
X64400Y-38696D01*
X64457Y-38667D01*
X64828Y-39324D02*
X65285Y-39324D01*
X65400Y-39238D02*
X65485Y-39267D01*
X65628Y-39267D01*
X65685Y-39238D01*
X65714Y-39210D01*
X65742Y-39153D01*
X65742Y-39096D01*
X65714Y-39038D01*
X65685Y-39010D01*
X65628Y-38981D01*
X65514Y-38953D01*
X65457Y-38924D01*
X65428Y-38896D01*
X65400Y-38838D01*
X65400Y-38781D01*
X65428Y-38724D01*
X65457Y-38696D01*
X65514Y-38667D01*
X65657Y-38667D01*
X65742Y-38696D01*
X66114Y-38667D02*
X66228Y-38667D01*
X66285Y-38696D01*
X66342Y-38753D01*
X66371Y-38867D01*
X66371Y-39067D01*
X66342Y-39181D01*
X66285Y-39238D01*
X66228Y-39267D01*
X66114Y-39267D01*
X66057Y-39238D01*
X66000Y-39181D01*
X65971Y-39067D01*
X65971Y-38867D01*
X66000Y-38753D01*
X66057Y-38696D01*
X66114Y-38667D01*
X66542Y-38667D02*
X66885Y-38667D01*
X66714Y-39267D02*
X66714Y-38667D01*
X67057Y-38724D02*
X67085Y-38696D01*
X67142Y-38667D01*
X67285Y-38667D01*
X67342Y-38696D01*
X67371Y-38724D01*
X67400Y-38781D01*
X67400Y-38838D01*
X67371Y-38924D01*
X67028Y-39267D01*
X67400Y-39267D01*
X67600Y-38667D02*
X67971Y-38667D01*
X67771Y-38896D01*
X67857Y-38896D01*
X67914Y-38924D01*
X67942Y-38953D01*
X67971Y-39010D01*
X67971Y-39153D01*
X67942Y-39210D01*
X67914Y-39238D01*
X67857Y-39267D01*
X67685Y-39267D01*
X67628Y-39238D01*
X67600Y-39210D01*
X62757Y-35714D02*
X62757Y-36200D01*
X62785Y-36257D01*
X62814Y-36285D01*
X62871Y-36314D01*
X62985Y-36314D01*
X63042Y-36285D01*
X63071Y-36257D01*
X63100Y-36200D01*
X63100Y-35714D01*
X63700Y-36314D02*
X63357Y-36314D01*
X63528Y-36314D02*
X63528Y-35714D01*
X63471Y-35800D01*
X63414Y-35857D01*
X63357Y-35885D01*
X64042Y-35971D02*
X63985Y-35943D01*
X63957Y-35914D01*
X63928Y-35857D01*
X63928Y-35828D01*
X63957Y-35771D01*
X63985Y-35743D01*
X64042Y-35714D01*
X64157Y-35714D01*
X64214Y-35743D01*
X64242Y-35771D01*
X64271Y-35828D01*
X64271Y-35857D01*
X64242Y-35914D01*
X64214Y-35943D01*
X64157Y-35971D01*
X64042Y-35971D01*
X63985Y-36000D01*
X63957Y-36028D01*
X63928Y-36085D01*
X63928Y-36200D01*
X63957Y-36257D01*
X63985Y-36285D01*
X64042Y-36314D01*
X64157Y-36314D01*
X64214Y-36285D01*
X64242Y-36257D01*
X64271Y-36200D01*
X64271Y-36085D01*
X64242Y-36028D01*
X64214Y-36000D01*
X64157Y-35971D01*
X60557Y-39267D02*
X60557Y-38667D01*
X60785Y-38667D01*
X60842Y-38696D01*
X60871Y-38724D01*
X60900Y-38781D01*
X60900Y-38867D01*
X60871Y-38924D01*
X60842Y-38953D01*
X60785Y-38981D01*
X60557Y-38981D01*
X61500Y-39267D02*
X61300Y-38981D01*
X61157Y-39267D02*
X61157Y-38667D01*
X61385Y-38667D01*
X61442Y-38696D01*
X61471Y-38724D01*
X61500Y-38781D01*
X61500Y-38867D01*
X61471Y-38924D01*
X61442Y-38953D01*
X61385Y-38981D01*
X61157Y-38981D01*
X61871Y-38667D02*
X61985Y-38667D01*
X62042Y-38696D01*
X62100Y-38753D01*
X62128Y-38867D01*
X62128Y-39067D01*
X62100Y-39181D01*
X62042Y-39238D01*
X61985Y-39267D01*
X61871Y-39267D01*
X61814Y-39238D01*
X61757Y-39181D01*
X61728Y-39067D01*
X61728Y-38867D01*
X61757Y-38753D01*
X61814Y-38696D01*
X61871Y-38667D01*
X62300Y-38667D02*
X62642Y-38667D01*
X62471Y-39267D02*
X62471Y-38667D01*
X62957Y-38667D02*
X63071Y-38667D01*
X63128Y-38696D01*
X63185Y-38753D01*
X63214Y-38867D01*
X63214Y-39067D01*
X63185Y-39181D01*
X63128Y-39238D01*
X63071Y-39267D01*
X62957Y-39267D01*
X62900Y-39238D01*
X62842Y-39181D01*
X62814Y-39067D01*
X62814Y-38867D01*
X62842Y-38753D01*
X62900Y-38696D01*
X62957Y-38667D01*
X63328Y-39324D02*
X63785Y-39324D01*
X63900Y-39238D02*
X63985Y-39267D01*
X64128Y-39267D01*
X64185Y-39238D01*
X64214Y-39210D01*
X64242Y-39153D01*
X64242Y-39096D01*
X64214Y-39038D01*
X64185Y-39010D01*
X64128Y-38981D01*
X64014Y-38953D01*
X63957Y-38924D01*
X63928Y-38896D01*
X63900Y-38838D01*
X63900Y-38781D01*
X63928Y-38724D01*
X63957Y-38696D01*
X64014Y-38667D01*
X64157Y-38667D01*
X64242Y-38696D01*
X64614Y-38667D02*
X64728Y-38667D01*
X64785Y-38696D01*
X64842Y-38753D01*
X64871Y-38867D01*
X64871Y-39067D01*
X64842Y-39181D01*
X64785Y-39238D01*
X64728Y-39267D01*
X64614Y-39267D01*
X64557Y-39238D01*
X64500Y-39181D01*
X64471Y-39067D01*
X64471Y-38867D01*
X64500Y-38753D01*
X64557Y-38696D01*
X64614Y-38667D01*
X65042Y-38667D02*
X65385Y-38667D01*
X65214Y-39267D02*
X65214Y-38667D01*
X65557Y-38724D02*
X65585Y-38696D01*
X65642Y-38667D01*
X65785Y-38667D01*
X65842Y-38696D01*
X65871Y-38724D01*
X65900Y-38781D01*
X65900Y-38838D01*
X65871Y-38924D01*
X65528Y-39267D01*
X65900Y-39267D01*
X66100Y-38667D02*
X66471Y-38667D01*
X66271Y-38896D01*
X66357Y-38896D01*
X66414Y-38924D01*
X66442Y-38953D01*
X66471Y-39010D01*
X66471Y-39153D01*
X66442Y-39210D01*
X66414Y-39238D01*
X66357Y-39267D01*
X66185Y-39267D01*
X66128Y-39238D01*
X66100Y-39210D01*
X61257Y-35714D02*
X61257Y-36200D01*
X61285Y-36257D01*
X61314Y-36285D01*
X61371Y-36314D01*
X61485Y-36314D01*
X61542Y-36285D01*
X61571Y-36257D01*
X61600Y-36200D01*
X61600Y-35714D01*
X62200Y-36314D02*
X61857Y-36314D01*
X62028Y-36314D02*
X62028Y-35714D01*
X61971Y-35800D01*
X61914Y-35857D01*
X61857Y-35885D01*
X62714Y-35714D02*
X62600Y-35714D01*
X62542Y-35743D01*
X62514Y-35771D01*
X62457Y-35857D01*
X62428Y-35971D01*
X62428Y-36200D01*
X62457Y-36257D01*
X62485Y-36285D01*
X62542Y-36314D01*
X62657Y-36314D01*
X62714Y-36285D01*
X62742Y-36257D01*
X62771Y-36200D01*
X62771Y-36057D01*
X62742Y-36000D01*
X62714Y-35971D01*
X62657Y-35943D01*
X62542Y-35943D01*
X62485Y-35971D01*
X62457Y-36000D01*
X62428Y-36057D01*
X59057Y-39267D02*
X59057Y-38667D01*
X59285Y-38667D01*
X59342Y-38696D01*
X59371Y-38724D01*
X59400Y-38781D01*
X59400Y-38867D01*
X59371Y-38924D01*
X59342Y-38953D01*
X59285Y-38981D01*
X59057Y-38981D01*
X60000Y-39267D02*
X59800Y-38981D01*
X59657Y-39267D02*
X59657Y-38667D01*
X59885Y-38667D01*
X59942Y-38696D01*
X59971Y-38724D01*
X60000Y-38781D01*
X60000Y-38867D01*
X59971Y-38924D01*
X59942Y-38953D01*
X59885Y-38981D01*
X59657Y-38981D01*
X60371Y-38667D02*
X60485Y-38667D01*
X60542Y-38696D01*
X60600Y-38753D01*
X60628Y-38867D01*
X60628Y-39067D01*
X60600Y-39181D01*
X60542Y-39238D01*
X60485Y-39267D01*
X60371Y-39267D01*
X60314Y-39238D01*
X60257Y-39181D01*
X60228Y-39067D01*
X60228Y-38867D01*
X60257Y-38753D01*
X60314Y-38696D01*
X60371Y-38667D01*
X60800Y-38667D02*
X61142Y-38667D01*
X60971Y-39267D02*
X60971Y-38667D01*
X61457Y-38667D02*
X61571Y-38667D01*
X61628Y-38696D01*
X61685Y-38753D01*
X61714Y-38867D01*
X61714Y-39067D01*
X61685Y-39181D01*
X61628Y-39238D01*
X61571Y-39267D01*
X61457Y-39267D01*
X61400Y-39238D01*
X61342Y-39181D01*
X61314Y-39067D01*
X61314Y-38867D01*
X61342Y-38753D01*
X61400Y-38696D01*
X61457Y-38667D01*
X61828Y-39324D02*
X62285Y-39324D01*
X62400Y-39238D02*
X62485Y-39267D01*
X62628Y-39267D01*
X62685Y-39238D01*
X62714Y-39210D01*
X62742Y-39153D01*
X62742Y-39096D01*
X62714Y-39038D01*
X62685Y-39010D01*
X62628Y-38981D01*
X62514Y-38953D01*
X62457Y-38924D01*
X62428Y-38896D01*
X62400Y-38838D01*
X62400Y-38781D01*
X62428Y-38724D01*
X62457Y-38696D01*
X62514Y-38667D01*
X62657Y-38667D01*
X62742Y-38696D01*
X63114Y-38667D02*
X63228Y-38667D01*
X63285Y-38696D01*
X63342Y-38753D01*
X63371Y-38867D01*
X63371Y-39067D01*
X63342Y-39181D01*
X63285Y-39238D01*
X63228Y-39267D01*
X63114Y-39267D01*
X63057Y-39238D01*
X63000Y-39181D01*
X62971Y-39067D01*
X62971Y-38867D01*
X63000Y-38753D01*
X63057Y-38696D01*
X63114Y-38667D01*
X63542Y-38667D02*
X63885Y-38667D01*
X63714Y-39267D02*
X63714Y-38667D01*
X64057Y-38724D02*
X64085Y-38696D01*
X64142Y-38667D01*
X64285Y-38667D01*
X64342Y-38696D01*
X64371Y-38724D01*
X64400Y-38781D01*
X64400Y-38838D01*
X64371Y-38924D01*
X64028Y-39267D01*
X64400Y-39267D01*
X64600Y-38667D02*
X64971Y-38667D01*
X64771Y-38896D01*
X64857Y-38896D01*
X64914Y-38924D01*
X64942Y-38953D01*
X64971Y-39010D01*
X64971Y-39153D01*
X64942Y-39210D01*
X64914Y-39238D01*
X64857Y-39267D01*
X64685Y-39267D01*
X64628Y-39238D01*
X64600Y-39210D01*
X58257Y-35714D02*
X58257Y-36200D01*
X58285Y-36257D01*
X58314Y-36285D01*
X58371Y-36314D01*
X58485Y-36314D01*
X58542Y-36285D01*
X58571Y-36257D01*
X58600Y-36200D01*
X58600Y-35714D01*
X59200Y-36314D02*
X58857Y-36314D01*
X59028Y-36314D02*
X59028Y-35714D01*
X58971Y-35800D01*
X58914Y-35857D01*
X58857Y-35885D01*
X59428Y-35771D02*
X59457Y-35743D01*
X59514Y-35714D01*
X59657Y-35714D01*
X59714Y-35743D01*
X59742Y-35771D01*
X59771Y-35828D01*
X59771Y-35885D01*
X59742Y-35971D01*
X59400Y-36314D01*
X59771Y-36314D01*
X56057Y-39267D02*
X56057Y-38667D01*
X56285Y-38667D01*
X56342Y-38696D01*
X56371Y-38724D01*
X56400Y-38781D01*
X56400Y-38867D01*
X56371Y-38924D01*
X56342Y-38953D01*
X56285Y-38981D01*
X56057Y-38981D01*
X57000Y-39267D02*
X56800Y-38981D01*
X56657Y-39267D02*
X56657Y-38667D01*
X56885Y-38667D01*
X56942Y-38696D01*
X56971Y-38724D01*
X57000Y-38781D01*
X57000Y-38867D01*
X56971Y-38924D01*
X56942Y-38953D01*
X56885Y-38981D01*
X56657Y-38981D01*
X57371Y-38667D02*
X57485Y-38667D01*
X57542Y-38696D01*
X57600Y-38753D01*
X57628Y-38867D01*
X57628Y-39067D01*
X57600Y-39181D01*
X57542Y-39238D01*
X57485Y-39267D01*
X57371Y-39267D01*
X57314Y-39238D01*
X57257Y-39181D01*
X57228Y-39067D01*
X57228Y-38867D01*
X57257Y-38753D01*
X57314Y-38696D01*
X57371Y-38667D01*
X57800Y-38667D02*
X58142Y-38667D01*
X57971Y-39267D02*
X57971Y-38667D01*
X58457Y-38667D02*
X58571Y-38667D01*
X58628Y-38696D01*
X58685Y-38753D01*
X58714Y-38867D01*
X58714Y-39067D01*
X58685Y-39181D01*
X58628Y-39238D01*
X58571Y-39267D01*
X58457Y-39267D01*
X58400Y-39238D01*
X58342Y-39181D01*
X58314Y-39067D01*
X58314Y-38867D01*
X58342Y-38753D01*
X58400Y-38696D01*
X58457Y-38667D01*
X58828Y-39324D02*
X59285Y-39324D01*
X59400Y-39238D02*
X59485Y-39267D01*
X59628Y-39267D01*
X59685Y-39238D01*
X59714Y-39210D01*
X59742Y-39153D01*
X59742Y-39096D01*
X59714Y-39038D01*
X59685Y-39010D01*
X59628Y-38981D01*
X59514Y-38953D01*
X59457Y-38924D01*
X59428Y-38896D01*
X59400Y-38838D01*
X59400Y-38781D01*
X59428Y-38724D01*
X59457Y-38696D01*
X59514Y-38667D01*
X59657Y-38667D01*
X59742Y-38696D01*
X60114Y-38667D02*
X60228Y-38667D01*
X60285Y-38696D01*
X60342Y-38753D01*
X60371Y-38867D01*
X60371Y-39067D01*
X60342Y-39181D01*
X60285Y-39238D01*
X60228Y-39267D01*
X60114Y-39267D01*
X60057Y-39238D01*
X60000Y-39181D01*
X59971Y-39067D01*
X59971Y-38867D01*
X60000Y-38753D01*
X60057Y-38696D01*
X60114Y-38667D01*
X60542Y-38667D02*
X60885Y-38667D01*
X60714Y-39267D02*
X60714Y-38667D01*
X61057Y-38724D02*
X61085Y-38696D01*
X61142Y-38667D01*
X61285Y-38667D01*
X61342Y-38696D01*
X61371Y-38724D01*
X61400Y-38781D01*
X61400Y-38838D01*
X61371Y-38924D01*
X61028Y-39267D01*
X61400Y-39267D01*
X61600Y-38667D02*
X61971Y-38667D01*
X61771Y-38896D01*
X61857Y-38896D01*
X61914Y-38924D01*
X61942Y-38953D01*
X61971Y-39010D01*
X61971Y-39153D01*
X61942Y-39210D01*
X61914Y-39238D01*
X61857Y-39267D01*
X61685Y-39267D01*
X61628Y-39238D01*
X61600Y-39210D01*
X56757Y-35714D02*
X56757Y-36200D01*
X56785Y-36257D01*
X56814Y-36285D01*
X56871Y-36314D01*
X56985Y-36314D01*
X57042Y-36285D01*
X57071Y-36257D01*
X57100Y-36200D01*
X57100Y-35714D01*
X57700Y-36314D02*
X57357Y-36314D01*
X57528Y-36314D02*
X57528Y-35714D01*
X57471Y-35800D01*
X57414Y-35857D01*
X57357Y-35885D01*
X58071Y-35714D02*
X58128Y-35714D01*
X58185Y-35743D01*
X58214Y-35771D01*
X58242Y-35828D01*
X58271Y-35943D01*
X58271Y-36085D01*
X58242Y-36200D01*
X58214Y-36257D01*
X58185Y-36285D01*
X58128Y-36314D01*
X58071Y-36314D01*
X58014Y-36285D01*
X57985Y-36257D01*
X57957Y-36200D01*
X57928Y-36085D01*
X57928Y-35943D01*
X57957Y-35828D01*
X57985Y-35771D01*
X58014Y-35743D01*
X58071Y-35714D01*
X54557Y-39267D02*
X54557Y-38667D01*
X54785Y-38667D01*
X54842Y-38696D01*
X54871Y-38724D01*
X54900Y-38781D01*
X54900Y-38867D01*
X54871Y-38924D01*
X54842Y-38953D01*
X54785Y-38981D01*
X54557Y-38981D01*
X55500Y-39267D02*
X55300Y-38981D01*
X55157Y-39267D02*
X55157Y-38667D01*
X55385Y-38667D01*
X55442Y-38696D01*
X55471Y-38724D01*
X55500Y-38781D01*
X55500Y-38867D01*
X55471Y-38924D01*
X55442Y-38953D01*
X55385Y-38981D01*
X55157Y-38981D01*
X55871Y-38667D02*
X55985Y-38667D01*
X56042Y-38696D01*
X56100Y-38753D01*
X56128Y-38867D01*
X56128Y-39067D01*
X56100Y-39181D01*
X56042Y-39238D01*
X55985Y-39267D01*
X55871Y-39267D01*
X55814Y-39238D01*
X55757Y-39181D01*
X55728Y-39067D01*
X55728Y-38867D01*
X55757Y-38753D01*
X55814Y-38696D01*
X55871Y-38667D01*
X56300Y-38667D02*
X56642Y-38667D01*
X56471Y-39267D02*
X56471Y-38667D01*
X56957Y-38667D02*
X57071Y-38667D01*
X57128Y-38696D01*
X57185Y-38753D01*
X57214Y-38867D01*
X57214Y-39067D01*
X57185Y-39181D01*
X57128Y-39238D01*
X57071Y-39267D01*
X56957Y-39267D01*
X56900Y-39238D01*
X56842Y-39181D01*
X56814Y-39067D01*
X56814Y-38867D01*
X56842Y-38753D01*
X56900Y-38696D01*
X56957Y-38667D01*
X57328Y-39324D02*
X57785Y-39324D01*
X57900Y-39238D02*
X57985Y-39267D01*
X58128Y-39267D01*
X58185Y-39238D01*
X58214Y-39210D01*
X58242Y-39153D01*
X58242Y-39096D01*
X58214Y-39038D01*
X58185Y-39010D01*
X58128Y-38981D01*
X58014Y-38953D01*
X57957Y-38924D01*
X57928Y-38896D01*
X57900Y-38838D01*
X57900Y-38781D01*
X57928Y-38724D01*
X57957Y-38696D01*
X58014Y-38667D01*
X58157Y-38667D01*
X58242Y-38696D01*
X58614Y-38667D02*
X58728Y-38667D01*
X58785Y-38696D01*
X58842Y-38753D01*
X58871Y-38867D01*
X58871Y-39067D01*
X58842Y-39181D01*
X58785Y-39238D01*
X58728Y-39267D01*
X58614Y-39267D01*
X58557Y-39238D01*
X58500Y-39181D01*
X58471Y-39067D01*
X58471Y-38867D01*
X58500Y-38753D01*
X58557Y-38696D01*
X58614Y-38667D01*
X59042Y-38667D02*
X59385Y-38667D01*
X59214Y-39267D02*
X59214Y-38667D01*
X59557Y-38724D02*
X59585Y-38696D01*
X59642Y-38667D01*
X59785Y-38667D01*
X59842Y-38696D01*
X59871Y-38724D01*
X59900Y-38781D01*
X59900Y-38838D01*
X59871Y-38924D01*
X59528Y-39267D01*
X59900Y-39267D01*
X60100Y-38667D02*
X60471Y-38667D01*
X60271Y-38896D01*
X60357Y-38896D01*
X60414Y-38924D01*
X60442Y-38953D01*
X60471Y-39010D01*
X60471Y-39153D01*
X60442Y-39210D01*
X60414Y-39238D01*
X60357Y-39267D01*
X60185Y-39267D01*
X60128Y-39238D01*
X60100Y-39210D01*
X55542Y-35714D02*
X55542Y-36200D01*
X55571Y-36257D01*
X55600Y-36285D01*
X55657Y-36314D01*
X55771Y-36314D01*
X55828Y-36285D01*
X55857Y-36257D01*
X55885Y-36200D01*
X55885Y-35714D01*
X56257Y-35971D02*
X56200Y-35943D01*
X56171Y-35914D01*
X56142Y-35857D01*
X56142Y-35828D01*
X56171Y-35771D01*
X56200Y-35743D01*
X56257Y-35714D01*
X56371Y-35714D01*
X56428Y-35743D01*
X56457Y-35771D01*
X56485Y-35828D01*
X56485Y-35857D01*
X56457Y-35914D01*
X56428Y-35943D01*
X56371Y-35971D01*
X56257Y-35971D01*
X56200Y-36000D01*
X56171Y-36028D01*
X56142Y-36085D01*
X56142Y-36200D01*
X56171Y-36257D01*
X56200Y-36285D01*
X56257Y-36314D01*
X56371Y-36314D01*
X56428Y-36285D01*
X56457Y-36257D01*
X56485Y-36200D01*
X56485Y-36085D01*
X56457Y-36028D01*
X56428Y-36000D01*
X56371Y-35971D01*
X53057Y-39267D02*
X53057Y-38667D01*
X53285Y-38667D01*
X53342Y-38696D01*
X53371Y-38724D01*
X53400Y-38781D01*
X53400Y-38867D01*
X53371Y-38924D01*
X53342Y-38953D01*
X53285Y-38981D01*
X53057Y-38981D01*
X54000Y-39267D02*
X53800Y-38981D01*
X53657Y-39267D02*
X53657Y-38667D01*
X53885Y-38667D01*
X53942Y-38696D01*
X53971Y-38724D01*
X54000Y-38781D01*
X54000Y-38867D01*
X53971Y-38924D01*
X53942Y-38953D01*
X53885Y-38981D01*
X53657Y-38981D01*
X54371Y-38667D02*
X54485Y-38667D01*
X54542Y-38696D01*
X54600Y-38753D01*
X54628Y-38867D01*
X54628Y-39067D01*
X54600Y-39181D01*
X54542Y-39238D01*
X54485Y-39267D01*
X54371Y-39267D01*
X54314Y-39238D01*
X54257Y-39181D01*
X54228Y-39067D01*
X54228Y-38867D01*
X54257Y-38753D01*
X54314Y-38696D01*
X54371Y-38667D01*
X54800Y-38667D02*
X55142Y-38667D01*
X54971Y-39267D02*
X54971Y-38667D01*
X55457Y-38667D02*
X55571Y-38667D01*
X55628Y-38696D01*
X55685Y-38753D01*
X55714Y-38867D01*
X55714Y-39067D01*
X55685Y-39181D01*
X55628Y-39238D01*
X55571Y-39267D01*
X55457Y-39267D01*
X55400Y-39238D01*
X55342Y-39181D01*
X55314Y-39067D01*
X55314Y-38867D01*
X55342Y-38753D01*
X55400Y-38696D01*
X55457Y-38667D01*
X55828Y-39324D02*
X56285Y-39324D01*
X56400Y-39238D02*
X56485Y-39267D01*
X56628Y-39267D01*
X56685Y-39238D01*
X56714Y-39210D01*
X56742Y-39153D01*
X56742Y-39096D01*
X56714Y-39038D01*
X56685Y-39010D01*
X56628Y-38981D01*
X56514Y-38953D01*
X56457Y-38924D01*
X56428Y-38896D01*
X56400Y-38838D01*
X56400Y-38781D01*
X56428Y-38724D01*
X56457Y-38696D01*
X56514Y-38667D01*
X56657Y-38667D01*
X56742Y-38696D01*
X57114Y-38667D02*
X57228Y-38667D01*
X57285Y-38696D01*
X57342Y-38753D01*
X57371Y-38867D01*
X57371Y-39067D01*
X57342Y-39181D01*
X57285Y-39238D01*
X57228Y-39267D01*
X57114Y-39267D01*
X57057Y-39238D01*
X57000Y-39181D01*
X56971Y-39067D01*
X56971Y-38867D01*
X57000Y-38753D01*
X57057Y-38696D01*
X57114Y-38667D01*
X57542Y-38667D02*
X57885Y-38667D01*
X57714Y-39267D02*
X57714Y-38667D01*
X58057Y-38724D02*
X58085Y-38696D01*
X58142Y-38667D01*
X58285Y-38667D01*
X58342Y-38696D01*
X58371Y-38724D01*
X58400Y-38781D01*
X58400Y-38838D01*
X58371Y-38924D01*
X58028Y-39267D01*
X58400Y-39267D01*
X58600Y-38667D02*
X58971Y-38667D01*
X58771Y-38896D01*
X58857Y-38896D01*
X58914Y-38924D01*
X58942Y-38953D01*
X58971Y-39010D01*
X58971Y-39153D01*
X58942Y-39210D01*
X58914Y-39238D01*
X58857Y-39267D01*
X58685Y-39267D01*
X58628Y-39238D01*
X58600Y-39210D01*
X54042Y-35714D02*
X54042Y-36200D01*
X54071Y-36257D01*
X54100Y-36285D01*
X54157Y-36314D01*
X54271Y-36314D01*
X54328Y-36285D01*
X54357Y-36257D01*
X54385Y-36200D01*
X54385Y-35714D01*
X54928Y-35714D02*
X54814Y-35714D01*
X54757Y-35743D01*
X54728Y-35771D01*
X54671Y-35857D01*
X54642Y-35971D01*
X54642Y-36200D01*
X54671Y-36257D01*
X54700Y-36285D01*
X54757Y-36314D01*
X54871Y-36314D01*
X54928Y-36285D01*
X54957Y-36257D01*
X54985Y-36200D01*
X54985Y-36057D01*
X54957Y-36000D01*
X54928Y-35971D01*
X54871Y-35943D01*
X54757Y-35943D01*
X54700Y-35971D01*
X54671Y-36000D01*
X54642Y-36057D01*
X51557Y-39267D02*
X51557Y-38667D01*
X51785Y-38667D01*
X51842Y-38696D01*
X51871Y-38724D01*
X51900Y-38781D01*
X51900Y-38867D01*
X51871Y-38924D01*
X51842Y-38953D01*
X51785Y-38981D01*
X51557Y-38981D01*
X52500Y-39267D02*
X52300Y-38981D01*
X52157Y-39267D02*
X52157Y-38667D01*
X52385Y-38667D01*
X52442Y-38696D01*
X52471Y-38724D01*
X52500Y-38781D01*
X52500Y-38867D01*
X52471Y-38924D01*
X52442Y-38953D01*
X52385Y-38981D01*
X52157Y-38981D01*
X52871Y-38667D02*
X52985Y-38667D01*
X53042Y-38696D01*
X53100Y-38753D01*
X53128Y-38867D01*
X53128Y-39067D01*
X53100Y-39181D01*
X53042Y-39238D01*
X52985Y-39267D01*
X52871Y-39267D01*
X52814Y-39238D01*
X52757Y-39181D01*
X52728Y-39067D01*
X52728Y-38867D01*
X52757Y-38753D01*
X52814Y-38696D01*
X52871Y-38667D01*
X53300Y-38667D02*
X53642Y-38667D01*
X53471Y-39267D02*
X53471Y-38667D01*
X53957Y-38667D02*
X54071Y-38667D01*
X54128Y-38696D01*
X54185Y-38753D01*
X54214Y-38867D01*
X54214Y-39067D01*
X54185Y-39181D01*
X54128Y-39238D01*
X54071Y-39267D01*
X53957Y-39267D01*
X53900Y-39238D01*
X53842Y-39181D01*
X53814Y-39067D01*
X53814Y-38867D01*
X53842Y-38753D01*
X53900Y-38696D01*
X53957Y-38667D01*
X54328Y-39324D02*
X54785Y-39324D01*
X54900Y-39238D02*
X54985Y-39267D01*
X55128Y-39267D01*
X55185Y-39238D01*
X55214Y-39210D01*
X55242Y-39153D01*
X55242Y-39096D01*
X55214Y-39038D01*
X55185Y-39010D01*
X55128Y-38981D01*
X55014Y-38953D01*
X54957Y-38924D01*
X54928Y-38896D01*
X54900Y-38838D01*
X54900Y-38781D01*
X54928Y-38724D01*
X54957Y-38696D01*
X55014Y-38667D01*
X55157Y-38667D01*
X55242Y-38696D01*
X55614Y-38667D02*
X55728Y-38667D01*
X55785Y-38696D01*
X55842Y-38753D01*
X55871Y-38867D01*
X55871Y-39067D01*
X55842Y-39181D01*
X55785Y-39238D01*
X55728Y-39267D01*
X55614Y-39267D01*
X55557Y-39238D01*
X55500Y-39181D01*
X55471Y-39067D01*
X55471Y-38867D01*
X55500Y-38753D01*
X55557Y-38696D01*
X55614Y-38667D01*
X56042Y-38667D02*
X56385Y-38667D01*
X56214Y-39267D02*
X56214Y-38667D01*
X56557Y-38724D02*
X56585Y-38696D01*
X56642Y-38667D01*
X56785Y-38667D01*
X56842Y-38696D01*
X56871Y-38724D01*
X56900Y-38781D01*
X56900Y-38838D01*
X56871Y-38924D01*
X56528Y-39267D01*
X56900Y-39267D01*
X57100Y-38667D02*
X57471Y-38667D01*
X57271Y-38896D01*
X57357Y-38896D01*
X57414Y-38924D01*
X57442Y-38953D01*
X57471Y-39010D01*
X57471Y-39153D01*
X57442Y-39210D01*
X57414Y-39238D01*
X57357Y-39267D01*
X57185Y-39267D01*
X57128Y-39238D01*
X57100Y-39210D01*
X52542Y-35714D02*
X52542Y-36200D01*
X52571Y-36257D01*
X52600Y-36285D01*
X52657Y-36314D01*
X52771Y-36314D01*
X52828Y-36285D01*
X52857Y-36257D01*
X52885Y-36200D01*
X52885Y-35714D01*
X53428Y-35914D02*
X53428Y-36314D01*
X53285Y-35685D02*
X53142Y-36114D01*
X53514Y-36114D01*
X50057Y-39267D02*
X50057Y-38667D01*
X50285Y-38667D01*
X50342Y-38696D01*
X50371Y-38724D01*
X50400Y-38781D01*
X50400Y-38867D01*
X50371Y-38924D01*
X50342Y-38953D01*
X50285Y-38981D01*
X50057Y-38981D01*
X51000Y-39267D02*
X50800Y-38981D01*
X50657Y-39267D02*
X50657Y-38667D01*
X50885Y-38667D01*
X50942Y-38696D01*
X50971Y-38724D01*
X51000Y-38781D01*
X51000Y-38867D01*
X50971Y-38924D01*
X50942Y-38953D01*
X50885Y-38981D01*
X50657Y-38981D01*
X51371Y-38667D02*
X51485Y-38667D01*
X51542Y-38696D01*
X51600Y-38753D01*
X51628Y-38867D01*
X51628Y-39067D01*
X51600Y-39181D01*
X51542Y-39238D01*
X51485Y-39267D01*
X51371Y-39267D01*
X51314Y-39238D01*
X51257Y-39181D01*
X51228Y-39067D01*
X51228Y-38867D01*
X51257Y-38753D01*
X51314Y-38696D01*
X51371Y-38667D01*
X51800Y-38667D02*
X52142Y-38667D01*
X51971Y-39267D02*
X51971Y-38667D01*
X52457Y-38667D02*
X52571Y-38667D01*
X52628Y-38696D01*
X52685Y-38753D01*
X52714Y-38867D01*
X52714Y-39067D01*
X52685Y-39181D01*
X52628Y-39238D01*
X52571Y-39267D01*
X52457Y-39267D01*
X52400Y-39238D01*
X52342Y-39181D01*
X52314Y-39067D01*
X52314Y-38867D01*
X52342Y-38753D01*
X52400Y-38696D01*
X52457Y-38667D01*
X52828Y-39324D02*
X53285Y-39324D01*
X53400Y-39238D02*
X53485Y-39267D01*
X53628Y-39267D01*
X53685Y-39238D01*
X53714Y-39210D01*
X53742Y-39153D01*
X53742Y-39096D01*
X53714Y-39038D01*
X53685Y-39010D01*
X53628Y-38981D01*
X53514Y-38953D01*
X53457Y-38924D01*
X53428Y-38896D01*
X53400Y-38838D01*
X53400Y-38781D01*
X53428Y-38724D01*
X53457Y-38696D01*
X53514Y-38667D01*
X53657Y-38667D01*
X53742Y-38696D01*
X54114Y-38667D02*
X54228Y-38667D01*
X54285Y-38696D01*
X54342Y-38753D01*
X54371Y-38867D01*
X54371Y-39067D01*
X54342Y-39181D01*
X54285Y-39238D01*
X54228Y-39267D01*
X54114Y-39267D01*
X54057Y-39238D01*
X54000Y-39181D01*
X53971Y-39067D01*
X53971Y-38867D01*
X54000Y-38753D01*
X54057Y-38696D01*
X54114Y-38667D01*
X54542Y-38667D02*
X54885Y-38667D01*
X54714Y-39267D02*
X54714Y-38667D01*
X55057Y-38724D02*
X55085Y-38696D01*
X55142Y-38667D01*
X55285Y-38667D01*
X55342Y-38696D01*
X55371Y-38724D01*
X55400Y-38781D01*
X55400Y-38838D01*
X55371Y-38924D01*
X55028Y-39267D01*
X55400Y-39267D01*
X55600Y-38667D02*
X55971Y-38667D01*
X55771Y-38896D01*
X55857Y-38896D01*
X55914Y-38924D01*
X55942Y-38953D01*
X55971Y-39010D01*
X55971Y-39153D01*
X55942Y-39210D01*
X55914Y-39238D01*
X55857Y-39267D01*
X55685Y-39267D01*
X55628Y-39238D01*
X55600Y-39210D01*
X52271Y-29271D02*
X52271Y-28671D01*
X52500Y-28671D01*
X52557Y-28700D01*
X52585Y-28728D01*
X52614Y-28785D01*
X52614Y-28871D01*
X52585Y-28928D01*
X52557Y-28957D01*
X52500Y-28985D01*
X52271Y-28985D01*
X52814Y-28671D02*
X53185Y-28671D01*
X52985Y-28900D01*
X53071Y-28900D01*
X53128Y-28928D01*
X53157Y-28957D01*
X53185Y-29014D01*
X53185Y-29157D01*
X53157Y-29214D01*
X53128Y-29242D01*
X53071Y-29271D01*
X52900Y-29271D01*
X52842Y-29242D01*
X52814Y-29214D01*
X53414Y-28728D02*
X53442Y-28700D01*
X53500Y-28671D01*
X53642Y-28671D01*
X53700Y-28700D01*
X53728Y-28728D01*
X53757Y-28785D01*
X53757Y-28842D01*
X53728Y-28928D01*
X53385Y-29271D01*
X53757Y-29271D01*
X52285Y-27271D02*
X52285Y-26671D01*
X52514Y-26671D01*
X52571Y-26700D01*
X52600Y-26728D01*
X52628Y-26785D01*
X52628Y-26871D01*
X52600Y-26928D01*
X52571Y-26957D01*
X52514Y-26985D01*
X52285Y-26985D01*
X52857Y-27100D02*
X53142Y-27100D01*
X52800Y-27271D02*
X53000Y-26671D01*
X53200Y-27271D01*
X53400Y-27271D02*
X53400Y-26671D01*
X53542Y-26671D01*
X53628Y-26700D01*
X53685Y-26757D01*
X53714Y-26814D01*
X53742Y-26928D01*
X53742Y-27014D01*
X53714Y-27128D01*
X53685Y-27185D01*
X53628Y-27242D01*
X53542Y-27271D01*
X53400Y-27271D01*
X53271Y-29271D02*
X53271Y-28671D01*
X53500Y-28671D01*
X53557Y-28700D01*
X53585Y-28728D01*
X53614Y-28785D01*
X53614Y-28871D01*
X53585Y-28928D01*
X53557Y-28957D01*
X53500Y-28985D01*
X53271Y-28985D01*
X53814Y-28671D02*
X54185Y-28671D01*
X53985Y-28900D01*
X54071Y-28900D01*
X54128Y-28928D01*
X54157Y-28957D01*
X54185Y-29014D01*
X54185Y-29157D01*
X54157Y-29214D01*
X54128Y-29242D01*
X54071Y-29271D01*
X53900Y-29271D01*
X53842Y-29242D01*
X53814Y-29214D01*
X54757Y-29271D02*
X54414Y-29271D01*
X54585Y-29271D02*
X54585Y-28671D01*
X54528Y-28757D01*
X54471Y-28814D01*
X54414Y-28842D01*
X53285Y-27271D02*
X53285Y-26671D01*
X53514Y-26671D01*
X53571Y-26700D01*
X53600Y-26728D01*
X53628Y-26785D01*
X53628Y-26871D01*
X53600Y-26928D01*
X53571Y-26957D01*
X53514Y-26985D01*
X53285Y-26985D01*
X53857Y-27100D02*
X54142Y-27100D01*
X53800Y-27271D02*
X54000Y-26671D01*
X54200Y-27271D01*
X54400Y-27271D02*
X54400Y-26671D01*
X54542Y-26671D01*
X54628Y-26700D01*
X54685Y-26757D01*
X54714Y-26814D01*
X54742Y-26928D01*
X54742Y-27014D01*
X54714Y-27128D01*
X54685Y-27185D01*
X54628Y-27242D01*
X54542Y-27271D01*
X54400Y-27271D01*
X54271Y-29271D02*
X54271Y-28671D01*
X54500Y-28671D01*
X54557Y-28700D01*
X54585Y-28728D01*
X54614Y-28785D01*
X54614Y-28871D01*
X54585Y-28928D01*
X54557Y-28957D01*
X54500Y-28985D01*
X54271Y-28985D01*
X54814Y-28671D02*
X55185Y-28671D01*
X54985Y-28900D01*
X55071Y-28900D01*
X55128Y-28928D01*
X55157Y-28957D01*
X55185Y-29014D01*
X55185Y-29157D01*
X55157Y-29214D01*
X55128Y-29242D01*
X55071Y-29271D01*
X54900Y-29271D01*
X54842Y-29242D01*
X54814Y-29214D01*
X55557Y-28671D02*
X55614Y-28671D01*
X55671Y-28700D01*
X55700Y-28728D01*
X55728Y-28785D01*
X55757Y-28900D01*
X55757Y-29042D01*
X55728Y-29157D01*
X55700Y-29214D01*
X55671Y-29242D01*
X55614Y-29271D01*
X55557Y-29271D01*
X55500Y-29242D01*
X55471Y-29214D01*
X55442Y-29157D01*
X55414Y-29042D01*
X55414Y-28900D01*
X55442Y-28785D01*
X55471Y-28728D01*
X55500Y-28700D01*
X55557Y-28671D01*
X54285Y-27271D02*
X54285Y-26671D01*
X54514Y-26671D01*
X54571Y-26700D01*
X54600Y-26728D01*
X54628Y-26785D01*
X54628Y-26871D01*
X54600Y-26928D01*
X54571Y-26957D01*
X54514Y-26985D01*
X54285Y-26985D01*
X54857Y-27100D02*
X55142Y-27100D01*
X54800Y-27271D02*
X55000Y-26671D01*
X55200Y-27271D01*
X55400Y-27271D02*
X55400Y-26671D01*
X55542Y-26671D01*
X55628Y-26700D01*
X55685Y-26757D01*
X55714Y-26814D01*
X55742Y-26928D01*
X55742Y-27014D01*
X55714Y-27128D01*
X55685Y-27185D01*
X55628Y-27242D01*
X55542Y-27271D01*
X55400Y-27271D01*
X55271Y-29271D02*
X55271Y-28671D01*
X55500Y-28671D01*
X55557Y-28700D01*
X55585Y-28728D01*
X55614Y-28785D01*
X55614Y-28871D01*
X55585Y-28928D01*
X55557Y-28957D01*
X55500Y-28985D01*
X55271Y-28985D01*
X55842Y-28728D02*
X55871Y-28700D01*
X55928Y-28671D01*
X56071Y-28671D01*
X56128Y-28700D01*
X56157Y-28728D01*
X56185Y-28785D01*
X56185Y-28842D01*
X56157Y-28928D01*
X55814Y-29271D01*
X56185Y-29271D01*
X56471Y-29271D02*
X56585Y-29271D01*
X56642Y-29242D01*
X56671Y-29214D01*
X56728Y-29128D01*
X56757Y-29014D01*
X56757Y-28785D01*
X56728Y-28728D01*
X56700Y-28700D01*
X56642Y-28671D01*
X56528Y-28671D01*
X56471Y-28700D01*
X56442Y-28728D01*
X56414Y-28785D01*
X56414Y-28928D01*
X56442Y-28985D01*
X56471Y-29014D01*
X56528Y-29042D01*
X56642Y-29042D01*
X56700Y-29014D01*
X56728Y-28985D01*
X56757Y-28928D01*
X55285Y-27271D02*
X55285Y-26671D01*
X55514Y-26671D01*
X55571Y-26700D01*
X55600Y-26728D01*
X55628Y-26785D01*
X55628Y-26871D01*
X55600Y-26928D01*
X55571Y-26957D01*
X55514Y-26985D01*
X55285Y-26985D01*
X55857Y-27100D02*
X56142Y-27100D01*
X55800Y-27271D02*
X56000Y-26671D01*
X56200Y-27271D01*
X56400Y-27271D02*
X56400Y-26671D01*
X56542Y-26671D01*
X56628Y-26700D01*
X56685Y-26757D01*
X56714Y-26814D01*
X56742Y-26928D01*
X56742Y-27014D01*
X56714Y-27128D01*
X56685Y-27185D01*
X56628Y-27242D01*
X56542Y-27271D01*
X56400Y-27271D01*
X56271Y-29271D02*
X56271Y-28671D01*
X56500Y-28671D01*
X56557Y-28700D01*
X56585Y-28728D01*
X56614Y-28785D01*
X56614Y-28871D01*
X56585Y-28928D01*
X56557Y-28957D01*
X56500Y-28985D01*
X56271Y-28985D01*
X56842Y-28728D02*
X56871Y-28700D01*
X56928Y-28671D01*
X57071Y-28671D01*
X57128Y-28700D01*
X57157Y-28728D01*
X57185Y-28785D01*
X57185Y-28842D01*
X57157Y-28928D01*
X56814Y-29271D01*
X57185Y-29271D01*
X57528Y-28928D02*
X57471Y-28900D01*
X57442Y-28871D01*
X57414Y-28814D01*
X57414Y-28785D01*
X57442Y-28728D01*
X57471Y-28700D01*
X57528Y-28671D01*
X57642Y-28671D01*
X57700Y-28700D01*
X57728Y-28728D01*
X57757Y-28785D01*
X57757Y-28814D01*
X57728Y-28871D01*
X57700Y-28900D01*
X57642Y-28928D01*
X57528Y-28928D01*
X57471Y-28957D01*
X57442Y-28985D01*
X57414Y-29042D01*
X57414Y-29157D01*
X57442Y-29214D01*
X57471Y-29242D01*
X57528Y-29271D01*
X57642Y-29271D01*
X57700Y-29242D01*
X57728Y-29214D01*
X57757Y-29157D01*
X57757Y-29042D01*
X57728Y-28985D01*
X57700Y-28957D01*
X57642Y-28928D01*
X56285Y-27271D02*
X56285Y-26671D01*
X56514Y-26671D01*
X56571Y-26700D01*
X56600Y-26728D01*
X56628Y-26785D01*
X56628Y-26871D01*
X56600Y-26928D01*
X56571Y-26957D01*
X56514Y-26985D01*
X56285Y-26985D01*
X56857Y-27100D02*
X57142Y-27100D01*
X56800Y-27271D02*
X57000Y-26671D01*
X57200Y-27271D01*
X57400Y-27271D02*
X57400Y-26671D01*
X57542Y-26671D01*
X57628Y-26700D01*
X57685Y-26757D01*
X57714Y-26814D01*
X57742Y-26928D01*
X57742Y-27014D01*
X57714Y-27128D01*
X57685Y-27185D01*
X57628Y-27242D01*
X57542Y-27271D01*
X57400Y-27271D01*
X57271Y-29271D02*
X57271Y-28671D01*
X57500Y-28671D01*
X57557Y-28700D01*
X57585Y-28728D01*
X57614Y-28785D01*
X57614Y-28871D01*
X57585Y-28928D01*
X57557Y-28957D01*
X57500Y-28985D01*
X57271Y-28985D01*
X57842Y-28728D02*
X57871Y-28700D01*
X57928Y-28671D01*
X58071Y-28671D01*
X58128Y-28700D01*
X58157Y-28728D01*
X58185Y-28785D01*
X58185Y-28842D01*
X58157Y-28928D01*
X57814Y-29271D01*
X58185Y-29271D01*
X58385Y-28671D02*
X58785Y-28671D01*
X58528Y-29271D01*
X57285Y-27271D02*
X57285Y-26671D01*
X57514Y-26671D01*
X57571Y-26700D01*
X57600Y-26728D01*
X57628Y-26785D01*
X57628Y-26871D01*
X57600Y-26928D01*
X57571Y-26957D01*
X57514Y-26985D01*
X57285Y-26985D01*
X57857Y-27100D02*
X58142Y-27100D01*
X57800Y-27271D02*
X58000Y-26671D01*
X58200Y-27271D01*
X58400Y-27271D02*
X58400Y-26671D01*
X58542Y-26671D01*
X58628Y-26700D01*
X58685Y-26757D01*
X58714Y-26814D01*
X58742Y-26928D01*
X58742Y-27014D01*
X58714Y-27128D01*
X58685Y-27185D01*
X58628Y-27242D01*
X58542Y-27271D01*
X58400Y-27271D01*
X58271Y-29271D02*
X58271Y-28671D01*
X58500Y-28671D01*
X58557Y-28700D01*
X58585Y-28728D01*
X58614Y-28785D01*
X58614Y-28871D01*
X58585Y-28928D01*
X58557Y-28957D01*
X58500Y-28985D01*
X58271Y-28985D01*
X58842Y-28728D02*
X58871Y-28700D01*
X58928Y-28671D01*
X59071Y-28671D01*
X59128Y-28700D01*
X59157Y-28728D01*
X59185Y-28785D01*
X59185Y-28842D01*
X59157Y-28928D01*
X58814Y-29271D01*
X59185Y-29271D01*
X59700Y-28671D02*
X59585Y-28671D01*
X59528Y-28700D01*
X59500Y-28728D01*
X59442Y-28814D01*
X59414Y-28928D01*
X59414Y-29157D01*
X59442Y-29214D01*
X59471Y-29242D01*
X59528Y-29271D01*
X59642Y-29271D01*
X59700Y-29242D01*
X59728Y-29214D01*
X59757Y-29157D01*
X59757Y-29014D01*
X59728Y-28957D01*
X59700Y-28928D01*
X59642Y-28900D01*
X59528Y-28900D01*
X59471Y-28928D01*
X59442Y-28957D01*
X59414Y-29014D01*
X58285Y-27271D02*
X58285Y-26671D01*
X58514Y-26671D01*
X58571Y-26700D01*
X58600Y-26728D01*
X58628Y-26785D01*
X58628Y-26871D01*
X58600Y-26928D01*
X58571Y-26957D01*
X58514Y-26985D01*
X58285Y-26985D01*
X58857Y-27100D02*
X59142Y-27100D01*
X58800Y-27271D02*
X59000Y-26671D01*
X59200Y-27271D01*
X59400Y-27271D02*
X59400Y-26671D01*
X59542Y-26671D01*
X59628Y-26700D01*
X59685Y-26757D01*
X59714Y-26814D01*
X59742Y-26928D01*
X59742Y-27014D01*
X59714Y-27128D01*
X59685Y-27185D01*
X59628Y-27242D01*
X59542Y-27271D01*
X59400Y-27271D01*
X59271Y-29271D02*
X59271Y-28671D01*
X59500Y-28671D01*
X59557Y-28700D01*
X59585Y-28728D01*
X59614Y-28785D01*
X59614Y-28871D01*
X59585Y-28928D01*
X59557Y-28957D01*
X59500Y-28985D01*
X59271Y-28985D01*
X59842Y-28728D02*
X59871Y-28700D01*
X59928Y-28671D01*
X60071Y-28671D01*
X60128Y-28700D01*
X60157Y-28728D01*
X60185Y-28785D01*
X60185Y-28842D01*
X60157Y-28928D01*
X59814Y-29271D01*
X60185Y-29271D01*
X60728Y-28671D02*
X60442Y-28671D01*
X60414Y-28957D01*
X60442Y-28928D01*
X60500Y-28900D01*
X60642Y-28900D01*
X60700Y-28928D01*
X60728Y-28957D01*
X60757Y-29014D01*
X60757Y-29157D01*
X60728Y-29214D01*
X60700Y-29242D01*
X60642Y-29271D01*
X60500Y-29271D01*
X60442Y-29242D01*
X60414Y-29214D01*
X59285Y-27271D02*
X59285Y-26671D01*
X59514Y-26671D01*
X59571Y-26700D01*
X59600Y-26728D01*
X59628Y-26785D01*
X59628Y-26871D01*
X59600Y-26928D01*
X59571Y-26957D01*
X59514Y-26985D01*
X59285Y-26985D01*
X59857Y-27100D02*
X60142Y-27100D01*
X59800Y-27271D02*
X60000Y-26671D01*
X60200Y-27271D01*
X60400Y-27271D02*
X60400Y-26671D01*
X60542Y-26671D01*
X60628Y-26700D01*
X60685Y-26757D01*
X60714Y-26814D01*
X60742Y-26928D01*
X60742Y-27014D01*
X60714Y-27128D01*
X60685Y-27185D01*
X60628Y-27242D01*
X60542Y-27271D01*
X60400Y-27271D01*
X60271Y-29271D02*
X60271Y-28671D01*
X60500Y-28671D01*
X60557Y-28700D01*
X60585Y-28728D01*
X60614Y-28785D01*
X60614Y-28871D01*
X60585Y-28928D01*
X60557Y-28957D01*
X60500Y-28985D01*
X60271Y-28985D01*
X60842Y-28728D02*
X60871Y-28700D01*
X60928Y-28671D01*
X61071Y-28671D01*
X61128Y-28700D01*
X61157Y-28728D01*
X61185Y-28785D01*
X61185Y-28842D01*
X61157Y-28928D01*
X60814Y-29271D01*
X61185Y-29271D01*
X61700Y-28871D02*
X61700Y-29271D01*
X61557Y-28642D02*
X61414Y-29071D01*
X61785Y-29071D01*
X60285Y-27271D02*
X60285Y-26671D01*
X60514Y-26671D01*
X60571Y-26700D01*
X60600Y-26728D01*
X60628Y-26785D01*
X60628Y-26871D01*
X60600Y-26928D01*
X60571Y-26957D01*
X60514Y-26985D01*
X60285Y-26985D01*
X60857Y-27100D02*
X61142Y-27100D01*
X60800Y-27271D02*
X61000Y-26671D01*
X61200Y-27271D01*
X61400Y-27271D02*
X61400Y-26671D01*
X61542Y-26671D01*
X61628Y-26700D01*
X61685Y-26757D01*
X61714Y-26814D01*
X61742Y-26928D01*
X61742Y-27014D01*
X61714Y-27128D01*
X61685Y-27185D01*
X61628Y-27242D01*
X61542Y-27271D01*
X61400Y-27271D01*
X61271Y-29271D02*
X61271Y-28671D01*
X61500Y-28671D01*
X61557Y-28700D01*
X61585Y-28728D01*
X61614Y-28785D01*
X61614Y-28871D01*
X61585Y-28928D01*
X61557Y-28957D01*
X61500Y-28985D01*
X61271Y-28985D01*
X61842Y-28728D02*
X61871Y-28700D01*
X61928Y-28671D01*
X62071Y-28671D01*
X62128Y-28700D01*
X62157Y-28728D01*
X62185Y-28785D01*
X62185Y-28842D01*
X62157Y-28928D01*
X61814Y-29271D01*
X62185Y-29271D01*
X62385Y-28671D02*
X62757Y-28671D01*
X62557Y-28900D01*
X62642Y-28900D01*
X62700Y-28928D01*
X62728Y-28957D01*
X62757Y-29014D01*
X62757Y-29157D01*
X62728Y-29214D01*
X62700Y-29242D01*
X62642Y-29271D01*
X62471Y-29271D01*
X62414Y-29242D01*
X62385Y-29214D01*
X61285Y-27271D02*
X61285Y-26671D01*
X61514Y-26671D01*
X61571Y-26700D01*
X61600Y-26728D01*
X61628Y-26785D01*
X61628Y-26871D01*
X61600Y-26928D01*
X61571Y-26957D01*
X61514Y-26985D01*
X61285Y-26985D01*
X61857Y-27100D02*
X62142Y-27100D01*
X61800Y-27271D02*
X62000Y-26671D01*
X62200Y-27271D01*
X62400Y-27271D02*
X62400Y-26671D01*
X62542Y-26671D01*
X62628Y-26700D01*
X62685Y-26757D01*
X62714Y-26814D01*
X62742Y-26928D01*
X62742Y-27014D01*
X62714Y-27128D01*
X62685Y-27185D01*
X62628Y-27242D01*
X62542Y-27271D01*
X62400Y-27271D01*
X62271Y-29271D02*
X62271Y-28671D01*
X62500Y-28671D01*
X62557Y-28700D01*
X62585Y-28728D01*
X62614Y-28785D01*
X62614Y-28871D01*
X62585Y-28928D01*
X62557Y-28957D01*
X62500Y-28985D01*
X62271Y-28985D01*
X62842Y-28728D02*
X62871Y-28700D01*
X62928Y-28671D01*
X63071Y-28671D01*
X63128Y-28700D01*
X63157Y-28728D01*
X63185Y-28785D01*
X63185Y-28842D01*
X63157Y-28928D01*
X62814Y-29271D01*
X63185Y-29271D01*
X63414Y-28728D02*
X63442Y-28700D01*
X63500Y-28671D01*
X63642Y-28671D01*
X63700Y-28700D01*
X63728Y-28728D01*
X63757Y-28785D01*
X63757Y-28842D01*
X63728Y-28928D01*
X63385Y-29271D01*
X63757Y-29271D01*
X62285Y-27271D02*
X62285Y-26671D01*
X62514Y-26671D01*
X62571Y-26700D01*
X62600Y-26728D01*
X62628Y-26785D01*
X62628Y-26871D01*
X62600Y-26928D01*
X62571Y-26957D01*
X62514Y-26985D01*
X62285Y-26985D01*
X62857Y-27100D02*
X63142Y-27100D01*
X62800Y-27271D02*
X63000Y-26671D01*
X63200Y-27271D01*
X63400Y-27271D02*
X63400Y-26671D01*
X63542Y-26671D01*
X63628Y-26700D01*
X63685Y-26757D01*
X63714Y-26814D01*
X63742Y-26928D01*
X63742Y-27014D01*
X63714Y-27128D01*
X63685Y-27185D01*
X63628Y-27242D01*
X63542Y-27271D01*
X63400Y-27271D01*
X63271Y-29271D02*
X63271Y-28671D01*
X63500Y-28671D01*
X63557Y-28700D01*
X63585Y-28728D01*
X63614Y-28785D01*
X63614Y-28871D01*
X63585Y-28928D01*
X63557Y-28957D01*
X63500Y-28985D01*
X63271Y-28985D01*
X63842Y-28728D02*
X63871Y-28700D01*
X63928Y-28671D01*
X64071Y-28671D01*
X64128Y-28700D01*
X64157Y-28728D01*
X64185Y-28785D01*
X64185Y-28842D01*
X64157Y-28928D01*
X63814Y-29271D01*
X64185Y-29271D01*
X64757Y-29271D02*
X64414Y-29271D01*
X64585Y-29271D02*
X64585Y-28671D01*
X64528Y-28757D01*
X64471Y-28814D01*
X64414Y-28842D01*
X63285Y-27271D02*
X63285Y-26671D01*
X63514Y-26671D01*
X63571Y-26700D01*
X63600Y-26728D01*
X63628Y-26785D01*
X63628Y-26871D01*
X63600Y-26928D01*
X63571Y-26957D01*
X63514Y-26985D01*
X63285Y-26985D01*
X63857Y-27100D02*
X64142Y-27100D01*
X63800Y-27271D02*
X64000Y-26671D01*
X64200Y-27271D01*
X64400Y-27271D02*
X64400Y-26671D01*
X64542Y-26671D01*
X64628Y-26700D01*
X64685Y-26757D01*
X64714Y-26814D01*
X64742Y-26928D01*
X64742Y-27014D01*
X64714Y-27128D01*
X64685Y-27185D01*
X64628Y-27242D01*
X64542Y-27271D01*
X64400Y-27271D01*
X64271Y-29271D02*
X64271Y-28671D01*
X64500Y-28671D01*
X64557Y-28700D01*
X64585Y-28728D01*
X64614Y-28785D01*
X64614Y-28871D01*
X64585Y-28928D01*
X64557Y-28957D01*
X64500Y-28985D01*
X64271Y-28985D01*
X64842Y-28728D02*
X64871Y-28700D01*
X64928Y-28671D01*
X65071Y-28671D01*
X65128Y-28700D01*
X65157Y-28728D01*
X65185Y-28785D01*
X65185Y-28842D01*
X65157Y-28928D01*
X64814Y-29271D01*
X65185Y-29271D01*
X65557Y-28671D02*
X65614Y-28671D01*
X65671Y-28700D01*
X65700Y-28728D01*
X65728Y-28785D01*
X65757Y-28900D01*
X65757Y-29042D01*
X65728Y-29157D01*
X65700Y-29214D01*
X65671Y-29242D01*
X65614Y-29271D01*
X65557Y-29271D01*
X65500Y-29242D01*
X65471Y-29214D01*
X65442Y-29157D01*
X65414Y-29042D01*
X65414Y-28900D01*
X65442Y-28785D01*
X65471Y-28728D01*
X65500Y-28700D01*
X65557Y-28671D01*
X64285Y-27271D02*
X64285Y-26671D01*
X64514Y-26671D01*
X64571Y-26700D01*
X64600Y-26728D01*
X64628Y-26785D01*
X64628Y-26871D01*
X64600Y-26928D01*
X64571Y-26957D01*
X64514Y-26985D01*
X64285Y-26985D01*
X64857Y-27100D02*
X65142Y-27100D01*
X64800Y-27271D02*
X65000Y-26671D01*
X65200Y-27271D01*
X65400Y-27271D02*
X65400Y-26671D01*
X65542Y-26671D01*
X65628Y-26700D01*
X65685Y-26757D01*
X65714Y-26814D01*
X65742Y-26928D01*
X65742Y-27014D01*
X65714Y-27128D01*
X65685Y-27185D01*
X65628Y-27242D01*
X65542Y-27271D01*
X65400Y-27271D01*
X65271Y-29271D02*
X65271Y-28671D01*
X65500Y-28671D01*
X65557Y-28700D01*
X65585Y-28728D01*
X65614Y-28785D01*
X65614Y-28871D01*
X65585Y-28928D01*
X65557Y-28957D01*
X65500Y-28985D01*
X65271Y-28985D01*
X66185Y-29271D02*
X65842Y-29271D01*
X66014Y-29271D02*
X66014Y-28671D01*
X65957Y-28757D01*
X65900Y-28814D01*
X65842Y-28842D01*
X66471Y-29271D02*
X66585Y-29271D01*
X66642Y-29242D01*
X66671Y-29214D01*
X66728Y-29128D01*
X66757Y-29014D01*
X66757Y-28785D01*
X66728Y-28728D01*
X66700Y-28700D01*
X66642Y-28671D01*
X66528Y-28671D01*
X66471Y-28700D01*
X66442Y-28728D01*
X66414Y-28785D01*
X66414Y-28928D01*
X66442Y-28985D01*
X66471Y-29014D01*
X66528Y-29042D01*
X66642Y-29042D01*
X66700Y-29014D01*
X66728Y-28985D01*
X66757Y-28928D01*
X65285Y-27271D02*
X65285Y-26671D01*
X65514Y-26671D01*
X65571Y-26700D01*
X65600Y-26728D01*
X65628Y-26785D01*
X65628Y-26871D01*
X65600Y-26928D01*
X65571Y-26957D01*
X65514Y-26985D01*
X65285Y-26985D01*
X65857Y-27100D02*
X66142Y-27100D01*
X65800Y-27271D02*
X66000Y-26671D01*
X66200Y-27271D01*
X66400Y-27271D02*
X66400Y-26671D01*
X66542Y-26671D01*
X66628Y-26700D01*
X66685Y-26757D01*
X66714Y-26814D01*
X66742Y-26928D01*
X66742Y-27014D01*
X66714Y-27128D01*
X66685Y-27185D01*
X66628Y-27242D01*
X66542Y-27271D01*
X66400Y-27271D01*
X66271Y-29271D02*
X66271Y-28671D01*
X66500Y-28671D01*
X66557Y-28700D01*
X66585Y-28728D01*
X66614Y-28785D01*
X66614Y-28871D01*
X66585Y-28928D01*
X66557Y-28957D01*
X66500Y-28985D01*
X66271Y-28985D01*
X67185Y-29271D02*
X66842Y-29271D01*
X67014Y-29271D02*
X67014Y-28671D01*
X66957Y-28757D01*
X66900Y-28814D01*
X66842Y-28842D01*
X67528Y-28928D02*
X67471Y-28900D01*
X67442Y-28871D01*
X67414Y-28814D01*
X67414Y-28785D01*
X67442Y-28728D01*
X67471Y-28700D01*
X67528Y-28671D01*
X67642Y-28671D01*
X67700Y-28700D01*
X67728Y-28728D01*
X67757Y-28785D01*
X67757Y-28814D01*
X67728Y-28871D01*
X67700Y-28900D01*
X67642Y-28928D01*
X67528Y-28928D01*
X67471Y-28957D01*
X67442Y-28985D01*
X67414Y-29042D01*
X67414Y-29157D01*
X67442Y-29214D01*
X67471Y-29242D01*
X67528Y-29271D01*
X67642Y-29271D01*
X67700Y-29242D01*
X67728Y-29214D01*
X67757Y-29157D01*
X67757Y-29042D01*
X67728Y-28985D01*
X67700Y-28957D01*
X67642Y-28928D01*
X66285Y-27271D02*
X66285Y-26671D01*
X66514Y-26671D01*
X66571Y-26700D01*
X66600Y-26728D01*
X66628Y-26785D01*
X66628Y-26871D01*
X66600Y-26928D01*
X66571Y-26957D01*
X66514Y-26985D01*
X66285Y-26985D01*
X66857Y-27100D02*
X67142Y-27100D01*
X66800Y-27271D02*
X67000Y-26671D01*
X67200Y-27271D01*
X67400Y-27271D02*
X67400Y-26671D01*
X67542Y-26671D01*
X67628Y-26700D01*
X67685Y-26757D01*
X67714Y-26814D01*
X67742Y-26928D01*
X67742Y-27014D01*
X67714Y-27128D01*
X67685Y-27185D01*
X67628Y-27242D01*
X67542Y-27271D01*
X67400Y-27271D01*
X62271Y-47271D02*
X62271Y-46671D01*
X62500Y-46671D01*
X62557Y-46700D01*
X62585Y-46728D01*
X62614Y-46785D01*
X62614Y-46871D01*
X62585Y-46928D01*
X62557Y-46957D01*
X62500Y-46985D01*
X62271Y-46985D01*
X63185Y-47271D02*
X62842Y-47271D01*
X63014Y-47271D02*
X63014Y-46671D01*
X62957Y-46757D01*
X62900Y-46814D01*
X62842Y-46842D01*
X63728Y-46671D02*
X63442Y-46671D01*
X63414Y-46957D01*
X63442Y-46928D01*
X63500Y-46900D01*
X63642Y-46900D01*
X63700Y-46928D01*
X63728Y-46957D01*
X63757Y-47014D01*
X63757Y-47157D01*
X63728Y-47214D01*
X63700Y-47242D01*
X63642Y-47271D01*
X63500Y-47271D01*
X63442Y-47242D01*
X63414Y-47214D01*
X62285Y-45271D02*
X62285Y-44671D01*
X62514Y-44671D01*
X62571Y-44700D01*
X62600Y-44728D01*
X62628Y-44785D01*
X62628Y-44871D01*
X62600Y-44928D01*
X62571Y-44957D01*
X62514Y-44985D01*
X62285Y-44985D01*
X62857Y-45100D02*
X63142Y-45100D01*
X62800Y-45271D02*
X63000Y-44671D01*
X63200Y-45271D01*
X63400Y-45271D02*
X63400Y-44671D01*
X63542Y-44671D01*
X63628Y-44700D01*
X63685Y-44757D01*
X63714Y-44814D01*
X63742Y-44928D01*
X63742Y-45014D01*
X63714Y-45128D01*
X63685Y-45185D01*
X63628Y-45242D01*
X63542Y-45271D01*
X63400Y-45271D01*
X63271Y-47271D02*
X63271Y-46671D01*
X63500Y-46671D01*
X63557Y-46700D01*
X63585Y-46728D01*
X63614Y-46785D01*
X63614Y-46871D01*
X63585Y-46928D01*
X63557Y-46957D01*
X63500Y-46985D01*
X63271Y-46985D01*
X64185Y-47271D02*
X63842Y-47271D01*
X64014Y-47271D02*
X64014Y-46671D01*
X63957Y-46757D01*
X63900Y-46814D01*
X63842Y-46842D01*
X64700Y-46871D02*
X64700Y-47271D01*
X64557Y-46642D02*
X64414Y-47071D01*
X64785Y-47071D01*
X63285Y-45271D02*
X63285Y-44671D01*
X63514Y-44671D01*
X63571Y-44700D01*
X63600Y-44728D01*
X63628Y-44785D01*
X63628Y-44871D01*
X63600Y-44928D01*
X63571Y-44957D01*
X63514Y-44985D01*
X63285Y-44985D01*
X63857Y-45100D02*
X64142Y-45100D01*
X63800Y-45271D02*
X64000Y-44671D01*
X64200Y-45271D01*
X64400Y-45271D02*
X64400Y-44671D01*
X64542Y-44671D01*
X64628Y-44700D01*
X64685Y-44757D01*
X64714Y-44814D01*
X64742Y-44928D01*
X64742Y-45014D01*
X64714Y-45128D01*
X64685Y-45185D01*
X64628Y-45242D01*
X64542Y-45271D01*
X64400Y-45271D01*
X61271Y-47271D02*
X61271Y-46671D01*
X61500Y-46671D01*
X61557Y-46700D01*
X61585Y-46728D01*
X61614Y-46785D01*
X61614Y-46871D01*
X61585Y-46928D01*
X61557Y-46957D01*
X61500Y-46985D01*
X61271Y-46985D01*
X62185Y-47271D02*
X61842Y-47271D01*
X62014Y-47271D02*
X62014Y-46671D01*
X61957Y-46757D01*
X61900Y-46814D01*
X61842Y-46842D01*
X62385Y-46671D02*
X62757Y-46671D01*
X62557Y-46900D01*
X62642Y-46900D01*
X62700Y-46928D01*
X62728Y-46957D01*
X62757Y-47014D01*
X62757Y-47157D01*
X62728Y-47214D01*
X62700Y-47242D01*
X62642Y-47271D01*
X62471Y-47271D01*
X62414Y-47242D01*
X62385Y-47214D01*
X61285Y-45271D02*
X61285Y-44671D01*
X61514Y-44671D01*
X61571Y-44700D01*
X61600Y-44728D01*
X61628Y-44785D01*
X61628Y-44871D01*
X61600Y-44928D01*
X61571Y-44957D01*
X61514Y-44985D01*
X61285Y-44985D01*
X61857Y-45100D02*
X62142Y-45100D01*
X61800Y-45271D02*
X62000Y-44671D01*
X62200Y-45271D01*
X62400Y-45271D02*
X62400Y-44671D01*
X62542Y-44671D01*
X62628Y-44700D01*
X62685Y-44757D01*
X62714Y-44814D01*
X62742Y-44928D01*
X62742Y-45014D01*
X62714Y-45128D01*
X62685Y-45185D01*
X62628Y-45242D01*
X62542Y-45271D01*
X62400Y-45271D01*
X60271Y-47271D02*
X60271Y-46671D01*
X60500Y-46671D01*
X60557Y-46700D01*
X60585Y-46728D01*
X60614Y-46785D01*
X60614Y-46871D01*
X60585Y-46928D01*
X60557Y-46957D01*
X60500Y-46985D01*
X60271Y-46985D01*
X61185Y-47271D02*
X60842Y-47271D01*
X61014Y-47271D02*
X61014Y-46671D01*
X60957Y-46757D01*
X60900Y-46814D01*
X60842Y-46842D01*
X61414Y-46728D02*
X61442Y-46700D01*
X61500Y-46671D01*
X61642Y-46671D01*
X61700Y-46700D01*
X61728Y-46728D01*
X61757Y-46785D01*
X61757Y-46842D01*
X61728Y-46928D01*
X61385Y-47271D01*
X61757Y-47271D01*
X60285Y-45271D02*
X60285Y-44671D01*
X60514Y-44671D01*
X60571Y-44700D01*
X60600Y-44728D01*
X60628Y-44785D01*
X60628Y-44871D01*
X60600Y-44928D01*
X60571Y-44957D01*
X60514Y-44985D01*
X60285Y-44985D01*
X60857Y-45100D02*
X61142Y-45100D01*
X60800Y-45271D02*
X61000Y-44671D01*
X61200Y-45271D01*
X61400Y-45271D02*
X61400Y-44671D01*
X61542Y-44671D01*
X61628Y-44700D01*
X61685Y-44757D01*
X61714Y-44814D01*
X61742Y-44928D01*
X61742Y-45014D01*
X61714Y-45128D01*
X61685Y-45185D01*
X61628Y-45242D01*
X61542Y-45271D01*
X61400Y-45271D01*
X59271Y-47271D02*
X59271Y-46671D01*
X59500Y-46671D01*
X59557Y-46700D01*
X59585Y-46728D01*
X59614Y-46785D01*
X59614Y-46871D01*
X59585Y-46928D01*
X59557Y-46957D01*
X59500Y-46985D01*
X59271Y-46985D01*
X60185Y-47271D02*
X59842Y-47271D01*
X60014Y-47271D02*
X60014Y-46671D01*
X59957Y-46757D01*
X59900Y-46814D01*
X59842Y-46842D01*
X60757Y-47271D02*
X60414Y-47271D01*
X60585Y-47271D02*
X60585Y-46671D01*
X60528Y-46757D01*
X60471Y-46814D01*
X60414Y-46842D01*
X59285Y-45271D02*
X59285Y-44671D01*
X59514Y-44671D01*
X59571Y-44700D01*
X59600Y-44728D01*
X59628Y-44785D01*
X59628Y-44871D01*
X59600Y-44928D01*
X59571Y-44957D01*
X59514Y-44985D01*
X59285Y-44985D01*
X59857Y-45100D02*
X60142Y-45100D01*
X59800Y-45271D02*
X60000Y-44671D01*
X60200Y-45271D01*
X60400Y-45271D02*
X60400Y-44671D01*
X60542Y-44671D01*
X60628Y-44700D01*
X60685Y-44757D01*
X60714Y-44814D01*
X60742Y-44928D01*
X60742Y-45014D01*
X60714Y-45128D01*
X60685Y-45185D01*
X60628Y-45242D01*
X60542Y-45271D01*
X60400Y-45271D01*
X58271Y-47271D02*
X58271Y-46671D01*
X58500Y-46671D01*
X58557Y-46700D01*
X58585Y-46728D01*
X58614Y-46785D01*
X58614Y-46871D01*
X58585Y-46928D01*
X58557Y-46957D01*
X58500Y-46985D01*
X58271Y-46985D01*
X59185Y-47271D02*
X58842Y-47271D01*
X59014Y-47271D02*
X59014Y-46671D01*
X58957Y-46757D01*
X58900Y-46814D01*
X58842Y-46842D01*
X59557Y-46671D02*
X59614Y-46671D01*
X59671Y-46700D01*
X59700Y-46728D01*
X59728Y-46785D01*
X59757Y-46900D01*
X59757Y-47042D01*
X59728Y-47157D01*
X59700Y-47214D01*
X59671Y-47242D01*
X59614Y-47271D01*
X59557Y-47271D01*
X59500Y-47242D01*
X59471Y-47214D01*
X59442Y-47157D01*
X59414Y-47042D01*
X59414Y-46900D01*
X59442Y-46785D01*
X59471Y-46728D01*
X59500Y-46700D01*
X59557Y-46671D01*
X58285Y-45271D02*
X58285Y-44671D01*
X58514Y-44671D01*
X58571Y-44700D01*
X58600Y-44728D01*
X58628Y-44785D01*
X58628Y-44871D01*
X58600Y-44928D01*
X58571Y-44957D01*
X58514Y-44985D01*
X58285Y-44985D01*
X58857Y-45100D02*
X59142Y-45100D01*
X58800Y-45271D02*
X59000Y-44671D01*
X59200Y-45271D01*
X59400Y-45271D02*
X59400Y-44671D01*
X59542Y-44671D01*
X59628Y-44700D01*
X59685Y-44757D01*
X59714Y-44814D01*
X59742Y-44928D01*
X59742Y-45014D01*
X59714Y-45128D01*
X59685Y-45185D01*
X59628Y-45242D01*
X59542Y-45271D01*
X59400Y-45271D01*
X57557Y-47271D02*
X57557Y-46671D01*
X57785Y-46671D01*
X57842Y-46700D01*
X57871Y-46728D01*
X57900Y-46785D01*
X57900Y-46871D01*
X57871Y-46928D01*
X57842Y-46957D01*
X57785Y-46985D01*
X57557Y-46985D01*
X58185Y-47271D02*
X58300Y-47271D01*
X58357Y-47242D01*
X58385Y-47214D01*
X58442Y-47128D01*
X58471Y-47014D01*
X58471Y-46785D01*
X58442Y-46728D01*
X58414Y-46700D01*
X58357Y-46671D01*
X58242Y-46671D01*
X58185Y-46700D01*
X58157Y-46728D01*
X58128Y-46785D01*
X58128Y-46928D01*
X58157Y-46985D01*
X58185Y-47014D01*
X58242Y-47042D01*
X58357Y-47042D01*
X58414Y-47014D01*
X58442Y-46985D01*
X58471Y-46928D01*
X57285Y-45271D02*
X57285Y-44671D01*
X57514Y-44671D01*
X57571Y-44700D01*
X57600Y-44728D01*
X57628Y-44785D01*
X57628Y-44871D01*
X57600Y-44928D01*
X57571Y-44957D01*
X57514Y-44985D01*
X57285Y-44985D01*
X57857Y-45100D02*
X58142Y-45100D01*
X57800Y-45271D02*
X58000Y-44671D01*
X58200Y-45271D01*
X58400Y-45271D02*
X58400Y-44671D01*
X58542Y-44671D01*
X58628Y-44700D01*
X58685Y-44757D01*
X58714Y-44814D01*
X58742Y-44928D01*
X58742Y-45014D01*
X58714Y-45128D01*
X58685Y-45185D01*
X58628Y-45242D01*
X58542Y-45271D01*
X58400Y-45271D01*
X52557Y-47271D02*
X52557Y-46671D01*
X52785Y-46671D01*
X52842Y-46700D01*
X52871Y-46728D01*
X52900Y-46785D01*
X52900Y-46871D01*
X52871Y-46928D01*
X52842Y-46957D01*
X52785Y-46985D01*
X52557Y-46985D01*
X53100Y-46671D02*
X53500Y-46671D01*
X53242Y-47271D01*
X52285Y-45271D02*
X52285Y-44671D01*
X52514Y-44671D01*
X52571Y-44700D01*
X52600Y-44728D01*
X52628Y-44785D01*
X52628Y-44871D01*
X52600Y-44928D01*
X52571Y-44957D01*
X52514Y-44985D01*
X52285Y-44985D01*
X52857Y-45100D02*
X53142Y-45100D01*
X52800Y-45271D02*
X53000Y-44671D01*
X53200Y-45271D01*
X53400Y-45271D02*
X53400Y-44671D01*
X53542Y-44671D01*
X53628Y-44700D01*
X53685Y-44757D01*
X53714Y-44814D01*
X53742Y-44928D01*
X53742Y-45014D01*
X53714Y-45128D01*
X53685Y-45185D01*
X53628Y-45242D01*
X53542Y-45271D01*
X53400Y-45271D01*
X53557Y-47271D02*
X53557Y-46671D01*
X53785Y-46671D01*
X53842Y-46700D01*
X53871Y-46728D01*
X53900Y-46785D01*
X53900Y-46871D01*
X53871Y-46928D01*
X53842Y-46957D01*
X53785Y-46985D01*
X53557Y-46985D01*
X54414Y-46671D02*
X54300Y-46671D01*
X54242Y-46700D01*
X54214Y-46728D01*
X54157Y-46814D01*
X54128Y-46928D01*
X54128Y-47157D01*
X54157Y-47214D01*
X54185Y-47242D01*
X54242Y-47271D01*
X54357Y-47271D01*
X54414Y-47242D01*
X54442Y-47214D01*
X54471Y-47157D01*
X54471Y-47014D01*
X54442Y-46957D01*
X54414Y-46928D01*
X54357Y-46900D01*
X54242Y-46900D01*
X54185Y-46928D01*
X54157Y-46957D01*
X54128Y-47014D01*
X53285Y-45271D02*
X53285Y-44671D01*
X53514Y-44671D01*
X53571Y-44700D01*
X53600Y-44728D01*
X53628Y-44785D01*
X53628Y-44871D01*
X53600Y-44928D01*
X53571Y-44957D01*
X53514Y-44985D01*
X53285Y-44985D01*
X53857Y-45100D02*
X54142Y-45100D01*
X53800Y-45271D02*
X54000Y-44671D01*
X54200Y-45271D01*
X54400Y-45271D02*
X54400Y-44671D01*
X54542Y-44671D01*
X54628Y-44700D01*
X54685Y-44757D01*
X54714Y-44814D01*
X54742Y-44928D01*
X54742Y-45014D01*
X54714Y-45128D01*
X54685Y-45185D01*
X54628Y-45242D01*
X54542Y-45271D01*
X54400Y-45271D01*
X54557Y-47271D02*
X54557Y-46671D01*
X54785Y-46671D01*
X54842Y-46700D01*
X54871Y-46728D01*
X54900Y-46785D01*
X54900Y-46871D01*
X54871Y-46928D01*
X54842Y-46957D01*
X54785Y-46985D01*
X54557Y-46985D01*
X55442Y-46671D02*
X55157Y-46671D01*
X55128Y-46957D01*
X55157Y-46928D01*
X55214Y-46900D01*
X55357Y-46900D01*
X55414Y-46928D01*
X55442Y-46957D01*
X55471Y-47014D01*
X55471Y-47157D01*
X55442Y-47214D01*
X55414Y-47242D01*
X55357Y-47271D01*
X55214Y-47271D01*
X55157Y-47242D01*
X55128Y-47214D01*
X54285Y-45271D02*
X54285Y-44671D01*
X54514Y-44671D01*
X54571Y-44700D01*
X54600Y-44728D01*
X54628Y-44785D01*
X54628Y-44871D01*
X54600Y-44928D01*
X54571Y-44957D01*
X54514Y-44985D01*
X54285Y-44985D01*
X54857Y-45100D02*
X55142Y-45100D01*
X54800Y-45271D02*
X55000Y-44671D01*
X55200Y-45271D01*
X55400Y-45271D02*
X55400Y-44671D01*
X55542Y-44671D01*
X55628Y-44700D01*
X55685Y-44757D01*
X55714Y-44814D01*
X55742Y-44928D01*
X55742Y-45014D01*
X55714Y-45128D01*
X55685Y-45185D01*
X55628Y-45242D01*
X55542Y-45271D01*
X55400Y-45271D01*
X55557Y-47271D02*
X55557Y-46671D01*
X55785Y-46671D01*
X55842Y-46700D01*
X55871Y-46728D01*
X55900Y-46785D01*
X55900Y-46871D01*
X55871Y-46928D01*
X55842Y-46957D01*
X55785Y-46985D01*
X55557Y-46985D01*
X56414Y-46871D02*
X56414Y-47271D01*
X56271Y-46642D02*
X56128Y-47071D01*
X56500Y-47071D01*
X55285Y-45271D02*
X55285Y-44671D01*
X55514Y-44671D01*
X55571Y-44700D01*
X55600Y-44728D01*
X55628Y-44785D01*
X55628Y-44871D01*
X55600Y-44928D01*
X55571Y-44957D01*
X55514Y-44985D01*
X55285Y-44985D01*
X55857Y-45100D02*
X56142Y-45100D01*
X55800Y-45271D02*
X56000Y-44671D01*
X56200Y-45271D01*
X56400Y-45271D02*
X56400Y-44671D01*
X56542Y-44671D01*
X56628Y-44700D01*
X56685Y-44757D01*
X56714Y-44814D01*
X56742Y-44928D01*
X56742Y-45014D01*
X56714Y-45128D01*
X56685Y-45185D01*
X56628Y-45242D01*
X56542Y-45271D01*
X56400Y-45271D01*
X56557Y-47271D02*
X56557Y-46671D01*
X56785Y-46671D01*
X56842Y-46700D01*
X56871Y-46728D01*
X56900Y-46785D01*
X56900Y-46871D01*
X56871Y-46928D01*
X56842Y-46957D01*
X56785Y-46985D01*
X56557Y-46985D01*
X57100Y-46671D02*
X57471Y-46671D01*
X57271Y-46900D01*
X57357Y-46900D01*
X57414Y-46928D01*
X57442Y-46957D01*
X57471Y-47014D01*
X57471Y-47157D01*
X57442Y-47214D01*
X57414Y-47242D01*
X57357Y-47271D01*
X57185Y-47271D01*
X57128Y-47242D01*
X57100Y-47214D01*
X56285Y-45271D02*
X56285Y-44671D01*
X56514Y-44671D01*
X56571Y-44700D01*
X56600Y-44728D01*
X56628Y-44785D01*
X56628Y-44871D01*
X56600Y-44928D01*
X56571Y-44957D01*
X56514Y-44985D01*
X56285Y-44985D01*
X56857Y-45100D02*
X57142Y-45100D01*
X56800Y-45271D02*
X57000Y-44671D01*
X57200Y-45271D01*
X57400Y-45271D02*
X57400Y-44671D01*
X57542Y-44671D01*
X57628Y-44700D01*
X57685Y-44757D01*
X57714Y-44814D01*
X57742Y-44928D01*
X57742Y-45014D01*
X57714Y-45128D01*
X57685Y-45185D01*
X57628Y-45242D01*
X57542Y-45271D01*
X57400Y-45271D01*
X64271Y-47271D02*
X64271Y-46671D01*
X64500Y-46671D01*
X64557Y-46700D01*
X64585Y-46728D01*
X64614Y-46785D01*
X64614Y-46871D01*
X64585Y-46928D01*
X64557Y-46957D01*
X64500Y-46985D01*
X64271Y-46985D01*
X64814Y-46671D02*
X65185Y-46671D01*
X64985Y-46900D01*
X65071Y-46900D01*
X65128Y-46928D01*
X65157Y-46957D01*
X65185Y-47014D01*
X65185Y-47157D01*
X65157Y-47214D01*
X65128Y-47242D01*
X65071Y-47271D01*
X64900Y-47271D01*
X64842Y-47242D01*
X64814Y-47214D01*
X65385Y-46671D02*
X65757Y-46671D01*
X65557Y-46900D01*
X65642Y-46900D01*
X65700Y-46928D01*
X65728Y-46957D01*
X65757Y-47014D01*
X65757Y-47157D01*
X65728Y-47214D01*
X65700Y-47242D01*
X65642Y-47271D01*
X65471Y-47271D01*
X65414Y-47242D01*
X65385Y-47214D01*
X64285Y-45271D02*
X64285Y-44671D01*
X64514Y-44671D01*
X64571Y-44700D01*
X64600Y-44728D01*
X64628Y-44785D01*
X64628Y-44871D01*
X64600Y-44928D01*
X64571Y-44957D01*
X64514Y-44985D01*
X64285Y-44985D01*
X64857Y-45100D02*
X65142Y-45100D01*
X64800Y-45271D02*
X65000Y-44671D01*
X65200Y-45271D01*
X65400Y-45271D02*
X65400Y-44671D01*
X65542Y-44671D01*
X65628Y-44700D01*
X65685Y-44757D01*
X65714Y-44814D01*
X65742Y-44928D01*
X65742Y-45014D01*
X65714Y-45128D01*
X65685Y-45185D01*
X65628Y-45242D01*
X65542Y-45271D01*
X65400Y-45271D01*
X65271Y-47271D02*
X65271Y-46671D01*
X65500Y-46671D01*
X65557Y-46700D01*
X65585Y-46728D01*
X65614Y-46785D01*
X65614Y-46871D01*
X65585Y-46928D01*
X65557Y-46957D01*
X65500Y-46985D01*
X65271Y-46985D01*
X65814Y-46671D02*
X66185Y-46671D01*
X65985Y-46900D01*
X66071Y-46900D01*
X66128Y-46928D01*
X66157Y-46957D01*
X66185Y-47014D01*
X66185Y-47157D01*
X66157Y-47214D01*
X66128Y-47242D01*
X66071Y-47271D01*
X65900Y-47271D01*
X65842Y-47242D01*
X65814Y-47214D01*
X66700Y-46871D02*
X66700Y-47271D01*
X66557Y-46642D02*
X66414Y-47071D01*
X66785Y-47071D01*
X65285Y-45271D02*
X65285Y-44671D01*
X65514Y-44671D01*
X65571Y-44700D01*
X65600Y-44728D01*
X65628Y-44785D01*
X65628Y-44871D01*
X65600Y-44928D01*
X65571Y-44957D01*
X65514Y-44985D01*
X65285Y-44985D01*
X65857Y-45100D02*
X66142Y-45100D01*
X65800Y-45271D02*
X66000Y-44671D01*
X66200Y-45271D01*
X66400Y-45271D02*
X66400Y-44671D01*
X66542Y-44671D01*
X66628Y-44700D01*
X66685Y-44757D01*
X66714Y-44814D01*
X66742Y-44928D01*
X66742Y-45014D01*
X66714Y-45128D01*
X66685Y-45185D01*
X66628Y-45242D01*
X66542Y-45271D01*
X66400Y-45271D01*
X66271Y-47271D02*
X66271Y-46671D01*
X66500Y-46671D01*
X66557Y-46700D01*
X66585Y-46728D01*
X66614Y-46785D01*
X66614Y-46871D01*
X66585Y-46928D01*
X66557Y-46957D01*
X66500Y-46985D01*
X66271Y-46985D01*
X66814Y-46671D02*
X67185Y-46671D01*
X66985Y-46900D01*
X67071Y-46900D01*
X67128Y-46928D01*
X67157Y-46957D01*
X67185Y-47014D01*
X67185Y-47157D01*
X67157Y-47214D01*
X67128Y-47242D01*
X67071Y-47271D01*
X66900Y-47271D01*
X66842Y-47242D01*
X66814Y-47214D01*
X67728Y-46671D02*
X67442Y-46671D01*
X67414Y-46957D01*
X67442Y-46928D01*
X67500Y-46900D01*
X67642Y-46900D01*
X67700Y-46928D01*
X67728Y-46957D01*
X67757Y-47014D01*
X67757Y-47157D01*
X67728Y-47214D01*
X67700Y-47242D01*
X67642Y-47271D01*
X67500Y-47271D01*
X67442Y-47242D01*
X67414Y-47214D01*
X66285Y-45271D02*
X66285Y-44671D01*
X66514Y-44671D01*
X66571Y-44700D01*
X66600Y-44728D01*
X66628Y-44785D01*
X66628Y-44871D01*
X66600Y-44928D01*
X66571Y-44957D01*
X66514Y-44985D01*
X66285Y-44985D01*
X66857Y-45100D02*
X67142Y-45100D01*
X66800Y-45271D02*
X67000Y-44671D01*
X67200Y-45271D01*
X67400Y-45271D02*
X67400Y-44671D01*
X67542Y-44671D01*
X67628Y-44700D01*
X67685Y-44757D01*
X67714Y-44814D01*
X67742Y-44928D01*
X67742Y-45014D01*
X67714Y-45128D01*
X67685Y-45185D01*
X67628Y-45242D01*
X67542Y-45271D01*
X67400Y-45271D01*
X52557Y-30271D02*
X52557Y-29671D01*
X52785Y-29671D01*
X52842Y-29700D01*
X52871Y-29728D01*
X52900Y-29785D01*
X52900Y-29871D01*
X52871Y-29928D01*
X52842Y-29957D01*
X52785Y-29985D01*
X52557Y-29985D01*
X53471Y-30271D02*
X53128Y-30271D01*
X53300Y-30271D02*
X53300Y-29671D01*
X53242Y-29757D01*
X53185Y-29814D01*
X53128Y-29842D01*
X52285Y-28271D02*
X52285Y-27671D01*
X52514Y-27671D01*
X52571Y-27700D01*
X52600Y-27728D01*
X52628Y-27785D01*
X52628Y-27871D01*
X52600Y-27928D01*
X52571Y-27957D01*
X52514Y-27985D01*
X52285Y-27985D01*
X52857Y-28100D02*
X53142Y-28100D01*
X52800Y-28271D02*
X53000Y-27671D01*
X53200Y-28271D01*
X53400Y-28271D02*
X53400Y-27671D01*
X53542Y-27671D01*
X53628Y-27700D01*
X53685Y-27757D01*
X53714Y-27814D01*
X53742Y-27928D01*
X53742Y-28014D01*
X53714Y-28128D01*
X53685Y-28185D01*
X53628Y-28242D01*
X53542Y-28271D01*
X53400Y-28271D01*
X53557Y-30271D02*
X53557Y-29671D01*
X53785Y-29671D01*
X53842Y-29700D01*
X53871Y-29728D01*
X53900Y-29785D01*
X53900Y-29871D01*
X53871Y-29928D01*
X53842Y-29957D01*
X53785Y-29985D01*
X53557Y-29985D01*
X54128Y-29728D02*
X54157Y-29700D01*
X54214Y-29671D01*
X54357Y-29671D01*
X54414Y-29700D01*
X54442Y-29728D01*
X54471Y-29785D01*
X54471Y-29842D01*
X54442Y-29928D01*
X54100Y-30271D01*
X54471Y-30271D01*
X53285Y-28271D02*
X53285Y-27671D01*
X53514Y-27671D01*
X53571Y-27700D01*
X53600Y-27728D01*
X53628Y-27785D01*
X53628Y-27871D01*
X53600Y-27928D01*
X53571Y-27957D01*
X53514Y-27985D01*
X53285Y-27985D01*
X53857Y-28100D02*
X54142Y-28100D01*
X53800Y-28271D02*
X54000Y-27671D01*
X54200Y-28271D01*
X54400Y-28271D02*
X54400Y-27671D01*
X54542Y-27671D01*
X54628Y-27700D01*
X54685Y-27757D01*
X54714Y-27814D01*
X54742Y-27928D01*
X54742Y-28014D01*
X54714Y-28128D01*
X54685Y-28185D01*
X54628Y-28242D01*
X54542Y-28271D01*
X54400Y-28271D01*
X54557Y-30271D02*
X54557Y-29671D01*
X54785Y-29671D01*
X54842Y-29700D01*
X54871Y-29728D01*
X54900Y-29785D01*
X54900Y-29871D01*
X54871Y-29928D01*
X54842Y-29957D01*
X54785Y-29985D01*
X54557Y-29985D01*
X55242Y-29928D02*
X55185Y-29900D01*
X55157Y-29871D01*
X55128Y-29814D01*
X55128Y-29785D01*
X55157Y-29728D01*
X55185Y-29700D01*
X55242Y-29671D01*
X55357Y-29671D01*
X55414Y-29700D01*
X55442Y-29728D01*
X55471Y-29785D01*
X55471Y-29814D01*
X55442Y-29871D01*
X55414Y-29900D01*
X55357Y-29928D01*
X55242Y-29928D01*
X55185Y-29957D01*
X55157Y-29985D01*
X55128Y-30042D01*
X55128Y-30157D01*
X55157Y-30214D01*
X55185Y-30242D01*
X55242Y-30271D01*
X55357Y-30271D01*
X55414Y-30242D01*
X55442Y-30214D01*
X55471Y-30157D01*
X55471Y-30042D01*
X55442Y-29985D01*
X55414Y-29957D01*
X55357Y-29928D01*
X54285Y-28271D02*
X54285Y-27671D01*
X54514Y-27671D01*
X54571Y-27700D01*
X54600Y-27728D01*
X54628Y-27785D01*
X54628Y-27871D01*
X54600Y-27928D01*
X54571Y-27957D01*
X54514Y-27985D01*
X54285Y-27985D01*
X54857Y-28100D02*
X55142Y-28100D01*
X54800Y-28271D02*
X55000Y-27671D01*
X55200Y-28271D01*
X55400Y-28271D02*
X55400Y-27671D01*
X55542Y-27671D01*
X55628Y-27700D01*
X55685Y-27757D01*
X55714Y-27814D01*
X55742Y-27928D01*
X55742Y-28014D01*
X55714Y-28128D01*
X55685Y-28185D01*
X55628Y-28242D01*
X55542Y-28271D01*
X55400Y-28271D01*
X55271Y-30271D02*
X55271Y-29671D01*
X55500Y-29671D01*
X55557Y-29700D01*
X55585Y-29728D01*
X55614Y-29785D01*
X55614Y-29871D01*
X55585Y-29928D01*
X55557Y-29957D01*
X55500Y-29985D01*
X55271Y-29985D01*
X56185Y-30271D02*
X55842Y-30271D01*
X56014Y-30271D02*
X56014Y-29671D01*
X55957Y-29757D01*
X55900Y-29814D01*
X55842Y-29842D01*
X56700Y-29671D02*
X56585Y-29671D01*
X56528Y-29700D01*
X56500Y-29728D01*
X56442Y-29814D01*
X56414Y-29928D01*
X56414Y-30157D01*
X56442Y-30214D01*
X56471Y-30242D01*
X56528Y-30271D01*
X56642Y-30271D01*
X56700Y-30242D01*
X56728Y-30214D01*
X56757Y-30157D01*
X56757Y-30014D01*
X56728Y-29957D01*
X56700Y-29928D01*
X56642Y-29900D01*
X56528Y-29900D01*
X56471Y-29928D01*
X56442Y-29957D01*
X56414Y-30014D01*
X55285Y-28271D02*
X55285Y-27671D01*
X55514Y-27671D01*
X55571Y-27700D01*
X55600Y-27728D01*
X55628Y-27785D01*
X55628Y-27871D01*
X55600Y-27928D01*
X55571Y-27957D01*
X55514Y-27985D01*
X55285Y-27985D01*
X55857Y-28100D02*
X56142Y-28100D01*
X55800Y-28271D02*
X56000Y-27671D01*
X56200Y-28271D01*
X56400Y-28271D02*
X56400Y-27671D01*
X56542Y-27671D01*
X56628Y-27700D01*
X56685Y-27757D01*
X56714Y-27814D01*
X56742Y-27928D01*
X56742Y-28014D01*
X56714Y-28128D01*
X56685Y-28185D01*
X56628Y-28242D01*
X56542Y-28271D01*
X56400Y-28271D01*
X56271Y-30271D02*
X56271Y-29671D01*
X56500Y-29671D01*
X56557Y-29700D01*
X56585Y-29728D01*
X56614Y-29785D01*
X56614Y-29871D01*
X56585Y-29928D01*
X56557Y-29957D01*
X56500Y-29985D01*
X56271Y-29985D01*
X57185Y-30271D02*
X56842Y-30271D01*
X57014Y-30271D02*
X57014Y-29671D01*
X56957Y-29757D01*
X56900Y-29814D01*
X56842Y-29842D01*
X57385Y-29671D02*
X57785Y-29671D01*
X57528Y-30271D01*
X56285Y-28271D02*
X56285Y-27671D01*
X56514Y-27671D01*
X56571Y-27700D01*
X56600Y-27728D01*
X56628Y-27785D01*
X56628Y-27871D01*
X56600Y-27928D01*
X56571Y-27957D01*
X56514Y-27985D01*
X56285Y-27985D01*
X56857Y-28100D02*
X57142Y-28100D01*
X56800Y-28271D02*
X57000Y-27671D01*
X57200Y-28271D01*
X57400Y-28271D02*
X57400Y-27671D01*
X57542Y-27671D01*
X57628Y-27700D01*
X57685Y-27757D01*
X57714Y-27814D01*
X57742Y-27928D01*
X57742Y-28014D01*
X57714Y-28128D01*
X57685Y-28185D01*
X57628Y-28242D01*
X57542Y-28271D01*
X57400Y-28271D01*
X58271Y-30271D02*
X58271Y-29671D01*
X58500Y-29671D01*
X58557Y-29700D01*
X58585Y-29728D01*
X58614Y-29785D01*
X58614Y-29871D01*
X58585Y-29928D01*
X58557Y-29957D01*
X58500Y-29985D01*
X58271Y-29985D01*
X58814Y-29671D02*
X59185Y-29671D01*
X58985Y-29900D01*
X59071Y-29900D01*
X59128Y-29928D01*
X59157Y-29957D01*
X59185Y-30014D01*
X59185Y-30157D01*
X59157Y-30214D01*
X59128Y-30242D01*
X59071Y-30271D01*
X58900Y-30271D01*
X58842Y-30242D01*
X58814Y-30214D01*
X59700Y-29671D02*
X59585Y-29671D01*
X59528Y-29700D01*
X59500Y-29728D01*
X59442Y-29814D01*
X59414Y-29928D01*
X59414Y-30157D01*
X59442Y-30214D01*
X59471Y-30242D01*
X59528Y-30271D01*
X59642Y-30271D01*
X59700Y-30242D01*
X59728Y-30214D01*
X59757Y-30157D01*
X59757Y-30014D01*
X59728Y-29957D01*
X59700Y-29928D01*
X59642Y-29900D01*
X59528Y-29900D01*
X59471Y-29928D01*
X59442Y-29957D01*
X59414Y-30014D01*
X58285Y-28271D02*
X58285Y-27671D01*
X58514Y-27671D01*
X58571Y-27700D01*
X58600Y-27728D01*
X58628Y-27785D01*
X58628Y-27871D01*
X58600Y-27928D01*
X58571Y-27957D01*
X58514Y-27985D01*
X58285Y-27985D01*
X58857Y-28100D02*
X59142Y-28100D01*
X58800Y-28271D02*
X59000Y-27671D01*
X59200Y-28271D01*
X59400Y-28271D02*
X59400Y-27671D01*
X59542Y-27671D01*
X59628Y-27700D01*
X59685Y-27757D01*
X59714Y-27814D01*
X59742Y-27928D01*
X59742Y-28014D01*
X59714Y-28128D01*
X59685Y-28185D01*
X59628Y-28242D01*
X59542Y-28271D01*
X59400Y-28271D01*
X57271Y-30271D02*
X57271Y-29671D01*
X57500Y-29671D01*
X57557Y-29700D01*
X57585Y-29728D01*
X57614Y-29785D01*
X57614Y-29871D01*
X57585Y-29928D01*
X57557Y-29957D01*
X57500Y-29985D01*
X57271Y-29985D01*
X57814Y-29671D02*
X58185Y-29671D01*
X57985Y-29900D01*
X58071Y-29900D01*
X58128Y-29928D01*
X58157Y-29957D01*
X58185Y-30014D01*
X58185Y-30157D01*
X58157Y-30214D01*
X58128Y-30242D01*
X58071Y-30271D01*
X57900Y-30271D01*
X57842Y-30242D01*
X57814Y-30214D01*
X58385Y-29671D02*
X58785Y-29671D01*
X58528Y-30271D01*
X57285Y-28271D02*
X57285Y-27671D01*
X57514Y-27671D01*
X57571Y-27700D01*
X57600Y-27728D01*
X57628Y-27785D01*
X57628Y-27871D01*
X57600Y-27928D01*
X57571Y-27957D01*
X57514Y-27985D01*
X57285Y-27985D01*
X57857Y-28100D02*
X58142Y-28100D01*
X57800Y-28271D02*
X58000Y-27671D01*
X58200Y-28271D01*
X58400Y-28271D02*
X58400Y-27671D01*
X58542Y-27671D01*
X58628Y-27700D01*
X58685Y-27757D01*
X58714Y-27814D01*
X58742Y-27928D01*
X58742Y-28014D01*
X58714Y-28128D01*
X58685Y-28185D01*
X58628Y-28242D01*
X58542Y-28271D01*
X58400Y-28271D01*
X60271Y-30271D02*
X60271Y-29671D01*
X60500Y-29671D01*
X60557Y-29700D01*
X60585Y-29728D01*
X60614Y-29785D01*
X60614Y-29871D01*
X60585Y-29928D01*
X60557Y-29957D01*
X60500Y-29985D01*
X60271Y-29985D01*
X60814Y-29671D02*
X61185Y-29671D01*
X60985Y-29900D01*
X61071Y-29900D01*
X61128Y-29928D01*
X61157Y-29957D01*
X61185Y-30014D01*
X61185Y-30157D01*
X61157Y-30214D01*
X61128Y-30242D01*
X61071Y-30271D01*
X60900Y-30271D01*
X60842Y-30242D01*
X60814Y-30214D01*
X61528Y-29928D02*
X61471Y-29900D01*
X61442Y-29871D01*
X61414Y-29814D01*
X61414Y-29785D01*
X61442Y-29728D01*
X61471Y-29700D01*
X61528Y-29671D01*
X61642Y-29671D01*
X61700Y-29700D01*
X61728Y-29728D01*
X61757Y-29785D01*
X61757Y-29814D01*
X61728Y-29871D01*
X61700Y-29900D01*
X61642Y-29928D01*
X61528Y-29928D01*
X61471Y-29957D01*
X61442Y-29985D01*
X61414Y-30042D01*
X61414Y-30157D01*
X61442Y-30214D01*
X61471Y-30242D01*
X61528Y-30271D01*
X61642Y-30271D01*
X61700Y-30242D01*
X61728Y-30214D01*
X61757Y-30157D01*
X61757Y-30042D01*
X61728Y-29985D01*
X61700Y-29957D01*
X61642Y-29928D01*
X60285Y-28271D02*
X60285Y-27671D01*
X60514Y-27671D01*
X60571Y-27700D01*
X60600Y-27728D01*
X60628Y-27785D01*
X60628Y-27871D01*
X60600Y-27928D01*
X60571Y-27957D01*
X60514Y-27985D01*
X60285Y-27985D01*
X60857Y-28100D02*
X61142Y-28100D01*
X60800Y-28271D02*
X61000Y-27671D01*
X61200Y-28271D01*
X61400Y-28271D02*
X61400Y-27671D01*
X61542Y-27671D01*
X61628Y-27700D01*
X61685Y-27757D01*
X61714Y-27814D01*
X61742Y-27928D01*
X61742Y-28014D01*
X61714Y-28128D01*
X61685Y-28185D01*
X61628Y-28242D01*
X61542Y-28271D01*
X61400Y-28271D01*
X59271Y-30271D02*
X59271Y-29671D01*
X59500Y-29671D01*
X59557Y-29700D01*
X59585Y-29728D01*
X59614Y-29785D01*
X59614Y-29871D01*
X59585Y-29928D01*
X59557Y-29957D01*
X59500Y-29985D01*
X59271Y-29985D01*
X59814Y-29671D02*
X60185Y-29671D01*
X59985Y-29900D01*
X60071Y-29900D01*
X60128Y-29928D01*
X60157Y-29957D01*
X60185Y-30014D01*
X60185Y-30157D01*
X60157Y-30214D01*
X60128Y-30242D01*
X60071Y-30271D01*
X59900Y-30271D01*
X59842Y-30242D01*
X59814Y-30214D01*
X60471Y-30271D02*
X60585Y-30271D01*
X60642Y-30242D01*
X60671Y-30214D01*
X60728Y-30128D01*
X60757Y-30014D01*
X60757Y-29785D01*
X60728Y-29728D01*
X60700Y-29700D01*
X60642Y-29671D01*
X60528Y-29671D01*
X60471Y-29700D01*
X60442Y-29728D01*
X60414Y-29785D01*
X60414Y-29928D01*
X60442Y-29985D01*
X60471Y-30014D01*
X60528Y-30042D01*
X60642Y-30042D01*
X60700Y-30014D01*
X60728Y-29985D01*
X60757Y-29928D01*
X59285Y-28271D02*
X59285Y-27671D01*
X59514Y-27671D01*
X59571Y-27700D01*
X59600Y-27728D01*
X59628Y-27785D01*
X59628Y-27871D01*
X59600Y-27928D01*
X59571Y-27957D01*
X59514Y-27985D01*
X59285Y-27985D01*
X59857Y-28100D02*
X60142Y-28100D01*
X59800Y-28271D02*
X60000Y-27671D01*
X60200Y-28271D01*
X60400Y-28271D02*
X60400Y-27671D01*
X60542Y-27671D01*
X60628Y-27700D01*
X60685Y-27757D01*
X60714Y-27814D01*
X60742Y-27928D01*
X60742Y-28014D01*
X60714Y-28128D01*
X60685Y-28185D01*
X60628Y-28242D01*
X60542Y-28271D01*
X60400Y-28271D01*
X66271Y-30271D02*
X66271Y-29671D01*
X66500Y-29671D01*
X66557Y-29700D01*
X66585Y-29728D01*
X66614Y-29785D01*
X66614Y-29871D01*
X66585Y-29928D01*
X66557Y-29957D01*
X66500Y-29985D01*
X66271Y-29985D01*
X67128Y-29871D02*
X67128Y-30271D01*
X66985Y-29642D02*
X66842Y-30071D01*
X67214Y-30071D01*
X67557Y-29671D02*
X67614Y-29671D01*
X67671Y-29700D01*
X67700Y-29728D01*
X67728Y-29785D01*
X67757Y-29900D01*
X67757Y-30042D01*
X67728Y-30157D01*
X67700Y-30214D01*
X67671Y-30242D01*
X67614Y-30271D01*
X67557Y-30271D01*
X67500Y-30242D01*
X67471Y-30214D01*
X67442Y-30157D01*
X67414Y-30042D01*
X67414Y-29900D01*
X67442Y-29785D01*
X67471Y-29728D01*
X67500Y-29700D01*
X67557Y-29671D01*
X66285Y-28271D02*
X66285Y-27671D01*
X66514Y-27671D01*
X66571Y-27700D01*
X66600Y-27728D01*
X66628Y-27785D01*
X66628Y-27871D01*
X66600Y-27928D01*
X66571Y-27957D01*
X66514Y-27985D01*
X66285Y-27985D01*
X66857Y-28100D02*
X67142Y-28100D01*
X66800Y-28271D02*
X67000Y-27671D01*
X67200Y-28271D01*
X67400Y-28271D02*
X67400Y-27671D01*
X67542Y-27671D01*
X67628Y-27700D01*
X67685Y-27757D01*
X67714Y-27814D01*
X67742Y-27928D01*
X67742Y-28014D01*
X67714Y-28128D01*
X67685Y-28185D01*
X67628Y-28242D01*
X67542Y-28271D01*
X67400Y-28271D01*
X65271Y-30271D02*
X65271Y-29671D01*
X65500Y-29671D01*
X65557Y-29700D01*
X65585Y-29728D01*
X65614Y-29785D01*
X65614Y-29871D01*
X65585Y-29928D01*
X65557Y-29957D01*
X65500Y-29985D01*
X65271Y-29985D01*
X66128Y-29871D02*
X66128Y-30271D01*
X65985Y-29642D02*
X65842Y-30071D01*
X66214Y-30071D01*
X66757Y-30271D02*
X66414Y-30271D01*
X66585Y-30271D02*
X66585Y-29671D01*
X66528Y-29757D01*
X66471Y-29814D01*
X66414Y-29842D01*
X65285Y-28271D02*
X65285Y-27671D01*
X65514Y-27671D01*
X65571Y-27700D01*
X65600Y-27728D01*
X65628Y-27785D01*
X65628Y-27871D01*
X65600Y-27928D01*
X65571Y-27957D01*
X65514Y-27985D01*
X65285Y-27985D01*
X65857Y-28100D02*
X66142Y-28100D01*
X65800Y-28271D02*
X66000Y-27671D01*
X66200Y-28271D01*
X66400Y-28271D02*
X66400Y-27671D01*
X66542Y-27671D01*
X66628Y-27700D01*
X66685Y-27757D01*
X66714Y-27814D01*
X66742Y-27928D01*
X66742Y-28014D01*
X66714Y-28128D01*
X66685Y-28185D01*
X66628Y-28242D01*
X66542Y-28271D01*
X66400Y-28271D01*
X64271Y-30271D02*
X64271Y-29671D01*
X64500Y-29671D01*
X64557Y-29700D01*
X64585Y-29728D01*
X64614Y-29785D01*
X64614Y-29871D01*
X64585Y-29928D01*
X64557Y-29957D01*
X64500Y-29985D01*
X64271Y-29985D01*
X65128Y-29871D02*
X65128Y-30271D01*
X64985Y-29642D02*
X64842Y-30071D01*
X65214Y-30071D01*
X65414Y-29728D02*
X65442Y-29700D01*
X65500Y-29671D01*
X65642Y-29671D01*
X65700Y-29700D01*
X65728Y-29728D01*
X65757Y-29785D01*
X65757Y-29842D01*
X65728Y-29928D01*
X65385Y-30271D01*
X65757Y-30271D01*
X64285Y-28271D02*
X64285Y-27671D01*
X64514Y-27671D01*
X64571Y-27700D01*
X64600Y-27728D01*
X64628Y-27785D01*
X64628Y-27871D01*
X64600Y-27928D01*
X64571Y-27957D01*
X64514Y-27985D01*
X64285Y-27985D01*
X64857Y-28100D02*
X65142Y-28100D01*
X64800Y-28271D02*
X65000Y-27671D01*
X65200Y-28271D01*
X65400Y-28271D02*
X65400Y-27671D01*
X65542Y-27671D01*
X65628Y-27700D01*
X65685Y-27757D01*
X65714Y-27814D01*
X65742Y-27928D01*
X65742Y-28014D01*
X65714Y-28128D01*
X65685Y-28185D01*
X65628Y-28242D01*
X65542Y-28271D01*
X65400Y-28271D01*
X63271Y-30271D02*
X63271Y-29671D01*
X63500Y-29671D01*
X63557Y-29700D01*
X63585Y-29728D01*
X63614Y-29785D01*
X63614Y-29871D01*
X63585Y-29928D01*
X63557Y-29957D01*
X63500Y-29985D01*
X63271Y-29985D01*
X64128Y-29871D02*
X64128Y-30271D01*
X63985Y-29642D02*
X63842Y-30071D01*
X64214Y-30071D01*
X64385Y-29671D02*
X64757Y-29671D01*
X64557Y-29900D01*
X64642Y-29900D01*
X64700Y-29928D01*
X64728Y-29957D01*
X64757Y-30014D01*
X64757Y-30157D01*
X64728Y-30214D01*
X64700Y-30242D01*
X64642Y-30271D01*
X64471Y-30271D01*
X64414Y-30242D01*
X64385Y-30214D01*
X63285Y-28271D02*
X63285Y-27671D01*
X63514Y-27671D01*
X63571Y-27700D01*
X63600Y-27728D01*
X63628Y-27785D01*
X63628Y-27871D01*
X63600Y-27928D01*
X63571Y-27957D01*
X63514Y-27985D01*
X63285Y-27985D01*
X63857Y-28100D02*
X64142Y-28100D01*
X63800Y-28271D02*
X64000Y-27671D01*
X64200Y-28271D01*
X64400Y-28271D02*
X64400Y-27671D01*
X64542Y-27671D01*
X64628Y-27700D01*
X64685Y-27757D01*
X64714Y-27814D01*
X64742Y-27928D01*
X64742Y-28014D01*
X64714Y-28128D01*
X64685Y-28185D01*
X64628Y-28242D01*
X64542Y-28271D01*
X64400Y-28271D01*
X62271Y-30271D02*
X62271Y-29671D01*
X62500Y-29671D01*
X62557Y-29700D01*
X62585Y-29728D01*
X62614Y-29785D01*
X62614Y-29871D01*
X62585Y-29928D01*
X62557Y-29957D01*
X62500Y-29985D01*
X62271Y-29985D01*
X63128Y-29871D02*
X63128Y-30271D01*
X62985Y-29642D02*
X62842Y-30071D01*
X63214Y-30071D01*
X63700Y-29871D02*
X63700Y-30271D01*
X63557Y-29642D02*
X63414Y-30071D01*
X63785Y-30071D01*
X62285Y-28271D02*
X62285Y-27671D01*
X62514Y-27671D01*
X62571Y-27700D01*
X62600Y-27728D01*
X62628Y-27785D01*
X62628Y-27871D01*
X62600Y-27928D01*
X62571Y-27957D01*
X62514Y-27985D01*
X62285Y-27985D01*
X62857Y-28100D02*
X63142Y-28100D01*
X62800Y-28271D02*
X63000Y-27671D01*
X63200Y-28271D01*
X63400Y-28271D02*
X63400Y-27671D01*
X63542Y-27671D01*
X63628Y-27700D01*
X63685Y-27757D01*
X63714Y-27814D01*
X63742Y-27928D01*
X63742Y-28014D01*
X63714Y-28128D01*
X63685Y-28185D01*
X63628Y-28242D01*
X63542Y-28271D01*
X63400Y-28271D01*
X61271Y-30271D02*
X61271Y-29671D01*
X61500Y-29671D01*
X61557Y-29700D01*
X61585Y-29728D01*
X61614Y-29785D01*
X61614Y-29871D01*
X61585Y-29928D01*
X61557Y-29957D01*
X61500Y-29985D01*
X61271Y-29985D01*
X62128Y-29871D02*
X62128Y-30271D01*
X61985Y-29642D02*
X61842Y-30071D01*
X62214Y-30071D01*
X62728Y-29671D02*
X62442Y-29671D01*
X62414Y-29957D01*
X62442Y-29928D01*
X62500Y-29900D01*
X62642Y-29900D01*
X62700Y-29928D01*
X62728Y-29957D01*
X62757Y-30014D01*
X62757Y-30157D01*
X62728Y-30214D01*
X62700Y-30242D01*
X62642Y-30271D01*
X62500Y-30271D01*
X62442Y-30242D01*
X62414Y-30214D01*
X61285Y-28271D02*
X61285Y-27671D01*
X61514Y-27671D01*
X61571Y-27700D01*
X61600Y-27728D01*
X61628Y-27785D01*
X61628Y-27871D01*
X61600Y-27928D01*
X61571Y-27957D01*
X61514Y-27985D01*
X61285Y-27985D01*
X61857Y-28100D02*
X62142Y-28100D01*
X61800Y-28271D02*
X62000Y-27671D01*
X62200Y-28271D01*
X62400Y-28271D02*
X62400Y-27671D01*
X62542Y-27671D01*
X62628Y-27700D01*
X62685Y-27757D01*
X62714Y-27814D01*
X62742Y-27928D01*
X62742Y-28014D01*
X62714Y-28128D01*
X62685Y-28185D01*
X62628Y-28242D01*
X62542Y-28271D01*
X62400Y-28271D01*
M02*
