M48
;DRILL file {Pcbnew (2013-mar-13)-testing} date Sat 04 Jan 2014 11:19:47 PM CET
;FORMAT={-:-/ absolute / metric / decimal}
FMAT,2
METRIC,TZ
T1C0.899
T2C2.000
%
G90
G05
M71
T1
X134.62Y-71.12
X134.62Y-73.66
X134.62Y-116.84
X137.16Y-71.12
X137.16Y-73.66
X137.16Y-116.84
X139.7Y-71.12
X139.7Y-73.66
X139.7Y-116.84
X142.24Y-71.12
X142.24Y-73.66
X142.24Y-116.84
X144.78Y-71.12
X144.78Y-73.66
X144.78Y-116.84
X147.32Y-71.12
X147.32Y-73.66
X147.32Y-116.84
X149.86Y-71.12
X149.86Y-73.66
X149.86Y-116.84
X152.4Y-71.12
X152.4Y-73.66
X152.4Y-116.84
X154.94Y-71.12
X154.94Y-73.66
X154.94Y-116.84
X157.48Y-71.12
X157.48Y-73.66
X157.48Y-116.84
X160.02Y-71.12
X160.02Y-73.66
X160.02Y-116.84
X162.56Y-71.12
X162.56Y-73.66
X162.56Y-116.84
X165.1Y-71.12
X165.1Y-73.66
X165.1Y-116.84
X167.64Y-71.12
X167.64Y-73.66
X167.64Y-116.84
X170.18Y-71.12
X170.18Y-73.66
X170.18Y-116.84
T2
X130.81Y-72.39
X130.81Y-116.84
X173.99Y-72.39
X173.99Y-116.84
T0
M30
