G04 (created by PCBNEW (2013-mar-13)-testing) date Sat 04 Jan 2014 11:19:49 PM CET*
%MOIN*%
G04 Gerber Fmt 3.4, Leading zero omitted, Abs format*
%FSLAX34Y34*%
G01*
G70*
G90*
G04 APERTURE LIST*
%ADD10C,0.005000*%
%ADD11C,0.015000*%
%ADD12C,0.007874*%
%ADD13C,0.011811*%
G04 APERTURE END LIST*
G54D10*
G54D11*
X69842Y-27157D02*
X69842Y-46842D01*
X50157Y-27157D02*
X69842Y-27157D01*
X50157Y-46842D02*
X50157Y-27157D01*
X69842Y-46842D02*
X50157Y-46842D01*
G54D12*
X52823Y-27823D02*
X53177Y-28177D01*
X53177Y-27823D02*
X52823Y-28177D01*
X52823Y-28823D02*
X53177Y-29177D01*
X53177Y-28823D02*
X52823Y-29177D01*
X52823Y-45823D02*
X53177Y-46177D01*
X53177Y-45823D02*
X52823Y-46177D01*
X53823Y-27823D02*
X54177Y-28177D01*
X54177Y-27823D02*
X53823Y-28177D01*
X53823Y-28823D02*
X54177Y-29177D01*
X54177Y-28823D02*
X53823Y-29177D01*
X53823Y-45823D02*
X54177Y-46177D01*
X54177Y-45823D02*
X53823Y-46177D01*
X54823Y-27823D02*
X55177Y-28177D01*
X55177Y-27823D02*
X54823Y-28177D01*
X54823Y-28823D02*
X55177Y-29177D01*
X55177Y-28823D02*
X54823Y-29177D01*
X54823Y-45823D02*
X55177Y-46177D01*
X55177Y-45823D02*
X54823Y-46177D01*
X55823Y-27823D02*
X56177Y-28177D01*
X56177Y-27823D02*
X55823Y-28177D01*
X55823Y-28823D02*
X56177Y-29177D01*
X56177Y-28823D02*
X55823Y-29177D01*
X55823Y-45823D02*
X56177Y-46177D01*
X56177Y-45823D02*
X55823Y-46177D01*
X56823Y-27823D02*
X57177Y-28177D01*
X57177Y-27823D02*
X56823Y-28177D01*
X56823Y-28823D02*
X57177Y-29177D01*
X57177Y-28823D02*
X56823Y-29177D01*
X56823Y-45823D02*
X57177Y-46177D01*
X57177Y-45823D02*
X56823Y-46177D01*
X57823Y-27823D02*
X58177Y-28177D01*
X58177Y-27823D02*
X57823Y-28177D01*
X57823Y-28823D02*
X58177Y-29177D01*
X58177Y-28823D02*
X57823Y-29177D01*
X57823Y-45823D02*
X58177Y-46177D01*
X58177Y-45823D02*
X57823Y-46177D01*
X58823Y-27823D02*
X59177Y-28177D01*
X59177Y-27823D02*
X58823Y-28177D01*
X58823Y-28823D02*
X59177Y-29177D01*
X59177Y-28823D02*
X58823Y-29177D01*
X58823Y-45823D02*
X59177Y-46177D01*
X59177Y-45823D02*
X58823Y-46177D01*
X59823Y-27823D02*
X60177Y-28177D01*
X60177Y-27823D02*
X59823Y-28177D01*
X59823Y-28823D02*
X60177Y-29177D01*
X60177Y-28823D02*
X59823Y-29177D01*
X59823Y-45823D02*
X60177Y-46177D01*
X60177Y-45823D02*
X59823Y-46177D01*
X60823Y-27823D02*
X61177Y-28177D01*
X61177Y-27823D02*
X60823Y-28177D01*
X60823Y-28823D02*
X61177Y-29177D01*
X61177Y-28823D02*
X60823Y-29177D01*
X60823Y-45823D02*
X61177Y-46177D01*
X61177Y-45823D02*
X60823Y-46177D01*
X61823Y-27823D02*
X62177Y-28177D01*
X62177Y-27823D02*
X61823Y-28177D01*
X61823Y-28823D02*
X62177Y-29177D01*
X62177Y-28823D02*
X61823Y-29177D01*
X61823Y-45823D02*
X62177Y-46177D01*
X62177Y-45823D02*
X61823Y-46177D01*
X62823Y-27823D02*
X63177Y-28177D01*
X63177Y-27823D02*
X62823Y-28177D01*
X62823Y-28823D02*
X63177Y-29177D01*
X63177Y-28823D02*
X62823Y-29177D01*
X62823Y-45823D02*
X63177Y-46177D01*
X63177Y-45823D02*
X62823Y-46177D01*
X63823Y-27823D02*
X64177Y-28177D01*
X64177Y-27823D02*
X63823Y-28177D01*
X63823Y-28823D02*
X64177Y-29177D01*
X64177Y-28823D02*
X63823Y-29177D01*
X63823Y-45823D02*
X64177Y-46177D01*
X64177Y-45823D02*
X63823Y-46177D01*
X64823Y-27823D02*
X65177Y-28177D01*
X65177Y-27823D02*
X64823Y-28177D01*
X64823Y-28823D02*
X65177Y-29177D01*
X65177Y-28823D02*
X64823Y-29177D01*
X64823Y-45823D02*
X65177Y-46177D01*
X65177Y-45823D02*
X64823Y-46177D01*
X65823Y-27823D02*
X66177Y-28177D01*
X66177Y-27823D02*
X65823Y-28177D01*
X65823Y-28823D02*
X66177Y-29177D01*
X66177Y-28823D02*
X65823Y-29177D01*
X65823Y-45823D02*
X66177Y-46177D01*
X66177Y-45823D02*
X65823Y-46177D01*
X66823Y-27823D02*
X67177Y-28177D01*
X67177Y-27823D02*
X66823Y-28177D01*
X66823Y-28823D02*
X67177Y-29177D01*
X67177Y-28823D02*
X66823Y-29177D01*
X66823Y-45823D02*
X67177Y-46177D01*
X67177Y-45823D02*
X66823Y-46177D01*
X51893Y-28500D02*
G75*
G03X51893Y-28500I-393J0D01*
G74*
G01*
X51893Y-46000D02*
G75*
G03X51893Y-46000I-393J0D01*
G74*
G01*
X68893Y-28500D02*
G75*
G03X68893Y-28500I-393J0D01*
G74*
G01*
X68893Y-46000D02*
G75*
G03X68893Y-46000I-393J0D01*
G74*
G01*
G54D13*
X51151Y-48751D02*
X51151Y-47569D01*
X51432Y-47569D01*
X51601Y-47626D01*
X51713Y-47738D01*
X51769Y-47851D01*
X51826Y-48076D01*
X51826Y-48244D01*
X51769Y-48469D01*
X51713Y-48582D01*
X51601Y-48694D01*
X51432Y-48751D01*
X51151Y-48751D01*
X52332Y-48751D02*
X52332Y-47963D01*
X52332Y-48188D02*
X52388Y-48076D01*
X52444Y-48019D01*
X52557Y-47963D01*
X52669Y-47963D01*
X53063Y-48751D02*
X53063Y-47963D01*
X53063Y-47569D02*
X53007Y-47626D01*
X53063Y-47682D01*
X53119Y-47626D01*
X53063Y-47569D01*
X53063Y-47682D01*
X53794Y-48751D02*
X53682Y-48694D01*
X53625Y-48582D01*
X53625Y-47569D01*
X54413Y-48751D02*
X54300Y-48694D01*
X54244Y-48582D01*
X54244Y-47569D01*
X55763Y-48751D02*
X55763Y-47569D01*
X56156Y-48413D01*
X56550Y-47569D01*
X56550Y-48751D01*
X57619Y-48751D02*
X57619Y-48132D01*
X57562Y-48019D01*
X57450Y-47963D01*
X57225Y-47963D01*
X57112Y-48019D01*
X57619Y-48694D02*
X57506Y-48751D01*
X57225Y-48751D01*
X57112Y-48694D01*
X57056Y-48582D01*
X57056Y-48469D01*
X57112Y-48357D01*
X57225Y-48301D01*
X57506Y-48301D01*
X57619Y-48244D01*
X58181Y-47963D02*
X58181Y-49144D01*
X58181Y-48019D02*
X58293Y-47963D01*
X58518Y-47963D01*
X58631Y-48019D01*
X58687Y-48076D01*
X58743Y-48188D01*
X58743Y-48526D01*
X58687Y-48638D01*
X58631Y-48694D01*
X58518Y-48751D01*
X58293Y-48751D01*
X58181Y-48694D01*
X59250Y-48638D02*
X59306Y-48694D01*
X59250Y-48751D01*
X59193Y-48694D01*
X59250Y-48638D01*
X59250Y-48751D01*
X59250Y-48019D02*
X59306Y-48076D01*
X59250Y-48132D01*
X59193Y-48076D01*
X59250Y-48019D01*
X59250Y-48132D01*
X49728Y-50520D02*
X50082Y-50874D01*
X50082Y-50520D02*
X49728Y-50874D01*
X51376Y-50050D02*
X51488Y-50050D01*
X51601Y-50106D01*
X51657Y-50162D01*
X51713Y-50275D01*
X51769Y-50500D01*
X51769Y-50781D01*
X51713Y-51006D01*
X51657Y-51118D01*
X51601Y-51175D01*
X51488Y-51231D01*
X51376Y-51231D01*
X51263Y-51175D01*
X51207Y-51118D01*
X51151Y-51006D01*
X51094Y-50781D01*
X51094Y-50500D01*
X51151Y-50275D01*
X51207Y-50162D01*
X51263Y-50106D01*
X51376Y-50050D01*
X52275Y-51118D02*
X52332Y-51175D01*
X52275Y-51231D01*
X52219Y-51175D01*
X52275Y-51118D01*
X52275Y-51231D01*
X52894Y-51231D02*
X53119Y-51231D01*
X53232Y-51175D01*
X53288Y-51118D01*
X53400Y-50950D01*
X53457Y-50725D01*
X53457Y-50275D01*
X53400Y-50162D01*
X53344Y-50106D01*
X53232Y-50050D01*
X53007Y-50050D01*
X52894Y-50106D01*
X52838Y-50162D01*
X52782Y-50275D01*
X52782Y-50556D01*
X52838Y-50668D01*
X52894Y-50725D01*
X53007Y-50781D01*
X53232Y-50781D01*
X53344Y-50725D01*
X53400Y-50668D01*
X53457Y-50556D01*
X54188Y-50050D02*
X54300Y-50050D01*
X54413Y-50106D01*
X54469Y-50162D01*
X54525Y-50275D01*
X54581Y-50500D01*
X54581Y-50781D01*
X54525Y-51006D01*
X54469Y-51118D01*
X54413Y-51175D01*
X54300Y-51231D01*
X54188Y-51231D01*
X54075Y-51175D01*
X54019Y-51118D01*
X53963Y-51006D01*
X53907Y-50781D01*
X53907Y-50500D01*
X53963Y-50275D01*
X54019Y-50162D01*
X54075Y-50106D01*
X54188Y-50050D01*
X55088Y-51231D02*
X55088Y-50443D01*
X55088Y-50556D02*
X55144Y-50500D01*
X55256Y-50443D01*
X55425Y-50443D01*
X55538Y-50500D01*
X55594Y-50612D01*
X55594Y-51231D01*
X55594Y-50612D02*
X55650Y-50500D01*
X55763Y-50443D01*
X55931Y-50443D01*
X56044Y-50500D01*
X56100Y-50612D01*
X56100Y-51231D01*
X56662Y-51231D02*
X56662Y-50443D01*
X56662Y-50556D02*
X56719Y-50500D01*
X56831Y-50443D01*
X57000Y-50443D01*
X57112Y-50500D01*
X57169Y-50612D01*
X57169Y-51231D01*
X57169Y-50612D02*
X57225Y-50500D01*
X57337Y-50443D01*
X57506Y-50443D01*
X57619Y-50500D01*
X57675Y-50612D01*
X57675Y-51231D01*
X59981Y-49994D02*
X58968Y-51512D01*
X61499Y-50050D02*
X61612Y-50050D01*
X61724Y-50106D01*
X61781Y-50162D01*
X61837Y-50275D01*
X61893Y-50500D01*
X61893Y-50781D01*
X61837Y-51006D01*
X61781Y-51118D01*
X61724Y-51175D01*
X61612Y-51231D01*
X61499Y-51231D01*
X61387Y-51175D01*
X61331Y-51118D01*
X61274Y-51006D01*
X61218Y-50781D01*
X61218Y-50500D01*
X61274Y-50275D01*
X61331Y-50162D01*
X61387Y-50106D01*
X61499Y-50050D01*
X62399Y-51118D02*
X62455Y-51175D01*
X62399Y-51231D01*
X62343Y-51175D01*
X62399Y-51118D01*
X62399Y-51231D01*
X63187Y-50050D02*
X63299Y-50050D01*
X63412Y-50106D01*
X63468Y-50162D01*
X63524Y-50275D01*
X63580Y-50500D01*
X63580Y-50781D01*
X63524Y-51006D01*
X63468Y-51118D01*
X63412Y-51175D01*
X63299Y-51231D01*
X63187Y-51231D01*
X63074Y-51175D01*
X63018Y-51118D01*
X62962Y-51006D01*
X62905Y-50781D01*
X62905Y-50500D01*
X62962Y-50275D01*
X63018Y-50162D01*
X63074Y-50106D01*
X63187Y-50050D01*
X63974Y-50050D02*
X64705Y-50050D01*
X64311Y-50500D01*
X64480Y-50500D01*
X64593Y-50556D01*
X64649Y-50612D01*
X64705Y-50725D01*
X64705Y-51006D01*
X64649Y-51118D01*
X64593Y-51175D01*
X64480Y-51231D01*
X64143Y-51231D01*
X64030Y-51175D01*
X63974Y-51118D01*
X65774Y-50050D02*
X65211Y-50050D01*
X65155Y-50612D01*
X65211Y-50556D01*
X65324Y-50500D01*
X65605Y-50500D01*
X65718Y-50556D01*
X65774Y-50612D01*
X65830Y-50725D01*
X65830Y-51006D01*
X65774Y-51118D01*
X65718Y-51175D01*
X65605Y-51231D01*
X65324Y-51231D01*
X65211Y-51175D01*
X65155Y-51118D01*
X66280Y-50050D02*
X66280Y-50275D01*
X66730Y-50050D02*
X66730Y-50275D01*
X68473Y-51681D02*
X68417Y-51625D01*
X68305Y-51456D01*
X68248Y-51343D01*
X68192Y-51175D01*
X68136Y-50893D01*
X68136Y-50668D01*
X68192Y-50387D01*
X68248Y-50218D01*
X68305Y-50106D01*
X68417Y-49937D01*
X68473Y-49881D01*
X69430Y-50443D02*
X69430Y-51231D01*
X69148Y-49994D02*
X68867Y-50837D01*
X69598Y-50837D01*
X70611Y-50050D02*
X70048Y-50050D01*
X69992Y-50612D01*
X70048Y-50556D01*
X70161Y-50500D01*
X70442Y-50500D01*
X70554Y-50556D01*
X70611Y-50612D01*
X70667Y-50725D01*
X70667Y-51006D01*
X70611Y-51118D01*
X70554Y-51175D01*
X70442Y-51231D01*
X70161Y-51231D01*
X70048Y-51175D01*
X69992Y-51118D01*
X72073Y-51231D02*
X72073Y-50050D01*
X72579Y-51231D02*
X72579Y-50612D01*
X72523Y-50500D01*
X72410Y-50443D01*
X72242Y-50443D01*
X72129Y-50500D01*
X72073Y-50556D01*
X73310Y-51231D02*
X73198Y-51175D01*
X73142Y-51118D01*
X73085Y-51006D01*
X73085Y-50668D01*
X73142Y-50556D01*
X73198Y-50500D01*
X73310Y-50443D01*
X73479Y-50443D01*
X73592Y-50500D01*
X73648Y-50556D01*
X73704Y-50668D01*
X73704Y-51006D01*
X73648Y-51118D01*
X73592Y-51175D01*
X73479Y-51231D01*
X73310Y-51231D01*
X74379Y-51231D02*
X74266Y-51175D01*
X74210Y-51062D01*
X74210Y-50050D01*
X75279Y-51175D02*
X75166Y-51231D01*
X74941Y-51231D01*
X74829Y-51175D01*
X74773Y-51062D01*
X74773Y-50612D01*
X74829Y-50500D01*
X74941Y-50443D01*
X75166Y-50443D01*
X75279Y-50500D01*
X75335Y-50612D01*
X75335Y-50725D01*
X74773Y-50837D01*
X75785Y-51175D02*
X75898Y-51231D01*
X76122Y-51231D01*
X76235Y-51175D01*
X76291Y-51062D01*
X76291Y-51006D01*
X76235Y-50893D01*
X76122Y-50837D01*
X75954Y-50837D01*
X75841Y-50781D01*
X75785Y-50668D01*
X75785Y-50612D01*
X75841Y-50500D01*
X75954Y-50443D01*
X76122Y-50443D01*
X76235Y-50500D01*
X76685Y-51681D02*
X76741Y-51625D01*
X76854Y-51456D01*
X76910Y-51343D01*
X76966Y-51175D01*
X77022Y-50893D01*
X77022Y-50668D01*
X76966Y-50387D01*
X76910Y-50218D01*
X76854Y-50106D01*
X76741Y-49937D01*
X76685Y-49881D01*
G54D12*
X50082Y-52256D02*
G75*
G03X50082Y-52256I-393J0D01*
G74*
G01*
G54D13*
X51094Y-51721D02*
X51151Y-51665D01*
X51263Y-51609D01*
X51544Y-51609D01*
X51657Y-51665D01*
X51713Y-51721D01*
X51769Y-51834D01*
X51769Y-51946D01*
X51713Y-52115D01*
X51038Y-52790D01*
X51769Y-52790D01*
X52275Y-52677D02*
X52332Y-52734D01*
X52275Y-52790D01*
X52219Y-52734D01*
X52275Y-52677D01*
X52275Y-52790D01*
X53063Y-51609D02*
X53175Y-51609D01*
X53288Y-51665D01*
X53344Y-51721D01*
X53400Y-51834D01*
X53457Y-52059D01*
X53457Y-52340D01*
X53400Y-52565D01*
X53344Y-52677D01*
X53288Y-52734D01*
X53175Y-52790D01*
X53063Y-52790D01*
X52950Y-52734D01*
X52894Y-52677D01*
X52838Y-52565D01*
X52782Y-52340D01*
X52782Y-52059D01*
X52838Y-51834D01*
X52894Y-51721D01*
X52950Y-51665D01*
X53063Y-51609D01*
X54188Y-51609D02*
X54300Y-51609D01*
X54413Y-51665D01*
X54469Y-51721D01*
X54525Y-51834D01*
X54581Y-52059D01*
X54581Y-52340D01*
X54525Y-52565D01*
X54469Y-52677D01*
X54413Y-52734D01*
X54300Y-52790D01*
X54188Y-52790D01*
X54075Y-52734D01*
X54019Y-52677D01*
X53963Y-52565D01*
X53907Y-52340D01*
X53907Y-52059D01*
X53963Y-51834D01*
X54019Y-51721D01*
X54075Y-51665D01*
X54188Y-51609D01*
X55088Y-52790D02*
X55088Y-52003D01*
X55088Y-52115D02*
X55144Y-52059D01*
X55256Y-52003D01*
X55425Y-52003D01*
X55538Y-52059D01*
X55594Y-52171D01*
X55594Y-52790D01*
X55594Y-52171D02*
X55650Y-52059D01*
X55763Y-52003D01*
X55931Y-52003D01*
X56044Y-52059D01*
X56100Y-52171D01*
X56100Y-52790D01*
X56662Y-52790D02*
X56662Y-52003D01*
X56662Y-52115D02*
X56719Y-52059D01*
X56831Y-52003D01*
X57000Y-52003D01*
X57112Y-52059D01*
X57169Y-52171D01*
X57169Y-52790D01*
X57169Y-52171D02*
X57225Y-52059D01*
X57337Y-52003D01*
X57506Y-52003D01*
X57619Y-52059D01*
X57675Y-52171D01*
X57675Y-52790D01*
X59981Y-51553D02*
X58968Y-53071D01*
X61499Y-51609D02*
X61612Y-51609D01*
X61724Y-51665D01*
X61781Y-51721D01*
X61837Y-51834D01*
X61893Y-52059D01*
X61893Y-52340D01*
X61837Y-52565D01*
X61781Y-52677D01*
X61724Y-52734D01*
X61612Y-52790D01*
X61499Y-52790D01*
X61387Y-52734D01*
X61331Y-52677D01*
X61274Y-52565D01*
X61218Y-52340D01*
X61218Y-52059D01*
X61274Y-51834D01*
X61331Y-51721D01*
X61387Y-51665D01*
X61499Y-51609D01*
X62399Y-52677D02*
X62455Y-52734D01*
X62399Y-52790D01*
X62343Y-52734D01*
X62399Y-52677D01*
X62399Y-52790D01*
X63187Y-51609D02*
X63299Y-51609D01*
X63412Y-51665D01*
X63468Y-51721D01*
X63524Y-51834D01*
X63580Y-52059D01*
X63580Y-52340D01*
X63524Y-52565D01*
X63468Y-52677D01*
X63412Y-52734D01*
X63299Y-52790D01*
X63187Y-52790D01*
X63074Y-52734D01*
X63018Y-52677D01*
X62962Y-52565D01*
X62905Y-52340D01*
X62905Y-52059D01*
X62962Y-51834D01*
X63018Y-51721D01*
X63074Y-51665D01*
X63187Y-51609D01*
X63974Y-51609D02*
X64761Y-51609D01*
X64255Y-52790D01*
X65268Y-52790D02*
X65493Y-52790D01*
X65605Y-52734D01*
X65661Y-52677D01*
X65774Y-52509D01*
X65830Y-52284D01*
X65830Y-51834D01*
X65774Y-51721D01*
X65718Y-51665D01*
X65605Y-51609D01*
X65380Y-51609D01*
X65268Y-51665D01*
X65211Y-51721D01*
X65155Y-51834D01*
X65155Y-52115D01*
X65211Y-52227D01*
X65268Y-52284D01*
X65380Y-52340D01*
X65605Y-52340D01*
X65718Y-52284D01*
X65774Y-52227D01*
X65830Y-52115D01*
X66280Y-51609D02*
X66280Y-51834D01*
X66730Y-51609D02*
X66730Y-51834D01*
X68473Y-53240D02*
X68417Y-53184D01*
X68305Y-53015D01*
X68248Y-52902D01*
X68192Y-52734D01*
X68136Y-52452D01*
X68136Y-52227D01*
X68192Y-51946D01*
X68248Y-51778D01*
X68305Y-51665D01*
X68417Y-51496D01*
X68473Y-51440D01*
X69430Y-52003D02*
X69430Y-52790D01*
X69148Y-51553D02*
X68867Y-52396D01*
X69598Y-52396D01*
X70948Y-52790D02*
X70948Y-51609D01*
X71454Y-52790D02*
X71454Y-52171D01*
X71398Y-52059D01*
X71286Y-52003D01*
X71117Y-52003D01*
X71004Y-52059D01*
X70948Y-52115D01*
X72185Y-52790D02*
X72073Y-52734D01*
X72017Y-52677D01*
X71960Y-52565D01*
X71960Y-52227D01*
X72017Y-52115D01*
X72073Y-52059D01*
X72185Y-52003D01*
X72354Y-52003D01*
X72467Y-52059D01*
X72523Y-52115D01*
X72579Y-52227D01*
X72579Y-52565D01*
X72523Y-52677D01*
X72467Y-52734D01*
X72354Y-52790D01*
X72185Y-52790D01*
X73254Y-52790D02*
X73142Y-52734D01*
X73085Y-52621D01*
X73085Y-51609D01*
X74154Y-52734D02*
X74041Y-52790D01*
X73817Y-52790D01*
X73704Y-52734D01*
X73648Y-52621D01*
X73648Y-52171D01*
X73704Y-52059D01*
X73817Y-52003D01*
X74041Y-52003D01*
X74154Y-52059D01*
X74210Y-52171D01*
X74210Y-52284D01*
X73648Y-52396D01*
X74660Y-52734D02*
X74773Y-52790D01*
X74998Y-52790D01*
X75110Y-52734D01*
X75166Y-52621D01*
X75166Y-52565D01*
X75110Y-52452D01*
X74998Y-52396D01*
X74829Y-52396D01*
X74716Y-52340D01*
X74660Y-52227D01*
X74660Y-52171D01*
X74716Y-52059D01*
X74829Y-52003D01*
X74998Y-52003D01*
X75110Y-52059D01*
X75560Y-53240D02*
X75616Y-53184D01*
X75729Y-53015D01*
X75785Y-52902D01*
X75841Y-52734D01*
X75898Y-52452D01*
X75898Y-52227D01*
X75841Y-51946D01*
X75785Y-51778D01*
X75729Y-51665D01*
X75616Y-51496D01*
X75560Y-51440D01*
M02*
