G04 (created by PCBNEW (2013-mar-13)-testing) date Thu 12 Dec 2013 10:03:58 PM CET*
%MOIN*%
G04 Gerber Fmt 3.4, Leading zero omitted, Abs format*
%FSLAX34Y34*%
G01*
G70*
G90*
G04 APERTURE LIST*
%ADD10C,0.005906*%
%ADD11R,0.078700X0.078700*%
%ADD12R,0.039400X0.039400*%
%ADD13C,0.118110*%
%ADD14C,0.012000*%
G04 APERTURE END LIST*
G54D10*
G54D11*
X52750Y-28000D03*
X53750Y-28000D03*
X54750Y-28000D03*
X55750Y-28000D03*
X56750Y-28000D03*
X57750Y-28000D03*
X58750Y-28000D03*
X59750Y-28000D03*
X60750Y-28000D03*
X61750Y-28000D03*
X62750Y-28000D03*
X63750Y-28000D03*
X64750Y-28000D03*
X65750Y-28000D03*
X66750Y-28000D03*
X62750Y-46000D03*
X63750Y-46000D03*
X61750Y-46000D03*
X60750Y-46000D03*
X59750Y-46000D03*
X58750Y-46000D03*
X57750Y-46000D03*
X52750Y-46000D03*
X53750Y-46000D03*
X54750Y-46000D03*
X55750Y-46000D03*
X56750Y-46000D03*
X64750Y-46000D03*
X65750Y-46000D03*
X66750Y-46000D03*
G54D12*
X59500Y-42000D03*
X59000Y-42000D03*
X58500Y-42000D03*
X58000Y-42000D03*
X57500Y-42000D03*
X57000Y-42000D03*
X56500Y-42000D03*
X56000Y-42000D03*
X55500Y-41500D03*
X55500Y-41000D03*
X55500Y-40500D03*
X55500Y-40000D03*
X55500Y-39500D03*
X55500Y-39000D03*
X55500Y-38500D03*
X55500Y-38000D03*
X55500Y-37000D03*
X55500Y-36500D03*
X55500Y-36000D03*
X55500Y-35500D03*
X55500Y-35000D03*
X55500Y-34500D03*
X55500Y-34000D03*
X55500Y-33500D03*
X56000Y-33000D03*
X56500Y-33000D03*
X57000Y-33000D03*
X57500Y-33000D03*
X58000Y-33000D03*
X58500Y-33000D03*
X59000Y-33000D03*
X59500Y-33000D03*
X60500Y-33000D03*
X61000Y-33000D03*
X61500Y-33000D03*
X62000Y-33000D03*
X62500Y-33000D03*
X63000Y-33000D03*
X63500Y-33000D03*
X64000Y-33000D03*
X64500Y-33500D03*
X64500Y-34000D03*
X64500Y-34500D03*
X64500Y-35000D03*
X64500Y-35500D03*
X64500Y-36000D03*
X64500Y-36500D03*
X64500Y-37000D03*
X64500Y-38000D03*
X64500Y-38500D03*
X64500Y-39000D03*
X64500Y-39500D03*
X64500Y-40000D03*
X64500Y-40500D03*
X64500Y-41000D03*
X64500Y-41500D03*
X64000Y-42000D03*
X63500Y-42000D03*
X63000Y-42000D03*
X62500Y-42000D03*
X62000Y-42000D03*
X61500Y-42000D03*
X61000Y-42000D03*
X60500Y-42000D03*
G54D10*
G36*
X59791Y-41188D02*
X59345Y-41634D01*
X59206Y-41494D01*
X59652Y-41049D01*
X59791Y-41188D01*
X59791Y-41188D01*
G37*
G36*
X59568Y-40965D02*
X59123Y-41411D01*
X58983Y-41272D01*
X59429Y-40826D01*
X59568Y-40965D01*
X59568Y-40965D01*
G37*
G36*
X59345Y-40743D02*
X58900Y-41188D01*
X58761Y-41049D01*
X59206Y-40604D01*
X59345Y-40743D01*
X59345Y-40743D01*
G37*
G36*
X59123Y-40520D02*
X58677Y-40965D01*
X58538Y-40826D01*
X58983Y-40381D01*
X59123Y-40520D01*
X59123Y-40520D01*
G37*
G36*
X58900Y-40297D02*
X58454Y-40743D01*
X58315Y-40604D01*
X58761Y-40158D01*
X58900Y-40297D01*
X58900Y-40297D01*
G37*
G36*
X58677Y-40075D02*
X58232Y-40520D01*
X58093Y-40381D01*
X58538Y-39935D01*
X58677Y-40075D01*
X58677Y-40075D01*
G37*
G36*
X58454Y-39852D02*
X58009Y-40297D01*
X57870Y-40158D01*
X58315Y-39713D01*
X58454Y-39852D01*
X58454Y-39852D01*
G37*
G36*
X58232Y-39629D02*
X57786Y-40075D01*
X57647Y-39935D01*
X58093Y-39490D01*
X58232Y-39629D01*
X58232Y-39629D01*
G37*
G36*
X58009Y-39406D02*
X57564Y-39852D01*
X57424Y-39713D01*
X57870Y-39267D01*
X58009Y-39406D01*
X58009Y-39406D01*
G37*
G36*
X57786Y-39184D02*
X57341Y-39629D01*
X57202Y-39490D01*
X57647Y-39045D01*
X57786Y-39184D01*
X57786Y-39184D01*
G37*
G36*
X57564Y-38961D02*
X57118Y-39406D01*
X56979Y-39267D01*
X57424Y-38822D01*
X57564Y-38961D01*
X57564Y-38961D01*
G37*
G36*
X57341Y-38738D02*
X56895Y-39184D01*
X56756Y-39045D01*
X57202Y-38599D01*
X57341Y-38738D01*
X57341Y-38738D01*
G37*
G36*
X57118Y-38516D02*
X56673Y-38961D01*
X56534Y-38822D01*
X56979Y-38376D01*
X57118Y-38516D01*
X57118Y-38516D01*
G37*
G36*
X56895Y-38293D02*
X56450Y-38738D01*
X56311Y-38599D01*
X56756Y-38154D01*
X56895Y-38293D01*
X56895Y-38293D01*
G37*
G36*
X56673Y-38070D02*
X56227Y-38516D01*
X56088Y-38376D01*
X56534Y-37931D01*
X56673Y-38070D01*
X56673Y-38070D01*
G37*
G36*
X56450Y-37847D02*
X56005Y-38293D01*
X55865Y-38154D01*
X56311Y-37708D01*
X56450Y-37847D01*
X56450Y-37847D01*
G37*
G36*
X58983Y-39963D02*
X55865Y-36845D01*
X56005Y-36706D01*
X59123Y-39824D01*
X58983Y-39963D01*
X58983Y-39963D01*
G37*
G36*
X59206Y-39741D02*
X56088Y-36623D01*
X56227Y-36483D01*
X59345Y-39601D01*
X59206Y-39741D01*
X59206Y-39741D01*
G37*
G36*
X59429Y-39518D02*
X56311Y-36400D01*
X56450Y-36261D01*
X59568Y-39379D01*
X59429Y-39518D01*
X59429Y-39518D01*
G37*
G36*
X59652Y-39295D02*
X56534Y-36177D01*
X56673Y-36038D01*
X59791Y-39156D01*
X59652Y-39295D01*
X59652Y-39295D01*
G37*
G36*
X59652Y-38850D02*
X56756Y-35954D01*
X56895Y-35815D01*
X59791Y-38710D01*
X59652Y-38850D01*
X59652Y-38850D01*
G37*
G36*
X59652Y-38404D02*
X56979Y-35732D01*
X57118Y-35593D01*
X59791Y-38265D01*
X59652Y-38404D01*
X59652Y-38404D01*
G37*
G36*
X59652Y-37959D02*
X57202Y-35509D01*
X57341Y-35370D01*
X59791Y-37820D01*
X59652Y-37959D01*
X59652Y-37959D01*
G37*
G36*
X59652Y-37513D02*
X57424Y-35286D01*
X57564Y-35147D01*
X59791Y-37374D01*
X59652Y-37513D01*
X59652Y-37513D01*
G37*
G36*
X59652Y-37068D02*
X57647Y-35064D01*
X57786Y-34924D01*
X59791Y-36929D01*
X59652Y-37068D01*
X59652Y-37068D01*
G37*
G36*
X59652Y-36623D02*
X57870Y-34841D01*
X58009Y-34702D01*
X59791Y-36483D01*
X59652Y-36623D01*
X59652Y-36623D01*
G37*
G36*
X59652Y-36177D02*
X58093Y-34618D01*
X58232Y-34479D01*
X59791Y-36038D01*
X59652Y-36177D01*
X59652Y-36177D01*
G37*
G36*
X59652Y-35732D02*
X58315Y-34395D01*
X58454Y-34256D01*
X59791Y-35593D01*
X59652Y-35732D01*
X59652Y-35732D01*
G37*
G36*
X59652Y-35286D02*
X58538Y-34173D01*
X58677Y-34034D01*
X59791Y-35147D01*
X59652Y-35286D01*
X59652Y-35286D01*
G37*
G36*
X59652Y-34841D02*
X58761Y-33950D01*
X58900Y-33811D01*
X59791Y-34702D01*
X59652Y-34841D01*
X59652Y-34841D01*
G37*
G36*
X59652Y-34395D02*
X58983Y-33727D01*
X59123Y-33588D01*
X59791Y-34256D01*
X59652Y-34395D01*
X59652Y-34395D01*
G37*
G36*
X59652Y-33950D02*
X59206Y-33505D01*
X59345Y-33365D01*
X59791Y-33811D01*
X59652Y-33950D01*
X59652Y-33950D01*
G37*
G36*
X60793Y-33505D02*
X60347Y-33950D01*
X60208Y-33811D01*
X60654Y-33365D01*
X60793Y-33505D01*
X60793Y-33505D01*
G37*
G36*
X61016Y-33727D02*
X60347Y-34395D01*
X60208Y-34256D01*
X60876Y-33588D01*
X61016Y-33727D01*
X61016Y-33727D01*
G37*
G36*
X61238Y-33950D02*
X60347Y-34841D01*
X60208Y-34702D01*
X61099Y-33811D01*
X61238Y-33950D01*
X61238Y-33950D01*
G37*
G36*
X61461Y-34173D02*
X60347Y-35286D01*
X60208Y-35147D01*
X61322Y-34034D01*
X61461Y-34173D01*
X61461Y-34173D01*
G37*
G36*
X61684Y-34395D02*
X60347Y-35732D01*
X60208Y-35593D01*
X61545Y-34256D01*
X61684Y-34395D01*
X61684Y-34395D01*
G37*
G36*
X61906Y-34618D02*
X60347Y-36177D01*
X60208Y-36038D01*
X61767Y-34479D01*
X61906Y-34618D01*
X61906Y-34618D01*
G37*
G36*
X62129Y-34841D02*
X60347Y-36623D01*
X60208Y-36483D01*
X61990Y-34702D01*
X62129Y-34841D01*
X62129Y-34841D01*
G37*
G36*
X62352Y-35064D02*
X60347Y-37068D01*
X60208Y-36929D01*
X62213Y-34924D01*
X62352Y-35064D01*
X62352Y-35064D01*
G37*
G36*
X62575Y-35286D02*
X60347Y-37513D01*
X60208Y-37374D01*
X62435Y-35147D01*
X62575Y-35286D01*
X62575Y-35286D01*
G37*
G36*
X62797Y-35509D02*
X60347Y-37959D01*
X60208Y-37820D01*
X62658Y-35370D01*
X62797Y-35509D01*
X62797Y-35509D01*
G37*
G36*
X63020Y-35732D02*
X60347Y-38404D01*
X60208Y-38265D01*
X62881Y-35593D01*
X63020Y-35732D01*
X63020Y-35732D01*
G37*
G36*
X63243Y-35954D02*
X60347Y-38850D01*
X60208Y-38710D01*
X63104Y-35815D01*
X63243Y-35954D01*
X63243Y-35954D01*
G37*
G36*
X63465Y-36177D02*
X60347Y-39295D01*
X60208Y-39156D01*
X63326Y-36038D01*
X63465Y-36177D01*
X63465Y-36177D01*
G37*
G36*
X63688Y-36400D02*
X60570Y-39518D01*
X60431Y-39379D01*
X63549Y-36261D01*
X63688Y-36400D01*
X63688Y-36400D01*
G37*
G36*
X63911Y-36623D02*
X60793Y-39741D01*
X60654Y-39601D01*
X63772Y-36483D01*
X63911Y-36623D01*
X63911Y-36623D01*
G37*
G36*
X64134Y-36845D02*
X61016Y-39963D01*
X60876Y-39824D01*
X63994Y-36706D01*
X64134Y-36845D01*
X64134Y-36845D01*
G37*
G36*
X63688Y-37708D02*
X64134Y-38154D01*
X63994Y-38293D01*
X63549Y-37847D01*
X63688Y-37708D01*
X63688Y-37708D01*
G37*
G36*
X63465Y-37931D02*
X63911Y-38376D01*
X63772Y-38516D01*
X63326Y-38070D01*
X63465Y-37931D01*
X63465Y-37931D01*
G37*
G36*
X63243Y-38154D02*
X63688Y-38599D01*
X63549Y-38738D01*
X63104Y-38293D01*
X63243Y-38154D01*
X63243Y-38154D01*
G37*
G36*
X63020Y-38376D02*
X63465Y-38822D01*
X63326Y-38961D01*
X62881Y-38516D01*
X63020Y-38376D01*
X63020Y-38376D01*
G37*
G36*
X62797Y-38599D02*
X63243Y-39045D01*
X63104Y-39184D01*
X62658Y-38738D01*
X62797Y-38599D01*
X62797Y-38599D01*
G37*
G36*
X62575Y-38822D02*
X63020Y-39267D01*
X62881Y-39406D01*
X62435Y-38961D01*
X62575Y-38822D01*
X62575Y-38822D01*
G37*
G36*
X62352Y-39045D02*
X62797Y-39490D01*
X62658Y-39629D01*
X62213Y-39184D01*
X62352Y-39045D01*
X62352Y-39045D01*
G37*
G36*
X62129Y-39267D02*
X62575Y-39713D01*
X62435Y-39852D01*
X61990Y-39406D01*
X62129Y-39267D01*
X62129Y-39267D01*
G37*
G36*
X61906Y-39490D02*
X62352Y-39935D01*
X62213Y-40075D01*
X61767Y-39629D01*
X61906Y-39490D01*
X61906Y-39490D01*
G37*
G36*
X61684Y-39713D02*
X62129Y-40158D01*
X61990Y-40297D01*
X61545Y-39852D01*
X61684Y-39713D01*
X61684Y-39713D01*
G37*
G36*
X61461Y-39935D02*
X61906Y-40381D01*
X61767Y-40520D01*
X61322Y-40075D01*
X61461Y-39935D01*
X61461Y-39935D01*
G37*
G36*
X61238Y-40158D02*
X61684Y-40604D01*
X61545Y-40743D01*
X61099Y-40297D01*
X61238Y-40158D01*
X61238Y-40158D01*
G37*
G36*
X61016Y-40381D02*
X61461Y-40826D01*
X61322Y-40965D01*
X60876Y-40520D01*
X61016Y-40381D01*
X61016Y-40381D01*
G37*
G36*
X60793Y-40604D02*
X61238Y-41049D01*
X61099Y-41188D01*
X60654Y-40743D01*
X60793Y-40604D01*
X60793Y-40604D01*
G37*
G36*
X60570Y-40826D02*
X61016Y-41272D01*
X60876Y-41411D01*
X60431Y-40965D01*
X60570Y-40826D01*
X60570Y-40826D01*
G37*
G36*
X60347Y-41049D02*
X60793Y-41494D01*
X60654Y-41634D01*
X60208Y-41188D01*
X60347Y-41049D01*
X60347Y-41049D01*
G37*
G54D13*
X51250Y-46000D03*
X68250Y-46000D03*
X51250Y-28500D03*
X68250Y-28500D03*
G54D12*
X51000Y-30500D03*
X51000Y-30000D03*
X52000Y-30500D03*
X51500Y-30500D03*
X51500Y-30000D03*
X53000Y-30500D03*
X52500Y-30500D03*
X53500Y-30500D03*
X52500Y-30000D03*
X52000Y-30000D03*
X53500Y-30000D03*
X53000Y-30000D03*
X54000Y-30500D03*
X54000Y-30000D03*
X54500Y-30500D03*
X55500Y-30500D03*
X56000Y-30500D03*
X56000Y-30000D03*
X55500Y-30000D03*
X57500Y-30500D03*
X57500Y-30000D03*
X59000Y-30000D03*
X57000Y-30500D03*
X56500Y-30500D03*
X55000Y-30500D03*
X56500Y-30000D03*
X57000Y-30000D03*
X54500Y-30000D03*
X55000Y-30000D03*
X58000Y-30500D03*
X58000Y-30000D03*
X58500Y-30500D03*
X59000Y-30500D03*
X58500Y-30000D03*
X60000Y-30500D03*
X59500Y-30500D03*
X59500Y-30000D03*
X60000Y-30000D03*
X60500Y-30000D03*
X60500Y-30500D03*
X61000Y-30500D03*
X61000Y-30000D03*
X61500Y-30500D03*
X61500Y-30000D03*
X62000Y-30500D03*
X62000Y-30000D03*
X62500Y-30500D03*
X62500Y-30000D03*
X63000Y-30000D03*
X63000Y-30500D03*
X63500Y-30500D03*
X63500Y-30000D03*
X64000Y-30000D03*
X64000Y-30500D03*
X64500Y-30500D03*
X64500Y-30000D03*
X65000Y-30000D03*
X65000Y-30500D03*
X68500Y-30500D03*
X65500Y-30500D03*
X66000Y-30500D03*
X67500Y-30500D03*
X68000Y-30500D03*
X67000Y-30500D03*
X66500Y-30500D03*
X68500Y-30000D03*
X68000Y-30000D03*
X67500Y-30000D03*
X67000Y-30000D03*
X66500Y-30000D03*
X65500Y-30000D03*
X66000Y-30000D03*
X65000Y-37000D03*
X65000Y-36500D03*
X64500Y-37500D03*
X65000Y-36000D03*
X64500Y-33000D03*
X65000Y-33000D03*
X65000Y-33500D03*
X65000Y-34000D03*
X65000Y-34500D03*
X65000Y-35000D03*
X65000Y-35500D03*
G54D11*
X52750Y-29000D03*
X53750Y-29000D03*
X54750Y-29000D03*
X55750Y-29000D03*
X56750Y-29000D03*
X58750Y-29000D03*
X57750Y-29000D03*
X60750Y-29000D03*
X59750Y-29000D03*
X66750Y-29000D03*
X65750Y-29000D03*
X64750Y-29000D03*
X63750Y-29000D03*
X62750Y-29000D03*
X61750Y-29000D03*
G54D12*
X68500Y-31000D03*
X68000Y-31000D03*
X67500Y-31000D03*
X67000Y-31000D03*
X65500Y-32000D03*
X65500Y-32500D03*
X65000Y-31000D03*
X65000Y-31500D03*
X65000Y-32000D03*
X64500Y-31000D03*
X67500Y-32000D03*
X66500Y-31000D03*
X66000Y-31000D03*
X65500Y-31000D03*
X68500Y-31500D03*
X68000Y-31500D03*
X67500Y-31500D03*
X67000Y-31500D03*
X66500Y-31500D03*
X66000Y-31500D03*
X65500Y-31500D03*
X68500Y-32000D03*
X68000Y-32000D03*
X64500Y-31500D03*
X67000Y-32000D03*
X66500Y-32000D03*
X66000Y-32000D03*
X69000Y-33000D03*
X69000Y-30000D03*
X69000Y-30500D03*
X69000Y-31500D03*
X64500Y-32000D03*
X69000Y-34500D03*
X69000Y-36000D03*
X69000Y-37500D03*
X69000Y-39000D03*
X69000Y-32000D03*
X69000Y-33500D03*
X69000Y-35000D03*
X69000Y-36500D03*
X69000Y-38000D03*
X69000Y-39500D03*
X68500Y-32500D03*
X68000Y-32500D03*
X67500Y-32500D03*
X67000Y-32500D03*
X66500Y-32500D03*
X66000Y-32500D03*
X69000Y-40500D03*
X69000Y-41000D03*
X65000Y-32500D03*
X69000Y-42000D03*
X69000Y-42500D03*
X64500Y-32500D03*
X68500Y-33000D03*
X68000Y-33000D03*
X67500Y-33500D03*
X67000Y-33000D03*
X66500Y-33000D03*
X66000Y-33000D03*
X65500Y-33000D03*
X68500Y-33500D03*
X68000Y-33500D03*
X67500Y-33000D03*
X67000Y-33500D03*
X66500Y-33500D03*
X66000Y-33500D03*
X65500Y-33500D03*
X68500Y-34000D03*
X65500Y-34000D03*
X68000Y-34000D03*
X66000Y-34000D03*
X67500Y-34000D03*
X67000Y-34000D03*
X66500Y-34000D03*
X68500Y-34500D03*
X68000Y-34500D03*
X67500Y-34500D03*
X67000Y-34500D03*
X66500Y-34500D03*
X66000Y-34500D03*
X65500Y-34500D03*
X68500Y-35000D03*
X68000Y-35000D03*
X67500Y-35000D03*
X67000Y-35000D03*
X66500Y-35000D03*
X66000Y-35000D03*
X65500Y-35000D03*
X64000Y-31000D03*
X63500Y-31000D03*
X63000Y-31000D03*
X64000Y-31500D03*
X63500Y-31500D03*
X63500Y-32000D03*
X64000Y-32000D03*
X69000Y-43500D03*
X64000Y-32500D03*
X69000Y-44000D03*
X63500Y-32500D03*
X68500Y-35500D03*
X68000Y-35500D03*
X67500Y-35500D03*
X67000Y-35500D03*
X66000Y-35500D03*
X66500Y-35500D03*
X65500Y-35500D03*
X68500Y-36000D03*
X68000Y-36000D03*
X67500Y-36000D03*
X67000Y-36000D03*
X66500Y-36000D03*
X66000Y-36000D03*
X65500Y-36000D03*
X68500Y-36500D03*
X68500Y-37000D03*
X68500Y-37500D03*
X68000Y-36500D03*
X67500Y-36500D03*
X68000Y-37000D03*
X67000Y-36500D03*
X66500Y-36500D03*
X67000Y-37000D03*
X66000Y-36500D03*
X65500Y-36500D03*
X67500Y-37000D03*
X65500Y-37000D03*
X66500Y-37000D03*
X66000Y-37000D03*
X68000Y-37500D03*
X67500Y-37500D03*
X67000Y-37500D03*
X66500Y-37500D03*
X65500Y-37500D03*
X66000Y-37500D03*
X65000Y-37500D03*
X65000Y-38000D03*
X68500Y-38000D03*
X68000Y-38000D03*
X67500Y-38000D03*
X67000Y-38000D03*
X66500Y-38000D03*
X66000Y-38000D03*
X65500Y-38000D03*
X68500Y-38500D03*
X68500Y-39000D03*
X68000Y-38500D03*
X67500Y-38500D03*
X67000Y-38500D03*
X66500Y-38500D03*
X66000Y-38500D03*
X65000Y-38500D03*
X65500Y-38500D03*
X65000Y-39000D03*
X65500Y-39000D03*
X66000Y-39000D03*
X66500Y-39000D03*
X67000Y-39000D03*
X67500Y-39000D03*
X68000Y-39000D03*
X67000Y-39500D03*
X65500Y-39500D03*
X67500Y-40000D03*
X67500Y-40500D03*
X67000Y-40000D03*
X67000Y-40500D03*
X66500Y-40000D03*
X68500Y-39500D03*
X68000Y-39500D03*
X67500Y-39500D03*
X65000Y-40000D03*
X66500Y-39500D03*
X66000Y-39500D03*
X65500Y-40000D03*
X65000Y-39500D03*
X68500Y-40000D03*
X68500Y-40500D03*
X68000Y-40000D03*
X68000Y-40500D03*
X66000Y-40000D03*
X66500Y-40500D03*
X68500Y-41000D03*
X68500Y-41500D03*
X68500Y-42000D03*
X68500Y-42500D03*
X69000Y-31000D03*
X68500Y-43000D03*
X68500Y-43500D03*
X68500Y-44500D03*
X68500Y-44000D03*
X68500Y-45000D03*
X68000Y-41000D03*
X68000Y-41500D03*
X68000Y-42000D03*
X68000Y-42500D03*
X67500Y-41000D03*
X66000Y-40500D03*
X65500Y-40500D03*
X65000Y-40500D03*
X67000Y-41000D03*
X66500Y-41000D03*
X66000Y-41000D03*
X65000Y-41000D03*
X65500Y-41000D03*
X65000Y-41500D03*
X64500Y-42000D03*
X65000Y-42000D03*
X67500Y-41500D03*
X67000Y-41500D03*
X66500Y-41500D03*
X66000Y-41500D03*
X65500Y-41500D03*
X67500Y-42000D03*
X69000Y-32500D03*
X68000Y-43000D03*
X68000Y-43500D03*
X68000Y-44000D03*
X68000Y-44500D03*
X68000Y-45000D03*
X67000Y-42000D03*
X66500Y-42000D03*
X65500Y-42000D03*
X66000Y-42000D03*
X67500Y-42500D03*
X69000Y-34000D03*
X67500Y-43000D03*
X67500Y-43500D03*
X67500Y-44000D03*
X67500Y-44500D03*
X67500Y-45000D03*
X67000Y-42500D03*
X69000Y-35500D03*
X67000Y-43000D03*
X67000Y-43500D03*
X67000Y-44000D03*
X66500Y-42500D03*
X66000Y-42500D03*
X65500Y-42500D03*
X69000Y-37000D03*
X67000Y-44500D03*
X60000Y-42000D03*
X66500Y-43000D03*
X69000Y-38500D03*
X65000Y-42500D03*
X67000Y-45000D03*
X66500Y-45000D03*
X66500Y-43500D03*
X66500Y-44000D03*
X66500Y-44500D03*
X66000Y-43000D03*
X66000Y-43500D03*
X66000Y-44000D03*
X66000Y-44500D03*
X66000Y-45000D03*
X69000Y-40000D03*
X65500Y-43000D03*
X65500Y-43500D03*
X65500Y-44000D03*
X65500Y-44500D03*
X65500Y-45000D03*
X69000Y-41500D03*
X65000Y-43000D03*
X65000Y-43500D03*
X65000Y-44000D03*
X65000Y-44500D03*
X65000Y-45000D03*
X64500Y-42500D03*
X69000Y-43000D03*
X64000Y-42500D03*
X64500Y-43000D03*
X64500Y-43500D03*
X64500Y-44000D03*
X64500Y-44500D03*
X64500Y-45000D03*
X69000Y-44500D03*
X64000Y-43000D03*
X64000Y-43500D03*
X64000Y-44000D03*
X64000Y-44500D03*
X64000Y-45000D03*
X63500Y-42500D03*
X69000Y-45000D03*
X63500Y-43000D03*
X63500Y-43500D03*
X63500Y-44000D03*
X63500Y-44500D03*
X63500Y-45000D03*
X63000Y-42500D03*
X63000Y-43000D03*
X63000Y-43500D03*
X63000Y-44000D03*
X63000Y-44500D03*
X63000Y-45000D03*
X62500Y-42500D03*
X62500Y-43000D03*
X62500Y-43500D03*
X62500Y-44000D03*
X62500Y-44500D03*
X62500Y-45000D03*
X62000Y-42500D03*
X62000Y-43000D03*
X62000Y-43500D03*
X62000Y-44000D03*
X62000Y-44500D03*
X62000Y-45000D03*
X61500Y-42500D03*
X61000Y-42500D03*
X60500Y-42500D03*
X61500Y-43000D03*
X61500Y-43500D03*
X61500Y-44000D03*
X61500Y-44500D03*
X61500Y-45000D03*
X61000Y-43000D03*
X60500Y-43000D03*
X61000Y-43500D03*
X60500Y-43500D03*
X62500Y-31000D03*
X62000Y-31000D03*
X51000Y-31000D03*
X51500Y-31000D03*
X63000Y-31500D03*
X63000Y-32000D03*
X63000Y-32500D03*
X62500Y-31500D03*
X62500Y-32000D03*
X55500Y-33000D03*
X60000Y-33000D03*
X62500Y-32500D03*
X62000Y-32500D03*
X62000Y-32000D03*
X62000Y-31500D03*
X61500Y-31000D03*
X61000Y-31000D03*
X61500Y-31500D03*
X61500Y-32000D03*
X61500Y-32500D03*
X61000Y-32500D03*
X60500Y-32500D03*
X60000Y-32500D03*
X61000Y-31500D03*
X61000Y-32000D03*
X59500Y-32500D03*
X59000Y-32500D03*
X59000Y-31000D03*
X59500Y-31000D03*
X60000Y-31000D03*
X60500Y-31000D03*
X60500Y-31500D03*
X60500Y-32000D03*
X60000Y-31500D03*
X60000Y-32000D03*
X59500Y-31500D03*
X59500Y-32000D03*
X59000Y-31500D03*
X58500Y-31000D03*
X59000Y-32000D03*
X58500Y-32500D03*
X58000Y-32500D03*
X58500Y-31500D03*
X58500Y-32000D03*
X58000Y-31500D03*
X57500Y-31000D03*
X58000Y-31000D03*
X56500Y-31000D03*
X57000Y-31000D03*
X57500Y-31500D03*
X58000Y-32000D03*
X57500Y-32500D03*
X57500Y-32000D03*
X56500Y-31500D03*
X57000Y-31500D03*
X57000Y-32000D03*
X57000Y-32500D03*
X56000Y-31000D03*
X52500Y-31000D03*
X52000Y-31000D03*
X53000Y-31000D03*
X54500Y-31000D03*
X55500Y-31000D03*
X55000Y-31000D03*
X53500Y-31000D03*
X54000Y-31000D03*
X56500Y-32500D03*
X56000Y-32500D03*
X55500Y-32500D03*
X56500Y-32000D03*
X56000Y-31500D03*
X56000Y-32000D03*
X55500Y-32000D03*
X55500Y-31500D03*
X55000Y-31500D03*
X54500Y-31500D03*
X54000Y-31500D03*
X53500Y-31500D03*
X53000Y-31500D03*
X52500Y-31500D03*
X51500Y-31500D03*
X52000Y-31500D03*
X51000Y-31500D03*
X51000Y-32000D03*
X51500Y-32000D03*
X52000Y-32000D03*
X52500Y-32000D03*
X55000Y-32000D03*
X54500Y-32000D03*
X54000Y-32000D03*
X53500Y-32000D03*
X53000Y-32000D03*
X55000Y-32500D03*
X55000Y-33000D03*
X55000Y-33500D03*
X54500Y-32500D03*
X54000Y-32500D03*
X54500Y-33000D03*
X51000Y-32500D03*
X51500Y-32500D03*
X52500Y-32500D03*
X52000Y-32500D03*
X53000Y-32500D03*
X53500Y-32500D03*
X51000Y-33000D03*
X51000Y-33500D03*
X51000Y-34000D03*
X51000Y-34500D03*
X52500Y-33000D03*
X52000Y-33000D03*
X51500Y-33000D03*
X54000Y-33000D03*
X53500Y-33000D03*
X53000Y-33000D03*
X51500Y-33500D03*
X51500Y-34000D03*
X52000Y-33500D03*
X52500Y-33500D03*
X54500Y-33500D03*
X54000Y-33500D03*
X53000Y-33500D03*
X53500Y-33500D03*
X52000Y-34000D03*
X51500Y-34500D03*
X52000Y-34500D03*
X55000Y-34000D03*
X54000Y-34000D03*
X53500Y-34000D03*
X52500Y-34000D03*
X53000Y-34000D03*
X54500Y-34000D03*
X55000Y-34500D03*
X53000Y-34500D03*
X53000Y-35000D03*
X52500Y-34500D03*
X55000Y-35000D03*
X54000Y-35000D03*
X54000Y-34500D03*
X54500Y-34500D03*
X53500Y-34500D03*
X54500Y-35000D03*
X53500Y-35000D03*
X52500Y-35000D03*
X51000Y-35000D03*
X52000Y-35000D03*
X51500Y-35000D03*
X51000Y-35500D03*
X51500Y-36000D03*
X52000Y-35500D03*
X54000Y-35500D03*
X55000Y-35500D03*
X54500Y-35500D03*
X53000Y-35500D03*
X52500Y-35500D03*
X53500Y-35500D03*
X55000Y-36000D03*
X54500Y-36000D03*
X54000Y-36000D03*
X53500Y-36000D03*
X53000Y-36000D03*
X52500Y-36000D03*
X52000Y-36000D03*
X51500Y-35500D03*
X51000Y-36000D03*
X55000Y-36500D03*
X54500Y-36500D03*
X54000Y-36500D03*
X53500Y-36500D03*
X53000Y-36500D03*
X52500Y-36500D03*
X52000Y-36500D03*
X51500Y-36500D03*
X51000Y-36500D03*
X55500Y-37500D03*
X55000Y-37000D03*
X54500Y-37000D03*
X54000Y-37000D03*
X53500Y-37000D03*
X53000Y-37000D03*
X52500Y-37000D03*
X52000Y-37000D03*
X51500Y-37000D03*
X51000Y-37000D03*
X55000Y-37500D03*
X54500Y-37500D03*
X54000Y-37500D03*
X53500Y-37500D03*
X53000Y-37500D03*
X52500Y-37500D03*
X52000Y-37500D03*
X51500Y-37500D03*
X51000Y-37500D03*
X55000Y-38000D03*
X54500Y-38000D03*
X54000Y-38000D03*
X53500Y-38000D03*
X53000Y-38000D03*
X52500Y-38000D03*
X51000Y-38000D03*
X52000Y-38000D03*
X51500Y-38000D03*
X51000Y-38500D03*
X51000Y-39000D03*
X51000Y-39500D03*
X51500Y-38500D03*
X52000Y-38500D03*
X51500Y-39000D03*
X52500Y-38500D03*
X53000Y-38500D03*
X53500Y-38500D03*
X55000Y-38500D03*
X54000Y-38500D03*
X54500Y-38500D03*
X52000Y-39000D03*
X52500Y-39000D03*
X53500Y-39000D03*
X53000Y-39000D03*
X55000Y-39000D03*
X54000Y-39000D03*
X54500Y-39000D03*
X51500Y-39500D03*
X51000Y-40000D03*
X52000Y-39500D03*
X52500Y-39500D03*
X53000Y-39500D03*
X53500Y-39500D03*
X54000Y-39500D03*
X55000Y-39500D03*
X54500Y-39500D03*
X55500Y-42000D03*
X55000Y-40000D03*
X54500Y-40000D03*
X55000Y-40500D03*
X54000Y-40000D03*
X54500Y-40500D03*
X55000Y-41000D03*
X53500Y-40000D03*
X51500Y-40000D03*
X51000Y-40500D03*
X52000Y-40000D03*
X53000Y-40000D03*
X52500Y-40000D03*
X51500Y-40500D03*
X51000Y-41000D03*
X52000Y-40500D03*
X51500Y-41000D03*
X54000Y-40500D03*
X53500Y-40500D03*
X52500Y-40500D03*
X53000Y-40500D03*
X52000Y-41000D03*
X52500Y-41000D03*
X53000Y-41000D03*
X54000Y-41000D03*
X53500Y-41000D03*
X54500Y-41000D03*
X55000Y-41500D03*
X51000Y-41500D03*
X51000Y-45000D03*
X51000Y-44500D03*
X51000Y-42000D03*
X51000Y-42500D03*
X51000Y-43000D03*
X51000Y-43500D03*
X51000Y-44000D03*
X51500Y-45000D03*
X51500Y-44500D03*
X51500Y-44000D03*
X51500Y-43500D03*
X51500Y-43000D03*
X51500Y-42500D03*
X51500Y-41500D03*
X52000Y-41500D03*
X51500Y-42000D03*
X53500Y-41500D03*
X53000Y-41500D03*
X52500Y-41500D03*
X55000Y-42000D03*
X54500Y-41500D03*
X54000Y-41500D03*
X52500Y-42000D03*
X52000Y-42000D03*
X52000Y-42500D03*
X53000Y-42000D03*
X52500Y-42500D03*
X53500Y-42000D03*
X53000Y-42500D03*
X52000Y-43000D03*
X54500Y-42000D03*
X54000Y-42000D03*
X53500Y-42500D03*
X52500Y-43000D03*
X52000Y-43500D03*
X52000Y-44000D03*
X52000Y-44500D03*
X52000Y-45000D03*
X54000Y-42500D03*
X54500Y-42500D03*
X60500Y-44000D03*
X61000Y-44000D03*
X61000Y-45000D03*
X61000Y-44500D03*
X60500Y-45000D03*
X60500Y-44500D03*
X60000Y-42500D03*
X59500Y-42500D03*
X52500Y-43500D03*
X53000Y-43000D03*
X52500Y-45000D03*
X52500Y-44500D03*
X52500Y-44000D03*
X53000Y-43500D03*
X53000Y-44000D03*
X53000Y-44500D03*
X53000Y-45000D03*
X53500Y-45000D03*
X55000Y-45000D03*
X54500Y-45000D03*
X54000Y-45000D03*
X53500Y-44500D03*
X53500Y-44000D03*
X53500Y-43500D03*
X53500Y-43000D03*
X54000Y-43000D03*
X54000Y-44500D03*
X54000Y-44000D03*
X54000Y-43500D03*
X54500Y-44500D03*
X54500Y-44000D03*
X55000Y-42500D03*
X55500Y-42500D03*
X54500Y-43500D03*
X54500Y-43000D03*
X55000Y-44500D03*
X55000Y-44000D03*
X55000Y-43500D03*
X55000Y-43000D03*
X56000Y-42500D03*
X60000Y-45000D03*
X55500Y-45000D03*
X56000Y-45000D03*
X56500Y-45000D03*
X57000Y-45000D03*
X57500Y-45000D03*
X60000Y-44500D03*
X60000Y-43000D03*
X59500Y-43500D03*
X60000Y-43500D03*
X60000Y-44000D03*
X59500Y-43000D03*
X59500Y-44500D03*
X59500Y-44000D03*
X59500Y-45000D03*
X59000Y-42500D03*
X58500Y-42500D03*
X58000Y-42500D03*
X57500Y-42500D03*
X57000Y-42500D03*
X56500Y-42500D03*
X59000Y-44000D03*
X59000Y-43000D03*
X59000Y-43500D03*
X59000Y-44500D03*
X59000Y-45000D03*
X58500Y-45000D03*
X58500Y-44500D03*
X58500Y-43500D03*
X58500Y-44000D03*
X58500Y-43000D03*
X58000Y-43000D03*
X55500Y-43000D03*
X55500Y-43500D03*
X55500Y-44500D03*
X55500Y-44000D03*
X56000Y-43000D03*
X56000Y-43500D03*
X56000Y-44000D03*
X56000Y-44500D03*
X56500Y-43000D03*
X57000Y-43000D03*
X57500Y-43000D03*
X56500Y-43500D03*
X56500Y-44000D03*
X56500Y-44500D03*
X57000Y-43500D03*
X58000Y-43500D03*
X57500Y-43500D03*
X58000Y-44000D03*
X57000Y-44000D03*
X57500Y-44000D03*
X57000Y-44500D03*
X57500Y-44500D03*
X58000Y-44500D03*
X58000Y-45000D03*
G54D14*
X55500Y-36500D02*
X56104Y-36500D01*
X56104Y-36500D02*
X57717Y-38112D01*
X55500Y-36000D02*
X56050Y-36000D01*
X56050Y-36000D02*
X57939Y-37889D01*
X64500Y-38000D02*
X63842Y-38000D01*
X63842Y-38000D02*
X63841Y-38001D01*
X64000Y-42000D02*
X64000Y-41722D01*
X64000Y-41722D02*
X62060Y-39782D01*
X63500Y-42000D02*
X63500Y-41668D01*
X63500Y-41668D02*
X61837Y-40005D01*
X63000Y-42000D02*
X63000Y-41613D01*
X63000Y-41613D02*
X61614Y-40228D01*
X57500Y-33000D02*
X57500Y-33441D01*
X57500Y-33441D02*
X59053Y-34994D01*
X58000Y-33000D02*
X58000Y-33495D01*
X58000Y-33495D02*
X59164Y-34660D01*
X64500Y-36500D02*
X63895Y-36500D01*
X63895Y-36500D02*
X62282Y-38112D01*
X64500Y-37000D02*
X63840Y-37000D01*
X63840Y-37000D02*
X62505Y-38335D01*
X62500Y-33000D02*
X62500Y-33441D01*
X62500Y-33441D02*
X60946Y-34994D01*
X63000Y-33000D02*
X63000Y-33386D01*
X63000Y-33386D02*
X61057Y-35328D01*
X63500Y-33000D02*
X63500Y-33331D01*
X63500Y-33331D02*
X61169Y-35662D01*
X57000Y-42000D02*
X57000Y-41613D01*
X57000Y-41613D02*
X58385Y-40228D01*
X59500Y-42000D02*
X59500Y-41342D01*
X59500Y-41342D02*
X59498Y-41341D01*
X59000Y-42000D02*
X59000Y-41395D01*
X59000Y-41395D02*
X59276Y-41119D01*
X58500Y-42000D02*
X58500Y-41449D01*
X58500Y-41449D02*
X59053Y-40896D01*
X58000Y-42000D02*
X58000Y-41504D01*
X58000Y-41504D02*
X58830Y-40673D01*
X57500Y-42000D02*
X57500Y-41558D01*
X57500Y-41558D02*
X58608Y-40450D01*
X56500Y-42000D02*
X56500Y-41668D01*
X56500Y-41668D02*
X58162Y-40005D01*
X56000Y-42000D02*
X56000Y-41722D01*
X56000Y-41722D02*
X57939Y-39782D01*
X55500Y-41500D02*
X55777Y-41500D01*
X55777Y-41500D02*
X57717Y-39560D01*
X55500Y-41000D02*
X55831Y-41000D01*
X55831Y-41000D02*
X57494Y-39337D01*
X55500Y-35500D02*
X55995Y-35500D01*
X55995Y-35500D02*
X58162Y-37667D01*
X58500Y-33000D02*
X58500Y-33550D01*
X58500Y-33550D02*
X59276Y-34326D01*
X64000Y-33000D02*
X64000Y-33277D01*
X64000Y-33277D02*
X61280Y-35996D01*
X64500Y-38500D02*
X63895Y-38500D01*
X63895Y-38500D02*
X63619Y-38223D01*
X64500Y-35500D02*
X64004Y-35500D01*
X64004Y-35500D02*
X61837Y-37667D01*
X55500Y-39000D02*
X56050Y-39000D01*
X56050Y-39000D02*
X56603Y-38446D01*
X55500Y-33500D02*
X55777Y-33500D01*
X55777Y-33500D02*
X58608Y-36330D01*
X61000Y-33000D02*
X61000Y-33604D01*
X61000Y-33604D02*
X60612Y-33992D01*
X64500Y-35000D02*
X64058Y-35000D01*
X64058Y-35000D02*
X61726Y-37332D01*
X64500Y-40500D02*
X64113Y-40500D01*
X64113Y-40500D02*
X62728Y-39114D01*
X60500Y-42000D02*
X60500Y-41342D01*
X60500Y-41342D02*
X60501Y-41341D01*
X55500Y-38500D02*
X56104Y-38500D01*
X56104Y-38500D02*
X56380Y-38223D01*
X56000Y-33000D02*
X56000Y-33277D01*
X56000Y-33277D02*
X58719Y-35996D01*
X61500Y-33000D02*
X61500Y-33550D01*
X61500Y-33550D02*
X60723Y-34326D01*
X61000Y-42000D02*
X61000Y-41395D01*
X61000Y-41395D02*
X60723Y-41119D01*
X64500Y-41000D02*
X64168Y-41000D01*
X64168Y-41000D02*
X62505Y-39337D01*
X56500Y-33000D02*
X56500Y-33331D01*
X56500Y-33331D02*
X58830Y-35662D01*
X62000Y-33000D02*
X62000Y-33495D01*
X62000Y-33495D02*
X60835Y-34660D01*
X64500Y-36000D02*
X63949Y-36000D01*
X63949Y-36000D02*
X62060Y-37889D01*
X64500Y-41500D02*
X64222Y-41500D01*
X64222Y-41500D02*
X62282Y-39560D01*
X55500Y-37000D02*
X56159Y-37000D01*
X56159Y-37000D02*
X57494Y-38335D01*
X57000Y-33000D02*
X57000Y-33386D01*
X57000Y-33386D02*
X58942Y-35328D01*
X59500Y-33000D02*
X59500Y-33657D01*
X59500Y-33657D02*
X59498Y-33658D01*
X55500Y-40500D02*
X55886Y-40500D01*
X55886Y-40500D02*
X57271Y-39114D01*
X55500Y-35000D02*
X55941Y-35000D01*
X55941Y-35000D02*
X58273Y-37332D01*
X59000Y-33000D02*
X59000Y-33604D01*
X59000Y-33604D02*
X59387Y-33992D01*
X64500Y-33500D02*
X64222Y-33500D01*
X64222Y-33500D02*
X61391Y-36330D01*
X64500Y-39000D02*
X63949Y-39000D01*
X63949Y-39000D02*
X63396Y-38446D01*
X55500Y-40000D02*
X55941Y-40000D01*
X55941Y-40000D02*
X57049Y-38891D01*
X55500Y-34500D02*
X55886Y-34500D01*
X55886Y-34500D02*
X58385Y-36998D01*
X62500Y-42000D02*
X62500Y-41558D01*
X62500Y-41558D02*
X61391Y-40450D01*
X64500Y-34000D02*
X64168Y-34000D01*
X64168Y-34000D02*
X61503Y-36664D01*
X64500Y-39500D02*
X64004Y-39500D01*
X64004Y-39500D02*
X63173Y-38669D01*
X61500Y-42000D02*
X61500Y-41449D01*
X61500Y-41449D02*
X60946Y-40896D01*
X55500Y-39500D02*
X55995Y-39500D01*
X55995Y-39500D02*
X56826Y-38669D01*
X55500Y-34000D02*
X55831Y-34000D01*
X55831Y-34000D02*
X58496Y-36664D01*
X60500Y-33000D02*
X60500Y-33657D01*
X60500Y-33657D02*
X60501Y-33658D01*
X64500Y-34500D02*
X64113Y-34500D01*
X64113Y-34500D02*
X61614Y-36998D01*
X64500Y-40000D02*
X64058Y-40000D01*
X64058Y-40000D02*
X62950Y-38891D01*
X62000Y-42000D02*
X62000Y-41504D01*
X62000Y-41504D02*
X61169Y-40673D01*
X55500Y-38000D02*
X56157Y-38000D01*
X56157Y-38000D02*
X56158Y-38001D01*
M02*
