M48
;DRILL file {Pcbnew (2013-mar-13)-testing} date Thu 12 Dec 2013 10:04:23 PM CET
;FORMAT={-:-/ absolute / metric / decimal}
FMAT,2
METRIC,TZ
T1C0.899
T2C2.000
%
G90
G05
M71
T1
X133.985Y-71.12
X133.985Y-73.66
X133.985Y-116.84
X136.525Y-71.12
X136.525Y-73.66
X136.525Y-116.84
X139.065Y-71.12
X139.065Y-73.66
X139.065Y-116.84
X141.605Y-71.12
X141.605Y-73.66
X141.605Y-116.84
X144.145Y-71.12
X144.145Y-73.66
X144.145Y-116.84
X146.685Y-71.12
X146.685Y-73.66
X146.685Y-116.84
X149.225Y-71.12
X149.225Y-73.66
X149.225Y-116.84
X151.765Y-71.12
X151.765Y-73.66
X151.765Y-116.84
X154.305Y-71.12
X154.305Y-73.66
X154.305Y-116.84
X156.845Y-71.12
X156.845Y-73.66
X156.845Y-116.84
X159.385Y-71.12
X159.385Y-73.66
X159.385Y-116.84
X161.925Y-71.12
X161.925Y-73.66
X161.925Y-116.84
X164.465Y-71.12
X164.465Y-73.66
X164.465Y-116.84
X167.005Y-71.12
X167.005Y-73.66
X167.005Y-116.84
X169.545Y-71.12
X169.545Y-73.66
X169.545Y-116.84
T2
X130.175Y-72.39
X130.175Y-116.84
X173.355Y-72.39
X173.355Y-116.84
T0
M30
