G04 (created by PCBNEW (2013-mar-13)-testing) date Thu 12 Dec 2013 10:03:58 PM CET*
%MOIN*%
G04 Gerber Fmt 3.4, Leading zero omitted, Abs format*
%FSLAX34Y34*%
G01*
G70*
G90*
G04 APERTURE LIST*
%ADD10C,0.005906*%
%ADD11C,0.007874*%
%ADD12C,0.012000*%
G04 APERTURE END LIST*
G54D10*
G54D11*
X51000Y-39000D02*
X50750Y-38750D01*
X51000Y-38500D02*
X50750Y-38250D01*
X52250Y-36500D02*
X52250Y-36000D01*
X52250Y-36000D02*
X50750Y-36000D01*
X50750Y-36000D02*
X50750Y-36500D01*
X50750Y-38500D02*
X50750Y-39000D01*
X50750Y-39000D02*
X52250Y-39000D01*
X52250Y-39000D02*
X52250Y-38500D01*
X52250Y-38500D02*
X50750Y-38500D01*
X50750Y-38500D02*
X50750Y-36500D01*
X50750Y-36500D02*
X52250Y-36500D01*
X52250Y-36500D02*
X52250Y-38500D01*
X58500Y-39000D02*
X58250Y-38750D01*
X58500Y-38500D02*
X58250Y-38250D01*
X59750Y-36500D02*
X59750Y-36000D01*
X59750Y-36000D02*
X58250Y-36000D01*
X58250Y-36000D02*
X58250Y-36500D01*
X58250Y-38500D02*
X58250Y-39000D01*
X58250Y-39000D02*
X59750Y-39000D01*
X59750Y-39000D02*
X59750Y-38500D01*
X59750Y-38500D02*
X58250Y-38500D01*
X58250Y-38500D02*
X58250Y-36500D01*
X58250Y-36500D02*
X59750Y-36500D01*
X59750Y-36500D02*
X59750Y-38500D01*
X57000Y-39000D02*
X56750Y-38750D01*
X57000Y-38500D02*
X56750Y-38250D01*
X58250Y-36500D02*
X58250Y-36000D01*
X58250Y-36000D02*
X56750Y-36000D01*
X56750Y-36000D02*
X56750Y-36500D01*
X56750Y-38500D02*
X56750Y-39000D01*
X56750Y-39000D02*
X58250Y-39000D01*
X58250Y-39000D02*
X58250Y-38500D01*
X58250Y-38500D02*
X56750Y-38500D01*
X56750Y-38500D02*
X56750Y-36500D01*
X56750Y-36500D02*
X58250Y-36500D01*
X58250Y-36500D02*
X58250Y-38500D01*
X60000Y-39000D02*
X59750Y-38750D01*
X60000Y-38500D02*
X59750Y-38250D01*
X61250Y-36500D02*
X61250Y-36000D01*
X61250Y-36000D02*
X59750Y-36000D01*
X59750Y-36000D02*
X59750Y-36500D01*
X59750Y-38500D02*
X59750Y-39000D01*
X59750Y-39000D02*
X61250Y-39000D01*
X61250Y-39000D02*
X61250Y-38500D01*
X61250Y-38500D02*
X59750Y-38500D01*
X59750Y-38500D02*
X59750Y-36500D01*
X59750Y-36500D02*
X61250Y-36500D01*
X61250Y-36500D02*
X61250Y-38500D01*
X52500Y-39000D02*
X52250Y-38750D01*
X52500Y-38500D02*
X52250Y-38250D01*
X53750Y-36500D02*
X53750Y-36000D01*
X53750Y-36000D02*
X52250Y-36000D01*
X52250Y-36000D02*
X52250Y-36500D01*
X52250Y-38500D02*
X52250Y-39000D01*
X52250Y-39000D02*
X53750Y-39000D01*
X53750Y-39000D02*
X53750Y-38500D01*
X53750Y-38500D02*
X52250Y-38500D01*
X52250Y-38500D02*
X52250Y-36500D01*
X52250Y-36500D02*
X53750Y-36500D01*
X53750Y-36500D02*
X53750Y-38500D01*
X61500Y-39000D02*
X61250Y-38750D01*
X61500Y-38500D02*
X61250Y-38250D01*
X62750Y-36500D02*
X62750Y-36000D01*
X62750Y-36000D02*
X61250Y-36000D01*
X61250Y-36000D02*
X61250Y-36500D01*
X61250Y-38500D02*
X61250Y-39000D01*
X61250Y-39000D02*
X62750Y-39000D01*
X62750Y-39000D02*
X62750Y-38500D01*
X62750Y-38500D02*
X61250Y-38500D01*
X61250Y-38500D02*
X61250Y-36500D01*
X61250Y-36500D02*
X62750Y-36500D01*
X62750Y-36500D02*
X62750Y-38500D01*
X63000Y-39000D02*
X62750Y-38750D01*
X63000Y-38500D02*
X62750Y-38250D01*
X64250Y-36500D02*
X64250Y-36000D01*
X64250Y-36000D02*
X62750Y-36000D01*
X62750Y-36000D02*
X62750Y-36500D01*
X62750Y-38500D02*
X62750Y-39000D01*
X62750Y-39000D02*
X64250Y-39000D01*
X64250Y-39000D02*
X64250Y-38500D01*
X64250Y-38500D02*
X62750Y-38500D01*
X62750Y-38500D02*
X62750Y-36500D01*
X62750Y-36500D02*
X64250Y-36500D01*
X64250Y-36500D02*
X64250Y-38500D01*
X55500Y-39000D02*
X55250Y-38750D01*
X55500Y-38500D02*
X55250Y-38250D01*
X56750Y-36500D02*
X56750Y-36000D01*
X56750Y-36000D02*
X55250Y-36000D01*
X55250Y-36000D02*
X55250Y-36500D01*
X55250Y-38500D02*
X55250Y-39000D01*
X55250Y-39000D02*
X56750Y-39000D01*
X56750Y-39000D02*
X56750Y-38500D01*
X56750Y-38500D02*
X55250Y-38500D01*
X55250Y-38500D02*
X55250Y-36500D01*
X55250Y-36500D02*
X56750Y-36500D01*
X56750Y-36500D02*
X56750Y-38500D01*
X64500Y-39000D02*
X64250Y-38750D01*
X64500Y-38500D02*
X64250Y-38250D01*
X65750Y-36500D02*
X65750Y-36000D01*
X65750Y-36000D02*
X64250Y-36000D01*
X64250Y-36000D02*
X64250Y-36500D01*
X64250Y-38500D02*
X64250Y-39000D01*
X64250Y-39000D02*
X65750Y-39000D01*
X65750Y-39000D02*
X65750Y-38500D01*
X65750Y-38500D02*
X64250Y-38500D01*
X64250Y-38500D02*
X64250Y-36500D01*
X64250Y-36500D02*
X65750Y-36500D01*
X65750Y-36500D02*
X65750Y-38500D01*
X66000Y-39000D02*
X65750Y-38750D01*
X66000Y-38500D02*
X65750Y-38250D01*
X67250Y-36500D02*
X67250Y-36000D01*
X67250Y-36000D02*
X65750Y-36000D01*
X65750Y-36000D02*
X65750Y-36500D01*
X65750Y-38500D02*
X65750Y-39000D01*
X65750Y-39000D02*
X67250Y-39000D01*
X67250Y-39000D02*
X67250Y-38500D01*
X67250Y-38500D02*
X65750Y-38500D01*
X65750Y-38500D02*
X65750Y-36500D01*
X65750Y-36500D02*
X67250Y-36500D01*
X67250Y-36500D02*
X67250Y-38500D01*
X54000Y-39000D02*
X53750Y-38750D01*
X54000Y-38500D02*
X53750Y-38250D01*
X55250Y-36500D02*
X55250Y-36000D01*
X55250Y-36000D02*
X53750Y-36000D01*
X53750Y-36000D02*
X53750Y-36500D01*
X53750Y-38500D02*
X53750Y-39000D01*
X53750Y-39000D02*
X55250Y-39000D01*
X55250Y-39000D02*
X55250Y-38500D01*
X55250Y-38500D02*
X53750Y-38500D01*
X53750Y-38500D02*
X53750Y-36500D01*
X53750Y-36500D02*
X55250Y-36500D01*
X55250Y-36500D02*
X55250Y-38500D01*
X67500Y-39000D02*
X67250Y-38750D01*
X67500Y-38500D02*
X67250Y-38250D01*
X68750Y-36500D02*
X68750Y-36000D01*
X68750Y-36000D02*
X67250Y-36000D01*
X67250Y-36000D02*
X67250Y-36500D01*
X67250Y-38500D02*
X67250Y-39000D01*
X67250Y-39000D02*
X68750Y-39000D01*
X68750Y-39000D02*
X68750Y-38500D01*
X68750Y-38500D02*
X67250Y-38500D01*
X67250Y-38500D02*
X67250Y-36500D01*
X67250Y-36500D02*
X68750Y-36500D01*
X68750Y-36500D02*
X68750Y-38500D01*
G54D12*
X51042Y-35714D02*
X51042Y-36200D01*
X51071Y-36257D01*
X51100Y-36285D01*
X51157Y-36314D01*
X51271Y-36314D01*
X51328Y-36285D01*
X51357Y-36257D01*
X51385Y-36200D01*
X51385Y-35714D01*
X51642Y-35771D02*
X51671Y-35743D01*
X51728Y-35714D01*
X51871Y-35714D01*
X51928Y-35743D01*
X51957Y-35771D01*
X51985Y-35828D01*
X51985Y-35885D01*
X51957Y-35971D01*
X51614Y-36314D01*
X51985Y-36314D01*
X48557Y-39267D02*
X48557Y-38667D01*
X48785Y-38667D01*
X48842Y-38696D01*
X48871Y-38724D01*
X48900Y-38781D01*
X48900Y-38867D01*
X48871Y-38924D01*
X48842Y-38953D01*
X48785Y-38981D01*
X48557Y-38981D01*
X49500Y-39267D02*
X49300Y-38981D01*
X49157Y-39267D02*
X49157Y-38667D01*
X49385Y-38667D01*
X49442Y-38696D01*
X49471Y-38724D01*
X49500Y-38781D01*
X49500Y-38867D01*
X49471Y-38924D01*
X49442Y-38953D01*
X49385Y-38981D01*
X49157Y-38981D01*
X49871Y-38667D02*
X49985Y-38667D01*
X50042Y-38696D01*
X50100Y-38753D01*
X50128Y-38867D01*
X50128Y-39067D01*
X50100Y-39181D01*
X50042Y-39238D01*
X49985Y-39267D01*
X49871Y-39267D01*
X49814Y-39238D01*
X49757Y-39181D01*
X49728Y-39067D01*
X49728Y-38867D01*
X49757Y-38753D01*
X49814Y-38696D01*
X49871Y-38667D01*
X50300Y-38667D02*
X50642Y-38667D01*
X50471Y-39267D02*
X50471Y-38667D01*
X50957Y-38667D02*
X51071Y-38667D01*
X51128Y-38696D01*
X51185Y-38753D01*
X51214Y-38867D01*
X51214Y-39067D01*
X51185Y-39181D01*
X51128Y-39238D01*
X51071Y-39267D01*
X50957Y-39267D01*
X50900Y-39238D01*
X50842Y-39181D01*
X50814Y-39067D01*
X50814Y-38867D01*
X50842Y-38753D01*
X50900Y-38696D01*
X50957Y-38667D01*
X51328Y-39324D02*
X51785Y-39324D01*
X51900Y-39238D02*
X51985Y-39267D01*
X52128Y-39267D01*
X52185Y-39238D01*
X52214Y-39210D01*
X52242Y-39153D01*
X52242Y-39096D01*
X52214Y-39038D01*
X52185Y-39010D01*
X52128Y-38981D01*
X52014Y-38953D01*
X51957Y-38924D01*
X51928Y-38896D01*
X51900Y-38838D01*
X51900Y-38781D01*
X51928Y-38724D01*
X51957Y-38696D01*
X52014Y-38667D01*
X52157Y-38667D01*
X52242Y-38696D01*
X52614Y-38667D02*
X52728Y-38667D01*
X52785Y-38696D01*
X52842Y-38753D01*
X52871Y-38867D01*
X52871Y-39067D01*
X52842Y-39181D01*
X52785Y-39238D01*
X52728Y-39267D01*
X52614Y-39267D01*
X52557Y-39238D01*
X52500Y-39181D01*
X52471Y-39067D01*
X52471Y-38867D01*
X52500Y-38753D01*
X52557Y-38696D01*
X52614Y-38667D01*
X53042Y-38667D02*
X53385Y-38667D01*
X53214Y-39267D02*
X53214Y-38667D01*
X53557Y-38724D02*
X53585Y-38696D01*
X53642Y-38667D01*
X53785Y-38667D01*
X53842Y-38696D01*
X53871Y-38724D01*
X53900Y-38781D01*
X53900Y-38838D01*
X53871Y-38924D01*
X53528Y-39267D01*
X53900Y-39267D01*
X54100Y-38667D02*
X54471Y-38667D01*
X54271Y-38896D01*
X54357Y-38896D01*
X54414Y-38924D01*
X54442Y-38953D01*
X54471Y-39010D01*
X54471Y-39153D01*
X54442Y-39210D01*
X54414Y-39238D01*
X54357Y-39267D01*
X54185Y-39267D01*
X54128Y-39238D01*
X54100Y-39210D01*
X59757Y-35714D02*
X59757Y-36200D01*
X59785Y-36257D01*
X59814Y-36285D01*
X59871Y-36314D01*
X59985Y-36314D01*
X60042Y-36285D01*
X60071Y-36257D01*
X60100Y-36200D01*
X60100Y-35714D01*
X60700Y-36314D02*
X60357Y-36314D01*
X60528Y-36314D02*
X60528Y-35714D01*
X60471Y-35800D01*
X60414Y-35857D01*
X60357Y-35885D01*
X61214Y-35914D02*
X61214Y-36314D01*
X61071Y-35685D02*
X60928Y-36114D01*
X61300Y-36114D01*
X57557Y-39267D02*
X57557Y-38667D01*
X57785Y-38667D01*
X57842Y-38696D01*
X57871Y-38724D01*
X57900Y-38781D01*
X57900Y-38867D01*
X57871Y-38924D01*
X57842Y-38953D01*
X57785Y-38981D01*
X57557Y-38981D01*
X58500Y-39267D02*
X58300Y-38981D01*
X58157Y-39267D02*
X58157Y-38667D01*
X58385Y-38667D01*
X58442Y-38696D01*
X58471Y-38724D01*
X58500Y-38781D01*
X58500Y-38867D01*
X58471Y-38924D01*
X58442Y-38953D01*
X58385Y-38981D01*
X58157Y-38981D01*
X58871Y-38667D02*
X58985Y-38667D01*
X59042Y-38696D01*
X59100Y-38753D01*
X59128Y-38867D01*
X59128Y-39067D01*
X59100Y-39181D01*
X59042Y-39238D01*
X58985Y-39267D01*
X58871Y-39267D01*
X58814Y-39238D01*
X58757Y-39181D01*
X58728Y-39067D01*
X58728Y-38867D01*
X58757Y-38753D01*
X58814Y-38696D01*
X58871Y-38667D01*
X59300Y-38667D02*
X59642Y-38667D01*
X59471Y-39267D02*
X59471Y-38667D01*
X59957Y-38667D02*
X60071Y-38667D01*
X60128Y-38696D01*
X60185Y-38753D01*
X60214Y-38867D01*
X60214Y-39067D01*
X60185Y-39181D01*
X60128Y-39238D01*
X60071Y-39267D01*
X59957Y-39267D01*
X59900Y-39238D01*
X59842Y-39181D01*
X59814Y-39067D01*
X59814Y-38867D01*
X59842Y-38753D01*
X59900Y-38696D01*
X59957Y-38667D01*
X60328Y-39324D02*
X60785Y-39324D01*
X60900Y-39238D02*
X60985Y-39267D01*
X61128Y-39267D01*
X61185Y-39238D01*
X61214Y-39210D01*
X61242Y-39153D01*
X61242Y-39096D01*
X61214Y-39038D01*
X61185Y-39010D01*
X61128Y-38981D01*
X61014Y-38953D01*
X60957Y-38924D01*
X60928Y-38896D01*
X60900Y-38838D01*
X60900Y-38781D01*
X60928Y-38724D01*
X60957Y-38696D01*
X61014Y-38667D01*
X61157Y-38667D01*
X61242Y-38696D01*
X61614Y-38667D02*
X61728Y-38667D01*
X61785Y-38696D01*
X61842Y-38753D01*
X61871Y-38867D01*
X61871Y-39067D01*
X61842Y-39181D01*
X61785Y-39238D01*
X61728Y-39267D01*
X61614Y-39267D01*
X61557Y-39238D01*
X61500Y-39181D01*
X61471Y-39067D01*
X61471Y-38867D01*
X61500Y-38753D01*
X61557Y-38696D01*
X61614Y-38667D01*
X62042Y-38667D02*
X62385Y-38667D01*
X62214Y-39267D02*
X62214Y-38667D01*
X62557Y-38724D02*
X62585Y-38696D01*
X62642Y-38667D01*
X62785Y-38667D01*
X62842Y-38696D01*
X62871Y-38724D01*
X62900Y-38781D01*
X62900Y-38838D01*
X62871Y-38924D01*
X62528Y-39267D01*
X62900Y-39267D01*
X63100Y-38667D02*
X63471Y-38667D01*
X63271Y-38896D01*
X63357Y-38896D01*
X63414Y-38924D01*
X63442Y-38953D01*
X63471Y-39010D01*
X63471Y-39153D01*
X63442Y-39210D01*
X63414Y-39238D01*
X63357Y-39267D01*
X63185Y-39267D01*
X63128Y-39238D01*
X63100Y-39210D01*
X67257Y-35714D02*
X67257Y-36200D01*
X67285Y-36257D01*
X67314Y-36285D01*
X67371Y-36314D01*
X67485Y-36314D01*
X67542Y-36285D01*
X67571Y-36257D01*
X67600Y-36200D01*
X67600Y-35714D01*
X67857Y-35771D02*
X67885Y-35743D01*
X67942Y-35714D01*
X68085Y-35714D01*
X68142Y-35743D01*
X68171Y-35771D01*
X68200Y-35828D01*
X68200Y-35885D01*
X68171Y-35971D01*
X67828Y-36314D01*
X68200Y-36314D01*
X68714Y-35914D02*
X68714Y-36314D01*
X68571Y-35685D02*
X68428Y-36114D01*
X68800Y-36114D01*
X65057Y-39267D02*
X65057Y-38667D01*
X65285Y-38667D01*
X65342Y-38696D01*
X65371Y-38724D01*
X65400Y-38781D01*
X65400Y-38867D01*
X65371Y-38924D01*
X65342Y-38953D01*
X65285Y-38981D01*
X65057Y-38981D01*
X66000Y-39267D02*
X65800Y-38981D01*
X65657Y-39267D02*
X65657Y-38667D01*
X65885Y-38667D01*
X65942Y-38696D01*
X65971Y-38724D01*
X66000Y-38781D01*
X66000Y-38867D01*
X65971Y-38924D01*
X65942Y-38953D01*
X65885Y-38981D01*
X65657Y-38981D01*
X66371Y-38667D02*
X66485Y-38667D01*
X66542Y-38696D01*
X66600Y-38753D01*
X66628Y-38867D01*
X66628Y-39067D01*
X66600Y-39181D01*
X66542Y-39238D01*
X66485Y-39267D01*
X66371Y-39267D01*
X66314Y-39238D01*
X66257Y-39181D01*
X66228Y-39067D01*
X66228Y-38867D01*
X66257Y-38753D01*
X66314Y-38696D01*
X66371Y-38667D01*
X66800Y-38667D02*
X67142Y-38667D01*
X66971Y-39267D02*
X66971Y-38667D01*
X67457Y-38667D02*
X67571Y-38667D01*
X67628Y-38696D01*
X67685Y-38753D01*
X67714Y-38867D01*
X67714Y-39067D01*
X67685Y-39181D01*
X67628Y-39238D01*
X67571Y-39267D01*
X67457Y-39267D01*
X67400Y-39238D01*
X67342Y-39181D01*
X67314Y-39067D01*
X67314Y-38867D01*
X67342Y-38753D01*
X67400Y-38696D01*
X67457Y-38667D01*
X67828Y-39324D02*
X68285Y-39324D01*
X68400Y-39238D02*
X68485Y-39267D01*
X68628Y-39267D01*
X68685Y-39238D01*
X68714Y-39210D01*
X68742Y-39153D01*
X68742Y-39096D01*
X68714Y-39038D01*
X68685Y-39010D01*
X68628Y-38981D01*
X68514Y-38953D01*
X68457Y-38924D01*
X68428Y-38896D01*
X68400Y-38838D01*
X68400Y-38781D01*
X68428Y-38724D01*
X68457Y-38696D01*
X68514Y-38667D01*
X68657Y-38667D01*
X68742Y-38696D01*
X69114Y-38667D02*
X69228Y-38667D01*
X69285Y-38696D01*
X69342Y-38753D01*
X69371Y-38867D01*
X69371Y-39067D01*
X69342Y-39181D01*
X69285Y-39238D01*
X69228Y-39267D01*
X69114Y-39267D01*
X69057Y-39238D01*
X69000Y-39181D01*
X68971Y-39067D01*
X68971Y-38867D01*
X69000Y-38753D01*
X69057Y-38696D01*
X69114Y-38667D01*
X69542Y-38667D02*
X69885Y-38667D01*
X69714Y-39267D02*
X69714Y-38667D01*
X70057Y-38724D02*
X70085Y-38696D01*
X70142Y-38667D01*
X70285Y-38667D01*
X70342Y-38696D01*
X70371Y-38724D01*
X70400Y-38781D01*
X70400Y-38838D01*
X70371Y-38924D01*
X70028Y-39267D01*
X70400Y-39267D01*
X70600Y-38667D02*
X70971Y-38667D01*
X70771Y-38896D01*
X70857Y-38896D01*
X70914Y-38924D01*
X70942Y-38953D01*
X70971Y-39010D01*
X70971Y-39153D01*
X70942Y-39210D01*
X70914Y-39238D01*
X70857Y-39267D01*
X70685Y-39267D01*
X70628Y-39238D01*
X70600Y-39210D01*
X65757Y-35714D02*
X65757Y-36200D01*
X65785Y-36257D01*
X65814Y-36285D01*
X65871Y-36314D01*
X65985Y-36314D01*
X66042Y-36285D01*
X66071Y-36257D01*
X66100Y-36200D01*
X66100Y-35714D01*
X66357Y-35771D02*
X66385Y-35743D01*
X66442Y-35714D01*
X66585Y-35714D01*
X66642Y-35743D01*
X66671Y-35771D01*
X66700Y-35828D01*
X66700Y-35885D01*
X66671Y-35971D01*
X66328Y-36314D01*
X66700Y-36314D01*
X66928Y-35771D02*
X66957Y-35743D01*
X67014Y-35714D01*
X67157Y-35714D01*
X67214Y-35743D01*
X67242Y-35771D01*
X67271Y-35828D01*
X67271Y-35885D01*
X67242Y-35971D01*
X66900Y-36314D01*
X67271Y-36314D01*
X63557Y-39267D02*
X63557Y-38667D01*
X63785Y-38667D01*
X63842Y-38696D01*
X63871Y-38724D01*
X63900Y-38781D01*
X63900Y-38867D01*
X63871Y-38924D01*
X63842Y-38953D01*
X63785Y-38981D01*
X63557Y-38981D01*
X64500Y-39267D02*
X64300Y-38981D01*
X64157Y-39267D02*
X64157Y-38667D01*
X64385Y-38667D01*
X64442Y-38696D01*
X64471Y-38724D01*
X64500Y-38781D01*
X64500Y-38867D01*
X64471Y-38924D01*
X64442Y-38953D01*
X64385Y-38981D01*
X64157Y-38981D01*
X64871Y-38667D02*
X64985Y-38667D01*
X65042Y-38696D01*
X65100Y-38753D01*
X65128Y-38867D01*
X65128Y-39067D01*
X65100Y-39181D01*
X65042Y-39238D01*
X64985Y-39267D01*
X64871Y-39267D01*
X64814Y-39238D01*
X64757Y-39181D01*
X64728Y-39067D01*
X64728Y-38867D01*
X64757Y-38753D01*
X64814Y-38696D01*
X64871Y-38667D01*
X65300Y-38667D02*
X65642Y-38667D01*
X65471Y-39267D02*
X65471Y-38667D01*
X65957Y-38667D02*
X66071Y-38667D01*
X66128Y-38696D01*
X66185Y-38753D01*
X66214Y-38867D01*
X66214Y-39067D01*
X66185Y-39181D01*
X66128Y-39238D01*
X66071Y-39267D01*
X65957Y-39267D01*
X65900Y-39238D01*
X65842Y-39181D01*
X65814Y-39067D01*
X65814Y-38867D01*
X65842Y-38753D01*
X65900Y-38696D01*
X65957Y-38667D01*
X66328Y-39324D02*
X66785Y-39324D01*
X66900Y-39238D02*
X66985Y-39267D01*
X67128Y-39267D01*
X67185Y-39238D01*
X67214Y-39210D01*
X67242Y-39153D01*
X67242Y-39096D01*
X67214Y-39038D01*
X67185Y-39010D01*
X67128Y-38981D01*
X67014Y-38953D01*
X66957Y-38924D01*
X66928Y-38896D01*
X66900Y-38838D01*
X66900Y-38781D01*
X66928Y-38724D01*
X66957Y-38696D01*
X67014Y-38667D01*
X67157Y-38667D01*
X67242Y-38696D01*
X67614Y-38667D02*
X67728Y-38667D01*
X67785Y-38696D01*
X67842Y-38753D01*
X67871Y-38867D01*
X67871Y-39067D01*
X67842Y-39181D01*
X67785Y-39238D01*
X67728Y-39267D01*
X67614Y-39267D01*
X67557Y-39238D01*
X67500Y-39181D01*
X67471Y-39067D01*
X67471Y-38867D01*
X67500Y-38753D01*
X67557Y-38696D01*
X67614Y-38667D01*
X68042Y-38667D02*
X68385Y-38667D01*
X68214Y-39267D02*
X68214Y-38667D01*
X68557Y-38724D02*
X68585Y-38696D01*
X68642Y-38667D01*
X68785Y-38667D01*
X68842Y-38696D01*
X68871Y-38724D01*
X68900Y-38781D01*
X68900Y-38838D01*
X68871Y-38924D01*
X68528Y-39267D01*
X68900Y-39267D01*
X69100Y-38667D02*
X69471Y-38667D01*
X69271Y-38896D01*
X69357Y-38896D01*
X69414Y-38924D01*
X69442Y-38953D01*
X69471Y-39010D01*
X69471Y-39153D01*
X69442Y-39210D01*
X69414Y-39238D01*
X69357Y-39267D01*
X69185Y-39267D01*
X69128Y-39238D01*
X69100Y-39210D01*
X64257Y-35714D02*
X64257Y-36200D01*
X64285Y-36257D01*
X64314Y-36285D01*
X64371Y-36314D01*
X64485Y-36314D01*
X64542Y-36285D01*
X64571Y-36257D01*
X64600Y-36200D01*
X64600Y-35714D01*
X64857Y-35771D02*
X64885Y-35743D01*
X64942Y-35714D01*
X65085Y-35714D01*
X65142Y-35743D01*
X65171Y-35771D01*
X65200Y-35828D01*
X65200Y-35885D01*
X65171Y-35971D01*
X64828Y-36314D01*
X65200Y-36314D01*
X65571Y-35714D02*
X65628Y-35714D01*
X65685Y-35743D01*
X65714Y-35771D01*
X65742Y-35828D01*
X65771Y-35943D01*
X65771Y-36085D01*
X65742Y-36200D01*
X65714Y-36257D01*
X65685Y-36285D01*
X65628Y-36314D01*
X65571Y-36314D01*
X65514Y-36285D01*
X65485Y-36257D01*
X65457Y-36200D01*
X65428Y-36085D01*
X65428Y-35943D01*
X65457Y-35828D01*
X65485Y-35771D01*
X65514Y-35743D01*
X65571Y-35714D01*
X62057Y-39267D02*
X62057Y-38667D01*
X62285Y-38667D01*
X62342Y-38696D01*
X62371Y-38724D01*
X62400Y-38781D01*
X62400Y-38867D01*
X62371Y-38924D01*
X62342Y-38953D01*
X62285Y-38981D01*
X62057Y-38981D01*
X63000Y-39267D02*
X62800Y-38981D01*
X62657Y-39267D02*
X62657Y-38667D01*
X62885Y-38667D01*
X62942Y-38696D01*
X62971Y-38724D01*
X63000Y-38781D01*
X63000Y-38867D01*
X62971Y-38924D01*
X62942Y-38953D01*
X62885Y-38981D01*
X62657Y-38981D01*
X63371Y-38667D02*
X63485Y-38667D01*
X63542Y-38696D01*
X63600Y-38753D01*
X63628Y-38867D01*
X63628Y-39067D01*
X63600Y-39181D01*
X63542Y-39238D01*
X63485Y-39267D01*
X63371Y-39267D01*
X63314Y-39238D01*
X63257Y-39181D01*
X63228Y-39067D01*
X63228Y-38867D01*
X63257Y-38753D01*
X63314Y-38696D01*
X63371Y-38667D01*
X63800Y-38667D02*
X64142Y-38667D01*
X63971Y-39267D02*
X63971Y-38667D01*
X64457Y-38667D02*
X64571Y-38667D01*
X64628Y-38696D01*
X64685Y-38753D01*
X64714Y-38867D01*
X64714Y-39067D01*
X64685Y-39181D01*
X64628Y-39238D01*
X64571Y-39267D01*
X64457Y-39267D01*
X64400Y-39238D01*
X64342Y-39181D01*
X64314Y-39067D01*
X64314Y-38867D01*
X64342Y-38753D01*
X64400Y-38696D01*
X64457Y-38667D01*
X64828Y-39324D02*
X65285Y-39324D01*
X65400Y-39238D02*
X65485Y-39267D01*
X65628Y-39267D01*
X65685Y-39238D01*
X65714Y-39210D01*
X65742Y-39153D01*
X65742Y-39096D01*
X65714Y-39038D01*
X65685Y-39010D01*
X65628Y-38981D01*
X65514Y-38953D01*
X65457Y-38924D01*
X65428Y-38896D01*
X65400Y-38838D01*
X65400Y-38781D01*
X65428Y-38724D01*
X65457Y-38696D01*
X65514Y-38667D01*
X65657Y-38667D01*
X65742Y-38696D01*
X66114Y-38667D02*
X66228Y-38667D01*
X66285Y-38696D01*
X66342Y-38753D01*
X66371Y-38867D01*
X66371Y-39067D01*
X66342Y-39181D01*
X66285Y-39238D01*
X66228Y-39267D01*
X66114Y-39267D01*
X66057Y-39238D01*
X66000Y-39181D01*
X65971Y-39067D01*
X65971Y-38867D01*
X66000Y-38753D01*
X66057Y-38696D01*
X66114Y-38667D01*
X66542Y-38667D02*
X66885Y-38667D01*
X66714Y-39267D02*
X66714Y-38667D01*
X67057Y-38724D02*
X67085Y-38696D01*
X67142Y-38667D01*
X67285Y-38667D01*
X67342Y-38696D01*
X67371Y-38724D01*
X67400Y-38781D01*
X67400Y-38838D01*
X67371Y-38924D01*
X67028Y-39267D01*
X67400Y-39267D01*
X67600Y-38667D02*
X67971Y-38667D01*
X67771Y-38896D01*
X67857Y-38896D01*
X67914Y-38924D01*
X67942Y-38953D01*
X67971Y-39010D01*
X67971Y-39153D01*
X67942Y-39210D01*
X67914Y-39238D01*
X67857Y-39267D01*
X67685Y-39267D01*
X67628Y-39238D01*
X67600Y-39210D01*
X62757Y-35714D02*
X62757Y-36200D01*
X62785Y-36257D01*
X62814Y-36285D01*
X62871Y-36314D01*
X62985Y-36314D01*
X63042Y-36285D01*
X63071Y-36257D01*
X63100Y-36200D01*
X63100Y-35714D01*
X63700Y-36314D02*
X63357Y-36314D01*
X63528Y-36314D02*
X63528Y-35714D01*
X63471Y-35800D01*
X63414Y-35857D01*
X63357Y-35885D01*
X64042Y-35971D02*
X63985Y-35943D01*
X63957Y-35914D01*
X63928Y-35857D01*
X63928Y-35828D01*
X63957Y-35771D01*
X63985Y-35743D01*
X64042Y-35714D01*
X64157Y-35714D01*
X64214Y-35743D01*
X64242Y-35771D01*
X64271Y-35828D01*
X64271Y-35857D01*
X64242Y-35914D01*
X64214Y-35943D01*
X64157Y-35971D01*
X64042Y-35971D01*
X63985Y-36000D01*
X63957Y-36028D01*
X63928Y-36085D01*
X63928Y-36200D01*
X63957Y-36257D01*
X63985Y-36285D01*
X64042Y-36314D01*
X64157Y-36314D01*
X64214Y-36285D01*
X64242Y-36257D01*
X64271Y-36200D01*
X64271Y-36085D01*
X64242Y-36028D01*
X64214Y-36000D01*
X64157Y-35971D01*
X60557Y-39267D02*
X60557Y-38667D01*
X60785Y-38667D01*
X60842Y-38696D01*
X60871Y-38724D01*
X60900Y-38781D01*
X60900Y-38867D01*
X60871Y-38924D01*
X60842Y-38953D01*
X60785Y-38981D01*
X60557Y-38981D01*
X61500Y-39267D02*
X61300Y-38981D01*
X61157Y-39267D02*
X61157Y-38667D01*
X61385Y-38667D01*
X61442Y-38696D01*
X61471Y-38724D01*
X61500Y-38781D01*
X61500Y-38867D01*
X61471Y-38924D01*
X61442Y-38953D01*
X61385Y-38981D01*
X61157Y-38981D01*
X61871Y-38667D02*
X61985Y-38667D01*
X62042Y-38696D01*
X62100Y-38753D01*
X62128Y-38867D01*
X62128Y-39067D01*
X62100Y-39181D01*
X62042Y-39238D01*
X61985Y-39267D01*
X61871Y-39267D01*
X61814Y-39238D01*
X61757Y-39181D01*
X61728Y-39067D01*
X61728Y-38867D01*
X61757Y-38753D01*
X61814Y-38696D01*
X61871Y-38667D01*
X62300Y-38667D02*
X62642Y-38667D01*
X62471Y-39267D02*
X62471Y-38667D01*
X62957Y-38667D02*
X63071Y-38667D01*
X63128Y-38696D01*
X63185Y-38753D01*
X63214Y-38867D01*
X63214Y-39067D01*
X63185Y-39181D01*
X63128Y-39238D01*
X63071Y-39267D01*
X62957Y-39267D01*
X62900Y-39238D01*
X62842Y-39181D01*
X62814Y-39067D01*
X62814Y-38867D01*
X62842Y-38753D01*
X62900Y-38696D01*
X62957Y-38667D01*
X63328Y-39324D02*
X63785Y-39324D01*
X63900Y-39238D02*
X63985Y-39267D01*
X64128Y-39267D01*
X64185Y-39238D01*
X64214Y-39210D01*
X64242Y-39153D01*
X64242Y-39096D01*
X64214Y-39038D01*
X64185Y-39010D01*
X64128Y-38981D01*
X64014Y-38953D01*
X63957Y-38924D01*
X63928Y-38896D01*
X63900Y-38838D01*
X63900Y-38781D01*
X63928Y-38724D01*
X63957Y-38696D01*
X64014Y-38667D01*
X64157Y-38667D01*
X64242Y-38696D01*
X64614Y-38667D02*
X64728Y-38667D01*
X64785Y-38696D01*
X64842Y-38753D01*
X64871Y-38867D01*
X64871Y-39067D01*
X64842Y-39181D01*
X64785Y-39238D01*
X64728Y-39267D01*
X64614Y-39267D01*
X64557Y-39238D01*
X64500Y-39181D01*
X64471Y-39067D01*
X64471Y-38867D01*
X64500Y-38753D01*
X64557Y-38696D01*
X64614Y-38667D01*
X65042Y-38667D02*
X65385Y-38667D01*
X65214Y-39267D02*
X65214Y-38667D01*
X65557Y-38724D02*
X65585Y-38696D01*
X65642Y-38667D01*
X65785Y-38667D01*
X65842Y-38696D01*
X65871Y-38724D01*
X65900Y-38781D01*
X65900Y-38838D01*
X65871Y-38924D01*
X65528Y-39267D01*
X65900Y-39267D01*
X66100Y-38667D02*
X66471Y-38667D01*
X66271Y-38896D01*
X66357Y-38896D01*
X66414Y-38924D01*
X66442Y-38953D01*
X66471Y-39010D01*
X66471Y-39153D01*
X66442Y-39210D01*
X66414Y-39238D01*
X66357Y-39267D01*
X66185Y-39267D01*
X66128Y-39238D01*
X66100Y-39210D01*
X61257Y-35714D02*
X61257Y-36200D01*
X61285Y-36257D01*
X61314Y-36285D01*
X61371Y-36314D01*
X61485Y-36314D01*
X61542Y-36285D01*
X61571Y-36257D01*
X61600Y-36200D01*
X61600Y-35714D01*
X62200Y-36314D02*
X61857Y-36314D01*
X62028Y-36314D02*
X62028Y-35714D01*
X61971Y-35800D01*
X61914Y-35857D01*
X61857Y-35885D01*
X62714Y-35714D02*
X62600Y-35714D01*
X62542Y-35743D01*
X62514Y-35771D01*
X62457Y-35857D01*
X62428Y-35971D01*
X62428Y-36200D01*
X62457Y-36257D01*
X62485Y-36285D01*
X62542Y-36314D01*
X62657Y-36314D01*
X62714Y-36285D01*
X62742Y-36257D01*
X62771Y-36200D01*
X62771Y-36057D01*
X62742Y-36000D01*
X62714Y-35971D01*
X62657Y-35943D01*
X62542Y-35943D01*
X62485Y-35971D01*
X62457Y-36000D01*
X62428Y-36057D01*
X59057Y-39267D02*
X59057Y-38667D01*
X59285Y-38667D01*
X59342Y-38696D01*
X59371Y-38724D01*
X59400Y-38781D01*
X59400Y-38867D01*
X59371Y-38924D01*
X59342Y-38953D01*
X59285Y-38981D01*
X59057Y-38981D01*
X60000Y-39267D02*
X59800Y-38981D01*
X59657Y-39267D02*
X59657Y-38667D01*
X59885Y-38667D01*
X59942Y-38696D01*
X59971Y-38724D01*
X60000Y-38781D01*
X60000Y-38867D01*
X59971Y-38924D01*
X59942Y-38953D01*
X59885Y-38981D01*
X59657Y-38981D01*
X60371Y-38667D02*
X60485Y-38667D01*
X60542Y-38696D01*
X60600Y-38753D01*
X60628Y-38867D01*
X60628Y-39067D01*
X60600Y-39181D01*
X60542Y-39238D01*
X60485Y-39267D01*
X60371Y-39267D01*
X60314Y-39238D01*
X60257Y-39181D01*
X60228Y-39067D01*
X60228Y-38867D01*
X60257Y-38753D01*
X60314Y-38696D01*
X60371Y-38667D01*
X60800Y-38667D02*
X61142Y-38667D01*
X60971Y-39267D02*
X60971Y-38667D01*
X61457Y-38667D02*
X61571Y-38667D01*
X61628Y-38696D01*
X61685Y-38753D01*
X61714Y-38867D01*
X61714Y-39067D01*
X61685Y-39181D01*
X61628Y-39238D01*
X61571Y-39267D01*
X61457Y-39267D01*
X61400Y-39238D01*
X61342Y-39181D01*
X61314Y-39067D01*
X61314Y-38867D01*
X61342Y-38753D01*
X61400Y-38696D01*
X61457Y-38667D01*
X61828Y-39324D02*
X62285Y-39324D01*
X62400Y-39238D02*
X62485Y-39267D01*
X62628Y-39267D01*
X62685Y-39238D01*
X62714Y-39210D01*
X62742Y-39153D01*
X62742Y-39096D01*
X62714Y-39038D01*
X62685Y-39010D01*
X62628Y-38981D01*
X62514Y-38953D01*
X62457Y-38924D01*
X62428Y-38896D01*
X62400Y-38838D01*
X62400Y-38781D01*
X62428Y-38724D01*
X62457Y-38696D01*
X62514Y-38667D01*
X62657Y-38667D01*
X62742Y-38696D01*
X63114Y-38667D02*
X63228Y-38667D01*
X63285Y-38696D01*
X63342Y-38753D01*
X63371Y-38867D01*
X63371Y-39067D01*
X63342Y-39181D01*
X63285Y-39238D01*
X63228Y-39267D01*
X63114Y-39267D01*
X63057Y-39238D01*
X63000Y-39181D01*
X62971Y-39067D01*
X62971Y-38867D01*
X63000Y-38753D01*
X63057Y-38696D01*
X63114Y-38667D01*
X63542Y-38667D02*
X63885Y-38667D01*
X63714Y-39267D02*
X63714Y-38667D01*
X64057Y-38724D02*
X64085Y-38696D01*
X64142Y-38667D01*
X64285Y-38667D01*
X64342Y-38696D01*
X64371Y-38724D01*
X64400Y-38781D01*
X64400Y-38838D01*
X64371Y-38924D01*
X64028Y-39267D01*
X64400Y-39267D01*
X64600Y-38667D02*
X64971Y-38667D01*
X64771Y-38896D01*
X64857Y-38896D01*
X64914Y-38924D01*
X64942Y-38953D01*
X64971Y-39010D01*
X64971Y-39153D01*
X64942Y-39210D01*
X64914Y-39238D01*
X64857Y-39267D01*
X64685Y-39267D01*
X64628Y-39238D01*
X64600Y-39210D01*
X58257Y-35714D02*
X58257Y-36200D01*
X58285Y-36257D01*
X58314Y-36285D01*
X58371Y-36314D01*
X58485Y-36314D01*
X58542Y-36285D01*
X58571Y-36257D01*
X58600Y-36200D01*
X58600Y-35714D01*
X59200Y-36314D02*
X58857Y-36314D01*
X59028Y-36314D02*
X59028Y-35714D01*
X58971Y-35800D01*
X58914Y-35857D01*
X58857Y-35885D01*
X59428Y-35771D02*
X59457Y-35743D01*
X59514Y-35714D01*
X59657Y-35714D01*
X59714Y-35743D01*
X59742Y-35771D01*
X59771Y-35828D01*
X59771Y-35885D01*
X59742Y-35971D01*
X59400Y-36314D01*
X59771Y-36314D01*
X56057Y-39267D02*
X56057Y-38667D01*
X56285Y-38667D01*
X56342Y-38696D01*
X56371Y-38724D01*
X56400Y-38781D01*
X56400Y-38867D01*
X56371Y-38924D01*
X56342Y-38953D01*
X56285Y-38981D01*
X56057Y-38981D01*
X57000Y-39267D02*
X56800Y-38981D01*
X56657Y-39267D02*
X56657Y-38667D01*
X56885Y-38667D01*
X56942Y-38696D01*
X56971Y-38724D01*
X57000Y-38781D01*
X57000Y-38867D01*
X56971Y-38924D01*
X56942Y-38953D01*
X56885Y-38981D01*
X56657Y-38981D01*
X57371Y-38667D02*
X57485Y-38667D01*
X57542Y-38696D01*
X57600Y-38753D01*
X57628Y-38867D01*
X57628Y-39067D01*
X57600Y-39181D01*
X57542Y-39238D01*
X57485Y-39267D01*
X57371Y-39267D01*
X57314Y-39238D01*
X57257Y-39181D01*
X57228Y-39067D01*
X57228Y-38867D01*
X57257Y-38753D01*
X57314Y-38696D01*
X57371Y-38667D01*
X57800Y-38667D02*
X58142Y-38667D01*
X57971Y-39267D02*
X57971Y-38667D01*
X58457Y-38667D02*
X58571Y-38667D01*
X58628Y-38696D01*
X58685Y-38753D01*
X58714Y-38867D01*
X58714Y-39067D01*
X58685Y-39181D01*
X58628Y-39238D01*
X58571Y-39267D01*
X58457Y-39267D01*
X58400Y-39238D01*
X58342Y-39181D01*
X58314Y-39067D01*
X58314Y-38867D01*
X58342Y-38753D01*
X58400Y-38696D01*
X58457Y-38667D01*
X58828Y-39324D02*
X59285Y-39324D01*
X59400Y-39238D02*
X59485Y-39267D01*
X59628Y-39267D01*
X59685Y-39238D01*
X59714Y-39210D01*
X59742Y-39153D01*
X59742Y-39096D01*
X59714Y-39038D01*
X59685Y-39010D01*
X59628Y-38981D01*
X59514Y-38953D01*
X59457Y-38924D01*
X59428Y-38896D01*
X59400Y-38838D01*
X59400Y-38781D01*
X59428Y-38724D01*
X59457Y-38696D01*
X59514Y-38667D01*
X59657Y-38667D01*
X59742Y-38696D01*
X60114Y-38667D02*
X60228Y-38667D01*
X60285Y-38696D01*
X60342Y-38753D01*
X60371Y-38867D01*
X60371Y-39067D01*
X60342Y-39181D01*
X60285Y-39238D01*
X60228Y-39267D01*
X60114Y-39267D01*
X60057Y-39238D01*
X60000Y-39181D01*
X59971Y-39067D01*
X59971Y-38867D01*
X60000Y-38753D01*
X60057Y-38696D01*
X60114Y-38667D01*
X60542Y-38667D02*
X60885Y-38667D01*
X60714Y-39267D02*
X60714Y-38667D01*
X61057Y-38724D02*
X61085Y-38696D01*
X61142Y-38667D01*
X61285Y-38667D01*
X61342Y-38696D01*
X61371Y-38724D01*
X61400Y-38781D01*
X61400Y-38838D01*
X61371Y-38924D01*
X61028Y-39267D01*
X61400Y-39267D01*
X61600Y-38667D02*
X61971Y-38667D01*
X61771Y-38896D01*
X61857Y-38896D01*
X61914Y-38924D01*
X61942Y-38953D01*
X61971Y-39010D01*
X61971Y-39153D01*
X61942Y-39210D01*
X61914Y-39238D01*
X61857Y-39267D01*
X61685Y-39267D01*
X61628Y-39238D01*
X61600Y-39210D01*
X56757Y-35714D02*
X56757Y-36200D01*
X56785Y-36257D01*
X56814Y-36285D01*
X56871Y-36314D01*
X56985Y-36314D01*
X57042Y-36285D01*
X57071Y-36257D01*
X57100Y-36200D01*
X57100Y-35714D01*
X57700Y-36314D02*
X57357Y-36314D01*
X57528Y-36314D02*
X57528Y-35714D01*
X57471Y-35800D01*
X57414Y-35857D01*
X57357Y-35885D01*
X58071Y-35714D02*
X58128Y-35714D01*
X58185Y-35743D01*
X58214Y-35771D01*
X58242Y-35828D01*
X58271Y-35943D01*
X58271Y-36085D01*
X58242Y-36200D01*
X58214Y-36257D01*
X58185Y-36285D01*
X58128Y-36314D01*
X58071Y-36314D01*
X58014Y-36285D01*
X57985Y-36257D01*
X57957Y-36200D01*
X57928Y-36085D01*
X57928Y-35943D01*
X57957Y-35828D01*
X57985Y-35771D01*
X58014Y-35743D01*
X58071Y-35714D01*
X54557Y-39267D02*
X54557Y-38667D01*
X54785Y-38667D01*
X54842Y-38696D01*
X54871Y-38724D01*
X54900Y-38781D01*
X54900Y-38867D01*
X54871Y-38924D01*
X54842Y-38953D01*
X54785Y-38981D01*
X54557Y-38981D01*
X55500Y-39267D02*
X55300Y-38981D01*
X55157Y-39267D02*
X55157Y-38667D01*
X55385Y-38667D01*
X55442Y-38696D01*
X55471Y-38724D01*
X55500Y-38781D01*
X55500Y-38867D01*
X55471Y-38924D01*
X55442Y-38953D01*
X55385Y-38981D01*
X55157Y-38981D01*
X55871Y-38667D02*
X55985Y-38667D01*
X56042Y-38696D01*
X56100Y-38753D01*
X56128Y-38867D01*
X56128Y-39067D01*
X56100Y-39181D01*
X56042Y-39238D01*
X55985Y-39267D01*
X55871Y-39267D01*
X55814Y-39238D01*
X55757Y-39181D01*
X55728Y-39067D01*
X55728Y-38867D01*
X55757Y-38753D01*
X55814Y-38696D01*
X55871Y-38667D01*
X56300Y-38667D02*
X56642Y-38667D01*
X56471Y-39267D02*
X56471Y-38667D01*
X56957Y-38667D02*
X57071Y-38667D01*
X57128Y-38696D01*
X57185Y-38753D01*
X57214Y-38867D01*
X57214Y-39067D01*
X57185Y-39181D01*
X57128Y-39238D01*
X57071Y-39267D01*
X56957Y-39267D01*
X56900Y-39238D01*
X56842Y-39181D01*
X56814Y-39067D01*
X56814Y-38867D01*
X56842Y-38753D01*
X56900Y-38696D01*
X56957Y-38667D01*
X57328Y-39324D02*
X57785Y-39324D01*
X57900Y-39238D02*
X57985Y-39267D01*
X58128Y-39267D01*
X58185Y-39238D01*
X58214Y-39210D01*
X58242Y-39153D01*
X58242Y-39096D01*
X58214Y-39038D01*
X58185Y-39010D01*
X58128Y-38981D01*
X58014Y-38953D01*
X57957Y-38924D01*
X57928Y-38896D01*
X57900Y-38838D01*
X57900Y-38781D01*
X57928Y-38724D01*
X57957Y-38696D01*
X58014Y-38667D01*
X58157Y-38667D01*
X58242Y-38696D01*
X58614Y-38667D02*
X58728Y-38667D01*
X58785Y-38696D01*
X58842Y-38753D01*
X58871Y-38867D01*
X58871Y-39067D01*
X58842Y-39181D01*
X58785Y-39238D01*
X58728Y-39267D01*
X58614Y-39267D01*
X58557Y-39238D01*
X58500Y-39181D01*
X58471Y-39067D01*
X58471Y-38867D01*
X58500Y-38753D01*
X58557Y-38696D01*
X58614Y-38667D01*
X59042Y-38667D02*
X59385Y-38667D01*
X59214Y-39267D02*
X59214Y-38667D01*
X59557Y-38724D02*
X59585Y-38696D01*
X59642Y-38667D01*
X59785Y-38667D01*
X59842Y-38696D01*
X59871Y-38724D01*
X59900Y-38781D01*
X59900Y-38838D01*
X59871Y-38924D01*
X59528Y-39267D01*
X59900Y-39267D01*
X60100Y-38667D02*
X60471Y-38667D01*
X60271Y-38896D01*
X60357Y-38896D01*
X60414Y-38924D01*
X60442Y-38953D01*
X60471Y-39010D01*
X60471Y-39153D01*
X60442Y-39210D01*
X60414Y-39238D01*
X60357Y-39267D01*
X60185Y-39267D01*
X60128Y-39238D01*
X60100Y-39210D01*
X55542Y-35714D02*
X55542Y-36200D01*
X55571Y-36257D01*
X55600Y-36285D01*
X55657Y-36314D01*
X55771Y-36314D01*
X55828Y-36285D01*
X55857Y-36257D01*
X55885Y-36200D01*
X55885Y-35714D01*
X56257Y-35971D02*
X56200Y-35943D01*
X56171Y-35914D01*
X56142Y-35857D01*
X56142Y-35828D01*
X56171Y-35771D01*
X56200Y-35743D01*
X56257Y-35714D01*
X56371Y-35714D01*
X56428Y-35743D01*
X56457Y-35771D01*
X56485Y-35828D01*
X56485Y-35857D01*
X56457Y-35914D01*
X56428Y-35943D01*
X56371Y-35971D01*
X56257Y-35971D01*
X56200Y-36000D01*
X56171Y-36028D01*
X56142Y-36085D01*
X56142Y-36200D01*
X56171Y-36257D01*
X56200Y-36285D01*
X56257Y-36314D01*
X56371Y-36314D01*
X56428Y-36285D01*
X56457Y-36257D01*
X56485Y-36200D01*
X56485Y-36085D01*
X56457Y-36028D01*
X56428Y-36000D01*
X56371Y-35971D01*
X53057Y-39267D02*
X53057Y-38667D01*
X53285Y-38667D01*
X53342Y-38696D01*
X53371Y-38724D01*
X53400Y-38781D01*
X53400Y-38867D01*
X53371Y-38924D01*
X53342Y-38953D01*
X53285Y-38981D01*
X53057Y-38981D01*
X54000Y-39267D02*
X53800Y-38981D01*
X53657Y-39267D02*
X53657Y-38667D01*
X53885Y-38667D01*
X53942Y-38696D01*
X53971Y-38724D01*
X54000Y-38781D01*
X54000Y-38867D01*
X53971Y-38924D01*
X53942Y-38953D01*
X53885Y-38981D01*
X53657Y-38981D01*
X54371Y-38667D02*
X54485Y-38667D01*
X54542Y-38696D01*
X54600Y-38753D01*
X54628Y-38867D01*
X54628Y-39067D01*
X54600Y-39181D01*
X54542Y-39238D01*
X54485Y-39267D01*
X54371Y-39267D01*
X54314Y-39238D01*
X54257Y-39181D01*
X54228Y-39067D01*
X54228Y-38867D01*
X54257Y-38753D01*
X54314Y-38696D01*
X54371Y-38667D01*
X54800Y-38667D02*
X55142Y-38667D01*
X54971Y-39267D02*
X54971Y-38667D01*
X55457Y-38667D02*
X55571Y-38667D01*
X55628Y-38696D01*
X55685Y-38753D01*
X55714Y-38867D01*
X55714Y-39067D01*
X55685Y-39181D01*
X55628Y-39238D01*
X55571Y-39267D01*
X55457Y-39267D01*
X55400Y-39238D01*
X55342Y-39181D01*
X55314Y-39067D01*
X55314Y-38867D01*
X55342Y-38753D01*
X55400Y-38696D01*
X55457Y-38667D01*
X55828Y-39324D02*
X56285Y-39324D01*
X56400Y-39238D02*
X56485Y-39267D01*
X56628Y-39267D01*
X56685Y-39238D01*
X56714Y-39210D01*
X56742Y-39153D01*
X56742Y-39096D01*
X56714Y-39038D01*
X56685Y-39010D01*
X56628Y-38981D01*
X56514Y-38953D01*
X56457Y-38924D01*
X56428Y-38896D01*
X56400Y-38838D01*
X56400Y-38781D01*
X56428Y-38724D01*
X56457Y-38696D01*
X56514Y-38667D01*
X56657Y-38667D01*
X56742Y-38696D01*
X57114Y-38667D02*
X57228Y-38667D01*
X57285Y-38696D01*
X57342Y-38753D01*
X57371Y-38867D01*
X57371Y-39067D01*
X57342Y-39181D01*
X57285Y-39238D01*
X57228Y-39267D01*
X57114Y-39267D01*
X57057Y-39238D01*
X57000Y-39181D01*
X56971Y-39067D01*
X56971Y-38867D01*
X57000Y-38753D01*
X57057Y-38696D01*
X57114Y-38667D01*
X57542Y-38667D02*
X57885Y-38667D01*
X57714Y-39267D02*
X57714Y-38667D01*
X58057Y-38724D02*
X58085Y-38696D01*
X58142Y-38667D01*
X58285Y-38667D01*
X58342Y-38696D01*
X58371Y-38724D01*
X58400Y-38781D01*
X58400Y-38838D01*
X58371Y-38924D01*
X58028Y-39267D01*
X58400Y-39267D01*
X58600Y-38667D02*
X58971Y-38667D01*
X58771Y-38896D01*
X58857Y-38896D01*
X58914Y-38924D01*
X58942Y-38953D01*
X58971Y-39010D01*
X58971Y-39153D01*
X58942Y-39210D01*
X58914Y-39238D01*
X58857Y-39267D01*
X58685Y-39267D01*
X58628Y-39238D01*
X58600Y-39210D01*
X54042Y-35714D02*
X54042Y-36200D01*
X54071Y-36257D01*
X54100Y-36285D01*
X54157Y-36314D01*
X54271Y-36314D01*
X54328Y-36285D01*
X54357Y-36257D01*
X54385Y-36200D01*
X54385Y-35714D01*
X54928Y-35714D02*
X54814Y-35714D01*
X54757Y-35743D01*
X54728Y-35771D01*
X54671Y-35857D01*
X54642Y-35971D01*
X54642Y-36200D01*
X54671Y-36257D01*
X54700Y-36285D01*
X54757Y-36314D01*
X54871Y-36314D01*
X54928Y-36285D01*
X54957Y-36257D01*
X54985Y-36200D01*
X54985Y-36057D01*
X54957Y-36000D01*
X54928Y-35971D01*
X54871Y-35943D01*
X54757Y-35943D01*
X54700Y-35971D01*
X54671Y-36000D01*
X54642Y-36057D01*
X51557Y-39267D02*
X51557Y-38667D01*
X51785Y-38667D01*
X51842Y-38696D01*
X51871Y-38724D01*
X51900Y-38781D01*
X51900Y-38867D01*
X51871Y-38924D01*
X51842Y-38953D01*
X51785Y-38981D01*
X51557Y-38981D01*
X52500Y-39267D02*
X52300Y-38981D01*
X52157Y-39267D02*
X52157Y-38667D01*
X52385Y-38667D01*
X52442Y-38696D01*
X52471Y-38724D01*
X52500Y-38781D01*
X52500Y-38867D01*
X52471Y-38924D01*
X52442Y-38953D01*
X52385Y-38981D01*
X52157Y-38981D01*
X52871Y-38667D02*
X52985Y-38667D01*
X53042Y-38696D01*
X53100Y-38753D01*
X53128Y-38867D01*
X53128Y-39067D01*
X53100Y-39181D01*
X53042Y-39238D01*
X52985Y-39267D01*
X52871Y-39267D01*
X52814Y-39238D01*
X52757Y-39181D01*
X52728Y-39067D01*
X52728Y-38867D01*
X52757Y-38753D01*
X52814Y-38696D01*
X52871Y-38667D01*
X53300Y-38667D02*
X53642Y-38667D01*
X53471Y-39267D02*
X53471Y-38667D01*
X53957Y-38667D02*
X54071Y-38667D01*
X54128Y-38696D01*
X54185Y-38753D01*
X54214Y-38867D01*
X54214Y-39067D01*
X54185Y-39181D01*
X54128Y-39238D01*
X54071Y-39267D01*
X53957Y-39267D01*
X53900Y-39238D01*
X53842Y-39181D01*
X53814Y-39067D01*
X53814Y-38867D01*
X53842Y-38753D01*
X53900Y-38696D01*
X53957Y-38667D01*
X54328Y-39324D02*
X54785Y-39324D01*
X54900Y-39238D02*
X54985Y-39267D01*
X55128Y-39267D01*
X55185Y-39238D01*
X55214Y-39210D01*
X55242Y-39153D01*
X55242Y-39096D01*
X55214Y-39038D01*
X55185Y-39010D01*
X55128Y-38981D01*
X55014Y-38953D01*
X54957Y-38924D01*
X54928Y-38896D01*
X54900Y-38838D01*
X54900Y-38781D01*
X54928Y-38724D01*
X54957Y-38696D01*
X55014Y-38667D01*
X55157Y-38667D01*
X55242Y-38696D01*
X55614Y-38667D02*
X55728Y-38667D01*
X55785Y-38696D01*
X55842Y-38753D01*
X55871Y-38867D01*
X55871Y-39067D01*
X55842Y-39181D01*
X55785Y-39238D01*
X55728Y-39267D01*
X55614Y-39267D01*
X55557Y-39238D01*
X55500Y-39181D01*
X55471Y-39067D01*
X55471Y-38867D01*
X55500Y-38753D01*
X55557Y-38696D01*
X55614Y-38667D01*
X56042Y-38667D02*
X56385Y-38667D01*
X56214Y-39267D02*
X56214Y-38667D01*
X56557Y-38724D02*
X56585Y-38696D01*
X56642Y-38667D01*
X56785Y-38667D01*
X56842Y-38696D01*
X56871Y-38724D01*
X56900Y-38781D01*
X56900Y-38838D01*
X56871Y-38924D01*
X56528Y-39267D01*
X56900Y-39267D01*
X57100Y-38667D02*
X57471Y-38667D01*
X57271Y-38896D01*
X57357Y-38896D01*
X57414Y-38924D01*
X57442Y-38953D01*
X57471Y-39010D01*
X57471Y-39153D01*
X57442Y-39210D01*
X57414Y-39238D01*
X57357Y-39267D01*
X57185Y-39267D01*
X57128Y-39238D01*
X57100Y-39210D01*
X52542Y-35714D02*
X52542Y-36200D01*
X52571Y-36257D01*
X52600Y-36285D01*
X52657Y-36314D01*
X52771Y-36314D01*
X52828Y-36285D01*
X52857Y-36257D01*
X52885Y-36200D01*
X52885Y-35714D01*
X53428Y-35914D02*
X53428Y-36314D01*
X53285Y-35685D02*
X53142Y-36114D01*
X53514Y-36114D01*
X50057Y-39267D02*
X50057Y-38667D01*
X50285Y-38667D01*
X50342Y-38696D01*
X50371Y-38724D01*
X50400Y-38781D01*
X50400Y-38867D01*
X50371Y-38924D01*
X50342Y-38953D01*
X50285Y-38981D01*
X50057Y-38981D01*
X51000Y-39267D02*
X50800Y-38981D01*
X50657Y-39267D02*
X50657Y-38667D01*
X50885Y-38667D01*
X50942Y-38696D01*
X50971Y-38724D01*
X51000Y-38781D01*
X51000Y-38867D01*
X50971Y-38924D01*
X50942Y-38953D01*
X50885Y-38981D01*
X50657Y-38981D01*
X51371Y-38667D02*
X51485Y-38667D01*
X51542Y-38696D01*
X51600Y-38753D01*
X51628Y-38867D01*
X51628Y-39067D01*
X51600Y-39181D01*
X51542Y-39238D01*
X51485Y-39267D01*
X51371Y-39267D01*
X51314Y-39238D01*
X51257Y-39181D01*
X51228Y-39067D01*
X51228Y-38867D01*
X51257Y-38753D01*
X51314Y-38696D01*
X51371Y-38667D01*
X51800Y-38667D02*
X52142Y-38667D01*
X51971Y-39267D02*
X51971Y-38667D01*
X52457Y-38667D02*
X52571Y-38667D01*
X52628Y-38696D01*
X52685Y-38753D01*
X52714Y-38867D01*
X52714Y-39067D01*
X52685Y-39181D01*
X52628Y-39238D01*
X52571Y-39267D01*
X52457Y-39267D01*
X52400Y-39238D01*
X52342Y-39181D01*
X52314Y-39067D01*
X52314Y-38867D01*
X52342Y-38753D01*
X52400Y-38696D01*
X52457Y-38667D01*
X52828Y-39324D02*
X53285Y-39324D01*
X53400Y-39238D02*
X53485Y-39267D01*
X53628Y-39267D01*
X53685Y-39238D01*
X53714Y-39210D01*
X53742Y-39153D01*
X53742Y-39096D01*
X53714Y-39038D01*
X53685Y-39010D01*
X53628Y-38981D01*
X53514Y-38953D01*
X53457Y-38924D01*
X53428Y-38896D01*
X53400Y-38838D01*
X53400Y-38781D01*
X53428Y-38724D01*
X53457Y-38696D01*
X53514Y-38667D01*
X53657Y-38667D01*
X53742Y-38696D01*
X54114Y-38667D02*
X54228Y-38667D01*
X54285Y-38696D01*
X54342Y-38753D01*
X54371Y-38867D01*
X54371Y-39067D01*
X54342Y-39181D01*
X54285Y-39238D01*
X54228Y-39267D01*
X54114Y-39267D01*
X54057Y-39238D01*
X54000Y-39181D01*
X53971Y-39067D01*
X53971Y-38867D01*
X54000Y-38753D01*
X54057Y-38696D01*
X54114Y-38667D01*
X54542Y-38667D02*
X54885Y-38667D01*
X54714Y-39267D02*
X54714Y-38667D01*
X55057Y-38724D02*
X55085Y-38696D01*
X55142Y-38667D01*
X55285Y-38667D01*
X55342Y-38696D01*
X55371Y-38724D01*
X55400Y-38781D01*
X55400Y-38838D01*
X55371Y-38924D01*
X55028Y-39267D01*
X55400Y-39267D01*
X55600Y-38667D02*
X55971Y-38667D01*
X55771Y-38896D01*
X55857Y-38896D01*
X55914Y-38924D01*
X55942Y-38953D01*
X55971Y-39010D01*
X55971Y-39153D01*
X55942Y-39210D01*
X55914Y-39238D01*
X55857Y-39267D01*
X55685Y-39267D01*
X55628Y-39238D01*
X55600Y-39210D01*
X52021Y-29271D02*
X52021Y-28671D01*
X52250Y-28671D01*
X52307Y-28700D01*
X52335Y-28728D01*
X52364Y-28785D01*
X52364Y-28871D01*
X52335Y-28928D01*
X52307Y-28957D01*
X52250Y-28985D01*
X52021Y-28985D01*
X52564Y-28671D02*
X52935Y-28671D01*
X52735Y-28900D01*
X52821Y-28900D01*
X52878Y-28928D01*
X52907Y-28957D01*
X52935Y-29014D01*
X52935Y-29157D01*
X52907Y-29214D01*
X52878Y-29242D01*
X52821Y-29271D01*
X52650Y-29271D01*
X52592Y-29242D01*
X52564Y-29214D01*
X53164Y-28728D02*
X53192Y-28700D01*
X53250Y-28671D01*
X53392Y-28671D01*
X53450Y-28700D01*
X53478Y-28728D01*
X53507Y-28785D01*
X53507Y-28842D01*
X53478Y-28928D01*
X53135Y-29271D01*
X53507Y-29271D01*
X52035Y-27271D02*
X52035Y-26671D01*
X52264Y-26671D01*
X52321Y-26700D01*
X52350Y-26728D01*
X52378Y-26785D01*
X52378Y-26871D01*
X52350Y-26928D01*
X52321Y-26957D01*
X52264Y-26985D01*
X52035Y-26985D01*
X52607Y-27100D02*
X52892Y-27100D01*
X52550Y-27271D02*
X52750Y-26671D01*
X52950Y-27271D01*
X53150Y-27271D02*
X53150Y-26671D01*
X53292Y-26671D01*
X53378Y-26700D01*
X53435Y-26757D01*
X53464Y-26814D01*
X53492Y-26928D01*
X53492Y-27014D01*
X53464Y-27128D01*
X53435Y-27185D01*
X53378Y-27242D01*
X53292Y-27271D01*
X53150Y-27271D01*
X53021Y-29271D02*
X53021Y-28671D01*
X53250Y-28671D01*
X53307Y-28700D01*
X53335Y-28728D01*
X53364Y-28785D01*
X53364Y-28871D01*
X53335Y-28928D01*
X53307Y-28957D01*
X53250Y-28985D01*
X53021Y-28985D01*
X53564Y-28671D02*
X53935Y-28671D01*
X53735Y-28900D01*
X53821Y-28900D01*
X53878Y-28928D01*
X53907Y-28957D01*
X53935Y-29014D01*
X53935Y-29157D01*
X53907Y-29214D01*
X53878Y-29242D01*
X53821Y-29271D01*
X53650Y-29271D01*
X53592Y-29242D01*
X53564Y-29214D01*
X54507Y-29271D02*
X54164Y-29271D01*
X54335Y-29271D02*
X54335Y-28671D01*
X54278Y-28757D01*
X54221Y-28814D01*
X54164Y-28842D01*
X53035Y-27271D02*
X53035Y-26671D01*
X53264Y-26671D01*
X53321Y-26700D01*
X53350Y-26728D01*
X53378Y-26785D01*
X53378Y-26871D01*
X53350Y-26928D01*
X53321Y-26957D01*
X53264Y-26985D01*
X53035Y-26985D01*
X53607Y-27100D02*
X53892Y-27100D01*
X53550Y-27271D02*
X53750Y-26671D01*
X53950Y-27271D01*
X54150Y-27271D02*
X54150Y-26671D01*
X54292Y-26671D01*
X54378Y-26700D01*
X54435Y-26757D01*
X54464Y-26814D01*
X54492Y-26928D01*
X54492Y-27014D01*
X54464Y-27128D01*
X54435Y-27185D01*
X54378Y-27242D01*
X54292Y-27271D01*
X54150Y-27271D01*
X54021Y-29271D02*
X54021Y-28671D01*
X54250Y-28671D01*
X54307Y-28700D01*
X54335Y-28728D01*
X54364Y-28785D01*
X54364Y-28871D01*
X54335Y-28928D01*
X54307Y-28957D01*
X54250Y-28985D01*
X54021Y-28985D01*
X54564Y-28671D02*
X54935Y-28671D01*
X54735Y-28900D01*
X54821Y-28900D01*
X54878Y-28928D01*
X54907Y-28957D01*
X54935Y-29014D01*
X54935Y-29157D01*
X54907Y-29214D01*
X54878Y-29242D01*
X54821Y-29271D01*
X54650Y-29271D01*
X54592Y-29242D01*
X54564Y-29214D01*
X55307Y-28671D02*
X55364Y-28671D01*
X55421Y-28700D01*
X55450Y-28728D01*
X55478Y-28785D01*
X55507Y-28900D01*
X55507Y-29042D01*
X55478Y-29157D01*
X55450Y-29214D01*
X55421Y-29242D01*
X55364Y-29271D01*
X55307Y-29271D01*
X55250Y-29242D01*
X55221Y-29214D01*
X55192Y-29157D01*
X55164Y-29042D01*
X55164Y-28900D01*
X55192Y-28785D01*
X55221Y-28728D01*
X55250Y-28700D01*
X55307Y-28671D01*
X54035Y-27271D02*
X54035Y-26671D01*
X54264Y-26671D01*
X54321Y-26700D01*
X54350Y-26728D01*
X54378Y-26785D01*
X54378Y-26871D01*
X54350Y-26928D01*
X54321Y-26957D01*
X54264Y-26985D01*
X54035Y-26985D01*
X54607Y-27100D02*
X54892Y-27100D01*
X54550Y-27271D02*
X54750Y-26671D01*
X54950Y-27271D01*
X55150Y-27271D02*
X55150Y-26671D01*
X55292Y-26671D01*
X55378Y-26700D01*
X55435Y-26757D01*
X55464Y-26814D01*
X55492Y-26928D01*
X55492Y-27014D01*
X55464Y-27128D01*
X55435Y-27185D01*
X55378Y-27242D01*
X55292Y-27271D01*
X55150Y-27271D01*
X55021Y-29271D02*
X55021Y-28671D01*
X55250Y-28671D01*
X55307Y-28700D01*
X55335Y-28728D01*
X55364Y-28785D01*
X55364Y-28871D01*
X55335Y-28928D01*
X55307Y-28957D01*
X55250Y-28985D01*
X55021Y-28985D01*
X55592Y-28728D02*
X55621Y-28700D01*
X55678Y-28671D01*
X55821Y-28671D01*
X55878Y-28700D01*
X55907Y-28728D01*
X55935Y-28785D01*
X55935Y-28842D01*
X55907Y-28928D01*
X55564Y-29271D01*
X55935Y-29271D01*
X56221Y-29271D02*
X56335Y-29271D01*
X56392Y-29242D01*
X56421Y-29214D01*
X56478Y-29128D01*
X56507Y-29014D01*
X56507Y-28785D01*
X56478Y-28728D01*
X56450Y-28700D01*
X56392Y-28671D01*
X56278Y-28671D01*
X56221Y-28700D01*
X56192Y-28728D01*
X56164Y-28785D01*
X56164Y-28928D01*
X56192Y-28985D01*
X56221Y-29014D01*
X56278Y-29042D01*
X56392Y-29042D01*
X56450Y-29014D01*
X56478Y-28985D01*
X56507Y-28928D01*
X55035Y-27271D02*
X55035Y-26671D01*
X55264Y-26671D01*
X55321Y-26700D01*
X55350Y-26728D01*
X55378Y-26785D01*
X55378Y-26871D01*
X55350Y-26928D01*
X55321Y-26957D01*
X55264Y-26985D01*
X55035Y-26985D01*
X55607Y-27100D02*
X55892Y-27100D01*
X55550Y-27271D02*
X55750Y-26671D01*
X55950Y-27271D01*
X56150Y-27271D02*
X56150Y-26671D01*
X56292Y-26671D01*
X56378Y-26700D01*
X56435Y-26757D01*
X56464Y-26814D01*
X56492Y-26928D01*
X56492Y-27014D01*
X56464Y-27128D01*
X56435Y-27185D01*
X56378Y-27242D01*
X56292Y-27271D01*
X56150Y-27271D01*
X56021Y-29271D02*
X56021Y-28671D01*
X56250Y-28671D01*
X56307Y-28700D01*
X56335Y-28728D01*
X56364Y-28785D01*
X56364Y-28871D01*
X56335Y-28928D01*
X56307Y-28957D01*
X56250Y-28985D01*
X56021Y-28985D01*
X56592Y-28728D02*
X56621Y-28700D01*
X56678Y-28671D01*
X56821Y-28671D01*
X56878Y-28700D01*
X56907Y-28728D01*
X56935Y-28785D01*
X56935Y-28842D01*
X56907Y-28928D01*
X56564Y-29271D01*
X56935Y-29271D01*
X57278Y-28928D02*
X57221Y-28900D01*
X57192Y-28871D01*
X57164Y-28814D01*
X57164Y-28785D01*
X57192Y-28728D01*
X57221Y-28700D01*
X57278Y-28671D01*
X57392Y-28671D01*
X57450Y-28700D01*
X57478Y-28728D01*
X57507Y-28785D01*
X57507Y-28814D01*
X57478Y-28871D01*
X57450Y-28900D01*
X57392Y-28928D01*
X57278Y-28928D01*
X57221Y-28957D01*
X57192Y-28985D01*
X57164Y-29042D01*
X57164Y-29157D01*
X57192Y-29214D01*
X57221Y-29242D01*
X57278Y-29271D01*
X57392Y-29271D01*
X57450Y-29242D01*
X57478Y-29214D01*
X57507Y-29157D01*
X57507Y-29042D01*
X57478Y-28985D01*
X57450Y-28957D01*
X57392Y-28928D01*
X56035Y-27271D02*
X56035Y-26671D01*
X56264Y-26671D01*
X56321Y-26700D01*
X56350Y-26728D01*
X56378Y-26785D01*
X56378Y-26871D01*
X56350Y-26928D01*
X56321Y-26957D01*
X56264Y-26985D01*
X56035Y-26985D01*
X56607Y-27100D02*
X56892Y-27100D01*
X56550Y-27271D02*
X56750Y-26671D01*
X56950Y-27271D01*
X57150Y-27271D02*
X57150Y-26671D01*
X57292Y-26671D01*
X57378Y-26700D01*
X57435Y-26757D01*
X57464Y-26814D01*
X57492Y-26928D01*
X57492Y-27014D01*
X57464Y-27128D01*
X57435Y-27185D01*
X57378Y-27242D01*
X57292Y-27271D01*
X57150Y-27271D01*
X57021Y-29271D02*
X57021Y-28671D01*
X57250Y-28671D01*
X57307Y-28700D01*
X57335Y-28728D01*
X57364Y-28785D01*
X57364Y-28871D01*
X57335Y-28928D01*
X57307Y-28957D01*
X57250Y-28985D01*
X57021Y-28985D01*
X57592Y-28728D02*
X57621Y-28700D01*
X57678Y-28671D01*
X57821Y-28671D01*
X57878Y-28700D01*
X57907Y-28728D01*
X57935Y-28785D01*
X57935Y-28842D01*
X57907Y-28928D01*
X57564Y-29271D01*
X57935Y-29271D01*
X58135Y-28671D02*
X58535Y-28671D01*
X58278Y-29271D01*
X57035Y-27271D02*
X57035Y-26671D01*
X57264Y-26671D01*
X57321Y-26700D01*
X57350Y-26728D01*
X57378Y-26785D01*
X57378Y-26871D01*
X57350Y-26928D01*
X57321Y-26957D01*
X57264Y-26985D01*
X57035Y-26985D01*
X57607Y-27100D02*
X57892Y-27100D01*
X57550Y-27271D02*
X57750Y-26671D01*
X57950Y-27271D01*
X58150Y-27271D02*
X58150Y-26671D01*
X58292Y-26671D01*
X58378Y-26700D01*
X58435Y-26757D01*
X58464Y-26814D01*
X58492Y-26928D01*
X58492Y-27014D01*
X58464Y-27128D01*
X58435Y-27185D01*
X58378Y-27242D01*
X58292Y-27271D01*
X58150Y-27271D01*
X58021Y-29271D02*
X58021Y-28671D01*
X58250Y-28671D01*
X58307Y-28700D01*
X58335Y-28728D01*
X58364Y-28785D01*
X58364Y-28871D01*
X58335Y-28928D01*
X58307Y-28957D01*
X58250Y-28985D01*
X58021Y-28985D01*
X58592Y-28728D02*
X58621Y-28700D01*
X58678Y-28671D01*
X58821Y-28671D01*
X58878Y-28700D01*
X58907Y-28728D01*
X58935Y-28785D01*
X58935Y-28842D01*
X58907Y-28928D01*
X58564Y-29271D01*
X58935Y-29271D01*
X59450Y-28671D02*
X59335Y-28671D01*
X59278Y-28700D01*
X59250Y-28728D01*
X59192Y-28814D01*
X59164Y-28928D01*
X59164Y-29157D01*
X59192Y-29214D01*
X59221Y-29242D01*
X59278Y-29271D01*
X59392Y-29271D01*
X59450Y-29242D01*
X59478Y-29214D01*
X59507Y-29157D01*
X59507Y-29014D01*
X59478Y-28957D01*
X59450Y-28928D01*
X59392Y-28900D01*
X59278Y-28900D01*
X59221Y-28928D01*
X59192Y-28957D01*
X59164Y-29014D01*
X58035Y-27271D02*
X58035Y-26671D01*
X58264Y-26671D01*
X58321Y-26700D01*
X58350Y-26728D01*
X58378Y-26785D01*
X58378Y-26871D01*
X58350Y-26928D01*
X58321Y-26957D01*
X58264Y-26985D01*
X58035Y-26985D01*
X58607Y-27100D02*
X58892Y-27100D01*
X58550Y-27271D02*
X58750Y-26671D01*
X58950Y-27271D01*
X59150Y-27271D02*
X59150Y-26671D01*
X59292Y-26671D01*
X59378Y-26700D01*
X59435Y-26757D01*
X59464Y-26814D01*
X59492Y-26928D01*
X59492Y-27014D01*
X59464Y-27128D01*
X59435Y-27185D01*
X59378Y-27242D01*
X59292Y-27271D01*
X59150Y-27271D01*
X59021Y-29271D02*
X59021Y-28671D01*
X59250Y-28671D01*
X59307Y-28700D01*
X59335Y-28728D01*
X59364Y-28785D01*
X59364Y-28871D01*
X59335Y-28928D01*
X59307Y-28957D01*
X59250Y-28985D01*
X59021Y-28985D01*
X59592Y-28728D02*
X59621Y-28700D01*
X59678Y-28671D01*
X59821Y-28671D01*
X59878Y-28700D01*
X59907Y-28728D01*
X59935Y-28785D01*
X59935Y-28842D01*
X59907Y-28928D01*
X59564Y-29271D01*
X59935Y-29271D01*
X60478Y-28671D02*
X60192Y-28671D01*
X60164Y-28957D01*
X60192Y-28928D01*
X60250Y-28900D01*
X60392Y-28900D01*
X60450Y-28928D01*
X60478Y-28957D01*
X60507Y-29014D01*
X60507Y-29157D01*
X60478Y-29214D01*
X60450Y-29242D01*
X60392Y-29271D01*
X60250Y-29271D01*
X60192Y-29242D01*
X60164Y-29214D01*
X59035Y-27271D02*
X59035Y-26671D01*
X59264Y-26671D01*
X59321Y-26700D01*
X59350Y-26728D01*
X59378Y-26785D01*
X59378Y-26871D01*
X59350Y-26928D01*
X59321Y-26957D01*
X59264Y-26985D01*
X59035Y-26985D01*
X59607Y-27100D02*
X59892Y-27100D01*
X59550Y-27271D02*
X59750Y-26671D01*
X59950Y-27271D01*
X60150Y-27271D02*
X60150Y-26671D01*
X60292Y-26671D01*
X60378Y-26700D01*
X60435Y-26757D01*
X60464Y-26814D01*
X60492Y-26928D01*
X60492Y-27014D01*
X60464Y-27128D01*
X60435Y-27185D01*
X60378Y-27242D01*
X60292Y-27271D01*
X60150Y-27271D01*
X60021Y-29271D02*
X60021Y-28671D01*
X60250Y-28671D01*
X60307Y-28700D01*
X60335Y-28728D01*
X60364Y-28785D01*
X60364Y-28871D01*
X60335Y-28928D01*
X60307Y-28957D01*
X60250Y-28985D01*
X60021Y-28985D01*
X60592Y-28728D02*
X60621Y-28700D01*
X60678Y-28671D01*
X60821Y-28671D01*
X60878Y-28700D01*
X60907Y-28728D01*
X60935Y-28785D01*
X60935Y-28842D01*
X60907Y-28928D01*
X60564Y-29271D01*
X60935Y-29271D01*
X61450Y-28871D02*
X61450Y-29271D01*
X61307Y-28642D02*
X61164Y-29071D01*
X61535Y-29071D01*
X60035Y-27271D02*
X60035Y-26671D01*
X60264Y-26671D01*
X60321Y-26700D01*
X60350Y-26728D01*
X60378Y-26785D01*
X60378Y-26871D01*
X60350Y-26928D01*
X60321Y-26957D01*
X60264Y-26985D01*
X60035Y-26985D01*
X60607Y-27100D02*
X60892Y-27100D01*
X60550Y-27271D02*
X60750Y-26671D01*
X60950Y-27271D01*
X61150Y-27271D02*
X61150Y-26671D01*
X61292Y-26671D01*
X61378Y-26700D01*
X61435Y-26757D01*
X61464Y-26814D01*
X61492Y-26928D01*
X61492Y-27014D01*
X61464Y-27128D01*
X61435Y-27185D01*
X61378Y-27242D01*
X61292Y-27271D01*
X61150Y-27271D01*
X61021Y-29271D02*
X61021Y-28671D01*
X61250Y-28671D01*
X61307Y-28700D01*
X61335Y-28728D01*
X61364Y-28785D01*
X61364Y-28871D01*
X61335Y-28928D01*
X61307Y-28957D01*
X61250Y-28985D01*
X61021Y-28985D01*
X61592Y-28728D02*
X61621Y-28700D01*
X61678Y-28671D01*
X61821Y-28671D01*
X61878Y-28700D01*
X61907Y-28728D01*
X61935Y-28785D01*
X61935Y-28842D01*
X61907Y-28928D01*
X61564Y-29271D01*
X61935Y-29271D01*
X62135Y-28671D02*
X62507Y-28671D01*
X62307Y-28900D01*
X62392Y-28900D01*
X62450Y-28928D01*
X62478Y-28957D01*
X62507Y-29014D01*
X62507Y-29157D01*
X62478Y-29214D01*
X62450Y-29242D01*
X62392Y-29271D01*
X62221Y-29271D01*
X62164Y-29242D01*
X62135Y-29214D01*
X61035Y-27271D02*
X61035Y-26671D01*
X61264Y-26671D01*
X61321Y-26700D01*
X61350Y-26728D01*
X61378Y-26785D01*
X61378Y-26871D01*
X61350Y-26928D01*
X61321Y-26957D01*
X61264Y-26985D01*
X61035Y-26985D01*
X61607Y-27100D02*
X61892Y-27100D01*
X61550Y-27271D02*
X61750Y-26671D01*
X61950Y-27271D01*
X62150Y-27271D02*
X62150Y-26671D01*
X62292Y-26671D01*
X62378Y-26700D01*
X62435Y-26757D01*
X62464Y-26814D01*
X62492Y-26928D01*
X62492Y-27014D01*
X62464Y-27128D01*
X62435Y-27185D01*
X62378Y-27242D01*
X62292Y-27271D01*
X62150Y-27271D01*
X62021Y-29271D02*
X62021Y-28671D01*
X62250Y-28671D01*
X62307Y-28700D01*
X62335Y-28728D01*
X62364Y-28785D01*
X62364Y-28871D01*
X62335Y-28928D01*
X62307Y-28957D01*
X62250Y-28985D01*
X62021Y-28985D01*
X62592Y-28728D02*
X62621Y-28700D01*
X62678Y-28671D01*
X62821Y-28671D01*
X62878Y-28700D01*
X62907Y-28728D01*
X62935Y-28785D01*
X62935Y-28842D01*
X62907Y-28928D01*
X62564Y-29271D01*
X62935Y-29271D01*
X63164Y-28728D02*
X63192Y-28700D01*
X63250Y-28671D01*
X63392Y-28671D01*
X63450Y-28700D01*
X63478Y-28728D01*
X63507Y-28785D01*
X63507Y-28842D01*
X63478Y-28928D01*
X63135Y-29271D01*
X63507Y-29271D01*
X62035Y-27271D02*
X62035Y-26671D01*
X62264Y-26671D01*
X62321Y-26700D01*
X62350Y-26728D01*
X62378Y-26785D01*
X62378Y-26871D01*
X62350Y-26928D01*
X62321Y-26957D01*
X62264Y-26985D01*
X62035Y-26985D01*
X62607Y-27100D02*
X62892Y-27100D01*
X62550Y-27271D02*
X62750Y-26671D01*
X62950Y-27271D01*
X63150Y-27271D02*
X63150Y-26671D01*
X63292Y-26671D01*
X63378Y-26700D01*
X63435Y-26757D01*
X63464Y-26814D01*
X63492Y-26928D01*
X63492Y-27014D01*
X63464Y-27128D01*
X63435Y-27185D01*
X63378Y-27242D01*
X63292Y-27271D01*
X63150Y-27271D01*
X63021Y-29271D02*
X63021Y-28671D01*
X63250Y-28671D01*
X63307Y-28700D01*
X63335Y-28728D01*
X63364Y-28785D01*
X63364Y-28871D01*
X63335Y-28928D01*
X63307Y-28957D01*
X63250Y-28985D01*
X63021Y-28985D01*
X63592Y-28728D02*
X63621Y-28700D01*
X63678Y-28671D01*
X63821Y-28671D01*
X63878Y-28700D01*
X63907Y-28728D01*
X63935Y-28785D01*
X63935Y-28842D01*
X63907Y-28928D01*
X63564Y-29271D01*
X63935Y-29271D01*
X64507Y-29271D02*
X64164Y-29271D01*
X64335Y-29271D02*
X64335Y-28671D01*
X64278Y-28757D01*
X64221Y-28814D01*
X64164Y-28842D01*
X63035Y-27271D02*
X63035Y-26671D01*
X63264Y-26671D01*
X63321Y-26700D01*
X63350Y-26728D01*
X63378Y-26785D01*
X63378Y-26871D01*
X63350Y-26928D01*
X63321Y-26957D01*
X63264Y-26985D01*
X63035Y-26985D01*
X63607Y-27100D02*
X63892Y-27100D01*
X63550Y-27271D02*
X63750Y-26671D01*
X63950Y-27271D01*
X64150Y-27271D02*
X64150Y-26671D01*
X64292Y-26671D01*
X64378Y-26700D01*
X64435Y-26757D01*
X64464Y-26814D01*
X64492Y-26928D01*
X64492Y-27014D01*
X64464Y-27128D01*
X64435Y-27185D01*
X64378Y-27242D01*
X64292Y-27271D01*
X64150Y-27271D01*
X64021Y-29271D02*
X64021Y-28671D01*
X64250Y-28671D01*
X64307Y-28700D01*
X64335Y-28728D01*
X64364Y-28785D01*
X64364Y-28871D01*
X64335Y-28928D01*
X64307Y-28957D01*
X64250Y-28985D01*
X64021Y-28985D01*
X64592Y-28728D02*
X64621Y-28700D01*
X64678Y-28671D01*
X64821Y-28671D01*
X64878Y-28700D01*
X64907Y-28728D01*
X64935Y-28785D01*
X64935Y-28842D01*
X64907Y-28928D01*
X64564Y-29271D01*
X64935Y-29271D01*
X65307Y-28671D02*
X65364Y-28671D01*
X65421Y-28700D01*
X65450Y-28728D01*
X65478Y-28785D01*
X65507Y-28900D01*
X65507Y-29042D01*
X65478Y-29157D01*
X65450Y-29214D01*
X65421Y-29242D01*
X65364Y-29271D01*
X65307Y-29271D01*
X65250Y-29242D01*
X65221Y-29214D01*
X65192Y-29157D01*
X65164Y-29042D01*
X65164Y-28900D01*
X65192Y-28785D01*
X65221Y-28728D01*
X65250Y-28700D01*
X65307Y-28671D01*
X64035Y-27271D02*
X64035Y-26671D01*
X64264Y-26671D01*
X64321Y-26700D01*
X64350Y-26728D01*
X64378Y-26785D01*
X64378Y-26871D01*
X64350Y-26928D01*
X64321Y-26957D01*
X64264Y-26985D01*
X64035Y-26985D01*
X64607Y-27100D02*
X64892Y-27100D01*
X64550Y-27271D02*
X64750Y-26671D01*
X64950Y-27271D01*
X65150Y-27271D02*
X65150Y-26671D01*
X65292Y-26671D01*
X65378Y-26700D01*
X65435Y-26757D01*
X65464Y-26814D01*
X65492Y-26928D01*
X65492Y-27014D01*
X65464Y-27128D01*
X65435Y-27185D01*
X65378Y-27242D01*
X65292Y-27271D01*
X65150Y-27271D01*
X65021Y-29271D02*
X65021Y-28671D01*
X65250Y-28671D01*
X65307Y-28700D01*
X65335Y-28728D01*
X65364Y-28785D01*
X65364Y-28871D01*
X65335Y-28928D01*
X65307Y-28957D01*
X65250Y-28985D01*
X65021Y-28985D01*
X65935Y-29271D02*
X65592Y-29271D01*
X65764Y-29271D02*
X65764Y-28671D01*
X65707Y-28757D01*
X65650Y-28814D01*
X65592Y-28842D01*
X66221Y-29271D02*
X66335Y-29271D01*
X66392Y-29242D01*
X66421Y-29214D01*
X66478Y-29128D01*
X66507Y-29014D01*
X66507Y-28785D01*
X66478Y-28728D01*
X66450Y-28700D01*
X66392Y-28671D01*
X66278Y-28671D01*
X66221Y-28700D01*
X66192Y-28728D01*
X66164Y-28785D01*
X66164Y-28928D01*
X66192Y-28985D01*
X66221Y-29014D01*
X66278Y-29042D01*
X66392Y-29042D01*
X66450Y-29014D01*
X66478Y-28985D01*
X66507Y-28928D01*
X65035Y-27271D02*
X65035Y-26671D01*
X65264Y-26671D01*
X65321Y-26700D01*
X65350Y-26728D01*
X65378Y-26785D01*
X65378Y-26871D01*
X65350Y-26928D01*
X65321Y-26957D01*
X65264Y-26985D01*
X65035Y-26985D01*
X65607Y-27100D02*
X65892Y-27100D01*
X65550Y-27271D02*
X65750Y-26671D01*
X65950Y-27271D01*
X66150Y-27271D02*
X66150Y-26671D01*
X66292Y-26671D01*
X66378Y-26700D01*
X66435Y-26757D01*
X66464Y-26814D01*
X66492Y-26928D01*
X66492Y-27014D01*
X66464Y-27128D01*
X66435Y-27185D01*
X66378Y-27242D01*
X66292Y-27271D01*
X66150Y-27271D01*
X66021Y-29271D02*
X66021Y-28671D01*
X66250Y-28671D01*
X66307Y-28700D01*
X66335Y-28728D01*
X66364Y-28785D01*
X66364Y-28871D01*
X66335Y-28928D01*
X66307Y-28957D01*
X66250Y-28985D01*
X66021Y-28985D01*
X66935Y-29271D02*
X66592Y-29271D01*
X66764Y-29271D02*
X66764Y-28671D01*
X66707Y-28757D01*
X66650Y-28814D01*
X66592Y-28842D01*
X67278Y-28928D02*
X67221Y-28900D01*
X67192Y-28871D01*
X67164Y-28814D01*
X67164Y-28785D01*
X67192Y-28728D01*
X67221Y-28700D01*
X67278Y-28671D01*
X67392Y-28671D01*
X67450Y-28700D01*
X67478Y-28728D01*
X67507Y-28785D01*
X67507Y-28814D01*
X67478Y-28871D01*
X67450Y-28900D01*
X67392Y-28928D01*
X67278Y-28928D01*
X67221Y-28957D01*
X67192Y-28985D01*
X67164Y-29042D01*
X67164Y-29157D01*
X67192Y-29214D01*
X67221Y-29242D01*
X67278Y-29271D01*
X67392Y-29271D01*
X67450Y-29242D01*
X67478Y-29214D01*
X67507Y-29157D01*
X67507Y-29042D01*
X67478Y-28985D01*
X67450Y-28957D01*
X67392Y-28928D01*
X66035Y-27271D02*
X66035Y-26671D01*
X66264Y-26671D01*
X66321Y-26700D01*
X66350Y-26728D01*
X66378Y-26785D01*
X66378Y-26871D01*
X66350Y-26928D01*
X66321Y-26957D01*
X66264Y-26985D01*
X66035Y-26985D01*
X66607Y-27100D02*
X66892Y-27100D01*
X66550Y-27271D02*
X66750Y-26671D01*
X66950Y-27271D01*
X67150Y-27271D02*
X67150Y-26671D01*
X67292Y-26671D01*
X67378Y-26700D01*
X67435Y-26757D01*
X67464Y-26814D01*
X67492Y-26928D01*
X67492Y-27014D01*
X67464Y-27128D01*
X67435Y-27185D01*
X67378Y-27242D01*
X67292Y-27271D01*
X67150Y-27271D01*
X62021Y-47271D02*
X62021Y-46671D01*
X62250Y-46671D01*
X62307Y-46700D01*
X62335Y-46728D01*
X62364Y-46785D01*
X62364Y-46871D01*
X62335Y-46928D01*
X62307Y-46957D01*
X62250Y-46985D01*
X62021Y-46985D01*
X62935Y-47271D02*
X62592Y-47271D01*
X62764Y-47271D02*
X62764Y-46671D01*
X62707Y-46757D01*
X62650Y-46814D01*
X62592Y-46842D01*
X63478Y-46671D02*
X63192Y-46671D01*
X63164Y-46957D01*
X63192Y-46928D01*
X63250Y-46900D01*
X63392Y-46900D01*
X63450Y-46928D01*
X63478Y-46957D01*
X63507Y-47014D01*
X63507Y-47157D01*
X63478Y-47214D01*
X63450Y-47242D01*
X63392Y-47271D01*
X63250Y-47271D01*
X63192Y-47242D01*
X63164Y-47214D01*
X62035Y-45271D02*
X62035Y-44671D01*
X62264Y-44671D01*
X62321Y-44700D01*
X62350Y-44728D01*
X62378Y-44785D01*
X62378Y-44871D01*
X62350Y-44928D01*
X62321Y-44957D01*
X62264Y-44985D01*
X62035Y-44985D01*
X62607Y-45100D02*
X62892Y-45100D01*
X62550Y-45271D02*
X62750Y-44671D01*
X62950Y-45271D01*
X63150Y-45271D02*
X63150Y-44671D01*
X63292Y-44671D01*
X63378Y-44700D01*
X63435Y-44757D01*
X63464Y-44814D01*
X63492Y-44928D01*
X63492Y-45014D01*
X63464Y-45128D01*
X63435Y-45185D01*
X63378Y-45242D01*
X63292Y-45271D01*
X63150Y-45271D01*
X63021Y-47271D02*
X63021Y-46671D01*
X63250Y-46671D01*
X63307Y-46700D01*
X63335Y-46728D01*
X63364Y-46785D01*
X63364Y-46871D01*
X63335Y-46928D01*
X63307Y-46957D01*
X63250Y-46985D01*
X63021Y-46985D01*
X63935Y-47271D02*
X63592Y-47271D01*
X63764Y-47271D02*
X63764Y-46671D01*
X63707Y-46757D01*
X63650Y-46814D01*
X63592Y-46842D01*
X64450Y-46871D02*
X64450Y-47271D01*
X64307Y-46642D02*
X64164Y-47071D01*
X64535Y-47071D01*
X63035Y-45271D02*
X63035Y-44671D01*
X63264Y-44671D01*
X63321Y-44700D01*
X63350Y-44728D01*
X63378Y-44785D01*
X63378Y-44871D01*
X63350Y-44928D01*
X63321Y-44957D01*
X63264Y-44985D01*
X63035Y-44985D01*
X63607Y-45100D02*
X63892Y-45100D01*
X63550Y-45271D02*
X63750Y-44671D01*
X63950Y-45271D01*
X64150Y-45271D02*
X64150Y-44671D01*
X64292Y-44671D01*
X64378Y-44700D01*
X64435Y-44757D01*
X64464Y-44814D01*
X64492Y-44928D01*
X64492Y-45014D01*
X64464Y-45128D01*
X64435Y-45185D01*
X64378Y-45242D01*
X64292Y-45271D01*
X64150Y-45271D01*
X61021Y-47271D02*
X61021Y-46671D01*
X61250Y-46671D01*
X61307Y-46700D01*
X61335Y-46728D01*
X61364Y-46785D01*
X61364Y-46871D01*
X61335Y-46928D01*
X61307Y-46957D01*
X61250Y-46985D01*
X61021Y-46985D01*
X61935Y-47271D02*
X61592Y-47271D01*
X61764Y-47271D02*
X61764Y-46671D01*
X61707Y-46757D01*
X61650Y-46814D01*
X61592Y-46842D01*
X62135Y-46671D02*
X62507Y-46671D01*
X62307Y-46900D01*
X62392Y-46900D01*
X62450Y-46928D01*
X62478Y-46957D01*
X62507Y-47014D01*
X62507Y-47157D01*
X62478Y-47214D01*
X62450Y-47242D01*
X62392Y-47271D01*
X62221Y-47271D01*
X62164Y-47242D01*
X62135Y-47214D01*
X61035Y-45271D02*
X61035Y-44671D01*
X61264Y-44671D01*
X61321Y-44700D01*
X61350Y-44728D01*
X61378Y-44785D01*
X61378Y-44871D01*
X61350Y-44928D01*
X61321Y-44957D01*
X61264Y-44985D01*
X61035Y-44985D01*
X61607Y-45100D02*
X61892Y-45100D01*
X61550Y-45271D02*
X61750Y-44671D01*
X61950Y-45271D01*
X62150Y-45271D02*
X62150Y-44671D01*
X62292Y-44671D01*
X62378Y-44700D01*
X62435Y-44757D01*
X62464Y-44814D01*
X62492Y-44928D01*
X62492Y-45014D01*
X62464Y-45128D01*
X62435Y-45185D01*
X62378Y-45242D01*
X62292Y-45271D01*
X62150Y-45271D01*
X60021Y-47271D02*
X60021Y-46671D01*
X60250Y-46671D01*
X60307Y-46700D01*
X60335Y-46728D01*
X60364Y-46785D01*
X60364Y-46871D01*
X60335Y-46928D01*
X60307Y-46957D01*
X60250Y-46985D01*
X60021Y-46985D01*
X60935Y-47271D02*
X60592Y-47271D01*
X60764Y-47271D02*
X60764Y-46671D01*
X60707Y-46757D01*
X60650Y-46814D01*
X60592Y-46842D01*
X61164Y-46728D02*
X61192Y-46700D01*
X61250Y-46671D01*
X61392Y-46671D01*
X61450Y-46700D01*
X61478Y-46728D01*
X61507Y-46785D01*
X61507Y-46842D01*
X61478Y-46928D01*
X61135Y-47271D01*
X61507Y-47271D01*
X60035Y-45271D02*
X60035Y-44671D01*
X60264Y-44671D01*
X60321Y-44700D01*
X60350Y-44728D01*
X60378Y-44785D01*
X60378Y-44871D01*
X60350Y-44928D01*
X60321Y-44957D01*
X60264Y-44985D01*
X60035Y-44985D01*
X60607Y-45100D02*
X60892Y-45100D01*
X60550Y-45271D02*
X60750Y-44671D01*
X60950Y-45271D01*
X61150Y-45271D02*
X61150Y-44671D01*
X61292Y-44671D01*
X61378Y-44700D01*
X61435Y-44757D01*
X61464Y-44814D01*
X61492Y-44928D01*
X61492Y-45014D01*
X61464Y-45128D01*
X61435Y-45185D01*
X61378Y-45242D01*
X61292Y-45271D01*
X61150Y-45271D01*
X59021Y-47271D02*
X59021Y-46671D01*
X59250Y-46671D01*
X59307Y-46700D01*
X59335Y-46728D01*
X59364Y-46785D01*
X59364Y-46871D01*
X59335Y-46928D01*
X59307Y-46957D01*
X59250Y-46985D01*
X59021Y-46985D01*
X59935Y-47271D02*
X59592Y-47271D01*
X59764Y-47271D02*
X59764Y-46671D01*
X59707Y-46757D01*
X59650Y-46814D01*
X59592Y-46842D01*
X60507Y-47271D02*
X60164Y-47271D01*
X60335Y-47271D02*
X60335Y-46671D01*
X60278Y-46757D01*
X60221Y-46814D01*
X60164Y-46842D01*
X59035Y-45271D02*
X59035Y-44671D01*
X59264Y-44671D01*
X59321Y-44700D01*
X59350Y-44728D01*
X59378Y-44785D01*
X59378Y-44871D01*
X59350Y-44928D01*
X59321Y-44957D01*
X59264Y-44985D01*
X59035Y-44985D01*
X59607Y-45100D02*
X59892Y-45100D01*
X59550Y-45271D02*
X59750Y-44671D01*
X59950Y-45271D01*
X60150Y-45271D02*
X60150Y-44671D01*
X60292Y-44671D01*
X60378Y-44700D01*
X60435Y-44757D01*
X60464Y-44814D01*
X60492Y-44928D01*
X60492Y-45014D01*
X60464Y-45128D01*
X60435Y-45185D01*
X60378Y-45242D01*
X60292Y-45271D01*
X60150Y-45271D01*
X58021Y-47271D02*
X58021Y-46671D01*
X58250Y-46671D01*
X58307Y-46700D01*
X58335Y-46728D01*
X58364Y-46785D01*
X58364Y-46871D01*
X58335Y-46928D01*
X58307Y-46957D01*
X58250Y-46985D01*
X58021Y-46985D01*
X58935Y-47271D02*
X58592Y-47271D01*
X58764Y-47271D02*
X58764Y-46671D01*
X58707Y-46757D01*
X58650Y-46814D01*
X58592Y-46842D01*
X59307Y-46671D02*
X59364Y-46671D01*
X59421Y-46700D01*
X59450Y-46728D01*
X59478Y-46785D01*
X59507Y-46900D01*
X59507Y-47042D01*
X59478Y-47157D01*
X59450Y-47214D01*
X59421Y-47242D01*
X59364Y-47271D01*
X59307Y-47271D01*
X59250Y-47242D01*
X59221Y-47214D01*
X59192Y-47157D01*
X59164Y-47042D01*
X59164Y-46900D01*
X59192Y-46785D01*
X59221Y-46728D01*
X59250Y-46700D01*
X59307Y-46671D01*
X58035Y-45271D02*
X58035Y-44671D01*
X58264Y-44671D01*
X58321Y-44700D01*
X58350Y-44728D01*
X58378Y-44785D01*
X58378Y-44871D01*
X58350Y-44928D01*
X58321Y-44957D01*
X58264Y-44985D01*
X58035Y-44985D01*
X58607Y-45100D02*
X58892Y-45100D01*
X58550Y-45271D02*
X58750Y-44671D01*
X58950Y-45271D01*
X59150Y-45271D02*
X59150Y-44671D01*
X59292Y-44671D01*
X59378Y-44700D01*
X59435Y-44757D01*
X59464Y-44814D01*
X59492Y-44928D01*
X59492Y-45014D01*
X59464Y-45128D01*
X59435Y-45185D01*
X59378Y-45242D01*
X59292Y-45271D01*
X59150Y-45271D01*
X57307Y-47271D02*
X57307Y-46671D01*
X57535Y-46671D01*
X57592Y-46700D01*
X57621Y-46728D01*
X57650Y-46785D01*
X57650Y-46871D01*
X57621Y-46928D01*
X57592Y-46957D01*
X57535Y-46985D01*
X57307Y-46985D01*
X57935Y-47271D02*
X58050Y-47271D01*
X58107Y-47242D01*
X58135Y-47214D01*
X58192Y-47128D01*
X58221Y-47014D01*
X58221Y-46785D01*
X58192Y-46728D01*
X58164Y-46700D01*
X58107Y-46671D01*
X57992Y-46671D01*
X57935Y-46700D01*
X57907Y-46728D01*
X57878Y-46785D01*
X57878Y-46928D01*
X57907Y-46985D01*
X57935Y-47014D01*
X57992Y-47042D01*
X58107Y-47042D01*
X58164Y-47014D01*
X58192Y-46985D01*
X58221Y-46928D01*
X57035Y-45271D02*
X57035Y-44671D01*
X57264Y-44671D01*
X57321Y-44700D01*
X57350Y-44728D01*
X57378Y-44785D01*
X57378Y-44871D01*
X57350Y-44928D01*
X57321Y-44957D01*
X57264Y-44985D01*
X57035Y-44985D01*
X57607Y-45100D02*
X57892Y-45100D01*
X57550Y-45271D02*
X57750Y-44671D01*
X57950Y-45271D01*
X58150Y-45271D02*
X58150Y-44671D01*
X58292Y-44671D01*
X58378Y-44700D01*
X58435Y-44757D01*
X58464Y-44814D01*
X58492Y-44928D01*
X58492Y-45014D01*
X58464Y-45128D01*
X58435Y-45185D01*
X58378Y-45242D01*
X58292Y-45271D01*
X58150Y-45271D01*
X52307Y-47271D02*
X52307Y-46671D01*
X52535Y-46671D01*
X52592Y-46700D01*
X52621Y-46728D01*
X52650Y-46785D01*
X52650Y-46871D01*
X52621Y-46928D01*
X52592Y-46957D01*
X52535Y-46985D01*
X52307Y-46985D01*
X52850Y-46671D02*
X53250Y-46671D01*
X52992Y-47271D01*
X52035Y-45271D02*
X52035Y-44671D01*
X52264Y-44671D01*
X52321Y-44700D01*
X52350Y-44728D01*
X52378Y-44785D01*
X52378Y-44871D01*
X52350Y-44928D01*
X52321Y-44957D01*
X52264Y-44985D01*
X52035Y-44985D01*
X52607Y-45100D02*
X52892Y-45100D01*
X52550Y-45271D02*
X52750Y-44671D01*
X52950Y-45271D01*
X53150Y-45271D02*
X53150Y-44671D01*
X53292Y-44671D01*
X53378Y-44700D01*
X53435Y-44757D01*
X53464Y-44814D01*
X53492Y-44928D01*
X53492Y-45014D01*
X53464Y-45128D01*
X53435Y-45185D01*
X53378Y-45242D01*
X53292Y-45271D01*
X53150Y-45271D01*
X53307Y-47271D02*
X53307Y-46671D01*
X53535Y-46671D01*
X53592Y-46700D01*
X53621Y-46728D01*
X53650Y-46785D01*
X53650Y-46871D01*
X53621Y-46928D01*
X53592Y-46957D01*
X53535Y-46985D01*
X53307Y-46985D01*
X54164Y-46671D02*
X54050Y-46671D01*
X53992Y-46700D01*
X53964Y-46728D01*
X53907Y-46814D01*
X53878Y-46928D01*
X53878Y-47157D01*
X53907Y-47214D01*
X53935Y-47242D01*
X53992Y-47271D01*
X54107Y-47271D01*
X54164Y-47242D01*
X54192Y-47214D01*
X54221Y-47157D01*
X54221Y-47014D01*
X54192Y-46957D01*
X54164Y-46928D01*
X54107Y-46900D01*
X53992Y-46900D01*
X53935Y-46928D01*
X53907Y-46957D01*
X53878Y-47014D01*
X53035Y-45271D02*
X53035Y-44671D01*
X53264Y-44671D01*
X53321Y-44700D01*
X53350Y-44728D01*
X53378Y-44785D01*
X53378Y-44871D01*
X53350Y-44928D01*
X53321Y-44957D01*
X53264Y-44985D01*
X53035Y-44985D01*
X53607Y-45100D02*
X53892Y-45100D01*
X53550Y-45271D02*
X53750Y-44671D01*
X53950Y-45271D01*
X54150Y-45271D02*
X54150Y-44671D01*
X54292Y-44671D01*
X54378Y-44700D01*
X54435Y-44757D01*
X54464Y-44814D01*
X54492Y-44928D01*
X54492Y-45014D01*
X54464Y-45128D01*
X54435Y-45185D01*
X54378Y-45242D01*
X54292Y-45271D01*
X54150Y-45271D01*
X54307Y-47271D02*
X54307Y-46671D01*
X54535Y-46671D01*
X54592Y-46700D01*
X54621Y-46728D01*
X54650Y-46785D01*
X54650Y-46871D01*
X54621Y-46928D01*
X54592Y-46957D01*
X54535Y-46985D01*
X54307Y-46985D01*
X55192Y-46671D02*
X54907Y-46671D01*
X54878Y-46957D01*
X54907Y-46928D01*
X54964Y-46900D01*
X55107Y-46900D01*
X55164Y-46928D01*
X55192Y-46957D01*
X55221Y-47014D01*
X55221Y-47157D01*
X55192Y-47214D01*
X55164Y-47242D01*
X55107Y-47271D01*
X54964Y-47271D01*
X54907Y-47242D01*
X54878Y-47214D01*
X54035Y-45271D02*
X54035Y-44671D01*
X54264Y-44671D01*
X54321Y-44700D01*
X54350Y-44728D01*
X54378Y-44785D01*
X54378Y-44871D01*
X54350Y-44928D01*
X54321Y-44957D01*
X54264Y-44985D01*
X54035Y-44985D01*
X54607Y-45100D02*
X54892Y-45100D01*
X54550Y-45271D02*
X54750Y-44671D01*
X54950Y-45271D01*
X55150Y-45271D02*
X55150Y-44671D01*
X55292Y-44671D01*
X55378Y-44700D01*
X55435Y-44757D01*
X55464Y-44814D01*
X55492Y-44928D01*
X55492Y-45014D01*
X55464Y-45128D01*
X55435Y-45185D01*
X55378Y-45242D01*
X55292Y-45271D01*
X55150Y-45271D01*
X55307Y-47271D02*
X55307Y-46671D01*
X55535Y-46671D01*
X55592Y-46700D01*
X55621Y-46728D01*
X55650Y-46785D01*
X55650Y-46871D01*
X55621Y-46928D01*
X55592Y-46957D01*
X55535Y-46985D01*
X55307Y-46985D01*
X56164Y-46871D02*
X56164Y-47271D01*
X56021Y-46642D02*
X55878Y-47071D01*
X56250Y-47071D01*
X55035Y-45271D02*
X55035Y-44671D01*
X55264Y-44671D01*
X55321Y-44700D01*
X55350Y-44728D01*
X55378Y-44785D01*
X55378Y-44871D01*
X55350Y-44928D01*
X55321Y-44957D01*
X55264Y-44985D01*
X55035Y-44985D01*
X55607Y-45100D02*
X55892Y-45100D01*
X55550Y-45271D02*
X55750Y-44671D01*
X55950Y-45271D01*
X56150Y-45271D02*
X56150Y-44671D01*
X56292Y-44671D01*
X56378Y-44700D01*
X56435Y-44757D01*
X56464Y-44814D01*
X56492Y-44928D01*
X56492Y-45014D01*
X56464Y-45128D01*
X56435Y-45185D01*
X56378Y-45242D01*
X56292Y-45271D01*
X56150Y-45271D01*
X56307Y-47271D02*
X56307Y-46671D01*
X56535Y-46671D01*
X56592Y-46700D01*
X56621Y-46728D01*
X56650Y-46785D01*
X56650Y-46871D01*
X56621Y-46928D01*
X56592Y-46957D01*
X56535Y-46985D01*
X56307Y-46985D01*
X56850Y-46671D02*
X57221Y-46671D01*
X57021Y-46900D01*
X57107Y-46900D01*
X57164Y-46928D01*
X57192Y-46957D01*
X57221Y-47014D01*
X57221Y-47157D01*
X57192Y-47214D01*
X57164Y-47242D01*
X57107Y-47271D01*
X56935Y-47271D01*
X56878Y-47242D01*
X56850Y-47214D01*
X56035Y-45271D02*
X56035Y-44671D01*
X56264Y-44671D01*
X56321Y-44700D01*
X56350Y-44728D01*
X56378Y-44785D01*
X56378Y-44871D01*
X56350Y-44928D01*
X56321Y-44957D01*
X56264Y-44985D01*
X56035Y-44985D01*
X56607Y-45100D02*
X56892Y-45100D01*
X56550Y-45271D02*
X56750Y-44671D01*
X56950Y-45271D01*
X57150Y-45271D02*
X57150Y-44671D01*
X57292Y-44671D01*
X57378Y-44700D01*
X57435Y-44757D01*
X57464Y-44814D01*
X57492Y-44928D01*
X57492Y-45014D01*
X57464Y-45128D01*
X57435Y-45185D01*
X57378Y-45242D01*
X57292Y-45271D01*
X57150Y-45271D01*
X64021Y-47271D02*
X64021Y-46671D01*
X64250Y-46671D01*
X64307Y-46700D01*
X64335Y-46728D01*
X64364Y-46785D01*
X64364Y-46871D01*
X64335Y-46928D01*
X64307Y-46957D01*
X64250Y-46985D01*
X64021Y-46985D01*
X64564Y-46671D02*
X64935Y-46671D01*
X64735Y-46900D01*
X64821Y-46900D01*
X64878Y-46928D01*
X64907Y-46957D01*
X64935Y-47014D01*
X64935Y-47157D01*
X64907Y-47214D01*
X64878Y-47242D01*
X64821Y-47271D01*
X64650Y-47271D01*
X64592Y-47242D01*
X64564Y-47214D01*
X65135Y-46671D02*
X65507Y-46671D01*
X65307Y-46900D01*
X65392Y-46900D01*
X65450Y-46928D01*
X65478Y-46957D01*
X65507Y-47014D01*
X65507Y-47157D01*
X65478Y-47214D01*
X65450Y-47242D01*
X65392Y-47271D01*
X65221Y-47271D01*
X65164Y-47242D01*
X65135Y-47214D01*
X64035Y-45271D02*
X64035Y-44671D01*
X64264Y-44671D01*
X64321Y-44700D01*
X64350Y-44728D01*
X64378Y-44785D01*
X64378Y-44871D01*
X64350Y-44928D01*
X64321Y-44957D01*
X64264Y-44985D01*
X64035Y-44985D01*
X64607Y-45100D02*
X64892Y-45100D01*
X64550Y-45271D02*
X64750Y-44671D01*
X64950Y-45271D01*
X65150Y-45271D02*
X65150Y-44671D01*
X65292Y-44671D01*
X65378Y-44700D01*
X65435Y-44757D01*
X65464Y-44814D01*
X65492Y-44928D01*
X65492Y-45014D01*
X65464Y-45128D01*
X65435Y-45185D01*
X65378Y-45242D01*
X65292Y-45271D01*
X65150Y-45271D01*
X65021Y-47271D02*
X65021Y-46671D01*
X65250Y-46671D01*
X65307Y-46700D01*
X65335Y-46728D01*
X65364Y-46785D01*
X65364Y-46871D01*
X65335Y-46928D01*
X65307Y-46957D01*
X65250Y-46985D01*
X65021Y-46985D01*
X65564Y-46671D02*
X65935Y-46671D01*
X65735Y-46900D01*
X65821Y-46900D01*
X65878Y-46928D01*
X65907Y-46957D01*
X65935Y-47014D01*
X65935Y-47157D01*
X65907Y-47214D01*
X65878Y-47242D01*
X65821Y-47271D01*
X65650Y-47271D01*
X65592Y-47242D01*
X65564Y-47214D01*
X66450Y-46871D02*
X66450Y-47271D01*
X66307Y-46642D02*
X66164Y-47071D01*
X66535Y-47071D01*
X65035Y-45271D02*
X65035Y-44671D01*
X65264Y-44671D01*
X65321Y-44700D01*
X65350Y-44728D01*
X65378Y-44785D01*
X65378Y-44871D01*
X65350Y-44928D01*
X65321Y-44957D01*
X65264Y-44985D01*
X65035Y-44985D01*
X65607Y-45100D02*
X65892Y-45100D01*
X65550Y-45271D02*
X65750Y-44671D01*
X65950Y-45271D01*
X66150Y-45271D02*
X66150Y-44671D01*
X66292Y-44671D01*
X66378Y-44700D01*
X66435Y-44757D01*
X66464Y-44814D01*
X66492Y-44928D01*
X66492Y-45014D01*
X66464Y-45128D01*
X66435Y-45185D01*
X66378Y-45242D01*
X66292Y-45271D01*
X66150Y-45271D01*
X66021Y-47271D02*
X66021Y-46671D01*
X66250Y-46671D01*
X66307Y-46700D01*
X66335Y-46728D01*
X66364Y-46785D01*
X66364Y-46871D01*
X66335Y-46928D01*
X66307Y-46957D01*
X66250Y-46985D01*
X66021Y-46985D01*
X66564Y-46671D02*
X66935Y-46671D01*
X66735Y-46900D01*
X66821Y-46900D01*
X66878Y-46928D01*
X66907Y-46957D01*
X66935Y-47014D01*
X66935Y-47157D01*
X66907Y-47214D01*
X66878Y-47242D01*
X66821Y-47271D01*
X66650Y-47271D01*
X66592Y-47242D01*
X66564Y-47214D01*
X67478Y-46671D02*
X67192Y-46671D01*
X67164Y-46957D01*
X67192Y-46928D01*
X67250Y-46900D01*
X67392Y-46900D01*
X67450Y-46928D01*
X67478Y-46957D01*
X67507Y-47014D01*
X67507Y-47157D01*
X67478Y-47214D01*
X67450Y-47242D01*
X67392Y-47271D01*
X67250Y-47271D01*
X67192Y-47242D01*
X67164Y-47214D01*
X66035Y-45271D02*
X66035Y-44671D01*
X66264Y-44671D01*
X66321Y-44700D01*
X66350Y-44728D01*
X66378Y-44785D01*
X66378Y-44871D01*
X66350Y-44928D01*
X66321Y-44957D01*
X66264Y-44985D01*
X66035Y-44985D01*
X66607Y-45100D02*
X66892Y-45100D01*
X66550Y-45271D02*
X66750Y-44671D01*
X66950Y-45271D01*
X67150Y-45271D02*
X67150Y-44671D01*
X67292Y-44671D01*
X67378Y-44700D01*
X67435Y-44757D01*
X67464Y-44814D01*
X67492Y-44928D01*
X67492Y-45014D01*
X67464Y-45128D01*
X67435Y-45185D01*
X67378Y-45242D01*
X67292Y-45271D01*
X67150Y-45271D01*
X52307Y-30271D02*
X52307Y-29671D01*
X52535Y-29671D01*
X52592Y-29700D01*
X52621Y-29728D01*
X52650Y-29785D01*
X52650Y-29871D01*
X52621Y-29928D01*
X52592Y-29957D01*
X52535Y-29985D01*
X52307Y-29985D01*
X53221Y-30271D02*
X52878Y-30271D01*
X53050Y-30271D02*
X53050Y-29671D01*
X52992Y-29757D01*
X52935Y-29814D01*
X52878Y-29842D01*
X52035Y-28271D02*
X52035Y-27671D01*
X52264Y-27671D01*
X52321Y-27700D01*
X52350Y-27728D01*
X52378Y-27785D01*
X52378Y-27871D01*
X52350Y-27928D01*
X52321Y-27957D01*
X52264Y-27985D01*
X52035Y-27985D01*
X52607Y-28100D02*
X52892Y-28100D01*
X52550Y-28271D02*
X52750Y-27671D01*
X52950Y-28271D01*
X53150Y-28271D02*
X53150Y-27671D01*
X53292Y-27671D01*
X53378Y-27700D01*
X53435Y-27757D01*
X53464Y-27814D01*
X53492Y-27928D01*
X53492Y-28014D01*
X53464Y-28128D01*
X53435Y-28185D01*
X53378Y-28242D01*
X53292Y-28271D01*
X53150Y-28271D01*
X53307Y-30271D02*
X53307Y-29671D01*
X53535Y-29671D01*
X53592Y-29700D01*
X53621Y-29728D01*
X53650Y-29785D01*
X53650Y-29871D01*
X53621Y-29928D01*
X53592Y-29957D01*
X53535Y-29985D01*
X53307Y-29985D01*
X53878Y-29728D02*
X53907Y-29700D01*
X53964Y-29671D01*
X54107Y-29671D01*
X54164Y-29700D01*
X54192Y-29728D01*
X54221Y-29785D01*
X54221Y-29842D01*
X54192Y-29928D01*
X53850Y-30271D01*
X54221Y-30271D01*
X53035Y-28271D02*
X53035Y-27671D01*
X53264Y-27671D01*
X53321Y-27700D01*
X53350Y-27728D01*
X53378Y-27785D01*
X53378Y-27871D01*
X53350Y-27928D01*
X53321Y-27957D01*
X53264Y-27985D01*
X53035Y-27985D01*
X53607Y-28100D02*
X53892Y-28100D01*
X53550Y-28271D02*
X53750Y-27671D01*
X53950Y-28271D01*
X54150Y-28271D02*
X54150Y-27671D01*
X54292Y-27671D01*
X54378Y-27700D01*
X54435Y-27757D01*
X54464Y-27814D01*
X54492Y-27928D01*
X54492Y-28014D01*
X54464Y-28128D01*
X54435Y-28185D01*
X54378Y-28242D01*
X54292Y-28271D01*
X54150Y-28271D01*
X54307Y-30271D02*
X54307Y-29671D01*
X54535Y-29671D01*
X54592Y-29700D01*
X54621Y-29728D01*
X54650Y-29785D01*
X54650Y-29871D01*
X54621Y-29928D01*
X54592Y-29957D01*
X54535Y-29985D01*
X54307Y-29985D01*
X54992Y-29928D02*
X54935Y-29900D01*
X54907Y-29871D01*
X54878Y-29814D01*
X54878Y-29785D01*
X54907Y-29728D01*
X54935Y-29700D01*
X54992Y-29671D01*
X55107Y-29671D01*
X55164Y-29700D01*
X55192Y-29728D01*
X55221Y-29785D01*
X55221Y-29814D01*
X55192Y-29871D01*
X55164Y-29900D01*
X55107Y-29928D01*
X54992Y-29928D01*
X54935Y-29957D01*
X54907Y-29985D01*
X54878Y-30042D01*
X54878Y-30157D01*
X54907Y-30214D01*
X54935Y-30242D01*
X54992Y-30271D01*
X55107Y-30271D01*
X55164Y-30242D01*
X55192Y-30214D01*
X55221Y-30157D01*
X55221Y-30042D01*
X55192Y-29985D01*
X55164Y-29957D01*
X55107Y-29928D01*
X54035Y-28271D02*
X54035Y-27671D01*
X54264Y-27671D01*
X54321Y-27700D01*
X54350Y-27728D01*
X54378Y-27785D01*
X54378Y-27871D01*
X54350Y-27928D01*
X54321Y-27957D01*
X54264Y-27985D01*
X54035Y-27985D01*
X54607Y-28100D02*
X54892Y-28100D01*
X54550Y-28271D02*
X54750Y-27671D01*
X54950Y-28271D01*
X55150Y-28271D02*
X55150Y-27671D01*
X55292Y-27671D01*
X55378Y-27700D01*
X55435Y-27757D01*
X55464Y-27814D01*
X55492Y-27928D01*
X55492Y-28014D01*
X55464Y-28128D01*
X55435Y-28185D01*
X55378Y-28242D01*
X55292Y-28271D01*
X55150Y-28271D01*
X55021Y-30271D02*
X55021Y-29671D01*
X55250Y-29671D01*
X55307Y-29700D01*
X55335Y-29728D01*
X55364Y-29785D01*
X55364Y-29871D01*
X55335Y-29928D01*
X55307Y-29957D01*
X55250Y-29985D01*
X55021Y-29985D01*
X55935Y-30271D02*
X55592Y-30271D01*
X55764Y-30271D02*
X55764Y-29671D01*
X55707Y-29757D01*
X55650Y-29814D01*
X55592Y-29842D01*
X56450Y-29671D02*
X56335Y-29671D01*
X56278Y-29700D01*
X56250Y-29728D01*
X56192Y-29814D01*
X56164Y-29928D01*
X56164Y-30157D01*
X56192Y-30214D01*
X56221Y-30242D01*
X56278Y-30271D01*
X56392Y-30271D01*
X56450Y-30242D01*
X56478Y-30214D01*
X56507Y-30157D01*
X56507Y-30014D01*
X56478Y-29957D01*
X56450Y-29928D01*
X56392Y-29900D01*
X56278Y-29900D01*
X56221Y-29928D01*
X56192Y-29957D01*
X56164Y-30014D01*
X55035Y-28271D02*
X55035Y-27671D01*
X55264Y-27671D01*
X55321Y-27700D01*
X55350Y-27728D01*
X55378Y-27785D01*
X55378Y-27871D01*
X55350Y-27928D01*
X55321Y-27957D01*
X55264Y-27985D01*
X55035Y-27985D01*
X55607Y-28100D02*
X55892Y-28100D01*
X55550Y-28271D02*
X55750Y-27671D01*
X55950Y-28271D01*
X56150Y-28271D02*
X56150Y-27671D01*
X56292Y-27671D01*
X56378Y-27700D01*
X56435Y-27757D01*
X56464Y-27814D01*
X56492Y-27928D01*
X56492Y-28014D01*
X56464Y-28128D01*
X56435Y-28185D01*
X56378Y-28242D01*
X56292Y-28271D01*
X56150Y-28271D01*
X56021Y-30271D02*
X56021Y-29671D01*
X56250Y-29671D01*
X56307Y-29700D01*
X56335Y-29728D01*
X56364Y-29785D01*
X56364Y-29871D01*
X56335Y-29928D01*
X56307Y-29957D01*
X56250Y-29985D01*
X56021Y-29985D01*
X56935Y-30271D02*
X56592Y-30271D01*
X56764Y-30271D02*
X56764Y-29671D01*
X56707Y-29757D01*
X56650Y-29814D01*
X56592Y-29842D01*
X57135Y-29671D02*
X57535Y-29671D01*
X57278Y-30271D01*
X56035Y-28271D02*
X56035Y-27671D01*
X56264Y-27671D01*
X56321Y-27700D01*
X56350Y-27728D01*
X56378Y-27785D01*
X56378Y-27871D01*
X56350Y-27928D01*
X56321Y-27957D01*
X56264Y-27985D01*
X56035Y-27985D01*
X56607Y-28100D02*
X56892Y-28100D01*
X56550Y-28271D02*
X56750Y-27671D01*
X56950Y-28271D01*
X57150Y-28271D02*
X57150Y-27671D01*
X57292Y-27671D01*
X57378Y-27700D01*
X57435Y-27757D01*
X57464Y-27814D01*
X57492Y-27928D01*
X57492Y-28014D01*
X57464Y-28128D01*
X57435Y-28185D01*
X57378Y-28242D01*
X57292Y-28271D01*
X57150Y-28271D01*
X58021Y-30271D02*
X58021Y-29671D01*
X58250Y-29671D01*
X58307Y-29700D01*
X58335Y-29728D01*
X58364Y-29785D01*
X58364Y-29871D01*
X58335Y-29928D01*
X58307Y-29957D01*
X58250Y-29985D01*
X58021Y-29985D01*
X58564Y-29671D02*
X58935Y-29671D01*
X58735Y-29900D01*
X58821Y-29900D01*
X58878Y-29928D01*
X58907Y-29957D01*
X58935Y-30014D01*
X58935Y-30157D01*
X58907Y-30214D01*
X58878Y-30242D01*
X58821Y-30271D01*
X58650Y-30271D01*
X58592Y-30242D01*
X58564Y-30214D01*
X59450Y-29671D02*
X59335Y-29671D01*
X59278Y-29700D01*
X59250Y-29728D01*
X59192Y-29814D01*
X59164Y-29928D01*
X59164Y-30157D01*
X59192Y-30214D01*
X59221Y-30242D01*
X59278Y-30271D01*
X59392Y-30271D01*
X59450Y-30242D01*
X59478Y-30214D01*
X59507Y-30157D01*
X59507Y-30014D01*
X59478Y-29957D01*
X59450Y-29928D01*
X59392Y-29900D01*
X59278Y-29900D01*
X59221Y-29928D01*
X59192Y-29957D01*
X59164Y-30014D01*
X58035Y-28271D02*
X58035Y-27671D01*
X58264Y-27671D01*
X58321Y-27700D01*
X58350Y-27728D01*
X58378Y-27785D01*
X58378Y-27871D01*
X58350Y-27928D01*
X58321Y-27957D01*
X58264Y-27985D01*
X58035Y-27985D01*
X58607Y-28100D02*
X58892Y-28100D01*
X58550Y-28271D02*
X58750Y-27671D01*
X58950Y-28271D01*
X59150Y-28271D02*
X59150Y-27671D01*
X59292Y-27671D01*
X59378Y-27700D01*
X59435Y-27757D01*
X59464Y-27814D01*
X59492Y-27928D01*
X59492Y-28014D01*
X59464Y-28128D01*
X59435Y-28185D01*
X59378Y-28242D01*
X59292Y-28271D01*
X59150Y-28271D01*
X57021Y-30271D02*
X57021Y-29671D01*
X57250Y-29671D01*
X57307Y-29700D01*
X57335Y-29728D01*
X57364Y-29785D01*
X57364Y-29871D01*
X57335Y-29928D01*
X57307Y-29957D01*
X57250Y-29985D01*
X57021Y-29985D01*
X57564Y-29671D02*
X57935Y-29671D01*
X57735Y-29900D01*
X57821Y-29900D01*
X57878Y-29928D01*
X57907Y-29957D01*
X57935Y-30014D01*
X57935Y-30157D01*
X57907Y-30214D01*
X57878Y-30242D01*
X57821Y-30271D01*
X57650Y-30271D01*
X57592Y-30242D01*
X57564Y-30214D01*
X58135Y-29671D02*
X58535Y-29671D01*
X58278Y-30271D01*
X57035Y-28271D02*
X57035Y-27671D01*
X57264Y-27671D01*
X57321Y-27700D01*
X57350Y-27728D01*
X57378Y-27785D01*
X57378Y-27871D01*
X57350Y-27928D01*
X57321Y-27957D01*
X57264Y-27985D01*
X57035Y-27985D01*
X57607Y-28100D02*
X57892Y-28100D01*
X57550Y-28271D02*
X57750Y-27671D01*
X57950Y-28271D01*
X58150Y-28271D02*
X58150Y-27671D01*
X58292Y-27671D01*
X58378Y-27700D01*
X58435Y-27757D01*
X58464Y-27814D01*
X58492Y-27928D01*
X58492Y-28014D01*
X58464Y-28128D01*
X58435Y-28185D01*
X58378Y-28242D01*
X58292Y-28271D01*
X58150Y-28271D01*
X60021Y-30271D02*
X60021Y-29671D01*
X60250Y-29671D01*
X60307Y-29700D01*
X60335Y-29728D01*
X60364Y-29785D01*
X60364Y-29871D01*
X60335Y-29928D01*
X60307Y-29957D01*
X60250Y-29985D01*
X60021Y-29985D01*
X60564Y-29671D02*
X60935Y-29671D01*
X60735Y-29900D01*
X60821Y-29900D01*
X60878Y-29928D01*
X60907Y-29957D01*
X60935Y-30014D01*
X60935Y-30157D01*
X60907Y-30214D01*
X60878Y-30242D01*
X60821Y-30271D01*
X60650Y-30271D01*
X60592Y-30242D01*
X60564Y-30214D01*
X61278Y-29928D02*
X61221Y-29900D01*
X61192Y-29871D01*
X61164Y-29814D01*
X61164Y-29785D01*
X61192Y-29728D01*
X61221Y-29700D01*
X61278Y-29671D01*
X61392Y-29671D01*
X61450Y-29700D01*
X61478Y-29728D01*
X61507Y-29785D01*
X61507Y-29814D01*
X61478Y-29871D01*
X61450Y-29900D01*
X61392Y-29928D01*
X61278Y-29928D01*
X61221Y-29957D01*
X61192Y-29985D01*
X61164Y-30042D01*
X61164Y-30157D01*
X61192Y-30214D01*
X61221Y-30242D01*
X61278Y-30271D01*
X61392Y-30271D01*
X61450Y-30242D01*
X61478Y-30214D01*
X61507Y-30157D01*
X61507Y-30042D01*
X61478Y-29985D01*
X61450Y-29957D01*
X61392Y-29928D01*
X60035Y-28271D02*
X60035Y-27671D01*
X60264Y-27671D01*
X60321Y-27700D01*
X60350Y-27728D01*
X60378Y-27785D01*
X60378Y-27871D01*
X60350Y-27928D01*
X60321Y-27957D01*
X60264Y-27985D01*
X60035Y-27985D01*
X60607Y-28100D02*
X60892Y-28100D01*
X60550Y-28271D02*
X60750Y-27671D01*
X60950Y-28271D01*
X61150Y-28271D02*
X61150Y-27671D01*
X61292Y-27671D01*
X61378Y-27700D01*
X61435Y-27757D01*
X61464Y-27814D01*
X61492Y-27928D01*
X61492Y-28014D01*
X61464Y-28128D01*
X61435Y-28185D01*
X61378Y-28242D01*
X61292Y-28271D01*
X61150Y-28271D01*
X59021Y-30271D02*
X59021Y-29671D01*
X59250Y-29671D01*
X59307Y-29700D01*
X59335Y-29728D01*
X59364Y-29785D01*
X59364Y-29871D01*
X59335Y-29928D01*
X59307Y-29957D01*
X59250Y-29985D01*
X59021Y-29985D01*
X59564Y-29671D02*
X59935Y-29671D01*
X59735Y-29900D01*
X59821Y-29900D01*
X59878Y-29928D01*
X59907Y-29957D01*
X59935Y-30014D01*
X59935Y-30157D01*
X59907Y-30214D01*
X59878Y-30242D01*
X59821Y-30271D01*
X59650Y-30271D01*
X59592Y-30242D01*
X59564Y-30214D01*
X60221Y-30271D02*
X60335Y-30271D01*
X60392Y-30242D01*
X60421Y-30214D01*
X60478Y-30128D01*
X60507Y-30014D01*
X60507Y-29785D01*
X60478Y-29728D01*
X60450Y-29700D01*
X60392Y-29671D01*
X60278Y-29671D01*
X60221Y-29700D01*
X60192Y-29728D01*
X60164Y-29785D01*
X60164Y-29928D01*
X60192Y-29985D01*
X60221Y-30014D01*
X60278Y-30042D01*
X60392Y-30042D01*
X60450Y-30014D01*
X60478Y-29985D01*
X60507Y-29928D01*
X59035Y-28271D02*
X59035Y-27671D01*
X59264Y-27671D01*
X59321Y-27700D01*
X59350Y-27728D01*
X59378Y-27785D01*
X59378Y-27871D01*
X59350Y-27928D01*
X59321Y-27957D01*
X59264Y-27985D01*
X59035Y-27985D01*
X59607Y-28100D02*
X59892Y-28100D01*
X59550Y-28271D02*
X59750Y-27671D01*
X59950Y-28271D01*
X60150Y-28271D02*
X60150Y-27671D01*
X60292Y-27671D01*
X60378Y-27700D01*
X60435Y-27757D01*
X60464Y-27814D01*
X60492Y-27928D01*
X60492Y-28014D01*
X60464Y-28128D01*
X60435Y-28185D01*
X60378Y-28242D01*
X60292Y-28271D01*
X60150Y-28271D01*
X66021Y-30271D02*
X66021Y-29671D01*
X66250Y-29671D01*
X66307Y-29700D01*
X66335Y-29728D01*
X66364Y-29785D01*
X66364Y-29871D01*
X66335Y-29928D01*
X66307Y-29957D01*
X66250Y-29985D01*
X66021Y-29985D01*
X66878Y-29871D02*
X66878Y-30271D01*
X66735Y-29642D02*
X66592Y-30071D01*
X66964Y-30071D01*
X67307Y-29671D02*
X67364Y-29671D01*
X67421Y-29700D01*
X67450Y-29728D01*
X67478Y-29785D01*
X67507Y-29900D01*
X67507Y-30042D01*
X67478Y-30157D01*
X67450Y-30214D01*
X67421Y-30242D01*
X67364Y-30271D01*
X67307Y-30271D01*
X67250Y-30242D01*
X67221Y-30214D01*
X67192Y-30157D01*
X67164Y-30042D01*
X67164Y-29900D01*
X67192Y-29785D01*
X67221Y-29728D01*
X67250Y-29700D01*
X67307Y-29671D01*
X66035Y-28271D02*
X66035Y-27671D01*
X66264Y-27671D01*
X66321Y-27700D01*
X66350Y-27728D01*
X66378Y-27785D01*
X66378Y-27871D01*
X66350Y-27928D01*
X66321Y-27957D01*
X66264Y-27985D01*
X66035Y-27985D01*
X66607Y-28100D02*
X66892Y-28100D01*
X66550Y-28271D02*
X66750Y-27671D01*
X66950Y-28271D01*
X67150Y-28271D02*
X67150Y-27671D01*
X67292Y-27671D01*
X67378Y-27700D01*
X67435Y-27757D01*
X67464Y-27814D01*
X67492Y-27928D01*
X67492Y-28014D01*
X67464Y-28128D01*
X67435Y-28185D01*
X67378Y-28242D01*
X67292Y-28271D01*
X67150Y-28271D01*
X65021Y-30271D02*
X65021Y-29671D01*
X65250Y-29671D01*
X65307Y-29700D01*
X65335Y-29728D01*
X65364Y-29785D01*
X65364Y-29871D01*
X65335Y-29928D01*
X65307Y-29957D01*
X65250Y-29985D01*
X65021Y-29985D01*
X65878Y-29871D02*
X65878Y-30271D01*
X65735Y-29642D02*
X65592Y-30071D01*
X65964Y-30071D01*
X66507Y-30271D02*
X66164Y-30271D01*
X66335Y-30271D02*
X66335Y-29671D01*
X66278Y-29757D01*
X66221Y-29814D01*
X66164Y-29842D01*
X65035Y-28271D02*
X65035Y-27671D01*
X65264Y-27671D01*
X65321Y-27700D01*
X65350Y-27728D01*
X65378Y-27785D01*
X65378Y-27871D01*
X65350Y-27928D01*
X65321Y-27957D01*
X65264Y-27985D01*
X65035Y-27985D01*
X65607Y-28100D02*
X65892Y-28100D01*
X65550Y-28271D02*
X65750Y-27671D01*
X65950Y-28271D01*
X66150Y-28271D02*
X66150Y-27671D01*
X66292Y-27671D01*
X66378Y-27700D01*
X66435Y-27757D01*
X66464Y-27814D01*
X66492Y-27928D01*
X66492Y-28014D01*
X66464Y-28128D01*
X66435Y-28185D01*
X66378Y-28242D01*
X66292Y-28271D01*
X66150Y-28271D01*
X64021Y-30271D02*
X64021Y-29671D01*
X64250Y-29671D01*
X64307Y-29700D01*
X64335Y-29728D01*
X64364Y-29785D01*
X64364Y-29871D01*
X64335Y-29928D01*
X64307Y-29957D01*
X64250Y-29985D01*
X64021Y-29985D01*
X64878Y-29871D02*
X64878Y-30271D01*
X64735Y-29642D02*
X64592Y-30071D01*
X64964Y-30071D01*
X65164Y-29728D02*
X65192Y-29700D01*
X65250Y-29671D01*
X65392Y-29671D01*
X65450Y-29700D01*
X65478Y-29728D01*
X65507Y-29785D01*
X65507Y-29842D01*
X65478Y-29928D01*
X65135Y-30271D01*
X65507Y-30271D01*
X64035Y-28271D02*
X64035Y-27671D01*
X64264Y-27671D01*
X64321Y-27700D01*
X64350Y-27728D01*
X64378Y-27785D01*
X64378Y-27871D01*
X64350Y-27928D01*
X64321Y-27957D01*
X64264Y-27985D01*
X64035Y-27985D01*
X64607Y-28100D02*
X64892Y-28100D01*
X64550Y-28271D02*
X64750Y-27671D01*
X64950Y-28271D01*
X65150Y-28271D02*
X65150Y-27671D01*
X65292Y-27671D01*
X65378Y-27700D01*
X65435Y-27757D01*
X65464Y-27814D01*
X65492Y-27928D01*
X65492Y-28014D01*
X65464Y-28128D01*
X65435Y-28185D01*
X65378Y-28242D01*
X65292Y-28271D01*
X65150Y-28271D01*
X63021Y-30271D02*
X63021Y-29671D01*
X63250Y-29671D01*
X63307Y-29700D01*
X63335Y-29728D01*
X63364Y-29785D01*
X63364Y-29871D01*
X63335Y-29928D01*
X63307Y-29957D01*
X63250Y-29985D01*
X63021Y-29985D01*
X63878Y-29871D02*
X63878Y-30271D01*
X63735Y-29642D02*
X63592Y-30071D01*
X63964Y-30071D01*
X64135Y-29671D02*
X64507Y-29671D01*
X64307Y-29900D01*
X64392Y-29900D01*
X64450Y-29928D01*
X64478Y-29957D01*
X64507Y-30014D01*
X64507Y-30157D01*
X64478Y-30214D01*
X64450Y-30242D01*
X64392Y-30271D01*
X64221Y-30271D01*
X64164Y-30242D01*
X64135Y-30214D01*
X63035Y-28271D02*
X63035Y-27671D01*
X63264Y-27671D01*
X63321Y-27700D01*
X63350Y-27728D01*
X63378Y-27785D01*
X63378Y-27871D01*
X63350Y-27928D01*
X63321Y-27957D01*
X63264Y-27985D01*
X63035Y-27985D01*
X63607Y-28100D02*
X63892Y-28100D01*
X63550Y-28271D02*
X63750Y-27671D01*
X63950Y-28271D01*
X64150Y-28271D02*
X64150Y-27671D01*
X64292Y-27671D01*
X64378Y-27700D01*
X64435Y-27757D01*
X64464Y-27814D01*
X64492Y-27928D01*
X64492Y-28014D01*
X64464Y-28128D01*
X64435Y-28185D01*
X64378Y-28242D01*
X64292Y-28271D01*
X64150Y-28271D01*
X62021Y-30271D02*
X62021Y-29671D01*
X62250Y-29671D01*
X62307Y-29700D01*
X62335Y-29728D01*
X62364Y-29785D01*
X62364Y-29871D01*
X62335Y-29928D01*
X62307Y-29957D01*
X62250Y-29985D01*
X62021Y-29985D01*
X62878Y-29871D02*
X62878Y-30271D01*
X62735Y-29642D02*
X62592Y-30071D01*
X62964Y-30071D01*
X63450Y-29871D02*
X63450Y-30271D01*
X63307Y-29642D02*
X63164Y-30071D01*
X63535Y-30071D01*
X62035Y-28271D02*
X62035Y-27671D01*
X62264Y-27671D01*
X62321Y-27700D01*
X62350Y-27728D01*
X62378Y-27785D01*
X62378Y-27871D01*
X62350Y-27928D01*
X62321Y-27957D01*
X62264Y-27985D01*
X62035Y-27985D01*
X62607Y-28100D02*
X62892Y-28100D01*
X62550Y-28271D02*
X62750Y-27671D01*
X62950Y-28271D01*
X63150Y-28271D02*
X63150Y-27671D01*
X63292Y-27671D01*
X63378Y-27700D01*
X63435Y-27757D01*
X63464Y-27814D01*
X63492Y-27928D01*
X63492Y-28014D01*
X63464Y-28128D01*
X63435Y-28185D01*
X63378Y-28242D01*
X63292Y-28271D01*
X63150Y-28271D01*
X61021Y-30271D02*
X61021Y-29671D01*
X61250Y-29671D01*
X61307Y-29700D01*
X61335Y-29728D01*
X61364Y-29785D01*
X61364Y-29871D01*
X61335Y-29928D01*
X61307Y-29957D01*
X61250Y-29985D01*
X61021Y-29985D01*
X61878Y-29871D02*
X61878Y-30271D01*
X61735Y-29642D02*
X61592Y-30071D01*
X61964Y-30071D01*
X62478Y-29671D02*
X62192Y-29671D01*
X62164Y-29957D01*
X62192Y-29928D01*
X62250Y-29900D01*
X62392Y-29900D01*
X62450Y-29928D01*
X62478Y-29957D01*
X62507Y-30014D01*
X62507Y-30157D01*
X62478Y-30214D01*
X62450Y-30242D01*
X62392Y-30271D01*
X62250Y-30271D01*
X62192Y-30242D01*
X62164Y-30214D01*
X61035Y-28271D02*
X61035Y-27671D01*
X61264Y-27671D01*
X61321Y-27700D01*
X61350Y-27728D01*
X61378Y-27785D01*
X61378Y-27871D01*
X61350Y-27928D01*
X61321Y-27957D01*
X61264Y-27985D01*
X61035Y-27985D01*
X61607Y-28100D02*
X61892Y-28100D01*
X61550Y-28271D02*
X61750Y-27671D01*
X61950Y-28271D01*
X62150Y-28271D02*
X62150Y-27671D01*
X62292Y-27671D01*
X62378Y-27700D01*
X62435Y-27757D01*
X62464Y-27814D01*
X62492Y-27928D01*
X62492Y-28014D01*
X62464Y-28128D01*
X62435Y-28185D01*
X62378Y-28242D01*
X62292Y-28271D01*
X62150Y-28271D01*
M02*
