G04 (created by PCBNEW (2013-mar-13)-testing) date Sat 04 Jan 2014 11:19:26 PM CET*
%MOIN*%
G04 Gerber Fmt 3.4, Leading zero omitted, Abs format*
%FSLAX34Y34*%
G01*
G70*
G90*
G04 APERTURE LIST*
%ADD10C,0.005906*%
%ADD11R,0.098700X0.098700*%
%ADD12R,0.059400X0.059400*%
%ADD13C,0.138110*%
G04 APERTURE END LIST*
G54D10*
G54D11*
X53000Y-28000D03*
X54000Y-28000D03*
X55000Y-28000D03*
X56000Y-28000D03*
X57000Y-28000D03*
X58000Y-28000D03*
X59000Y-28000D03*
X60000Y-28000D03*
X61000Y-28000D03*
X62000Y-28000D03*
X63000Y-28000D03*
X64000Y-28000D03*
X65000Y-28000D03*
X66000Y-28000D03*
X67000Y-28000D03*
X63000Y-46000D03*
X64000Y-46000D03*
X62000Y-46000D03*
X61000Y-46000D03*
X60000Y-46000D03*
X59000Y-46000D03*
X58000Y-46000D03*
X53000Y-46000D03*
X54000Y-46000D03*
X55000Y-46000D03*
X56000Y-46000D03*
X57000Y-46000D03*
X65000Y-46000D03*
X66000Y-46000D03*
X67000Y-46000D03*
G54D12*
X59500Y-42000D03*
X59000Y-42000D03*
X58500Y-42000D03*
X58000Y-42000D03*
X57500Y-42000D03*
X57000Y-42000D03*
X56500Y-42000D03*
X56000Y-42000D03*
X55500Y-41500D03*
X55500Y-41000D03*
X55500Y-40500D03*
X55500Y-40000D03*
X55500Y-39500D03*
X55500Y-39000D03*
X55500Y-38500D03*
X55500Y-38000D03*
X55500Y-37000D03*
X55500Y-36500D03*
X55500Y-36000D03*
X55500Y-35500D03*
X55500Y-35000D03*
X55500Y-34500D03*
X55500Y-34000D03*
X55500Y-33500D03*
X56000Y-33000D03*
X56500Y-33000D03*
X57000Y-33000D03*
X57500Y-33000D03*
X58000Y-33000D03*
X58500Y-33000D03*
X59000Y-33000D03*
X59500Y-33000D03*
X60500Y-33000D03*
X61000Y-33000D03*
X61500Y-33000D03*
X62000Y-33000D03*
X62500Y-33000D03*
X63000Y-33000D03*
X63500Y-33000D03*
X64000Y-33000D03*
X64500Y-33500D03*
X64500Y-34000D03*
X64500Y-34500D03*
X64500Y-35000D03*
X64500Y-35500D03*
X64500Y-36000D03*
X64500Y-36500D03*
X64500Y-37000D03*
X64500Y-38000D03*
X64500Y-38500D03*
X64500Y-39000D03*
X64500Y-39500D03*
X64500Y-40000D03*
X64500Y-40500D03*
X64500Y-41000D03*
X64500Y-41500D03*
X64000Y-42000D03*
X63500Y-42000D03*
X63000Y-42000D03*
X62500Y-42000D03*
X62000Y-42000D03*
X61500Y-42000D03*
X61000Y-42000D03*
X60500Y-42000D03*
G54D10*
G36*
X59932Y-41188D02*
X59345Y-41775D01*
X59065Y-41494D01*
X59652Y-40908D01*
X59932Y-41188D01*
X59932Y-41188D01*
G37*
G36*
X59709Y-40965D02*
X59123Y-41552D01*
X58842Y-41272D01*
X59429Y-40685D01*
X59709Y-40965D01*
X59709Y-40965D01*
G37*
G36*
X59487Y-40743D02*
X58900Y-41330D01*
X58619Y-41049D01*
X59206Y-40462D01*
X59487Y-40743D01*
X59487Y-40743D01*
G37*
G36*
X59264Y-40520D02*
X58677Y-41107D01*
X58397Y-40826D01*
X58983Y-40239D01*
X59264Y-40520D01*
X59264Y-40520D01*
G37*
G36*
X59041Y-40297D02*
X58454Y-40884D01*
X58174Y-40604D01*
X58761Y-40017D01*
X59041Y-40297D01*
X59041Y-40297D01*
G37*
G36*
X58819Y-40075D02*
X58232Y-40661D01*
X57951Y-40381D01*
X58538Y-39794D01*
X58819Y-40075D01*
X58819Y-40075D01*
G37*
G36*
X58596Y-39852D02*
X58009Y-40439D01*
X57728Y-40158D01*
X58315Y-39571D01*
X58596Y-39852D01*
X58596Y-39852D01*
G37*
G36*
X58373Y-39629D02*
X57786Y-40216D01*
X57506Y-39935D01*
X58093Y-39349D01*
X58373Y-39629D01*
X58373Y-39629D01*
G37*
G36*
X58150Y-39406D02*
X57564Y-39993D01*
X57283Y-39713D01*
X57870Y-39126D01*
X58150Y-39406D01*
X58150Y-39406D01*
G37*
G36*
X57928Y-39184D02*
X57341Y-39771D01*
X57060Y-39490D01*
X57647Y-38903D01*
X57928Y-39184D01*
X57928Y-39184D01*
G37*
G36*
X57705Y-38961D02*
X57118Y-39548D01*
X56838Y-39267D01*
X57424Y-38680D01*
X57705Y-38961D01*
X57705Y-38961D01*
G37*
G36*
X57482Y-38738D02*
X56895Y-39325D01*
X56615Y-39045D01*
X57202Y-38458D01*
X57482Y-38738D01*
X57482Y-38738D01*
G37*
G36*
X57260Y-38516D02*
X56673Y-39102D01*
X56392Y-38822D01*
X56979Y-38235D01*
X57260Y-38516D01*
X57260Y-38516D01*
G37*
G36*
X57037Y-38293D02*
X56450Y-38880D01*
X56169Y-38599D01*
X56756Y-38012D01*
X57037Y-38293D01*
X57037Y-38293D01*
G37*
G36*
X56814Y-38070D02*
X56227Y-38657D01*
X55947Y-38376D01*
X56534Y-37790D01*
X56814Y-38070D01*
X56814Y-38070D01*
G37*
G36*
X56591Y-37847D02*
X56005Y-38434D01*
X55724Y-38154D01*
X56311Y-37567D01*
X56591Y-37847D01*
X56591Y-37847D01*
G37*
G36*
X58983Y-40105D02*
X55724Y-36845D01*
X56005Y-36565D01*
X59264Y-39824D01*
X58983Y-40105D01*
X58983Y-40105D01*
G37*
G36*
X59206Y-39882D02*
X55947Y-36623D01*
X56227Y-36342D01*
X59487Y-39601D01*
X59206Y-39882D01*
X59206Y-39882D01*
G37*
G36*
X59429Y-39659D02*
X56169Y-36400D01*
X56450Y-36119D01*
X59709Y-39379D01*
X59429Y-39659D01*
X59429Y-39659D01*
G37*
G36*
X59652Y-39437D02*
X56392Y-36177D01*
X56673Y-35897D01*
X59932Y-39156D01*
X59652Y-39437D01*
X59652Y-39437D01*
G37*
G36*
X59652Y-38991D02*
X56615Y-35954D01*
X56895Y-35674D01*
X59932Y-38710D01*
X59652Y-38991D01*
X59652Y-38991D01*
G37*
G36*
X59652Y-38546D02*
X56838Y-35732D01*
X57118Y-35451D01*
X59932Y-38265D01*
X59652Y-38546D01*
X59652Y-38546D01*
G37*
G36*
X59652Y-38100D02*
X57060Y-35509D01*
X57341Y-35228D01*
X59932Y-37820D01*
X59652Y-38100D01*
X59652Y-38100D01*
G37*
G36*
X59652Y-37655D02*
X57283Y-35286D01*
X57564Y-35006D01*
X59932Y-37374D01*
X59652Y-37655D01*
X59652Y-37655D01*
G37*
G36*
X59652Y-37209D02*
X57506Y-35064D01*
X57786Y-34783D01*
X59932Y-36929D01*
X59652Y-37209D01*
X59652Y-37209D01*
G37*
G36*
X59652Y-36764D02*
X57728Y-34841D01*
X58009Y-34560D01*
X59932Y-36483D01*
X59652Y-36764D01*
X59652Y-36764D01*
G37*
G36*
X59652Y-36319D02*
X57951Y-34618D01*
X58232Y-34338D01*
X59932Y-36038D01*
X59652Y-36319D01*
X59652Y-36319D01*
G37*
G36*
X59652Y-35873D02*
X58174Y-34395D01*
X58454Y-34115D01*
X59932Y-35593D01*
X59652Y-35873D01*
X59652Y-35873D01*
G37*
G36*
X59652Y-35428D02*
X58397Y-34173D01*
X58677Y-33892D01*
X59932Y-35147D01*
X59652Y-35428D01*
X59652Y-35428D01*
G37*
G36*
X59652Y-34982D02*
X58619Y-33950D01*
X58900Y-33669D01*
X59932Y-34702D01*
X59652Y-34982D01*
X59652Y-34982D01*
G37*
G36*
X59652Y-34537D02*
X58842Y-33727D01*
X59123Y-33447D01*
X59932Y-34256D01*
X59652Y-34537D01*
X59652Y-34537D01*
G37*
G36*
X59652Y-34091D02*
X59065Y-33505D01*
X59345Y-33224D01*
X59932Y-33811D01*
X59652Y-34091D01*
X59652Y-34091D01*
G37*
G36*
X60934Y-33505D02*
X60347Y-34091D01*
X60067Y-33811D01*
X60654Y-33224D01*
X60934Y-33505D01*
X60934Y-33505D01*
G37*
G36*
X61157Y-33727D02*
X60347Y-34537D01*
X60067Y-34256D01*
X60876Y-33447D01*
X61157Y-33727D01*
X61157Y-33727D01*
G37*
G36*
X61380Y-33950D02*
X60347Y-34982D01*
X60067Y-34702D01*
X61099Y-33669D01*
X61380Y-33950D01*
X61380Y-33950D01*
G37*
G36*
X61602Y-34173D02*
X60347Y-35428D01*
X60067Y-35147D01*
X61322Y-33892D01*
X61602Y-34173D01*
X61602Y-34173D01*
G37*
G36*
X61825Y-34395D02*
X60347Y-35873D01*
X60067Y-35593D01*
X61545Y-34115D01*
X61825Y-34395D01*
X61825Y-34395D01*
G37*
G36*
X62048Y-34618D02*
X60347Y-36319D01*
X60067Y-36038D01*
X61767Y-34338D01*
X62048Y-34618D01*
X62048Y-34618D01*
G37*
G36*
X62271Y-34841D02*
X60347Y-36764D01*
X60067Y-36483D01*
X61990Y-34560D01*
X62271Y-34841D01*
X62271Y-34841D01*
G37*
G36*
X62493Y-35064D02*
X60347Y-37209D01*
X60067Y-36929D01*
X62213Y-34783D01*
X62493Y-35064D01*
X62493Y-35064D01*
G37*
G36*
X62716Y-35286D02*
X60347Y-37655D01*
X60067Y-37374D01*
X62435Y-35006D01*
X62716Y-35286D01*
X62716Y-35286D01*
G37*
G36*
X62939Y-35509D02*
X60347Y-38100D01*
X60067Y-37820D01*
X62658Y-35228D01*
X62939Y-35509D01*
X62939Y-35509D01*
G37*
G36*
X63161Y-35732D02*
X60347Y-38546D01*
X60067Y-38265D01*
X62881Y-35451D01*
X63161Y-35732D01*
X63161Y-35732D01*
G37*
G36*
X63384Y-35954D02*
X60347Y-38991D01*
X60067Y-38710D01*
X63104Y-35674D01*
X63384Y-35954D01*
X63384Y-35954D01*
G37*
G36*
X63607Y-36177D02*
X60347Y-39437D01*
X60067Y-39156D01*
X63326Y-35897D01*
X63607Y-36177D01*
X63607Y-36177D01*
G37*
G36*
X63830Y-36400D02*
X60570Y-39659D01*
X60290Y-39379D01*
X63549Y-36119D01*
X63830Y-36400D01*
X63830Y-36400D01*
G37*
G36*
X64052Y-36623D02*
X60793Y-39882D01*
X60512Y-39601D01*
X63772Y-36342D01*
X64052Y-36623D01*
X64052Y-36623D01*
G37*
G36*
X64275Y-36845D02*
X61016Y-40105D01*
X60735Y-39824D01*
X63994Y-36565D01*
X64275Y-36845D01*
X64275Y-36845D01*
G37*
G36*
X63688Y-37567D02*
X64275Y-38154D01*
X63994Y-38434D01*
X63408Y-37847D01*
X63688Y-37567D01*
X63688Y-37567D01*
G37*
G36*
X63465Y-37790D02*
X64052Y-38376D01*
X63772Y-38657D01*
X63185Y-38070D01*
X63465Y-37790D01*
X63465Y-37790D01*
G37*
G36*
X63243Y-38012D02*
X63830Y-38599D01*
X63549Y-38880D01*
X62962Y-38293D01*
X63243Y-38012D01*
X63243Y-38012D01*
G37*
G36*
X63020Y-38235D02*
X63607Y-38822D01*
X63326Y-39102D01*
X62739Y-38516D01*
X63020Y-38235D01*
X63020Y-38235D01*
G37*
G36*
X62797Y-38458D02*
X63384Y-39045D01*
X63104Y-39325D01*
X62517Y-38738D01*
X62797Y-38458D01*
X62797Y-38458D01*
G37*
G36*
X62575Y-38680D02*
X63161Y-39267D01*
X62881Y-39548D01*
X62294Y-38961D01*
X62575Y-38680D01*
X62575Y-38680D01*
G37*
G36*
X62352Y-38903D02*
X62939Y-39490D01*
X62658Y-39771D01*
X62071Y-39184D01*
X62352Y-38903D01*
X62352Y-38903D01*
G37*
G36*
X62129Y-39126D02*
X62716Y-39713D01*
X62435Y-39993D01*
X61849Y-39406D01*
X62129Y-39126D01*
X62129Y-39126D01*
G37*
G36*
X61906Y-39349D02*
X62493Y-39935D01*
X62213Y-40216D01*
X61626Y-39629D01*
X61906Y-39349D01*
X61906Y-39349D01*
G37*
G36*
X61684Y-39571D02*
X62271Y-40158D01*
X61990Y-40439D01*
X61403Y-39852D01*
X61684Y-39571D01*
X61684Y-39571D01*
G37*
G36*
X61461Y-39794D02*
X62048Y-40381D01*
X61767Y-40661D01*
X61180Y-40075D01*
X61461Y-39794D01*
X61461Y-39794D01*
G37*
G36*
X61238Y-40017D02*
X61825Y-40604D01*
X61545Y-40884D01*
X60958Y-40297D01*
X61238Y-40017D01*
X61238Y-40017D01*
G37*
G36*
X61016Y-40239D02*
X61602Y-40826D01*
X61322Y-41107D01*
X60735Y-40520D01*
X61016Y-40239D01*
X61016Y-40239D01*
G37*
G36*
X60793Y-40462D02*
X61380Y-41049D01*
X61099Y-41330D01*
X60512Y-40743D01*
X60793Y-40462D01*
X60793Y-40462D01*
G37*
G36*
X60570Y-40685D02*
X61157Y-41272D01*
X60876Y-41552D01*
X60290Y-40965D01*
X60570Y-40685D01*
X60570Y-40685D01*
G37*
G36*
X60347Y-40908D02*
X60934Y-41494D01*
X60654Y-41775D01*
X60067Y-41188D01*
X60347Y-40908D01*
X60347Y-40908D01*
G37*
G54D13*
X51500Y-46000D03*
X68500Y-46000D03*
X51500Y-28500D03*
X68500Y-28500D03*
G54D12*
X51000Y-30500D03*
X51000Y-30000D03*
X52000Y-30500D03*
X51500Y-30500D03*
X51500Y-30000D03*
X53000Y-30500D03*
X52500Y-30500D03*
X53500Y-30500D03*
X52500Y-30000D03*
X52000Y-30000D03*
X53500Y-30000D03*
X53000Y-30000D03*
X54000Y-30500D03*
X54000Y-30000D03*
X54500Y-30500D03*
X55500Y-30500D03*
X56000Y-30500D03*
X56000Y-30000D03*
X55500Y-30000D03*
X57500Y-30500D03*
X57500Y-30000D03*
X59000Y-30000D03*
X57000Y-30500D03*
X56500Y-30500D03*
X55000Y-30500D03*
X56500Y-30000D03*
X57000Y-30000D03*
X54500Y-30000D03*
X55000Y-30000D03*
X58000Y-30500D03*
X58000Y-30000D03*
X58500Y-30500D03*
X59000Y-30500D03*
X58500Y-30000D03*
X60000Y-30500D03*
X59500Y-30500D03*
X59500Y-30000D03*
X60000Y-30000D03*
X60500Y-30000D03*
X60500Y-30500D03*
X61000Y-30500D03*
X61000Y-30000D03*
X61500Y-30500D03*
X61500Y-30000D03*
X62000Y-30500D03*
X62000Y-30000D03*
X62500Y-30500D03*
X62500Y-30000D03*
X63000Y-30000D03*
X63000Y-30500D03*
X63500Y-30500D03*
X63500Y-30000D03*
X64000Y-30000D03*
X64000Y-30500D03*
X64500Y-30500D03*
X64500Y-30000D03*
X65000Y-30000D03*
X65000Y-30500D03*
X68500Y-30500D03*
X65500Y-30500D03*
X66000Y-30500D03*
X67500Y-30500D03*
X68000Y-30500D03*
X67000Y-30500D03*
X66500Y-30500D03*
X68500Y-30000D03*
X68000Y-30000D03*
X67500Y-30000D03*
X67000Y-30000D03*
X66500Y-30000D03*
X65500Y-30000D03*
X66000Y-30000D03*
X65000Y-37000D03*
X65000Y-36500D03*
X64500Y-37500D03*
X65000Y-36000D03*
X64500Y-33000D03*
X65000Y-33000D03*
X65000Y-33500D03*
X65000Y-34000D03*
X65000Y-34500D03*
X65000Y-35000D03*
X65000Y-35500D03*
G54D11*
X53000Y-29000D03*
X54000Y-29000D03*
X55000Y-29000D03*
X56000Y-29000D03*
X57000Y-29000D03*
X59000Y-29000D03*
X58000Y-29000D03*
X61000Y-29000D03*
X60000Y-29000D03*
X67000Y-29000D03*
X66000Y-29000D03*
X65000Y-29000D03*
X64000Y-29000D03*
X63000Y-29000D03*
X62000Y-29000D03*
G54D12*
X68500Y-31000D03*
X68000Y-31000D03*
X67500Y-31000D03*
X67000Y-31000D03*
X65500Y-32000D03*
X65500Y-32500D03*
X65000Y-31000D03*
X65000Y-31500D03*
X65000Y-32000D03*
X64500Y-31000D03*
X67500Y-32000D03*
X66500Y-31000D03*
X66000Y-31000D03*
X65500Y-31000D03*
X68500Y-31500D03*
X68000Y-31500D03*
X67500Y-31500D03*
X67000Y-31500D03*
X66500Y-31500D03*
X66000Y-31500D03*
X65500Y-31500D03*
X68500Y-32000D03*
X68000Y-32000D03*
X64500Y-31500D03*
X67000Y-32000D03*
X66500Y-32000D03*
X66000Y-32000D03*
X69000Y-33000D03*
X69000Y-30000D03*
X69000Y-30500D03*
X69000Y-31500D03*
X64500Y-32000D03*
X69000Y-34500D03*
X69000Y-36000D03*
X69000Y-37500D03*
X69000Y-39000D03*
X69000Y-32000D03*
X69000Y-33500D03*
X69000Y-35000D03*
X69000Y-36500D03*
X69000Y-38000D03*
X69000Y-39500D03*
X68500Y-32500D03*
X68000Y-32500D03*
X67500Y-32500D03*
X67000Y-32500D03*
X66500Y-32500D03*
X66000Y-32500D03*
X69000Y-40500D03*
X69000Y-41000D03*
X65000Y-32500D03*
X69000Y-42000D03*
X69000Y-42500D03*
X64500Y-32500D03*
X68500Y-33000D03*
X68000Y-33000D03*
X67500Y-33500D03*
X67000Y-33000D03*
X66500Y-33000D03*
X66000Y-33000D03*
X65500Y-33000D03*
X68500Y-33500D03*
X68000Y-33500D03*
X67500Y-33000D03*
X67000Y-33500D03*
X66500Y-33500D03*
X66000Y-33500D03*
X65500Y-33500D03*
X68500Y-34000D03*
X65500Y-34000D03*
X68000Y-34000D03*
X66000Y-34000D03*
X67500Y-34000D03*
X67000Y-34000D03*
X66500Y-34000D03*
X68500Y-34500D03*
X68000Y-34500D03*
X67500Y-34500D03*
X67000Y-34500D03*
X66500Y-34500D03*
X66000Y-34500D03*
X65500Y-34500D03*
X68500Y-35000D03*
X68000Y-35000D03*
X67500Y-35000D03*
X67000Y-35000D03*
X66500Y-35000D03*
X66000Y-35000D03*
X65500Y-35000D03*
X64000Y-31000D03*
X63500Y-31000D03*
X63000Y-31000D03*
X64000Y-31500D03*
X63500Y-31500D03*
X63500Y-32000D03*
X64000Y-32000D03*
X69000Y-43500D03*
X64000Y-32500D03*
X69000Y-44000D03*
X63500Y-32500D03*
X68500Y-35500D03*
X68000Y-35500D03*
X67500Y-35500D03*
X67000Y-35500D03*
X66000Y-35500D03*
X66500Y-35500D03*
X65500Y-35500D03*
X68500Y-36000D03*
X68000Y-36000D03*
X67500Y-36000D03*
X67000Y-36000D03*
X66500Y-36000D03*
X66000Y-36000D03*
X65500Y-36000D03*
X68500Y-36500D03*
X68500Y-37000D03*
X68500Y-37500D03*
X68000Y-36500D03*
X67500Y-36500D03*
X68000Y-37000D03*
X67000Y-36500D03*
X66500Y-36500D03*
X67000Y-37000D03*
X66000Y-36500D03*
X65500Y-36500D03*
X67500Y-37000D03*
X65500Y-37000D03*
X66500Y-37000D03*
X66000Y-37000D03*
X68000Y-37500D03*
X67500Y-37500D03*
X67000Y-37500D03*
X66500Y-37500D03*
X65500Y-37500D03*
X66000Y-37500D03*
X65000Y-37500D03*
X65000Y-38000D03*
X68500Y-38000D03*
X68000Y-38000D03*
X67500Y-38000D03*
X67000Y-38000D03*
X66500Y-38000D03*
X66000Y-38000D03*
X65500Y-38000D03*
X68500Y-38500D03*
X68500Y-39000D03*
X68000Y-38500D03*
X67500Y-38500D03*
X67000Y-38500D03*
X66500Y-38500D03*
X66000Y-38500D03*
X65000Y-38500D03*
X65500Y-38500D03*
X65000Y-39000D03*
X65500Y-39000D03*
X66000Y-39000D03*
X66500Y-39000D03*
X67000Y-39000D03*
X67500Y-39000D03*
X68000Y-39000D03*
X67000Y-39500D03*
X65500Y-39500D03*
X67500Y-40000D03*
X67500Y-40500D03*
X67000Y-40000D03*
X67000Y-40500D03*
X66500Y-40000D03*
X68500Y-39500D03*
X68000Y-39500D03*
X67500Y-39500D03*
X65000Y-40000D03*
X66500Y-39500D03*
X66000Y-39500D03*
X65500Y-40000D03*
X65000Y-39500D03*
X68500Y-40000D03*
X68500Y-40500D03*
X68000Y-40000D03*
X68000Y-40500D03*
X66000Y-40000D03*
X66500Y-40500D03*
X68500Y-41000D03*
X68500Y-41500D03*
X68500Y-42000D03*
X68500Y-42500D03*
X69000Y-31000D03*
X68500Y-43000D03*
X68500Y-43500D03*
X68500Y-44500D03*
X68500Y-44000D03*
X68500Y-45000D03*
X68000Y-41000D03*
X68000Y-41500D03*
X68000Y-42000D03*
X68000Y-42500D03*
X67500Y-41000D03*
X66000Y-40500D03*
X65500Y-40500D03*
X65000Y-40500D03*
X67000Y-41000D03*
X66500Y-41000D03*
X66000Y-41000D03*
X65000Y-41000D03*
X65500Y-41000D03*
X65000Y-41500D03*
X64500Y-42000D03*
X65000Y-42000D03*
X67500Y-41500D03*
X67000Y-41500D03*
X66500Y-41500D03*
X66000Y-41500D03*
X65500Y-41500D03*
X67500Y-42000D03*
X69000Y-32500D03*
X68000Y-43000D03*
X68000Y-43500D03*
X68000Y-44000D03*
X68000Y-44500D03*
X68000Y-45000D03*
X67000Y-42000D03*
X66500Y-42000D03*
X65500Y-42000D03*
X66000Y-42000D03*
X67500Y-42500D03*
X69000Y-34000D03*
X67500Y-43000D03*
X67500Y-43500D03*
X67500Y-44000D03*
X67500Y-44500D03*
X67500Y-45000D03*
X67000Y-42500D03*
X69000Y-35500D03*
X67000Y-43000D03*
X67000Y-43500D03*
X67000Y-44000D03*
X66500Y-42500D03*
X66000Y-42500D03*
X65500Y-42500D03*
X69000Y-37000D03*
X67000Y-44500D03*
X60000Y-42000D03*
X66500Y-43000D03*
X69000Y-38500D03*
X65000Y-42500D03*
X67000Y-45000D03*
X66500Y-45000D03*
X66500Y-43500D03*
X66500Y-44000D03*
X66500Y-44500D03*
X66000Y-43000D03*
X66000Y-43500D03*
X66000Y-44000D03*
X66000Y-44500D03*
X66000Y-45000D03*
X69000Y-40000D03*
X65500Y-43000D03*
X65500Y-43500D03*
X65500Y-44000D03*
X65500Y-44500D03*
X65500Y-45000D03*
X69000Y-41500D03*
X65000Y-43000D03*
X65000Y-43500D03*
X65000Y-44000D03*
X65000Y-44500D03*
X65000Y-45000D03*
X64500Y-42500D03*
X69000Y-43000D03*
X64000Y-42500D03*
X64500Y-43000D03*
X64500Y-43500D03*
X64500Y-44000D03*
X64500Y-44500D03*
X64500Y-45000D03*
X69000Y-44500D03*
X64000Y-43000D03*
X64000Y-43500D03*
X64000Y-44000D03*
X64000Y-44500D03*
X64000Y-45000D03*
X63500Y-42500D03*
X69000Y-45000D03*
X63500Y-43000D03*
X63500Y-43500D03*
X63500Y-44000D03*
X63500Y-44500D03*
X63500Y-45000D03*
X63000Y-42500D03*
X63000Y-43000D03*
X63000Y-43500D03*
X63000Y-44000D03*
X63000Y-44500D03*
X63000Y-45000D03*
X62500Y-42500D03*
X62500Y-43000D03*
X62500Y-43500D03*
X62500Y-44000D03*
X62500Y-44500D03*
X62500Y-45000D03*
X62000Y-42500D03*
X62000Y-43000D03*
X62000Y-43500D03*
X62000Y-44000D03*
X62000Y-44500D03*
X62000Y-45000D03*
X61500Y-42500D03*
X61000Y-42500D03*
X60500Y-42500D03*
X61500Y-43000D03*
X61500Y-43500D03*
X61500Y-44000D03*
X61500Y-44500D03*
X61500Y-45000D03*
X61000Y-43000D03*
X60500Y-43000D03*
X61000Y-43500D03*
X60500Y-43500D03*
X62500Y-31000D03*
X62000Y-31000D03*
X51000Y-31000D03*
X51500Y-31000D03*
X63000Y-31500D03*
X63000Y-32000D03*
X63000Y-32500D03*
X62500Y-31500D03*
X62500Y-32000D03*
X55500Y-33000D03*
X60000Y-33000D03*
X62500Y-32500D03*
X62000Y-32500D03*
X62000Y-32000D03*
X62000Y-31500D03*
X61500Y-31000D03*
X61000Y-31000D03*
X61500Y-31500D03*
X61500Y-32000D03*
X61500Y-32500D03*
X61000Y-32500D03*
X60500Y-32500D03*
X60000Y-32500D03*
X61000Y-31500D03*
X61000Y-32000D03*
X59500Y-32500D03*
X59000Y-32500D03*
X59000Y-31000D03*
X59500Y-31000D03*
X60000Y-31000D03*
X60500Y-31000D03*
X60500Y-31500D03*
X60500Y-32000D03*
X60000Y-31500D03*
X60000Y-32000D03*
X59500Y-31500D03*
X59500Y-32000D03*
X59000Y-31500D03*
X58500Y-31000D03*
X59000Y-32000D03*
X58500Y-32500D03*
X58000Y-32500D03*
X58500Y-31500D03*
X58500Y-32000D03*
X58000Y-31500D03*
X57500Y-31000D03*
X58000Y-31000D03*
X56500Y-31000D03*
X57000Y-31000D03*
X57500Y-31500D03*
X58000Y-32000D03*
X57500Y-32500D03*
X57500Y-32000D03*
X56500Y-31500D03*
X57000Y-31500D03*
X57000Y-32000D03*
X57000Y-32500D03*
X56000Y-31000D03*
X52500Y-31000D03*
X52000Y-31000D03*
X53000Y-31000D03*
X54500Y-31000D03*
X55500Y-31000D03*
X55000Y-31000D03*
X53500Y-31000D03*
X54000Y-31000D03*
X56500Y-32500D03*
X56000Y-32500D03*
X55500Y-32500D03*
X56500Y-32000D03*
X56000Y-31500D03*
X56000Y-32000D03*
X55500Y-32000D03*
X55500Y-31500D03*
X55000Y-31500D03*
X54500Y-31500D03*
X54000Y-31500D03*
X53500Y-31500D03*
X53000Y-31500D03*
X52500Y-31500D03*
X51500Y-31500D03*
X52000Y-31500D03*
X51000Y-31500D03*
X51000Y-32000D03*
X51500Y-32000D03*
X52000Y-32000D03*
X52500Y-32000D03*
X55000Y-32000D03*
X54500Y-32000D03*
X54000Y-32000D03*
X53500Y-32000D03*
X53000Y-32000D03*
X55000Y-32500D03*
X55000Y-33000D03*
X55000Y-33500D03*
X54500Y-32500D03*
X54000Y-32500D03*
X54500Y-33000D03*
X51000Y-32500D03*
X51500Y-32500D03*
X52500Y-32500D03*
X52000Y-32500D03*
X53000Y-32500D03*
X53500Y-32500D03*
X51000Y-33000D03*
X51000Y-33500D03*
X51000Y-34000D03*
X51000Y-34500D03*
X52500Y-33000D03*
X52000Y-33000D03*
X51500Y-33000D03*
X54000Y-33000D03*
X53500Y-33000D03*
X53000Y-33000D03*
X51500Y-33500D03*
X51500Y-34000D03*
X52000Y-33500D03*
X52500Y-33500D03*
X54500Y-33500D03*
X54000Y-33500D03*
X53000Y-33500D03*
X53500Y-33500D03*
X52000Y-34000D03*
X51500Y-34500D03*
X52000Y-34500D03*
X55000Y-34000D03*
X54000Y-34000D03*
X53500Y-34000D03*
X52500Y-34000D03*
X53000Y-34000D03*
X54500Y-34000D03*
X55000Y-34500D03*
X53000Y-34500D03*
X53000Y-35000D03*
X52500Y-34500D03*
X55000Y-35000D03*
X54000Y-35000D03*
X54000Y-34500D03*
X54500Y-34500D03*
X53500Y-34500D03*
X54500Y-35000D03*
X53500Y-35000D03*
X52500Y-35000D03*
X51000Y-35000D03*
X52000Y-35000D03*
X51500Y-35000D03*
X51000Y-35500D03*
X51500Y-36000D03*
X52000Y-35500D03*
X54000Y-35500D03*
X55000Y-35500D03*
X54500Y-35500D03*
X53000Y-35500D03*
X52500Y-35500D03*
X53500Y-35500D03*
X55000Y-36000D03*
X54500Y-36000D03*
X54000Y-36000D03*
X53500Y-36000D03*
X53000Y-36000D03*
X52500Y-36000D03*
X52000Y-36000D03*
X51500Y-35500D03*
X51000Y-36000D03*
X55000Y-36500D03*
X54500Y-36500D03*
X54000Y-36500D03*
X53500Y-36500D03*
X53000Y-36500D03*
X52500Y-36500D03*
X52000Y-36500D03*
X51500Y-36500D03*
X51000Y-36500D03*
X55500Y-37500D03*
X55000Y-37000D03*
X54500Y-37000D03*
X54000Y-37000D03*
X53500Y-37000D03*
X53000Y-37000D03*
X52500Y-37000D03*
X52000Y-37000D03*
X51500Y-37000D03*
X51000Y-37000D03*
X55000Y-37500D03*
X54500Y-37500D03*
X54000Y-37500D03*
X53500Y-37500D03*
X53000Y-37500D03*
X52500Y-37500D03*
X52000Y-37500D03*
X51500Y-37500D03*
X51000Y-37500D03*
X55000Y-38000D03*
X54500Y-38000D03*
X54000Y-38000D03*
X53500Y-38000D03*
X53000Y-38000D03*
X52500Y-38000D03*
X51000Y-38000D03*
X52000Y-38000D03*
X51500Y-38000D03*
X51000Y-38500D03*
X51000Y-39000D03*
X51000Y-39500D03*
X51500Y-38500D03*
X52000Y-38500D03*
X51500Y-39000D03*
X52500Y-38500D03*
X53000Y-38500D03*
X53500Y-38500D03*
X55000Y-38500D03*
X54000Y-38500D03*
X54500Y-38500D03*
X52000Y-39000D03*
X52500Y-39000D03*
X53500Y-39000D03*
X53000Y-39000D03*
X55000Y-39000D03*
X54000Y-39000D03*
X54500Y-39000D03*
X51500Y-39500D03*
X51000Y-40000D03*
X52000Y-39500D03*
X52500Y-39500D03*
X53000Y-39500D03*
X53500Y-39500D03*
X54000Y-39500D03*
X55000Y-39500D03*
X54500Y-39500D03*
X55500Y-42000D03*
X55000Y-40000D03*
X54500Y-40000D03*
X55000Y-40500D03*
X54000Y-40000D03*
X54500Y-40500D03*
X55000Y-41000D03*
X53500Y-40000D03*
X51500Y-40000D03*
X51000Y-40500D03*
X52000Y-40000D03*
X53000Y-40000D03*
X52500Y-40000D03*
X51500Y-40500D03*
X51000Y-41000D03*
X52000Y-40500D03*
X51500Y-41000D03*
X54000Y-40500D03*
X53500Y-40500D03*
X52500Y-40500D03*
X53000Y-40500D03*
X52000Y-41000D03*
X52500Y-41000D03*
X53000Y-41000D03*
X54000Y-41000D03*
X53500Y-41000D03*
X54500Y-41000D03*
X55000Y-41500D03*
X51000Y-41500D03*
X51000Y-45000D03*
X51000Y-44500D03*
X51000Y-42000D03*
X51000Y-42500D03*
X51000Y-43000D03*
X51000Y-43500D03*
X51000Y-44000D03*
X51500Y-45000D03*
X51500Y-44500D03*
X51500Y-44000D03*
X51500Y-43500D03*
X51500Y-43000D03*
X51500Y-42500D03*
X51500Y-41500D03*
X52000Y-41500D03*
X51500Y-42000D03*
X53500Y-41500D03*
X53000Y-41500D03*
X52500Y-41500D03*
X55000Y-42000D03*
X54500Y-41500D03*
X54000Y-41500D03*
X52500Y-42000D03*
X52000Y-42000D03*
X52000Y-42500D03*
X53000Y-42000D03*
X52500Y-42500D03*
X53500Y-42000D03*
X53000Y-42500D03*
X52000Y-43000D03*
X54500Y-42000D03*
X54000Y-42000D03*
X53500Y-42500D03*
X52500Y-43000D03*
X52000Y-43500D03*
X52000Y-44000D03*
X52000Y-44500D03*
X52000Y-45000D03*
X54000Y-42500D03*
X54500Y-42500D03*
X60500Y-44000D03*
X61000Y-44000D03*
X61000Y-45000D03*
X61000Y-44500D03*
X60500Y-45000D03*
X60500Y-44500D03*
X60000Y-42500D03*
X59500Y-42500D03*
X52500Y-43500D03*
X53000Y-43000D03*
X52500Y-45000D03*
X52500Y-44500D03*
X52500Y-44000D03*
X53000Y-43500D03*
X53000Y-44000D03*
X53000Y-44500D03*
X53000Y-45000D03*
X53500Y-45000D03*
X55000Y-45000D03*
X54500Y-45000D03*
X54000Y-45000D03*
X53500Y-44500D03*
X53500Y-44000D03*
X53500Y-43500D03*
X53500Y-43000D03*
X54000Y-43000D03*
X54000Y-44500D03*
X54000Y-44000D03*
X54000Y-43500D03*
X54500Y-44500D03*
X54500Y-44000D03*
X55000Y-42500D03*
X55500Y-42500D03*
X54500Y-43500D03*
X54500Y-43000D03*
X55000Y-44500D03*
X55000Y-44000D03*
X55000Y-43500D03*
X55000Y-43000D03*
X56000Y-42500D03*
X60000Y-45000D03*
X55500Y-45000D03*
X56000Y-45000D03*
X56500Y-45000D03*
X57000Y-45000D03*
X57500Y-45000D03*
X60000Y-44500D03*
X60000Y-43000D03*
X59500Y-43500D03*
X60000Y-43500D03*
X60000Y-44000D03*
X59500Y-43000D03*
X59500Y-44500D03*
X59500Y-44000D03*
X59500Y-45000D03*
X59000Y-42500D03*
X58500Y-42500D03*
X58000Y-42500D03*
X57500Y-42500D03*
X57000Y-42500D03*
X56500Y-42500D03*
X59000Y-44000D03*
X59000Y-43000D03*
X59000Y-43500D03*
X59000Y-44500D03*
X59000Y-45000D03*
X58500Y-45000D03*
X58500Y-44500D03*
X58500Y-43500D03*
X58500Y-44000D03*
X58500Y-43000D03*
X58000Y-43000D03*
X55500Y-43000D03*
X55500Y-43500D03*
X55500Y-44500D03*
X55500Y-44000D03*
X56000Y-43000D03*
X56000Y-43500D03*
X56000Y-44000D03*
X56000Y-44500D03*
X56500Y-43000D03*
X57000Y-43000D03*
X57500Y-43000D03*
X56500Y-43500D03*
X56500Y-44000D03*
X56500Y-44500D03*
X57000Y-43500D03*
X58000Y-43500D03*
X57500Y-43500D03*
X58000Y-44000D03*
X57000Y-44000D03*
X57500Y-44000D03*
X57000Y-44500D03*
X57500Y-44500D03*
X58000Y-44500D03*
X58000Y-45000D03*
M02*
