G04 (created by PCBNEW (2013-mar-13)-testing) date Sat 04 Jan 2014 11:19:26 PM CET*
%MOIN*%
G04 Gerber Fmt 3.4, Leading zero omitted, Abs format*
%FSLAX34Y34*%
G01*
G70*
G90*
G04 APERTURE LIST*
%ADD10C,0.005906*%
%ADD11R,0.022800X0.047200*%
%ADD12R,0.078700X0.078700*%
%ADD13R,0.039400X0.039400*%
%ADD14R,0.027000X0.141732*%
%ADD15C,0.118110*%
%ADD16C,0.012000*%
G04 APERTURE END LIST*
G54D10*
G54D11*
X51126Y-37933D03*
X51500Y-37933D03*
X51874Y-37933D03*
X51874Y-37067D03*
X51500Y-37067D03*
X51126Y-37067D03*
X60126Y-37933D03*
X60500Y-37933D03*
X60874Y-37933D03*
X60874Y-37067D03*
X60500Y-37067D03*
X60126Y-37067D03*
X67626Y-37933D03*
X68000Y-37933D03*
X68374Y-37933D03*
X68374Y-37067D03*
X68000Y-37067D03*
X67626Y-37067D03*
X66126Y-37933D03*
X66500Y-37933D03*
X66874Y-37933D03*
X66874Y-37067D03*
X66500Y-37067D03*
X66126Y-37067D03*
X64626Y-37933D03*
X65000Y-37933D03*
X65374Y-37933D03*
X65374Y-37067D03*
X65000Y-37067D03*
X64626Y-37067D03*
X63126Y-37933D03*
X63500Y-37933D03*
X63874Y-37933D03*
X63874Y-37067D03*
X63500Y-37067D03*
X63126Y-37067D03*
X61626Y-37933D03*
X62000Y-37933D03*
X62374Y-37933D03*
X62374Y-37067D03*
X62000Y-37067D03*
X61626Y-37067D03*
X58626Y-37933D03*
X59000Y-37933D03*
X59374Y-37933D03*
X59374Y-37067D03*
X59000Y-37067D03*
X58626Y-37067D03*
X57126Y-37933D03*
X57500Y-37933D03*
X57874Y-37933D03*
X57874Y-37067D03*
X57500Y-37067D03*
X57126Y-37067D03*
X55626Y-37933D03*
X56000Y-37933D03*
X56374Y-37933D03*
X56374Y-37067D03*
X56000Y-37067D03*
X55626Y-37067D03*
X54126Y-37933D03*
X54500Y-37933D03*
X54874Y-37933D03*
X54874Y-37067D03*
X54500Y-37067D03*
X54126Y-37067D03*
X52626Y-37933D03*
X53000Y-37933D03*
X53374Y-37933D03*
X53374Y-37067D03*
X53000Y-37067D03*
X52626Y-37067D03*
G54D12*
X53000Y-28000D03*
X54000Y-28000D03*
X55000Y-28000D03*
X56000Y-28000D03*
X57000Y-28000D03*
X58000Y-28000D03*
X59000Y-28000D03*
X60000Y-28000D03*
X61000Y-28000D03*
X62000Y-28000D03*
X63000Y-28000D03*
X64000Y-28000D03*
X65000Y-28000D03*
X66000Y-28000D03*
X67000Y-28000D03*
X63000Y-46000D03*
X64000Y-46000D03*
X62000Y-46000D03*
X61000Y-46000D03*
X60000Y-46000D03*
X59000Y-46000D03*
X58000Y-46000D03*
X53000Y-46000D03*
X54000Y-46000D03*
X55000Y-46000D03*
X56000Y-46000D03*
X57000Y-46000D03*
X65000Y-46000D03*
X66000Y-46000D03*
X67000Y-46000D03*
G54D13*
X51500Y-44500D03*
X51000Y-44500D03*
X51000Y-40000D03*
X51500Y-30500D03*
X51000Y-30500D03*
X52000Y-30500D03*
X52500Y-30500D03*
X53000Y-30500D03*
X53500Y-30500D03*
X54000Y-30500D03*
X54500Y-30500D03*
X55000Y-30500D03*
X55500Y-30500D03*
X57000Y-30500D03*
X57500Y-30500D03*
X58000Y-30500D03*
X58500Y-30500D03*
X59000Y-30500D03*
X59500Y-30500D03*
X60000Y-30500D03*
X60500Y-30500D03*
X61000Y-30500D03*
X62500Y-30500D03*
X63500Y-30500D03*
X64000Y-30500D03*
X66500Y-30500D03*
X67000Y-30500D03*
X68000Y-30500D03*
X56000Y-30500D03*
X68500Y-30500D03*
X67500Y-30500D03*
X66000Y-30500D03*
X65500Y-30500D03*
X65000Y-30500D03*
X64500Y-30500D03*
X63000Y-30500D03*
X62000Y-30500D03*
X61500Y-30500D03*
X68500Y-30000D03*
X68000Y-30000D03*
X67500Y-30000D03*
X67000Y-30000D03*
X66500Y-30000D03*
X66000Y-30000D03*
X65500Y-30000D03*
X65000Y-30000D03*
X56500Y-30500D03*
X64500Y-30000D03*
X64000Y-30000D03*
X63500Y-30000D03*
X63000Y-30000D03*
X62500Y-30000D03*
X62000Y-30000D03*
X61500Y-30000D03*
X61000Y-30000D03*
X60500Y-30000D03*
X60000Y-30000D03*
X59500Y-30000D03*
X59000Y-30000D03*
X58500Y-30000D03*
X58000Y-30000D03*
X57500Y-30000D03*
X57000Y-30000D03*
X56500Y-30000D03*
X56000Y-30000D03*
X55000Y-30000D03*
X55500Y-30000D03*
X54500Y-30000D03*
X54000Y-30000D03*
X53500Y-30000D03*
X53000Y-30000D03*
X52500Y-30000D03*
X52000Y-30000D03*
X51500Y-30000D03*
X51000Y-30000D03*
X52500Y-45000D03*
X55500Y-45000D03*
X56000Y-45000D03*
X56500Y-45000D03*
X57000Y-45000D03*
X57500Y-45000D03*
X61000Y-45000D03*
X66000Y-45000D03*
X67500Y-45000D03*
X68000Y-45000D03*
X68500Y-45000D03*
X51000Y-45000D03*
X67000Y-45000D03*
X66500Y-45000D03*
X65500Y-45000D03*
X65000Y-45000D03*
X64500Y-45000D03*
X64000Y-45000D03*
X63500Y-45000D03*
X63000Y-45000D03*
X62500Y-45000D03*
X62000Y-45000D03*
X61500Y-45000D03*
X60500Y-45000D03*
X60000Y-45000D03*
X59500Y-45000D03*
X59000Y-45000D03*
X58500Y-45000D03*
X58000Y-45000D03*
X55000Y-45000D03*
X54500Y-45000D03*
X54000Y-45000D03*
X53500Y-45000D03*
X53000Y-45000D03*
X52000Y-45000D03*
X51500Y-45000D03*
X53500Y-44500D03*
X60000Y-44500D03*
X60500Y-44500D03*
X64000Y-44500D03*
X64500Y-44500D03*
X66000Y-44500D03*
X67500Y-44500D03*
X68500Y-44500D03*
X68000Y-44500D03*
X67000Y-44500D03*
X66500Y-44500D03*
X65500Y-44500D03*
X59000Y-44500D03*
X58500Y-44500D03*
X58000Y-44500D03*
X57500Y-44500D03*
X57000Y-44500D03*
X56000Y-44500D03*
X55500Y-44500D03*
X55000Y-44500D03*
X54500Y-44500D03*
X54000Y-44500D03*
X53000Y-44500D03*
X65000Y-44500D03*
X63500Y-44500D03*
X63000Y-44500D03*
X62500Y-44500D03*
X62000Y-44500D03*
X61500Y-44500D03*
X61000Y-44500D03*
X52500Y-44500D03*
X52000Y-44500D03*
X56500Y-44500D03*
X59500Y-44500D03*
G54D14*
X51000Y-39000D03*
X51500Y-39000D03*
X52000Y-39000D03*
X52000Y-36000D03*
X51500Y-36000D03*
X51000Y-36000D03*
X58500Y-39000D03*
X59000Y-39000D03*
X59500Y-39000D03*
X59500Y-36000D03*
X59000Y-36000D03*
X58500Y-36000D03*
X57000Y-39000D03*
X57500Y-39000D03*
X58000Y-39000D03*
X58000Y-36000D03*
X57500Y-36000D03*
X57000Y-36000D03*
X60000Y-39000D03*
X60500Y-39000D03*
X61000Y-39000D03*
X61000Y-36000D03*
X60500Y-36000D03*
X60000Y-36000D03*
X52500Y-39000D03*
X53000Y-39000D03*
X53500Y-39000D03*
X53500Y-36000D03*
X53000Y-36000D03*
X52500Y-36000D03*
X61500Y-39000D03*
X62000Y-39000D03*
X62500Y-39000D03*
X62500Y-36000D03*
X62000Y-36000D03*
X61500Y-36000D03*
X63000Y-39000D03*
X63500Y-39000D03*
X64000Y-39000D03*
X64000Y-36000D03*
X63500Y-36000D03*
X63000Y-36000D03*
X55500Y-39000D03*
X56000Y-39000D03*
X56500Y-39000D03*
X56500Y-36000D03*
X56000Y-36000D03*
X55500Y-36000D03*
X64500Y-39000D03*
X65000Y-39000D03*
X65500Y-39000D03*
X65500Y-36000D03*
X65000Y-36000D03*
X64500Y-36000D03*
X66000Y-39000D03*
X66500Y-39000D03*
X67000Y-39000D03*
X67000Y-36000D03*
X66500Y-36000D03*
X66000Y-36000D03*
X54000Y-39000D03*
X54500Y-39000D03*
X55000Y-39000D03*
X55000Y-36000D03*
X54500Y-36000D03*
X54000Y-36000D03*
X67500Y-39000D03*
X68000Y-39000D03*
X68500Y-39000D03*
X68500Y-36000D03*
X68000Y-36000D03*
X67500Y-36000D03*
G54D15*
X51500Y-46000D03*
X68500Y-46000D03*
X51500Y-28500D03*
X68500Y-28500D03*
G54D13*
X51000Y-40500D03*
X51500Y-40000D03*
X52000Y-40000D03*
X51500Y-40500D03*
X52000Y-40500D03*
X52500Y-40000D03*
X52500Y-40500D03*
X51000Y-41000D03*
X51000Y-41500D03*
X51000Y-42000D03*
X51000Y-42500D03*
X51000Y-43000D03*
X51000Y-43500D03*
X51000Y-44000D03*
X51500Y-41000D03*
X51500Y-41500D03*
X51500Y-42000D03*
X51500Y-42500D03*
X51500Y-43000D03*
X51500Y-43500D03*
X51500Y-44000D03*
X52000Y-44000D03*
X52000Y-43500D03*
X52000Y-43000D03*
X52000Y-42500D03*
X52000Y-42000D03*
X52000Y-41000D03*
X52000Y-41500D03*
X52500Y-41000D03*
X52500Y-41500D03*
X52500Y-44000D03*
X52500Y-43500D03*
X52500Y-43000D03*
X52500Y-42000D03*
X52500Y-42500D03*
X53000Y-40000D03*
X53000Y-40500D03*
X53000Y-41000D03*
X53000Y-41500D03*
X53000Y-42000D03*
X53000Y-42500D03*
X53000Y-43000D03*
X53000Y-43500D03*
X53000Y-44000D03*
X53500Y-44000D03*
X54000Y-44000D03*
X53500Y-43500D03*
X54000Y-43000D03*
X54000Y-43500D03*
X56000Y-41500D03*
X55000Y-42000D03*
X55500Y-42000D03*
X54000Y-40500D03*
X55000Y-40500D03*
X54000Y-41000D03*
X53500Y-42000D03*
X55000Y-41500D03*
X55000Y-41000D03*
X54000Y-40000D03*
X53500Y-40000D03*
X53500Y-40500D03*
X53500Y-41000D03*
X53500Y-41500D03*
X54500Y-42500D03*
X54500Y-41500D03*
X53500Y-43000D03*
X53500Y-42500D03*
X54000Y-42500D03*
X54000Y-42000D03*
X54000Y-41500D03*
X54500Y-42000D03*
X54500Y-40000D03*
X54500Y-40500D03*
X54500Y-41000D03*
X55000Y-40000D03*
X55500Y-40000D03*
X55500Y-40500D03*
X55500Y-41000D03*
X54500Y-43000D03*
X54500Y-43500D03*
X54500Y-44000D03*
X55000Y-42500D03*
X55500Y-42500D03*
X55500Y-43000D03*
X55000Y-43000D03*
X55500Y-43500D03*
X55000Y-43500D03*
X55500Y-44000D03*
X55000Y-44000D03*
X56000Y-44000D03*
X56000Y-43500D03*
X56000Y-42000D03*
X56000Y-42500D03*
X56000Y-43000D03*
X56000Y-40000D03*
X56000Y-40500D03*
X56000Y-41000D03*
X56500Y-44000D03*
X56500Y-43500D03*
X56500Y-43000D03*
X56500Y-42500D03*
X56500Y-42000D03*
X56500Y-41500D03*
X56500Y-40000D03*
X56500Y-40500D03*
X56500Y-41000D03*
X57000Y-40000D03*
X57000Y-40500D03*
X57000Y-41000D03*
X57000Y-41500D03*
X57000Y-42000D03*
X57000Y-42500D03*
X57000Y-43000D03*
X57000Y-43500D03*
X57000Y-44000D03*
X57500Y-44000D03*
X57500Y-43500D03*
X57500Y-43000D03*
X57500Y-42500D03*
X57500Y-42000D03*
X57500Y-41500D03*
X57500Y-41000D03*
X57500Y-40500D03*
X57500Y-40000D03*
X58000Y-40000D03*
X58000Y-40500D03*
X58000Y-41000D03*
X58000Y-41500D03*
X58000Y-42000D03*
X58000Y-42500D03*
X58000Y-43000D03*
X58000Y-43500D03*
X58000Y-44000D03*
X58500Y-44000D03*
X58500Y-43500D03*
X58500Y-43000D03*
X58500Y-42500D03*
X58500Y-42000D03*
X58500Y-41500D03*
X58500Y-41000D03*
X58500Y-40500D03*
X58500Y-40000D03*
X59000Y-43500D03*
X59000Y-44000D03*
X59000Y-43000D03*
X59500Y-42500D03*
X59000Y-42000D03*
X55500Y-41500D03*
X59000Y-41500D03*
X59000Y-41000D03*
X59000Y-40500D03*
X59000Y-40000D03*
X59500Y-44000D03*
X60000Y-44000D03*
X59500Y-43500D03*
X60000Y-43500D03*
X59500Y-43000D03*
X60000Y-43000D03*
X59000Y-42500D03*
X60000Y-42500D03*
X59500Y-42000D03*
X60000Y-42000D03*
X59500Y-41500D03*
X60000Y-41500D03*
X59500Y-41000D03*
X60000Y-41000D03*
X59500Y-40500D03*
X60000Y-40500D03*
X59500Y-40000D03*
X60000Y-40000D03*
X60500Y-44000D03*
X60500Y-43500D03*
X61000Y-44000D03*
X60500Y-43000D03*
X61000Y-43500D03*
X60500Y-42500D03*
X61500Y-44000D03*
X68500Y-44000D03*
X68500Y-40000D03*
X68500Y-40500D03*
X68000Y-40000D03*
X68000Y-40500D03*
X67500Y-40000D03*
X67500Y-40500D03*
X67000Y-40000D03*
X67000Y-40500D03*
X66500Y-40000D03*
X66500Y-40500D03*
X68500Y-41000D03*
X66000Y-42000D03*
X68500Y-42000D03*
X68500Y-42500D03*
X69000Y-31000D03*
X68500Y-43000D03*
X68500Y-43500D03*
X68000Y-41500D03*
X68000Y-42500D03*
X67500Y-42000D03*
X67500Y-42500D03*
X67500Y-41000D03*
X67500Y-41500D03*
X69000Y-32500D03*
X67000Y-41000D03*
X67000Y-41500D03*
X66500Y-41000D03*
X66500Y-41500D03*
X66500Y-42000D03*
X67000Y-42000D03*
X66500Y-42500D03*
X67000Y-42500D03*
X69000Y-37000D03*
X69000Y-35500D03*
X69000Y-34000D03*
X68000Y-43000D03*
X67500Y-43000D03*
X68000Y-43500D03*
X67500Y-43500D03*
X68000Y-44000D03*
X67500Y-44000D03*
X67000Y-43000D03*
X66500Y-43000D03*
X66000Y-40000D03*
X66000Y-40500D03*
X66000Y-41000D03*
X65500Y-41000D03*
X66000Y-41500D03*
X65500Y-41500D03*
X68500Y-41500D03*
X65500Y-42000D03*
X65500Y-40500D03*
X65500Y-40000D03*
X66000Y-42500D03*
X65500Y-42500D03*
X69000Y-40000D03*
X69000Y-38500D03*
X67000Y-43500D03*
X67000Y-44000D03*
X66500Y-43500D03*
X66500Y-44000D03*
X66000Y-43000D03*
X65500Y-43000D03*
X66000Y-44000D03*
X66000Y-43500D03*
X65500Y-44000D03*
X65500Y-43500D03*
X65000Y-40000D03*
X65000Y-40500D03*
X64500Y-40000D03*
X64500Y-40500D03*
X64000Y-40000D03*
X63500Y-40000D03*
X63000Y-40000D03*
X62500Y-40000D03*
X62000Y-40000D03*
X61000Y-40000D03*
X60500Y-40000D03*
X61500Y-40000D03*
X60500Y-40500D03*
X60500Y-41000D03*
X60500Y-41500D03*
X61000Y-40500D03*
X61000Y-41000D03*
X61500Y-40500D03*
X62000Y-40500D03*
X61500Y-41000D03*
X61000Y-41500D03*
X62500Y-40500D03*
X64000Y-40500D03*
X63500Y-40500D03*
X63000Y-40500D03*
X62000Y-41000D03*
X61500Y-41500D03*
X60500Y-42000D03*
X61000Y-42000D03*
X61000Y-42500D03*
X61000Y-43000D03*
X61500Y-42000D03*
X61500Y-42500D03*
X61500Y-43000D03*
X61500Y-43500D03*
X62500Y-41000D03*
X62000Y-41500D03*
X63000Y-41000D03*
X63500Y-41000D03*
X64500Y-41000D03*
X65000Y-41000D03*
X64000Y-41000D03*
X65000Y-41500D03*
X64500Y-41500D03*
X64000Y-41500D03*
X63500Y-41500D03*
X62500Y-41500D03*
X63000Y-41500D03*
X65000Y-42000D03*
X64500Y-42000D03*
X63500Y-42000D03*
X64000Y-42000D03*
X68000Y-41000D03*
X62000Y-42000D03*
X62500Y-42000D03*
X63000Y-42000D03*
X62000Y-42500D03*
X62500Y-42500D03*
X63000Y-42500D03*
X64000Y-42500D03*
X63500Y-42500D03*
X64500Y-42500D03*
X65000Y-42500D03*
X68000Y-42000D03*
X69000Y-41500D03*
X62000Y-44000D03*
X62000Y-43500D03*
X62000Y-43000D03*
X62500Y-43000D03*
X63000Y-44000D03*
X62500Y-44000D03*
X62500Y-43500D03*
X63500Y-43500D03*
X63000Y-43500D03*
X63000Y-43000D03*
X69000Y-45000D03*
X69000Y-44500D03*
X69000Y-43000D03*
X65000Y-43000D03*
X65000Y-44000D03*
X65000Y-43500D03*
X63500Y-43000D03*
X64500Y-43000D03*
X64000Y-43000D03*
X64500Y-43500D03*
X64000Y-44000D03*
X64000Y-43500D03*
X64500Y-44000D03*
X63500Y-44000D03*
X51000Y-31000D03*
X51500Y-31000D03*
X52000Y-31000D03*
X52500Y-31000D03*
X53000Y-31000D03*
X53500Y-31000D03*
X54000Y-31000D03*
X54500Y-31000D03*
X55000Y-31000D03*
X55500Y-31000D03*
X56000Y-31000D03*
X56500Y-31000D03*
X57000Y-31000D03*
X57500Y-31000D03*
X58000Y-31000D03*
X58500Y-31000D03*
X59000Y-31000D03*
X59500Y-31000D03*
X55500Y-31500D03*
X55000Y-31500D03*
X54500Y-31500D03*
X54000Y-31500D03*
X53500Y-31500D03*
X53000Y-31500D03*
X52500Y-31500D03*
X51500Y-31500D03*
X52000Y-31500D03*
X51000Y-31500D03*
X51000Y-32000D03*
X51000Y-32500D03*
X51000Y-33000D03*
X51500Y-32000D03*
X51000Y-35000D03*
X51000Y-34000D03*
X51000Y-33500D03*
X51000Y-34500D03*
X52000Y-32000D03*
X52500Y-32000D03*
X53000Y-32000D03*
X53500Y-32000D03*
X54000Y-32000D03*
X54500Y-32000D03*
X51500Y-32500D03*
X52000Y-32500D03*
X53000Y-32500D03*
X52500Y-32500D03*
X53500Y-32500D03*
X51500Y-33000D03*
X51500Y-35000D03*
X51500Y-34000D03*
X51500Y-33500D03*
X52000Y-34500D03*
X51500Y-34500D03*
X52000Y-33000D03*
X52000Y-33500D03*
X52000Y-34000D03*
X52000Y-35000D03*
X52500Y-33000D03*
X52500Y-33500D03*
X52500Y-34000D03*
X53000Y-33000D03*
X53500Y-33000D03*
X52500Y-35000D03*
X52500Y-34500D03*
X53000Y-35000D03*
X53000Y-34500D03*
X53000Y-33500D03*
X53000Y-34000D03*
X54000Y-35000D03*
X53500Y-35000D03*
X53500Y-34500D03*
X53500Y-34000D03*
X53500Y-33500D03*
X54000Y-32500D03*
X54000Y-33000D03*
X54000Y-33500D03*
X54000Y-34000D03*
X54000Y-34500D03*
X55000Y-32000D03*
X61000Y-31000D03*
X60500Y-31000D03*
X60000Y-31000D03*
X60000Y-31500D03*
X59000Y-31500D03*
X59500Y-31500D03*
X58500Y-31500D03*
X58000Y-31500D03*
X56500Y-31500D03*
X55500Y-32500D03*
X56000Y-33000D03*
X57000Y-32500D03*
X58500Y-33000D03*
X55500Y-34000D03*
X57000Y-34000D03*
X58000Y-34500D03*
X58500Y-34000D03*
X56000Y-31500D03*
X57500Y-31500D03*
X57000Y-31500D03*
X55500Y-32000D03*
X56000Y-32000D03*
X57500Y-32000D03*
X54500Y-35000D03*
X54500Y-32500D03*
X56500Y-32000D03*
X57000Y-32000D03*
X54500Y-33500D03*
X55000Y-35000D03*
X61000Y-35000D03*
X60500Y-35000D03*
X60000Y-35000D03*
X59500Y-35000D03*
X59000Y-35000D03*
X58500Y-35000D03*
X58000Y-35000D03*
X57500Y-35000D03*
X57000Y-35000D03*
X56500Y-35000D03*
X56000Y-35000D03*
X55500Y-35000D03*
X54500Y-34500D03*
X61000Y-34500D03*
X60500Y-34500D03*
X60000Y-34500D03*
X59500Y-34000D03*
X59500Y-34500D03*
X59000Y-34500D03*
X58500Y-34500D03*
X58000Y-34000D03*
X59000Y-34000D03*
X57500Y-34500D03*
X57000Y-34500D03*
X56500Y-34500D03*
X56000Y-34500D03*
X55500Y-34500D03*
X55000Y-34500D03*
X55000Y-34000D03*
X54500Y-34000D03*
X56000Y-34000D03*
X56500Y-34000D03*
X57500Y-34000D03*
X55000Y-33500D03*
X55500Y-33500D03*
X56000Y-33500D03*
X56500Y-33500D03*
X57000Y-33500D03*
X57500Y-33500D03*
X54500Y-33000D03*
X55000Y-33000D03*
X55000Y-32500D03*
X55500Y-33000D03*
X56000Y-32500D03*
X56500Y-33000D03*
X56500Y-32500D03*
X57000Y-33000D03*
X57500Y-33000D03*
X57500Y-32500D03*
X58000Y-32000D03*
X58000Y-32500D03*
X58000Y-33000D03*
X58000Y-33500D03*
X58500Y-33500D03*
X58500Y-32000D03*
X59000Y-32000D03*
X60000Y-32000D03*
X59500Y-32000D03*
X58500Y-32500D03*
X59000Y-32500D03*
X59000Y-33000D03*
X59000Y-33500D03*
X59500Y-33500D03*
X60000Y-34000D03*
X59500Y-33000D03*
X59500Y-32500D03*
X60000Y-32500D03*
X60000Y-33000D03*
X60000Y-33500D03*
X60500Y-34000D03*
X60500Y-31500D03*
X61000Y-31500D03*
X60500Y-32000D03*
X61000Y-32000D03*
X60500Y-33500D03*
X60500Y-33000D03*
X60500Y-32500D03*
X61000Y-32500D03*
X61000Y-33000D03*
X61000Y-33500D03*
X61000Y-34000D03*
X61500Y-35000D03*
X61500Y-34500D03*
X61500Y-34000D03*
X61500Y-31000D03*
X61500Y-31500D03*
X61500Y-32000D03*
X61500Y-32500D03*
X61500Y-33500D03*
X61500Y-33000D03*
X62000Y-35000D03*
X62500Y-35000D03*
X63000Y-35000D03*
X63500Y-35000D03*
X64000Y-35000D03*
X64500Y-35000D03*
X62000Y-34500D03*
X62000Y-31000D03*
X62000Y-31500D03*
X62000Y-32000D03*
X62000Y-32500D03*
X62000Y-33000D03*
X62000Y-33500D03*
X62000Y-34000D03*
X62500Y-31000D03*
X62500Y-31500D03*
X62500Y-32000D03*
X62500Y-32500D03*
X62500Y-33000D03*
X62500Y-33500D03*
X63000Y-34000D03*
X62500Y-34000D03*
X62500Y-34500D03*
X63000Y-34500D03*
X63000Y-33500D03*
X63000Y-33000D03*
X63000Y-32500D03*
X63000Y-32000D03*
X63000Y-31000D03*
X63000Y-31500D03*
X63500Y-31000D03*
X63500Y-31500D03*
X63500Y-32000D03*
X63500Y-33000D03*
X63500Y-32500D03*
X63500Y-33500D03*
X63500Y-34000D03*
X63500Y-34500D03*
X64000Y-34500D03*
X64000Y-34000D03*
X64000Y-33500D03*
X64000Y-32500D03*
X64000Y-33000D03*
X69000Y-44000D03*
X69000Y-43500D03*
X64000Y-32000D03*
X64000Y-31500D03*
X64000Y-31000D03*
X64500Y-31000D03*
X64500Y-31500D03*
X64500Y-32000D03*
X69000Y-42000D03*
X69000Y-42500D03*
X64500Y-32500D03*
X64500Y-33500D03*
X64500Y-33000D03*
X64500Y-34500D03*
X64500Y-34000D03*
X65000Y-35000D03*
X65000Y-34500D03*
X65000Y-34000D03*
X65000Y-33500D03*
X65500Y-33000D03*
X65000Y-32500D03*
X69000Y-41000D03*
X69000Y-40500D03*
X65000Y-32000D03*
X65000Y-31000D03*
X65000Y-31500D03*
X65500Y-31000D03*
X66000Y-31000D03*
X66500Y-31000D03*
X67000Y-31000D03*
X67500Y-31000D03*
X68500Y-31000D03*
X68000Y-31000D03*
X68500Y-31500D03*
X68000Y-31500D03*
X67500Y-31500D03*
X67000Y-31500D03*
X66500Y-31500D03*
X65500Y-31500D03*
X66000Y-31500D03*
X68500Y-32000D03*
X68000Y-32000D03*
X67500Y-32000D03*
X67000Y-32000D03*
X65500Y-32000D03*
X66000Y-32000D03*
X66500Y-32000D03*
X69000Y-39000D03*
X69000Y-30000D03*
X69000Y-31500D03*
X69000Y-34500D03*
X69000Y-33000D03*
X69000Y-37500D03*
X69000Y-36000D03*
X65500Y-35000D03*
X68500Y-35000D03*
X68000Y-35000D03*
X67500Y-35000D03*
X67000Y-35000D03*
X66500Y-35000D03*
X66000Y-35000D03*
X69000Y-39500D03*
X65500Y-32500D03*
X65000Y-33000D03*
X65500Y-33500D03*
X65500Y-34000D03*
X65500Y-34500D03*
X66000Y-34500D03*
X66000Y-34000D03*
X69000Y-38000D03*
X69000Y-36500D03*
X69000Y-35000D03*
X66000Y-32500D03*
X66000Y-33000D03*
X66000Y-33500D03*
X66500Y-32500D03*
X66500Y-33000D03*
X66500Y-33500D03*
X66500Y-34000D03*
X66500Y-34500D03*
X67000Y-34500D03*
X67000Y-34000D03*
X67000Y-33500D03*
X69000Y-33500D03*
X69000Y-30500D03*
X69000Y-32000D03*
X67000Y-32500D03*
X67000Y-33000D03*
X67500Y-32500D03*
X68000Y-32500D03*
X68500Y-32500D03*
X67500Y-33000D03*
X67500Y-33500D03*
X68000Y-33000D03*
X68000Y-33500D03*
X68500Y-33000D03*
X68500Y-33500D03*
X67500Y-34000D03*
X67500Y-34500D03*
X68000Y-34000D03*
X68500Y-34000D03*
X68500Y-34500D03*
X68000Y-34500D03*
G54D12*
X53000Y-29000D03*
X54000Y-29000D03*
X55000Y-29000D03*
X56000Y-29000D03*
X57000Y-29000D03*
X59000Y-29000D03*
X58000Y-29000D03*
X61000Y-29000D03*
X60000Y-29000D03*
X67000Y-29000D03*
X66000Y-29000D03*
X65000Y-29000D03*
X64000Y-29000D03*
X63000Y-29000D03*
X62000Y-29000D03*
G54D16*
X51874Y-37067D02*
X51874Y-36926D01*
X52000Y-36800D02*
X52000Y-36000D01*
X51874Y-36926D02*
X52000Y-36800D01*
X51126Y-37067D02*
X51126Y-36926D01*
X51000Y-36800D02*
X51000Y-36000D01*
X51126Y-36926D02*
X51000Y-36800D01*
X51500Y-37933D02*
X51500Y-39000D01*
X53374Y-37933D02*
X53374Y-38074D01*
X53500Y-38200D02*
X53500Y-39000D01*
X53374Y-38074D02*
X53500Y-38200D01*
X53000Y-37067D02*
X53000Y-36000D01*
X53000Y-37933D02*
X53000Y-39000D01*
X53374Y-37067D02*
X53374Y-36926D01*
X53500Y-36800D02*
X53500Y-36000D01*
X53374Y-36926D02*
X53500Y-36800D01*
X52626Y-37067D02*
X52626Y-36926D01*
X52500Y-36800D02*
X52500Y-36000D01*
X52626Y-36926D02*
X52500Y-36800D01*
X51126Y-37933D02*
X51126Y-38074D01*
X51000Y-38200D02*
X51000Y-39000D01*
X51126Y-38074D02*
X51000Y-38200D01*
X51874Y-37933D02*
X51874Y-38074D01*
X52000Y-38200D02*
X52000Y-39000D01*
X51874Y-38074D02*
X52000Y-38200D01*
X51500Y-37067D02*
X51500Y-36000D01*
X65000Y-45000D02*
X64500Y-45000D01*
X64500Y-45000D02*
X64000Y-45000D01*
X64000Y-45000D02*
X63500Y-45000D01*
X63500Y-45000D02*
X63000Y-45000D01*
X63000Y-45000D02*
X62500Y-45000D01*
X62500Y-45000D02*
X62000Y-45000D01*
X62000Y-45000D02*
X61500Y-45000D01*
X61500Y-45000D02*
X61000Y-45000D01*
X61000Y-45000D02*
X60500Y-45000D01*
X60500Y-45000D02*
X60000Y-45000D01*
X60000Y-45000D02*
X59500Y-45000D01*
X59500Y-45000D02*
X59000Y-45000D01*
X59000Y-45000D02*
X58500Y-45000D01*
X58500Y-45000D02*
X58000Y-45000D01*
X58000Y-45000D02*
X57500Y-45000D01*
X57500Y-45000D02*
X57000Y-45000D01*
X57000Y-45000D02*
X56500Y-45000D01*
X56500Y-45000D02*
X56000Y-45000D01*
X56000Y-45000D02*
X55500Y-45000D01*
X55500Y-45000D02*
X55000Y-45000D01*
X55000Y-45000D02*
X54500Y-45000D01*
X54500Y-45000D02*
X54000Y-45000D01*
X54000Y-45000D02*
X53500Y-45000D01*
X53500Y-45000D02*
X53000Y-45000D01*
X53000Y-45000D02*
X52500Y-45000D01*
X52500Y-45000D02*
X52000Y-45000D01*
X52000Y-45000D02*
X51500Y-45000D01*
X51500Y-45000D02*
X51000Y-45000D01*
X67000Y-45000D02*
X66500Y-45000D01*
X66500Y-45000D02*
X66000Y-45000D01*
X66000Y-45000D02*
X65500Y-45000D01*
X65500Y-45000D02*
X65000Y-45000D01*
X68500Y-45000D02*
X68000Y-45000D01*
X68000Y-45000D02*
X67500Y-45000D01*
X67500Y-45000D02*
X67000Y-45000D01*
X68500Y-30500D02*
X68000Y-30500D01*
X61000Y-30500D02*
X60500Y-30500D01*
X60500Y-30500D02*
X60000Y-30500D01*
X60000Y-30500D02*
X59500Y-30500D01*
X59500Y-30500D02*
X59000Y-30500D01*
X59000Y-30500D02*
X58500Y-30500D01*
X58500Y-30500D02*
X58000Y-30500D01*
X58000Y-30500D02*
X57500Y-30500D01*
X57500Y-30500D02*
X57000Y-30500D01*
X57000Y-30500D02*
X56500Y-30500D01*
X56500Y-30500D02*
X56000Y-30500D01*
X56000Y-30500D02*
X55500Y-30500D01*
X55500Y-30500D02*
X55000Y-30500D01*
X55000Y-30500D02*
X54500Y-30500D01*
X54500Y-30500D02*
X54000Y-30500D01*
X54000Y-30500D02*
X53500Y-30500D01*
X53500Y-30500D02*
X53000Y-30500D01*
X53000Y-30500D02*
X52500Y-30500D01*
X52500Y-30500D02*
X52000Y-30500D01*
X52000Y-30500D02*
X51500Y-30500D01*
X51500Y-30500D02*
X51000Y-30500D01*
X68000Y-30500D02*
X67500Y-30500D01*
X67500Y-30500D02*
X67000Y-30500D01*
X67000Y-30500D02*
X66500Y-30500D01*
X66500Y-30500D02*
X66000Y-30500D01*
X66000Y-30500D02*
X65500Y-30500D01*
X65500Y-30500D02*
X65000Y-30500D01*
X65000Y-30500D02*
X64500Y-30500D01*
X64500Y-30500D02*
X64000Y-30500D01*
X64000Y-30500D02*
X63500Y-30500D01*
X63500Y-30500D02*
X63000Y-30500D01*
X63000Y-30500D02*
X62500Y-30500D01*
X62500Y-30500D02*
X62000Y-30500D01*
X62000Y-30500D02*
X61500Y-30500D01*
X61500Y-30500D02*
X61000Y-30500D01*
X62000Y-30000D02*
X62500Y-30000D01*
X62500Y-30000D02*
X63000Y-30000D01*
X63000Y-30000D02*
X63500Y-30000D01*
X63500Y-30000D02*
X64000Y-30000D01*
X64000Y-30000D02*
X64500Y-30000D01*
X64500Y-30000D02*
X65000Y-30000D01*
X65000Y-30000D02*
X65500Y-30000D01*
X65500Y-30000D02*
X66000Y-30000D01*
X66000Y-30000D02*
X66500Y-30000D01*
X66500Y-30000D02*
X67000Y-30000D01*
X67000Y-30000D02*
X67500Y-30000D01*
X67500Y-30000D02*
X68000Y-30000D01*
X68000Y-30000D02*
X68500Y-30000D01*
X52500Y-30000D02*
X53000Y-30000D01*
X53000Y-30000D02*
X53500Y-30000D01*
X53500Y-30000D02*
X54000Y-30000D01*
X54000Y-30000D02*
X54500Y-30000D01*
X54500Y-30000D02*
X55000Y-30000D01*
X55000Y-30000D02*
X55500Y-30000D01*
X55500Y-30000D02*
X56000Y-30000D01*
X56000Y-30000D02*
X56500Y-30000D01*
X56500Y-30000D02*
X57000Y-30000D01*
X57000Y-30000D02*
X57500Y-30000D01*
X57500Y-30000D02*
X58000Y-30000D01*
X58000Y-30000D02*
X58500Y-30000D01*
X58500Y-30000D02*
X59000Y-30000D01*
X59000Y-30000D02*
X59500Y-30000D01*
X59500Y-30000D02*
X60000Y-30000D01*
X60000Y-30000D02*
X60500Y-30000D01*
X60500Y-30000D02*
X61000Y-30000D01*
X61000Y-30000D02*
X61500Y-30000D01*
X61500Y-30000D02*
X62000Y-30000D01*
X51000Y-30000D02*
X51500Y-30000D01*
X51500Y-30000D02*
X52000Y-30000D01*
X52000Y-30000D02*
X52500Y-30000D01*
X60500Y-37933D02*
X60500Y-39000D01*
X60874Y-37067D02*
X60874Y-36926D01*
X61000Y-36800D02*
X61000Y-36000D01*
X60874Y-36926D02*
X61000Y-36800D01*
X60000Y-36800D02*
X60000Y-36000D01*
X60126Y-37067D02*
X60126Y-36926D01*
X60126Y-36926D02*
X60000Y-36800D01*
X58626Y-37933D02*
X58626Y-38074D01*
X58500Y-38200D02*
X58500Y-39000D01*
X58626Y-38074D02*
X58500Y-38200D01*
X59500Y-38200D02*
X59500Y-39000D01*
X59374Y-38074D02*
X59500Y-38200D01*
X59374Y-37933D02*
X59374Y-38074D01*
X59374Y-37067D02*
X59374Y-36926D01*
X59500Y-36800D02*
X59500Y-36000D01*
X59374Y-36926D02*
X59500Y-36800D01*
X59000Y-37067D02*
X59000Y-36000D01*
X58626Y-37067D02*
X58626Y-36926D01*
X58500Y-36800D02*
X58500Y-36000D01*
X58626Y-36926D02*
X58500Y-36800D01*
X61626Y-37933D02*
X61626Y-38074D01*
X61500Y-38200D02*
X61500Y-39000D01*
X61626Y-38074D02*
X61500Y-38200D01*
X62374Y-37933D02*
X62374Y-38074D01*
X62500Y-38200D02*
X62500Y-39000D01*
X62374Y-38074D02*
X62500Y-38200D01*
X62000Y-37067D02*
X62000Y-36000D01*
X62000Y-37933D02*
X62000Y-39000D01*
X62374Y-37067D02*
X62374Y-36926D01*
X62500Y-36800D02*
X62500Y-36000D01*
X62374Y-36926D02*
X62500Y-36800D01*
X61626Y-37067D02*
X61626Y-36926D01*
X61500Y-36800D02*
X61500Y-36000D01*
X61626Y-36926D02*
X61500Y-36800D01*
X60000Y-38200D02*
X60000Y-39000D01*
X60126Y-37933D02*
X60126Y-38074D01*
X60126Y-38074D02*
X60000Y-38200D01*
X60874Y-37933D02*
X60874Y-38074D01*
X61000Y-38200D02*
X61000Y-39000D01*
X60874Y-38074D02*
X61000Y-38200D01*
X60500Y-37067D02*
X60500Y-36000D01*
X54500Y-37067D02*
X54500Y-36000D01*
X56000Y-37933D02*
X56000Y-39000D01*
X56374Y-37067D02*
X56374Y-36926D01*
X56500Y-36800D02*
X56500Y-36000D01*
X56374Y-36926D02*
X56500Y-36800D01*
X55626Y-37067D02*
X55626Y-36926D01*
X55500Y-36800D02*
X55500Y-36000D01*
X55626Y-36926D02*
X55500Y-36800D01*
X54126Y-37933D02*
X54126Y-38074D01*
X54000Y-38200D02*
X54000Y-39000D01*
X54126Y-38074D02*
X54000Y-38200D01*
X54874Y-37933D02*
X54874Y-38074D01*
X55000Y-38200D02*
X55000Y-39000D01*
X54874Y-38074D02*
X55000Y-38200D01*
X54500Y-37933D02*
X54500Y-39000D01*
X54874Y-37067D02*
X54874Y-36926D01*
X55000Y-36800D02*
X55000Y-36000D01*
X54874Y-36926D02*
X55000Y-36800D01*
X54126Y-37067D02*
X54126Y-36926D01*
X54000Y-36800D02*
X54000Y-36000D01*
X54126Y-36926D02*
X54000Y-36800D01*
X52626Y-37933D02*
X52626Y-38074D01*
X52500Y-38200D02*
X52500Y-39000D01*
X52626Y-38074D02*
X52500Y-38200D01*
X57874Y-37933D02*
X57874Y-38074D01*
X58000Y-38200D02*
X58000Y-39000D01*
X57874Y-38074D02*
X58000Y-38200D01*
X57874Y-37067D02*
X57874Y-36926D01*
X58000Y-36800D02*
X58000Y-36000D01*
X57874Y-36926D02*
X58000Y-36800D01*
X57500Y-37067D02*
X57500Y-36000D01*
X57500Y-37933D02*
X57500Y-39000D01*
X63126Y-37067D02*
X63126Y-36926D01*
X63000Y-36800D02*
X63000Y-36000D01*
X63126Y-36926D02*
X63000Y-36800D01*
X57000Y-36800D02*
X57000Y-36000D01*
X57126Y-37067D02*
X57126Y-36926D01*
X57126Y-36926D02*
X57000Y-36800D01*
X55626Y-37933D02*
X55626Y-38074D01*
X55500Y-38200D02*
X55500Y-39000D01*
X55626Y-38074D02*
X55500Y-38200D01*
X56374Y-37933D02*
X56374Y-38074D01*
X56500Y-38200D02*
X56500Y-39000D01*
X56374Y-38074D02*
X56500Y-38200D01*
X68000Y-44500D02*
X68500Y-44500D01*
X67500Y-44500D02*
X68000Y-44500D01*
X67000Y-44500D02*
X67500Y-44500D01*
X66500Y-44500D02*
X67000Y-44500D01*
X66000Y-44500D02*
X66500Y-44500D01*
X65500Y-44500D02*
X66000Y-44500D01*
X65000Y-44500D02*
X65500Y-44500D01*
X64500Y-44500D02*
X65000Y-44500D01*
X64000Y-44500D02*
X64500Y-44500D01*
X63500Y-44500D02*
X64000Y-44500D01*
X63000Y-44500D02*
X63500Y-44500D01*
X62500Y-44500D02*
X63000Y-44500D01*
X62000Y-44500D02*
X62500Y-44500D01*
X61500Y-44500D02*
X62000Y-44500D01*
X61000Y-44500D02*
X61500Y-44500D01*
X60500Y-44500D02*
X61000Y-44500D01*
X60000Y-44500D02*
X60500Y-44500D01*
X59500Y-44500D02*
X60000Y-44500D01*
X59000Y-44500D02*
X59500Y-44500D01*
X58500Y-44500D02*
X59000Y-44500D01*
X58000Y-44500D02*
X58500Y-44500D01*
X57500Y-44500D02*
X58000Y-44500D01*
X57000Y-44500D02*
X57500Y-44500D01*
X56500Y-44500D02*
X57000Y-44500D01*
X56000Y-44500D02*
X56500Y-44500D01*
X55500Y-44500D02*
X56000Y-44500D01*
X55000Y-44500D02*
X55500Y-44500D01*
X54500Y-44500D02*
X55000Y-44500D01*
X54000Y-44500D02*
X54500Y-44500D01*
X53500Y-44500D02*
X54000Y-44500D01*
X53000Y-44500D02*
X53500Y-44500D01*
X52500Y-44500D02*
X53000Y-44500D01*
X52000Y-44500D02*
X52500Y-44500D01*
X51500Y-44500D02*
X52000Y-44500D01*
X51000Y-44500D02*
X51500Y-44500D01*
X68374Y-37933D02*
X68374Y-38074D01*
X68500Y-38200D02*
X68500Y-39000D01*
X68374Y-38074D02*
X68500Y-38200D01*
X68000Y-37067D02*
X68000Y-36000D01*
X68000Y-39000D02*
X68000Y-37933D01*
X68374Y-37067D02*
X68374Y-36926D01*
X68500Y-36800D02*
X68500Y-36000D01*
X68374Y-36926D02*
X68500Y-36800D01*
X63874Y-37933D02*
X63874Y-38074D01*
X64000Y-38200D02*
X64000Y-39000D01*
X63874Y-38074D02*
X64000Y-38200D01*
X65000Y-37933D02*
X65000Y-39000D01*
X65374Y-37067D02*
X65374Y-36926D01*
X65500Y-36800D02*
X65500Y-36000D01*
X65374Y-36926D02*
X65500Y-36800D01*
X64626Y-37067D02*
X64626Y-36926D01*
X64500Y-36800D02*
X64500Y-36000D01*
X64626Y-36926D02*
X64500Y-36800D01*
X63126Y-37933D02*
X63126Y-38074D01*
X63000Y-38200D02*
X63000Y-39000D01*
X63126Y-38074D02*
X63000Y-38200D01*
X65000Y-37067D02*
X65000Y-36000D01*
X63500Y-37067D02*
X63500Y-36000D01*
X63500Y-37933D02*
X63500Y-39000D01*
X63874Y-37067D02*
X63874Y-36926D01*
X64000Y-36800D02*
X64000Y-36000D01*
X63874Y-36926D02*
X64000Y-36800D01*
X67626Y-37067D02*
X67626Y-36926D01*
X67500Y-36800D02*
X67500Y-36000D01*
X67626Y-36926D02*
X67500Y-36800D01*
X66126Y-37933D02*
X66126Y-38074D01*
X66000Y-38200D02*
X66000Y-39000D01*
X66126Y-38074D02*
X66000Y-38200D01*
X67000Y-38200D02*
X67000Y-39000D01*
X66874Y-38074D02*
X67000Y-38200D01*
X66874Y-37933D02*
X66874Y-38074D01*
X67000Y-36800D02*
X67000Y-36000D01*
X66874Y-36926D02*
X67000Y-36800D01*
X66874Y-37067D02*
X66874Y-36926D01*
X66126Y-37067D02*
X66126Y-36926D01*
X66000Y-36800D02*
X66000Y-36000D01*
X66126Y-36926D02*
X66000Y-36800D01*
X64626Y-37933D02*
X64626Y-38074D01*
X64500Y-38200D02*
X64500Y-39000D01*
X64626Y-38074D02*
X64500Y-38200D01*
X65374Y-37933D02*
X65374Y-38074D01*
X65500Y-38200D02*
X65500Y-39000D01*
X65374Y-38074D02*
X65500Y-38200D01*
X59000Y-37933D02*
X59000Y-39000D01*
X57000Y-38200D02*
X57000Y-39000D01*
X57126Y-37933D02*
X57126Y-38074D01*
X57126Y-38074D02*
X57000Y-38200D01*
X56000Y-37067D02*
X56000Y-36000D01*
X66500Y-37933D02*
X66500Y-39000D01*
X66500Y-37067D02*
X66500Y-36000D01*
X67626Y-37933D02*
X67626Y-38074D01*
X67500Y-38200D02*
X67500Y-39000D01*
X67626Y-38074D02*
X67500Y-38200D01*
M02*
